<svg id="wallet" xmlns="http://www.w3.org/2000/svg" width="36" height="36" viewBox="0 0 36 36">
  <path id="Path_3861" data-name="Path 3861" d="M0,0H36V36H0Z" fill="none"/>
  <path id="Path_3862" data-name="Path 3862" d="M23.5,10V5.5A1.5,1.5,0,0,0,22,4H7a3,3,0,0,0,0,6H25a1.5,1.5,0,0,1,1.5,1.5V16m0,6v4.5A1.5,1.5,0,0,1,25,28H7a3,3,0,0,1-3-3V7" transform="translate(2 2)" fill="none" stroke="#ec8f67" stroke-linecap="round" stroke-linejoin="round" stroke-width="3"/>
  <path id="Path_3863" data-name="Path 3863" d="M23,12v6H17a3,3,0,1,1,0-6h6" transform="translate(7 6)" fill="none" stroke="#ec8f67" stroke-linecap="round" stroke-linejoin="round" stroke-width="3"/>
</svg>
