<svg xmlns="http://www.w3.org/2000/svg" width="19.5" height="19.5" viewBox="0 0 19.5 19.5">
  <path id="Path_5465" data-name="Path 5465" d="M199.316,391.781l.73-.171Zm0-5.457.73.171Zm15.473,0,.731-.171Zm0,5.457.731.171Zm-5.008,5.008-.171-.73Zm-5.457,0-.171.731Zm0-15.473-.171-.73Zm5.457,0,.171-.73Zm6.689,18.214a.75.75,0,0,0,1.06-1.06Zm-16.424-7.92a11.187,11.187,0,0,1,0-5.115l-1.46-.342a12.679,12.679,0,0,0,0,5.8Zm14.013-5.115a11.188,11.188,0,0,1,0,5.115l1.461.342a12.706,12.706,0,0,0,0-5.8Zm-4.449,9.564a11.187,11.187,0,0,1-5.115,0l-.342,1.461a12.706,12.706,0,0,0,5.8,0Zm-5.115-14.013a11.188,11.188,0,0,1,5.115,0l.342-1.46a12.679,12.679,0,0,0-5.8,0Zm0,14.013a5.972,5.972,0,0,1-4.449-4.449l-1.46.342a7.47,7.47,0,0,0,5.567,5.568Zm5.457,1.461a7.471,7.471,0,0,0,5.568-5.568l-1.461-.342a5.972,5.972,0,0,1-4.449,4.449Zm-.342-15.474a5.972,5.972,0,0,1,4.449,4.449l1.461-.342a7.47,7.47,0,0,0-5.568-5.567Zm-5.457-1.46a7.468,7.468,0,0,0-5.567,5.567l1.46.342a5.972,5.972,0,0,1,4.449-4.449Zm8.652,15.279,3.665,3.665,1.06-1.06-3.665-3.665Z" transform="translate(-198.25 -380.25)" fill="#2f779c"/>
</svg>
