<svg width="38" height="36" viewBox="0 0 38 36" fill="none" xmlns="http://www.w3.org/2000/svg">
<path d="M22.5 34.582H15.5C8.90075 34.582 5.60025 34.582 3.551 32.5799C1.5 30.5794 1.5 27.3575 1.5 20.9154V17.4987C1.5 11.0566 1.5 7.83466 3.551 5.8342C5.60025 3.83203 8.90075 3.83203 15.5 3.83203H22.5C29.0993 3.83203 32.3998 3.83203 34.449 5.8342C36.5 7.83466 36.5 11.0566 36.5 17.4987V20.9154C36.5 27.3575 36.5 30.5794 34.449 32.5799C33.3063 33.6971 31.775 34.1908 29.5 34.4078M10.25 3.83203V1.26953M27.75 3.83203V1.26953M35.625 12.3737H16.8125M1.5 12.3737H8.28125" stroke="#3C759A" stroke-width="1.5" stroke-linecap="round"/>
<path d="M29.5 26.0417C29.5 26.4947 29.3156 26.9293 28.9874 27.2496C28.6593 27.57 28.2141 27.75 27.75 27.75C27.2859 27.75 26.8407 27.57 26.5126 27.2496C26.1844 26.9293 26 26.4947 26 26.0417C26 25.5886 26.1844 25.1541 26.5126 24.8337C26.8407 24.5133 27.2859 24.3333 27.75 24.3333C28.2141 24.3333 28.6593 24.5133 28.9874 24.8337C29.3156 25.1541 29.5 25.5886 29.5 26.0417ZM29.5 19.2083C29.5 19.6614 29.3156 20.0959 28.9874 20.4163C28.6593 20.7367 28.2141 20.9167 27.75 20.9167C27.2859 20.9167 26.8407 20.7367 26.5126 20.4163C26.1844 20.0959 26 19.6614 26 19.2083C26 18.7553 26.1844 18.3207 26.5126 18.0004C26.8407 17.68 27.2859 17.5 27.75 17.5C28.2141 17.5 28.6593 17.68 28.9874 18.0004C29.3156 18.3207 29.5 18.7553 29.5 19.2083ZM20.75 26.0417C20.75 26.4947 20.5656 26.9293 20.2374 27.2496C19.9092 27.57 19.4641 27.75 19 27.75C18.5359 27.75 18.0908 27.57 17.7626 27.2496C17.4344 26.9293 17.25 26.4947 17.25 26.0417C17.25 25.5886 17.4344 25.1541 17.7626 24.8337C18.0908 24.5133 18.5359 24.3333 19 24.3333C19.4641 24.3333 19.9092 24.5133 20.2374 24.8337C20.5656 25.1541 20.75 25.5886 20.75 26.0417ZM20.75 19.2083C20.75 19.6614 20.5656 20.0959 20.2374 20.4163C19.9092 20.7367 19.4641 20.9167 19 20.9167C18.5359 20.9167 18.0908 20.7367 17.7626 20.4163C17.4344 20.0959 17.25 19.6614 17.25 19.2083C17.25 18.7553 17.4344 18.3207 17.7626 18.0004C18.0908 17.68 18.5359 17.5 19 17.5C19.4641 17.5 19.9092 17.68 20.2374 18.0004C20.5656 18.3207 20.75 18.7553 20.75 19.2083ZM12 26.0417C12 26.4947 11.8156 26.9293 11.4874 27.2496C11.1592 27.57 10.7141 27.75 10.25 27.75C9.78587 27.75 9.34075 27.57 9.01256 27.2496C8.68437 26.9293 8.5 26.4947 8.5 26.0417C8.5 25.5886 8.68437 25.1541 9.01256 24.8337C9.34075 24.5133 9.78587 24.3333 10.25 24.3333C10.7141 24.3333 11.1592 24.5133 11.4874 24.8337C11.8156 25.1541 12 25.5886 12 26.0417ZM12 19.2083C12 19.6614 11.8156 20.0959 11.4874 20.4163C11.1592 20.7367 10.7141 20.9167 10.25 20.9167C9.78587 20.9167 9.34075 20.7367 9.01256 20.4163C8.68437 20.0959 8.5 19.6614 8.5 19.2083C8.5 18.7553 8.68437 18.3207 9.01256 18.0004C9.34075 17.68 9.78587 17.5 10.25 17.5C10.7141 17.5 11.1592 17.68 11.4874 18.0004C11.8156 18.3207 12 18.7553 12 19.2083Z" fill="#3C759A"/>
</svg>
