<svg width="31" height="29" viewBox="0 0 31 29" fill="none" xmlns="http://www.w3.org/2000/svg">
<path d="M27.125 18.125H29.0625V29H1.9375V9.0625H3.875V3.625H5.8125V0H27.125V18.125ZM7.75 1.8125V3.625H23.25V18.125H25.1875V1.8125H7.75ZM5.8125 5.4375V9.0625H11.0649L20.7524 18.125H21.3125V5.4375H5.8125ZM27.125 27.1875V19.9375H19.9351L10.2476 10.875H3.875V27.1875H27.125Z" fill="#EC8F67"/>
<path d="M9.79966 21.6104V16.2299L8.30181 17.6792L7.84667 17.232L10.1211 15.0312L12.3955 17.232L11.941 17.6798L10.4425 16.2299V21.6104H9.79966ZM6.65931 23.7396C6.36359 23.7396 6.11674 23.6438 5.91874 23.4522C5.72031 23.2602 5.62109 23.0211 5.62109 22.735V21.2279H6.26395V22.735C6.26395 22.8304 6.30509 22.9181 6.38738 22.9981C6.47009 23.0778 6.56074 23.1176 6.65931 23.1176H13.5829C13.6815 23.1176 13.7721 23.0778 13.8548 22.9981C13.9371 22.9181 13.9782 22.8304 13.9782 22.735V21.2279H14.6211V22.735C14.6211 23.0211 14.5221 23.26 14.3241 23.4516C14.1257 23.6436 13.8786 23.7396 13.5829 23.7396H6.65931Z" fill="#EC8F67"/>
</svg>
