<svg width="25" height="29" viewBox="0 0 25 29" fill="none" xmlns="http://www.w3.org/2000/svg">
<path d="M20.7492 3.95615C16.1934 -0.653352 8.80693 -0.653352 4.2511 3.95615C3.16943 5.0431 2.30992 6.3415 1.7231 7.77501C1.13628 9.20853 0.833984 10.7482 0.833984 12.3036C0.833984 13.8591 1.13628 15.3988 1.7231 16.8323C2.30992 18.2658 3.16943 19.5642 4.2511 20.6511L12.4994 28.9986L20.7492 20.6511C21.8309 19.5642 22.6904 18.2658 23.2772 16.8323C23.864 15.3988 24.1663 13.8591 24.1663 12.3036C24.1663 10.7482 23.864 9.20853 23.2772 7.77501C22.6904 6.3415 21.8309 5.0431 20.7492 3.95615ZM12.4994 16.2486C11.5253 16.2486 10.6109 15.8586 9.9211 15.1506C9.23824 14.4468 8.85473 13.493 8.85473 12.4986C8.85473 11.5043 9.23824 10.5505 9.9211 9.84665C10.6094 9.13865 11.5253 8.74865 12.4994 8.74865C13.4736 8.74865 14.3894 9.13865 15.0778 9.84665C15.7606 10.5505 16.1441 11.5043 16.1441 12.4986C16.1441 13.493 15.7606 14.4468 15.0778 15.1506C14.3894 15.8586 13.4736 16.2486 12.4994 16.2486Z" fill="#4E1F4F" fill-opacity="0.25"/>
</svg>
