<svg width="34" height="27" viewBox="0 0 34 27" fill="none" xmlns="http://www.w3.org/2000/svg">
<path d="M5.62768 11.8372C4.0544 10.9758 2.89787 9.7089 2.35102 8.24783C2.18435 8.42917 2.02768 8.61717 1.88102 8.81183C0.874348 10.1438 0.33268 11.7505 0.33268 13.6652C0.33268 16.6078 1.72101 18.6652 3.13268 19.9838C3.77613 20.5843 4.51585 21.1142 5.33268 21.5598V23.9985C5.33246 24.305 5.40774 24.6086 5.55422 24.8918C5.7007 25.1751 5.9155 25.4325 6.18636 25.6493C6.45722 25.8661 6.77883 26.0381 7.1328 26.1554C7.48678 26.2728 7.86619 26.3332 8.24935 26.3332H10.3327C10.9957 26.3332 11.6316 26.1225 12.1004 25.7474C12.5693 25.3723 12.8327 24.8636 12.8327 24.3332H16.166C16.166 24.8636 16.4294 25.3723 16.8982 25.7474C17.3671 26.1225 18.003 26.3332 18.666 26.3332H20.7493C21.5229 26.3332 22.2648 26.0873 22.8117 25.6497C23.3587 25.2122 23.666 24.6187 23.666 23.9998V23.0892C23.9272 23.0187 24.1851 22.9409 24.4393 22.8558C25.7227 22.4338 26.892 21.8171 27.8827 21.0398C28.9311 20.194 29.831 19.2382 30.5577 18.1985C30.6117 18.1124 30.6889 18.0368 30.7837 17.9774C30.8785 17.9179 30.9886 17.8759 31.106 17.8545C31.8213 17.7592 32.4712 17.4639 32.94 17.0213C33.4087 16.5786 33.666 16.0173 33.666 15.4372V13.0998C33.666 11.9758 32.6493 11.0172 31.266 10.8332C31.121 10.8132 30.906 10.6972 30.8043 10.4545C30.4843 9.68517 29.8627 8.5425 28.716 7.62517C27.8896 6.97716 26.9606 6.41863 25.9527 5.96383C25.726 5.85983 25.516 5.7705 25.3327 5.69717V1.89317C25.3327 0.6425 23.4493 0.129166 22.4327 0.9385C21.8827 1.37717 21.0827 1.96117 20.1977 2.4505C19.3143 2.9385 18.4693 3.25983 17.7743 3.3305C18.5985 4.63747 18.8621 6.12512 18.5243 7.56383C18.2227 8.83983 17.001 9.6465 15.8543 10.0278L9.69435 12.0678C8.54601 12.4478 6.97101 12.5678 5.62768 11.8358M23.666 11.6652C23.224 11.6652 22.8001 11.5247 22.4875 11.2746C22.1749 11.0246 21.9993 10.6855 21.9993 10.3318C21.9993 9.97821 22.1749 9.63907 22.4875 9.38902C22.8001 9.13898 23.224 8.9985 23.666 8.9985C24.108 8.9985 24.532 9.13898 24.8445 9.38902C25.1571 9.63907 25.3327 9.97821 25.3327 10.3318C25.3327 10.6855 25.1571 11.0246 24.8445 11.2746C24.532 11.5247 24.108 11.6652 23.666 11.6652ZM6.56768 10.7358C5.79447 10.3122 5.1414 9.76311 4.65095 9.12426C4.16049 8.4854 3.84365 7.77111 3.72102 7.02783C3.59685 6.26349 3.68124 5.48669 3.9684 4.75095C4.25555 4.0152 4.73863 3.33799 5.38437 2.76596C6.03011 2.19392 6.82316 1.74065 7.70891 1.43737C8.59466 1.13409 9.55206 0.988003 10.5152 1.00917C11.4783 1.03034 12.4242 1.21825 13.2878 1.55998C14.1514 1.90171 14.9121 2.38912 15.5177 2.98866C16.1232 3.58819 16.559 4.2856 16.7953 5.03285C17.0315 5.7801 17.0625 6.55943 16.886 7.31717C16.8443 7.4905 16.771 7.65317 16.6693 7.80383C16.586 7.92783 16.486 8.04383 16.3693 8.1505C16.066 8.4305 15.6593 8.64917 15.216 8.79717L9.05601 10.8372C8.23935 11.1078 7.29768 11.1345 6.56768 10.7358Z" fill="#4E1F4F" fill-opacity="0.25"/>
</svg>
