<svg width="34" height="37" viewBox="0 0 34 37" fill="none" xmlns="http://www.w3.org/2000/svg">
<path d="M10.5233 18.4998H18.6185M10.5233 22.0236H21.8566M10.5233 25.5475H15.3804M26.7137 27.3094V14.976L18.6185 6.1665H10.5233C9.66446 6.1665 8.84083 6.53776 8.23357 7.1986C7.62631 7.85945 7.28516 8.75574 7.28516 9.69031V27.3094C7.28516 28.2439 7.62631 29.1402 8.23357 29.8011C8.84083 30.4619 9.66446 30.8332 10.5233 30.8332H23.4756C24.3344 30.8332 25.1581 30.4619 25.7653 29.8011C26.3726 29.1402 26.7137 28.2439 26.7137 27.3094Z" stroke="#3C759A" stroke-width="1.5" stroke-linecap="round" stroke-linejoin="round"/>
<path d="M18.6191 6.1665V11.4522C18.6191 12.3868 18.9603 13.2831 19.5676 13.9439C20.1748 14.6048 20.9984 14.976 21.8572 14.976H26.7144" stroke="#3C759A" stroke-width="1.5" stroke-linecap="round" stroke-linejoin="round"/>
</svg>
