<svg width="42" height="45" viewBox="0 0 42 45" fill="#3C759A" xmlns="http://www.w3.org/2000/svg">
<g clip-path="url(#clip0_2273_713)">
<path d="M34.9994 15.0302H19.156L16.461 11.5541C16.2438 11.2756 15.9593 11.0491 15.6308 10.8934C15.3024 10.7376 14.9392 10.6568 14.571 10.6577H6.99935C6.38051 10.6577 5.78702 10.8881 5.34943 11.2981C4.91185 11.7081 4.66602 12.2641 4.66602 12.844V36.8925C4.66602 37.4724 4.91185 38.0284 5.34943 38.4384C5.78702 38.8484 6.38051 39.0788 6.99935 39.0788H34.9994C35.6182 39.0788 36.2117 38.8484 36.6493 38.4384C37.0869 38.0284 37.3327 37.4724 37.3327 36.8925V17.2164C37.3327 16.6366 37.0869 16.0805 36.6493 15.6705C36.2117 15.2605 35.6182 15.0302 34.9994 15.0302ZM34.9994 36.8925H6.99935V19.4027H15.5277C16.1465 19.4027 16.74 19.1723 17.1776 18.7623C17.6152 18.3523 17.861 17.7962 17.861 17.2164H6.99935V12.844H14.571L17.616 16.7682C17.7246 16.9075 17.8669 17.0207 18.0311 17.0986C18.1953 17.1765 18.3769 17.2169 18.561 17.2164H34.9994V36.8925Z" fill="#3C759A"/>
<path d="M25.6673 1.38135V4.71468C25.6673 5.21468 25.2007 5.54801 24.5007 5.54801H19.834M19.834 5.54801V15.548C19.834 15.769 19.9569 15.981 20.1757 16.1373C20.3945 16.2936 20.6912 16.3813 21.0007 16.3813H35.0007C35.7007 16.3813 36.1673 16.048 36.1673 15.548V2.21468C36.1673 1.71468 35.7007 1.38135 35.0007 1.38135H25.5507L24.8507 1.54801L20.184 4.88135C19.9507 5.04801 19.834 5.21468 19.834 5.54801ZM24.5007 12.2147H31.5007M24.5007 8.88135H31.5007" stroke="#3C759A" stroke-linecap="round" stroke-linejoin="round"/>
<path d="M17.3125 24.0625C17.3125 25.6131 18.7426 26.875 20.5 26.875C22.2574 26.875 23.6875 25.6131 23.6875 24.0625C23.6875 22.5119 22.2574 21.25 20.5 21.25C18.7426 21.25 17.3125 22.5119 17.3125 24.0625ZM26.1667 33.125H26.875V32.5C26.875 30.0881 24.6501 28.125 21.9167 28.125H19.0833C16.3492 28.125 14.125 30.0881 14.125 32.5V33.125H26.1667Z" fill="#3C759A"/>
</g>
<defs>
<clipPath id="clip0_2273_713">
<rect width="42" height="45" fill="#3C759A"/>
</clipPath>
</defs>
</svg>
