<svg width="44" height="46" viewBox="0 0 44 46" fill="none" xmlns="http://www.w3.org/2000/svg">
<g clip-path="url(#clip0_2273_782)">
<path d="M21.8776 22.1054C25.1776 22.1054 27.7442 19.2943 27.7442 15.8443C27.7442 12.3943 25.0553 9.71094 21.7553 9.71094C18.4553 9.71094 15.8887 12.522 15.8887 15.8443C15.8887 19.2943 18.5776 22.1054 21.8776 22.1054ZM21.7553 12.2665C21.8776 12.2665 21.8776 12.2665 21.7553 12.2665C23.7109 12.2665 25.2998 13.9276 25.2998 15.972C25.2998 18.0165 23.7109 19.5498 21.7553 19.5498C19.7998 19.5498 18.3331 17.8887 18.3331 15.972C18.3331 13.9276 19.922 12.2665 21.7553 12.2665Z" fill="#EC8F67"/>
<path d="M39.9673 21.3388C37.6451 19.1666 34.5895 18.0166 31.4118 18.1444C31.0451 18.1444 30.8007 18.1444 30.434 18.1444C30.1895 19.1666 29.8229 20.061 29.334 20.8277C30.0673 20.6999 30.6784 20.6999 31.4118 20.6999C33.734 20.5722 36.0562 21.3388 37.8895 22.7444V31.9444H40.334V21.7222L39.9673 21.3388Z" fill="#EC8F67"/>
<path d="M28.5998 9.96685C29.2109 8.43352 30.922 7.66685 32.5109 8.30574C33.9776 8.94463 34.7109 10.7335 34.0998 12.3946C33.6109 13.5446 32.5109 14.3113 31.4109 14.3113C31.1665 14.3113 30.7998 14.3113 30.5553 14.1835C30.6776 14.8224 30.6776 15.4613 30.6776 15.9724C30.6776 16.228 30.6776 16.4835 30.6776 16.7391C30.922 16.7391 31.1665 16.8668 31.4109 16.8668C34.4665 16.8668 36.9109 14.3113 36.9109 11.2446C36.9109 8.05018 34.4664 5.49463 31.5331 5.49463C29.5776 5.49463 27.8664 6.51685 26.8887 8.30574C27.4998 8.68907 28.1109 9.20018 28.5998 9.96685Z" fill="#EC8F67"/>
<path d="M14.666 20.9557C14.1771 20.189 13.8105 19.2945 13.566 18.2723C13.1993 18.2723 12.9549 18.2723 12.5882 18.2723C9.41046 18.1445 6.3549 19.2945 4.03268 21.339L3.66602 21.7223V31.9445H6.11046V22.7445C8.06602 21.339 10.266 20.5723 12.5882 20.7001C13.3216 20.7001 14.0549 20.8279 14.666 20.9557Z" fill="#EC8F67"/>
<path d="M12.5888 16.7389C12.8333 16.7389 13.0777 16.7389 13.3222 16.6111C13.3222 16.3555 13.3222 16.1 13.3222 15.8444C13.3222 15.2055 13.3222 14.5667 13.4444 14.0555C13.1999 14.1833 12.8333 14.1833 12.5888 14.1833C10.9999 14.1833 9.65549 12.7778 9.65549 11.1167C9.65549 9.45554 10.9999 8.04999 12.5888 8.04999C13.811 8.04999 14.911 8.81665 15.3999 9.96665C15.8888 9.32776 16.6222 8.68888 17.2333 8.17776C15.6444 5.49443 12.3444 4.59999 9.77771 6.2611C7.21105 7.92221 6.35549 11.3722 7.94438 14.0555C8.92216 15.7167 10.6333 16.7389 12.5888 16.7389Z" fill="#EC8F67"/>
<path d="M31.9004 29.0056L31.656 28.6223C29.2115 25.8112 25.7893 24.1501 22.1227 24.2779C18.456 24.1501 14.9115 25.8112 12.4671 28.6223L12.2227 29.0056V38.7168C12.2227 39.8668 13.0782 40.889 14.3004 40.889H29.9449C31.0449 40.889 32.0227 39.8668 32.0227 38.7168V29.0056H31.9004ZM29.456 38.3334H14.6671V29.9001C16.6227 27.8556 19.3115 26.8334 22.1227 26.8334C24.8115 26.7056 27.5004 27.8556 29.456 29.9001V38.3334Z" fill="#EC8F67"/>
</g>
<defs>
<clipPath id="clip0_2273_782">
<rect width="44" height="46" fill="white"/>
</clipPath>
</defs>
</svg>
