<svg width="28" height="27" viewBox="0 0 28 27" fill="none" xmlns="http://www.w3.org/2000/svg">
<path d="M13.9993 0.5C15.7675 0.5 17.4632 1.18482 18.7134 2.40381C19.9636 3.62279 20.666 5.27609 20.666 7C20.666 8.72391 19.9636 10.3772 18.7134 11.5962C17.4632 12.8152 15.7675 13.5 13.9993 13.5C12.2312 13.5 10.5355 12.8152 9.2853 11.5962C8.03506 10.3772 7.33268 8.72391 7.33268 7C7.33268 5.27609 8.03506 3.62279 9.2853 2.40381C10.5355 1.18482 12.2312 0.5 13.9993 0.5ZM13.9993 16.75C21.366 16.75 27.3327 19.6588 27.3327 23.25V26.5H0.666016V23.25C0.666016 19.6588 6.63268 16.75 13.9993 16.75Z" fill="#4E1F4F" fill-opacity="0.25"/>
</svg>
