<svg xmlns="http://www.w3.org/2000/svg" width="15.5" height="20.156" viewBox="0 0 15.5 20.156">
  <g id="Group_1482" data-name="Group 1482" transform="translate(-1267.25 -1802.25)">
    <path id="Path_6691" data-name="Path 6691" d="M669,249a12.5,12.5,0,0,1,.245-3.545,5,5,0,0,1,3.21-3.21,25.77,25.77,0,0,1,7.09,0,5,5,0,0,1,3.21,3.21A12.5,12.5,0,0,1,683,249v7.387c0,1.917,0,2.876-.342,3.383a2,2,0,0,1-1.888.868c-.607-.07-1.335-.694-2.791-1.941a4.767,4.767,0,0,0-1.313-.949,2,2,0,0,0-1.332,0,4.767,4.767,0,0,0-1.313.949c-1.456,1.247-2.184,1.871-2.791,1.941a2,2,0,0,1-1.888-.868c-.342-.507-.342-1.466-.342-3.383Z" transform="translate(599 1561)" fill="none" stroke="#e98d69" stroke-width="1.5"/>
    <line id="Line_1640" data-name="Line 1640" x2="7" transform="translate(1271.5 1808.5)" fill="none" stroke="#e98d69" stroke-linecap="round" stroke-width="1.5"/>
  </g>
</svg>
