<svg xmlns="http://www.w3.org/2000/svg" width="22.834" height="21.844" viewBox="0 0 22.834 21.844">
  <g id="Group_1662" data-name="Group 1662" transform="translate(0.8 0.8)">
    <g id="Group_1613" data-name="Group 1613" transform="translate(0 0)">
      <g id="Group_1566" data-name="Group 1566" transform="translate(0 0)">
        <path id="Path_9317" data-name="Path 9317" d="M316.656,169.9c.579,1.136.579,2.622.579,5.6v1.257a13.3,13.3,0,0,1-.214,3.422,5.308,5.308,0,0,1-3.6,3.6,13.3,13.3,0,0,1-3.422.214h-.652a5.311,5.311,0,0,0-3.024.969l-.056.04-2.772,1.979a1.169,1.169,0,0,1-1.765-1.386,1.169,1.169,0,0,0-1.086-1.6H300a4.005,4.005,0,0,1-4-4v-4.489c0-2.973,0-4.459.579-5.6a5.3,5.3,0,0,1,2.32-2.32c1.136-.579,2.622-.579,5.6-.579h4.247c2.973,0,4.459,0,5.6.579A5.3,5.3,0,0,1,316.656,169.9Z" transform="translate(-296 -167)" fill="none" stroke="#fff" stroke-width="1.6" fill-rule="evenodd"/>
        <line id="Line_1653" data-name="Line 1653" x2="8.906" transform="translate(5.879 10.413)" fill="none" stroke="#fff" stroke-linecap="round" stroke-width="1.6"/>
        <line id="Line_1654" data-name="Line 1654" x2="5.195" transform="translate(5.879 5.96)" fill="none" stroke="#fff" stroke-linecap="round" stroke-width="1.6"/>
      </g>
    </g>
  </g>
</svg>
