<svg xmlns="http://www.w3.org/2000/svg" width="24.355" height="24.356" viewBox="0 0 24.355 24.356">
  <g id="Group_1640" data-name="Group 1640" transform="translate(0.819 0.956)">
    <path id="Call" d="M5.212,3.831c.089-.089.133-.133.172-.169a2.512,2.512,0,0,1,3.4,0c.039.036.083.08.172.169l1.831,1.831A3.465,3.465,0,0,1,11.513,9.5a3.465,3.465,0,0,0,.726,3.834l3.01,3.01a3.464,3.464,0,0,0,3.834.726,3.465,3.465,0,0,1,3.834.726l1.831,1.831c.089.089.133.133.169.172a2.512,2.512,0,0,1,0,3.4c-.036.039-.08.084-.169.172l-1.113,1.113a3.75,3.75,0,0,1-3.465,1.009A22.5,22.5,0,0,1,3.089,8.409,3.75,3.75,0,0,1,4.1,4.944Z" transform="translate(-3 -3)" fill="none" stroke="#2f779c" stroke-width="1.6"/>
  </g>
</svg>
