<svg xmlns="http://www.w3.org/2000/svg" width="22" height="21" viewBox="0 0 22 21">
  <path id="Polygon_12" data-name="Polygon 12" d="M9.595,3.762a1.5,1.5,0,0,1,2.81,0l1.108,2.966a1.5,1.5,0,0,0,1.338.974l3.163.141a1.5,1.5,0,0,1,.87,2.67L16.4,12.5a1.5,1.5,0,0,0-.509,1.57l.845,3.067a1.5,1.5,0,0,1-2.275,1.648l-2.631-1.744a1.5,1.5,0,0,0-1.658,0L7.54,18.786a1.5,1.5,0,0,1-2.275-1.648L6.11,14.07A1.5,1.5,0,0,0,5.6,12.5L3.116,10.513a1.5,1.5,0,0,1,.87-2.67L7.149,7.7a1.5,1.5,0,0,0,1.338-.974Z" fill="#2f779c"/>
</svg>
