<svg width="28" height="22" viewBox="0 0 40 34" fill="#4E1F4F" xmlns="http://www.w3.org/2000/svg">
<path d="M10.5656 22.6978C10.6177 22.6321 10.6862 22.5788 10.7651 22.5425C10.844 22.5062 10.9311 22.4878 11.0193 22.489C11.1074 22.4903 11.1939 22.5109 11.2716 22.5494C11.3494 22.5879 11.416 22.643 11.4661 22.7101L12.3393 22.1482C12.5017 22.0457 12.7306 22.1551 12.7306 22.3396V23.659C12.7306 23.8435 12.5017 23.9598 12.3393 23.8504L11.4668 23.2939C11.4167 23.3614 11.3499 23.4167 11.272 23.4554C11.1941 23.494 11.1073 23.5148 11.0189 23.516C10.9305 23.5172 10.8431 23.4988 10.764 23.4623C10.6849 23.4258 10.6163 23.3723 10.5641 23.3062L9.71153 23.8504C9.54914 23.9598 9.32031 23.8435 9.32031 23.659V22.3396C9.32031 22.1551 9.54914 22.0457 9.71153 22.1482L10.5656 22.6978ZM11.0254 26.0721C11.1233 26.0721 11.2172 26.036 11.2864 25.9719C11.3556 25.9078 11.3945 25.8209 11.3945 25.7303C11.3945 25.6396 11.3556 25.5527 11.2864 25.4886C11.2172 25.4245 11.1233 25.3885 11.0254 25.3885C10.9276 25.3885 10.8337 25.4245 10.7645 25.4886C10.6952 25.5527 10.6564 25.6396 10.6564 25.7303C10.6564 25.8209 10.6952 25.9078 10.7645 25.9719C10.8337 26.036 10.9276 26.0721 11.0254 26.0721ZM11.3945 27.8836C11.3945 27.9742 11.3556 28.0612 11.2864 28.1253C11.2172 28.1894 11.1233 28.2254 11.0254 28.2254C10.9276 28.2254 10.8337 28.1894 10.7645 28.1253C10.6952 28.0612 10.6564 27.9742 10.6564 27.8836C10.6564 27.7929 10.6952 27.706 10.7645 27.6419C10.8337 27.5778 10.9276 27.5418 11.0254 27.5418C11.1233 27.5418 11.2172 27.5778 11.2864 27.6419C11.3556 27.706 11.3945 27.7929 11.3945 27.8836ZM13.2672 16.1654C13.341 16.2133 13.4296 16.2406 13.5108 16.2406C13.6363 16.2406 13.7544 16.1859 13.8356 16.0971C13.9684 15.9398 13.9389 15.7006 13.7617 15.5775C13.7396 15.557 13.1269 15.1332 12.2485 15.2289C12.0271 15.2494 11.8647 15.434 11.8942 15.639C11.9164 15.8441 12.1157 15.9945 12.3371 15.9672C12.6615 15.9288 12.9901 15.9983 13.2642 16.1634L13.2672 16.1654ZM12.7505 16.4935C13.2303 16.4935 13.6363 16.8012 13.747 17.2113C13.7765 17.3275 13.6806 17.4437 13.5477 17.4437H13.2391C13.2649 17.3534 13.268 17.2589 13.248 17.1673C13.2281 17.0758 13.1857 16.9897 13.1241 16.9157C13.0626 16.8417 12.9835 16.7818 12.893 16.7406C12.8025 16.6994 12.703 16.678 12.6021 16.6781C12.2404 16.6781 11.9452 16.9516 11.9525 17.2865C11.9525 17.3453 11.9599 17.3918 11.9732 17.4437H11.9164C11.813 17.4437 11.7318 17.3549 11.7466 17.2592C11.8426 16.8285 12.2559 16.4935 12.7505 16.4935Z" fill="#4E1F4F" fill-opacity="0.4" />
<path d="M12.2894 17.0964C12.2517 17.1486 12.2301 17.2094 12.2268 17.2721C12.2236 17.3349 12.2388 17.3973 12.271 17.4526H12.9353C12.9704 17.3899 12.9842 17.3188 12.9749 17.2487C12.9656 17.1786 12.9336 17.1128 12.8831 17.0598C12.8327 17.0069 12.7661 16.9693 12.6921 16.952C12.6182 16.9348 12.5403 16.9386 12.4688 16.9631C12.4828 16.9733 12.4941 16.9863 12.502 17.0011C12.5098 17.0159 12.5139 17.0321 12.514 17.0486C12.5142 17.0651 12.5102 17.0814 12.5026 17.0962C12.4949 17.1111 12.4837 17.1242 12.4699 17.1345C12.456 17.1449 12.4398 17.1521 12.4224 17.1558C12.4051 17.1595 12.387 17.1595 12.3697 17.1559C12.3523 17.1522 12.3361 17.145 12.3222 17.1347C12.3083 17.1244 12.2971 17.1113 12.2894 17.0964ZM9.76863 17.2885C9.76812 17.2314 9.75252 17.1752 9.72319 17.125C9.69385 17.0747 9.65168 17.0319 9.60035 17.0002C9.54902 16.9685 9.49009 16.9489 9.42872 16.9432C9.36734 16.9374 9.30537 16.9457 9.24824 16.9672C9.26116 16.9775 9.27153 16.9902 9.27865 17.0046C9.28576 17.0189 9.28945 17.0345 9.28945 17.0502C9.28945 17.066 9.28577 17.0816 9.27867 17.0959C9.27156 17.1102 9.26119 17.123 9.24827 17.1332C9.23535 17.1435 9.22018 17.1511 9.20381 17.1554C9.18744 17.1597 9.17025 17.1608 9.15342 17.1584C9.13659 17.156 9.12052 17.1502 9.10631 17.1415C9.09209 17.1329 9.08008 17.1214 9.07108 17.108C9.0368 17.1595 9.01773 17.2185 9.01579 17.2789C9.01385 17.3394 9.0291 17.3993 9.06001 17.4526H9.72434C9.75387 17.3979 9.76863 17.3432 9.76863 17.2885ZM10.7208 17.2338L10.3444 18.3686C10.2632 18.601 10.4551 18.8403 10.7208 18.8403H11.2818C11.5476 18.8403 11.7321 18.601 11.6583 18.3686L11.2818 17.2338C11.1933 16.9877 10.8094 16.9877 10.7208 17.2338Z" fill="#4E1F4F" fill-opacity="0.4" />
<path d="M14.7775 12.982L15.0875 13.1256C15.6559 13.3922 15.9733 13.9732 15.8552 14.5543L15.4418 16.6529C15.4346 16.6932 15.4212 16.7324 15.4019 16.7691C15.5095 16.9062 15.5818 17.0642 15.6133 17.2311C15.6448 17.3979 15.6347 17.5693 15.5838 17.732C15.5329 17.8947 15.4425 18.0445 15.3195 18.1699C15.1965 18.2953 15.0442 18.393 14.8742 18.4556L14.7782 19.7291C14.7147 20.3594 14.4017 20.8939 13.9367 21.2569C14.7928 21.5632 15.5865 22.002 16.284 22.5544C17.1771 23.2581 17.8943 24.1333 18.3858 25.1193C18.8773 26.1053 19.1313 27.1785 19.1303 28.2645V30.668H2.89844V28.2754C2.89844 27.5699 3.00325 26.8877 3.1996 26.2396C3.64173 24.7633 4.55883 23.4466 5.82889 22.4648V22.4922C6.59392 21.9023 7.46969 21.4479 8.41241 21.1517C7.99766 20.7715 7.7421 20.2674 7.69123 19.7291L7.60266 18.5328C7.3399 18.5328 7.08441 18.4529 6.87546 18.3054C6.6665 18.1578 6.51564 17.9508 6.44605 17.7162C6.37646 17.4815 6.39199 17.2322 6.49026 17.0065C6.58853 16.7808 6.7641 16.5913 6.98999 16.467L6.61354 14.5543C6.49543 13.9732 6.81284 13.3922 7.38121 13.1256L7.69123 12.982C7.91268 12.8795 8.11198 12.7496 8.28175 12.5855L9.02728 11.9019C9.23224 11.7121 9.49656 11.5867 9.78275 11.5438C10.0689 11.5009 10.3625 11.5425 10.6217 11.6627C11.0203 11.7926 11.4484 11.7926 11.8396 11.6627C12.5335 11.3756 13.1166 11.608 13.5743 12.025L14.1796 12.5855C14.3567 12.7428 14.556 12.8795 14.7775 12.982ZM9.0199 29.3008C7.34578 27.5884 7.04609 25.2833 6.99516 24.4746C6.98778 24.3174 7.12065 24.1807 7.29042 24.1807H7.68164C7.77022 24.1807 7.84403 24.1123 7.83665 24.0303C7.83259 23.645 7.8321 23.2596 7.83517 22.8743C7.06668 23.2637 6.38847 23.7893 5.83922 24.4213L5.86579 29.3008H9.0199ZM10.0983 29.3008H11.9363C12.6668 27.9635 13.0476 26.4859 13.048 24.9873V21.689C12.8417 21.7405 12.629 21.7665 12.4154 21.7662H10.0533C9.68347 21.7673 9.31856 21.6877 8.98816 21.5338V25.0283C8.98816 26.5233 9.37421 27.9855 10.0983 29.3008ZM13.031 29.3008H16.1777V24.4049C15.6363 23.7848 14.9703 23.2679 14.2165 22.8825C14.2179 23.3631 14.2187 23.7917 14.2143 24.031C14.2069 24.113 14.2807 24.1813 14.3693 24.1813H14.7605C14.9303 24.1813 15.0631 24.3181 15.0557 24.4753C15.0048 25.2833 14.7051 27.5884 13.031 29.3008ZM8.13929 15.6754C8.16527 15.6355 8.19936 15.6007 8.23968 15.5728C8.26182 15.5523 8.87449 15.1285 9.75288 15.2242C9.97433 15.2516 10.1293 15.4361 10.1072 15.6344C10.0777 15.8394 9.87837 15.983 9.66431 15.9625C9.11808 15.901 8.749 16.1471 8.73424 16.1607C8.65304 16.2154 8.57185 16.2359 8.48327 16.2359C8.35778 16.2359 8.23968 16.1881 8.16586 16.0855L8.15996 16.0787L8.24485 17.2224L8.24706 17.2135C8.35778 16.8033 8.76376 16.4957 9.24356 16.4957C9.73812 16.4957 10.1589 16.8307 10.2474 17.2613C10.2622 17.357 10.181 17.4459 10.0777 17.4459H10.0201C10.0341 17.3945 10.041 17.3417 10.0408 17.2887C10.0426 17.2089 10.0272 17.1295 9.9953 17.0554C9.96342 16.9812 9.91576 16.9138 9.85517 16.857C9.79457 16.8003 9.72227 16.7554 9.64256 16.725C9.56286 16.6946 9.47737 16.6794 9.39119 16.6803C9.29034 16.6802 9.19082 16.7016 9.10031 16.7428C9.0098 16.784 8.93072 16.8439 8.86917 16.9179C8.80761 16.9918 8.76523 17.0779 8.74529 17.1695C8.72535 17.261 8.72839 17.3556 8.75417 17.4459H8.44636C8.40299 17.4458 8.36077 17.433 8.32576 17.4093C8.29075 17.3856 8.26475 17.3522 8.25149 17.314L8.42643 19.6717C8.52018 20.5166 9.22215 21.0826 10.0526 21.0826H12.4146C13.2561 21.0826 13.9544 20.5145 14.0408 19.673L14.3287 15.8948C14.3599 15.4848 14.2847 15.0739 14.1094 14.6963C13.9341 14.3188 13.6638 13.9855 13.3211 13.7244C12.6306 13.624 11.9326 13.5746 11.2336 13.5768C10.3847 13.5768 9.68128 13.6451 9.15498 13.7217C8.8417 13.9587 8.58838 14.2565 8.41289 14.5941C8.2374 14.9317 8.144 15.3008 8.13929 15.6754Z" fill="#4E1F4F" fill-opacity="0.4" />
<path d="M12.7572 19.9724C12.4552 19.8146 11.8388 19.6637 11.0433 19.6411C10.2474 19.6186 9.61941 19.7342 9.30404 19.8747C9.21981 19.9125 9.32806 19.9589 9.45068 19.9374C10.4759 19.7572 11.604 19.7905 12.605 20.0267C12.7268 20.055 12.8383 20.0148 12.7572 19.9724Z" fill="#4E1F4F" fill-opacity="0.4" />
<path d="M29.2763 13.4408C31.4725 13.4408 33.4994 14.2659 35.124 15.6513C34.4793 13.6057 32.7533 12 29.2761 12C25.8011 12 24.0746 13.6029 23.4287 15.6478L23.429 15.6509C25.0538 14.2655 27.0799 13.4408 29.2763 13.4408Z" fill="#4E1F4F" fill-opacity="0.4" />
<path d="M35.2041 15.9586C35.2218 16.027 35.2582 16.7491 35.2635 17.4454C33.7202 15.7452 31.6075 14.6914 29.2755 14.6914C26.939 14.6914 24.8218 15.7492 23.2782 17.455C23.2824 16.7647 23.3172 16.0488 23.3337 15.9835C21.2208 20.1434 20.8691 30.665 20.8691 30.665H37.6807C37.6807 30.665 37.3274 20.102 35.2041 15.9586ZM24.5355 19.1733C26.9975 19.1733 31.0079 16.2233 31.0079 16.2233C31.0079 16.2233 32.5241 18.7577 33.9875 19.1733C33.9875 19.1733 34.6953 19.3186 34.6953 20.5625C34.6953 22.0599 33.7499 22.3187 33.7499 22.3187C33.7435 23.5383 32.9298 24.8926 31.9177 25.8816L31.9208 25.8819C31.3657 26.4239 30.7513 26.8538 30.1766 27.0934C30.1842 26.9982 30.1931 26.9444 30.1931 26.9444C30.1931 26.9444 30.0102 27.0374 29.7633 27.2017L29.4593 26.9637L29.2458 27.1777L28.9398 26.8694L28.6319 27.1905C27.9832 26.9848 27.2575 26.5073 26.6106 25.8819H26.6078C25.5842 24.8932 24.7599 23.5386 24.7599 22.3187C24.7599 22.3187 23.8487 22.0599 23.8487 20.5625C23.849 19.3768 24.5355 19.1733 24.5355 19.1733ZM30.3371 27.3557L30.1842 27.7508C30.1742 27.6427 30.1684 27.5343 30.1668 27.4257C30.2234 27.4045 30.28 27.3806 30.3371 27.3557ZM22.759 30.3539H21.1625C21.2342 28.7644 21.6226 21.6934 22.9958 17.5677C22.9961 17.9662 23.0104 18.3526 23.0502 18.6199C22.626 18.9988 22.3785 19.5756 22.3785 20.205C22.3775 20.4754 22.4248 20.7433 22.5175 20.9934C22.6103 21.2434 22.7468 21.4705 22.919 21.6616C22.7168 22.0007 22.6094 22.3986 22.6105 22.8053C22.6105 22.9889 22.6318 23.169 22.6744 23.3438C22.2177 23.6515 21.9868 24.2445 21.9868 25.1113C21.9868 26.4737 22.5228 27.0673 23.0779 27.3171C22.8294 28.0037 22.7663 28.9393 22.759 30.3539ZM35.5104 30.3539H31.5989L31.8429 29.7388C31.8429 29.7049 31.7645 29.6719 31.6221 29.6424C31.2778 29.9087 30.5257 30.3032 30.0191 29.6573C29.4884 30.2998 28.4926 30.2963 27.9726 29.6141C27.5949 29.9852 26.9706 30.0568 26.5526 29.6206C26.336 29.6557 26.2127 29.6959 26.2127 29.7388C26.2127 29.7478 26.2194 29.7572 26.2306 29.7662L26.6187 30.3539H23.0401V30.3383C23.0712 26.997 23.6209 26.3744 26.5134 26.1986C27.0847 26.7344 27.6843 27.1357 28.2441 27.3719L28.2113 27.57C27.8902 27.4487 27.6585 27.4061 27.6585 27.4061C27.6585 27.4061 27.7543 27.557 27.8465 27.8099C27.7344 27.6127 27.6585 27.5137 27.6585 27.5137C27.6585 27.5137 27.5977 27.5719 27.5125 27.6696L27.3209 27.5374L27.1385 27.823L26.9336 27.57L26.7064 27.9614L26.5024 27.8575L26.4472 28.2156C26.2376 28.1997 26.0975 28.2109 26.0975 28.2109C26.1029 28.2159 26.4531 28.5323 26.57 29.1418C26.5935 29.265 26.645 29.367 26.7095 29.4551C26.9852 29.5525 27.4845 29.6691 27.7924 29.2967C27.6994 29.087 27.6717 28.9162 27.6717 28.9162C27.6717 28.9162 27.7597 29.0055 27.9059 29.1209C28.1648 28.6913 28.2985 28.2654 28.2985 28.2654C28.2985 28.2654 28.3699 28.8409 28.1659 29.3054C28.4971 29.5173 28.9508 29.7146 29.3895 29.5997C30.071 29.0765 30.538 28.2641 30.538 28.2641C30.538 28.2641 30.4728 28.9897 30.1099 29.5248C30.7064 29.7584 31.22 29.6806 31.5428 29.4856C31.6092 29.4006 31.6711 29.3082 31.7196 29.2012C31.9917 28.602 32.303 28.3158 32.303 28.3158C32.303 28.3158 32.1245 28.2635 31.8664 28.224L31.9911 27.934H31.5313L31.5215 27.5255L31.1564 27.6123L30.99 27.2891L30.6518 27.6074L30.5013 27.2785C30.9992 27.0355 31.5204 26.6694 32.0189 26.1968C34.927 26.3716 35.4793 26.9938 35.5104 30.3386V30.3539ZM35.7914 30.3539C35.7841 28.9377 35.7208 28.0009 35.472 27.314C36.0242 27.0632 36.5572 26.4693 36.5572 25.1113C36.5572 24.2448 36.326 23.6518 35.869 23.3438C35.9115 23.1682 35.933 22.9871 35.9329 22.8053C35.9342 22.3987 35.8269 22.0009 35.6247 21.6619C35.9671 21.2861 36.1649 20.7616 36.1649 20.205C36.1649 19.5759 35.9172 18.9988 35.4935 18.6202C35.5345 18.3479 35.5476 17.9519 35.5468 17.5443C36.9259 21.6669 37.3154 28.7619 37.3874 30.3539H35.7914Z" fill="#4E1F4F" fill-opacity="0.4" />
<path d="M30.53 25.3313C30.3121 25.2001 29.8674 25.0746 29.2934 25.0559C28.7191 25.0372 28.266 25.1333 28.0385 25.2501C27.9777 25.2815 28.0558 25.3201 28.1443 25.3022C28.8841 25.1524 29.698 25.1801 30.4202 25.3764C30.5081 25.3999 30.5886 25.3665 30.53 25.3313Z" fill="#4E1F4F" fill-opacity="0.4" />
<path d="M29.2752 23.6898C30.1791 23.6892 30.631 22.9699 30.1791 22.9699H28.3716C27.9196 22.9699 28.3713 23.6898 29.2752 23.6898ZM32.8432 20.4486C32.8422 20.1882 32.7561 19.9371 32.6008 19.742C32.7667 19.7694 32.9306 19.7999 33.09 19.8229C33.2259 19.8668 33.361 19.9141 33.4907 19.9695C33.5134 20.0556 33.5125 20.1798 33.4887 20.3002C33.4578 20.4531 33.4146 20.6026 33.3596 20.7469C33.3024 20.8941 33.2408 21.0409 33.1671 21.1819C33.1317 21.2531 33.0931 21.3222 33.0514 21.3891C33.0085 21.4535 32.969 21.5263 32.9034 21.5664C33.0497 21.511 33.1517 21.3707 33.2542 21.2497C33.354 21.1213 33.4437 20.9837 33.5224 20.8384C33.6005 20.6919 33.6728 20.5388 33.7202 20.3674C33.7591 20.2124 33.8023 20.0351 33.7431 19.8338C33.9292 19.7993 34.1001 19.719 34.2486 19.5641C33.2755 20.0339 30.8431 17.8402 30.3565 21.1305C30.5285 20.6443 30.7322 20.3157 30.9549 20.0945C30.9177 20.2081 30.898 20.328 30.8969 20.4489C30.9031 20.731 31.0083 20.9992 31.1902 21.1963C31.372 21.3934 31.6161 21.5037 31.8702 21.5036C32.1243 21.5036 32.3683 21.3932 32.5501 21.1961C32.7319 20.9989 32.8371 20.7307 32.8432 20.4486ZM27.6534 20.4486C27.6534 20.3235 27.6305 20.2056 27.5954 20.0942C27.8182 20.3154 28.0216 20.6443 28.1939 21.1302C27.7075 17.8399 25.2749 20.0335 24.3018 19.5638C24.45 19.7187 24.6212 19.799 24.8072 19.8335C24.7481 20.0345 24.7913 20.2121 24.8302 20.3671C24.8776 20.5385 24.9498 20.6916 25.028 20.8381C25.1062 20.9852 25.1975 21.1206 25.2962 21.2494C25.3987 21.3704 25.5004 21.5107 25.647 21.5661C25.5814 21.526 25.5419 21.4532 25.499 21.3888C25.4574 21.3219 25.4188 21.2527 25.3833 21.1816C25.3116 21.0408 25.2473 20.8956 25.1908 20.7466C25.1359 20.6023 25.0927 20.4527 25.0616 20.2999C25.0378 20.1795 25.037 20.0556 25.0597 19.9691C25.1883 19.9144 25.3217 19.8665 25.4564 19.8232C25.617 19.8002 25.7823 19.7691 25.9496 19.7417C25.7943 19.9368 25.7081 20.1879 25.7072 20.4483C25.7072 20.7348 25.8097 21.0097 25.9921 21.2123C26.1746 21.415 26.4221 21.5289 26.6802 21.5289C26.9383 21.529 27.1858 21.4152 27.3683 21.2126C27.5508 21.01 27.6534 20.7351 27.6534 20.4486Z" fill="#4E1F4F" fill-opacity="0.4" />
<path fill-rule="evenodd" clip-rule="evenodd" d="M18.6437 3.05568C17.8459 2.4195 16.7051 2.55621 16.0532 3.56729L15.8971 3.80913C15.5346 4.37119 15.3593 5.07578 15.4056 5.78509C15.452 6.49439 15.7165 7.1574 16.1476 7.64443L19.6588 11.6122C19.7229 11.6851 19.7577 11.724 19.785 11.7495L19.787 11.7513L19.7896 11.7495C19.8332 11.7061 19.8753 11.6605 19.9158 11.6128L23.4265 7.64443C23.8575 7.1574 24.1221 6.49439 24.1684 5.78509C24.2147 5.07578 24.0395 4.37119 23.6769 3.80913L23.5204 3.56729C22.8336 2.50214 21.6045 2.40674 20.8051 3.16505L20.4925 2.68746C21.4984 1.7341 23.0508 1.84712 23.9193 3.19482L24.0759 3.43666C24.5155 4.1182 24.7281 4.97257 24.6719 5.83267C24.6158 6.69278 24.2951 7.49676 23.7724 8.08738L20.2612 12.0551L20.2541 12.0637C20.1996 12.1244 20.1466 12.1852 20.0976 12.2307C20.0356 12.2915 19.9626 12.3338 19.8845 12.3541C19.8201 12.3693 19.7539 12.3693 19.6896 12.3541C19.6114 12.3338 19.5384 12.2915 19.4765 12.2307C19.4222 12.1779 19.37 12.1222 19.3199 12.0637L19.3128 12.0558L15.8017 8.08738C15.2791 7.49668 14.9584 6.69266 14.9024 5.83255C14.8463 4.97245 15.059 4.11812 15.4987 3.43666L15.6542 3.19482C16.548 1.80884 18.164 1.72863 19.1664 2.77131L19.3487 2.9615L19.1992 3.18935L18.6761 3.98716C18.5059 4.24722 18.3953 4.41675 18.3286 4.55407C18.2655 4.6841 18.2655 4.73879 18.2706 4.77281C18.2756 4.80623 18.2918 4.85667 18.3892 4.95145C18.4917 5.0511 18.6453 5.16291 18.8811 5.33304L19.5138 5.78997L19.5285 5.8003C19.729 5.94552 19.9012 6.06948 20.0274 6.19161C20.1622 6.32164 20.2759 6.4778 20.3173 6.69958C20.3587 6.92075 20.3117 7.12005 20.236 7.3072C20.1653 7.48219 20.0542 7.68392 19.9239 7.91786L19.9143 7.93487L19.4921 8.69743L19.072 8.36021L19.4946 7.59825C19.636 7.34183 19.7279 7.17535 19.7815 7.04228C19.832 6.91711 19.8305 6.86485 19.8244 6.83265C19.8183 6.79984 19.8017 6.75244 19.7113 6.66555C19.6153 6.57259 19.4734 6.46929 19.2538 6.3107L18.6215 5.85438L18.6064 5.84344C18.3897 5.68728 18.2049 5.55361 18.0711 5.42418C17.9292 5.28504 17.81 5.11794 17.7741 4.88158C17.7378 4.64521 17.7999 4.43801 17.8923 4.24783C17.9792 4.06919 18.1125 3.86564 18.2685 3.62806L18.2796 3.61104L18.6437 3.05568Z" fill="#4E1F4F" fill-opacity="0.4" />
</svg>
