<svg width="28" height="21.29" viewBox="0 0 42 39" fill="none" xmlns="http://www.w3.org/2000/svg">
<path d="M34.2291 24.2616C35.5428 23.4895 36.6483 22.4327 36.9254 21.1941C37.7016 21.0989 38.5265 20.7098 38.5265 19.49C38.5265 18.411 38.0136 18.0889 37.5822 18.0102C37.5369 13.589 36.1595 11.7036 29.9872 11.658C23.761 11.6115 22.122 13.5782 22.0629 18.0632C21.6866 18.2028 21.316 18.5719 21.316 19.49C21.316 20.7103 22.1404 21.0989 22.916 21.1946C23.1902 22.4188 24.2733 23.4647 25.567 24.2346C22.9957 24.4985 21.316 24.8602 21.316 25.9044V18.0345C21.316 12.6448 16.6571 12.7457 16.6571 12.7457C16.6571 12.7457 16.3072 11.6562 12.7119 11.6562C7.1437 11.6562 4.10547 14.4089 4.10547 18.0345V37.7398H38.5265V25.9044C38.5265 25.0954 36.7005 24.548 34.2291 24.2616ZM23.434 20.9707L23.4059 20.7946L23.1787 20.7811C22.2861 20.7294 21.8707 20.319 21.8707 19.49C21.8707 18.7801 22.0887 18.421 22.5184 18.421C22.5443 18.421 22.5701 18.4219 22.597 18.4236C22.6533 18.6819 22.7204 18.8688 22.8018 18.9936C23.0015 19.297 23.3795 19.4631 23.4226 19.4813L23.9027 19.6843L23.8293 19.2605C23.7722 18.8651 23.7536 18.4672 23.7737 18.0698C23.9561 15.8861 24.1316 15.5944 24.7306 15.5944C25.0048 15.5944 25.3811 15.6549 25.8584 15.7305C26.7918 15.8787 28.0694 16.0822 29.9207 16.0822C31.772 16.0822 33.0496 15.8787 33.9824 15.7305C34.4597 15.6544 34.8366 15.5944 35.1108 15.5944C35.7097 15.5944 35.8847 15.8866 36.0671 18.0689C36.0987 18.7558 36.0121 19.2553 36.0109 19.26L35.9358 19.6856L36.4182 19.4809C36.4607 19.4631 36.837 19.297 37.0384 18.9931C37.1193 18.8701 37.1864 18.6827 37.2432 18.4236C37.7314 18.3836 37.9706 18.7384 37.9706 19.49C37.9706 20.3186 37.5547 20.7294 36.6615 20.7811L36.4343 20.7946L36.4062 20.9707C35.992 23.5521 31.6446 25.1888 29.9201 25.1888C28.1962 25.1888 23.8482 23.5517 23.434 20.9707ZM21.2345 27.2329C24.9296 27.2329 27.206 28.6184 27.206 30.3395V30.8537C27.206 29.1322 24.9296 27.7472 21.2345 27.7472C17.6616 27.7472 15.2642 29.1322 15.2642 30.8537V30.3395C15.2642 28.6184 17.6622 27.2329 21.2345 27.2329ZM6.10877 18.2697C9.23134 18.2432 13.8914 15.654 15.0605 14.9754C15.6113 15.6975 17.4276 17.9072 19.2777 18.2663C19.2852 18.2671 20.0384 18.3836 20.0384 19.3831C20.0384 20.6173 18.9719 20.845 18.9289 20.8542L18.7115 20.8946L18.7103 21.0641C18.6943 23.1504 14.9028 25.1884 12.7113 25.1884C10.5434 25.1884 6.66295 23.1104 6.66295 21.0655L6.66008 20.8994L6.44954 20.855C6.40652 20.8459 5.38364 20.6177 5.38364 19.3831C5.38364 18.534 5.97396 18.3097 6.10877 18.2697ZM14.4576 36.5434C14.4857 36.5817 14.5425 36.6295 14.6177 36.6817C14.4335 36.8725 14.3039 37.0816 14.2258 37.3051H4.68891V25.904C4.68891 25.4023 6.39275 24.8771 9.16364 24.6206C10.3529 25.2375 11.6741 25.6231 12.7119 25.6231C13.7502 25.6231 15.0795 25.2288 16.271 24.5972C19.2031 24.8432 21.02 25.3862 21.02 25.9044V26.4434C17.1642 26.5117 14.5907 28.3875 14.5907 30.7133V32.3422C14.3658 32.4783 14.2138 32.6905 14.2138 33.0022C14.2138 33.4338 14.441 33.6908 14.7462 33.8264C14.1811 34.6463 13.881 35.7748 14.4576 36.5434ZM15.4357 32.5748L15.586 32.5835L15.6658 32.5487C15.6882 32.5392 17.6949 31.6432 17.7683 29.783C20.0046 31.3745 25.3794 31.7397 26.6725 31.8049V32.3605L26.7098 32.577H26.996C27.2525 32.577 27.6827 32.6322 27.6827 33.0022C27.6827 33.3517 27.5038 33.5147 27.1188 33.5147C27.0597 33.5147 27.0184 33.5099 27.0121 33.509L26.6719 33.4599V33.7225C26.6719 35.1267 23.8132 36.2161 21.3539 36.2161C18.7625 36.2161 15.8086 34.888 15.8086 33.7225L15.8063 33.4651L15.4713 33.509C15.4345 33.5134 15.3973 33.5154 15.36 33.5151C14.9682 33.5151 14.7857 33.3521 14.7857 33.0026C14.7863 32.7183 15.0043 32.5748 15.4357 32.5748ZM14.8144 37.3055C15.1185 36.6421 16.1259 36.153 17.4448 35.8383C18.5652 36.3261 19.9776 36.6504 21.3544 36.6504C22.7089 36.6504 24.1391 36.3517 25.2532 35.8535C26.5394 36.1683 27.5175 36.6525 27.8176 37.3055H14.8144ZM37.9431 37.3051H28.4067C28.3291 37.078 28.1947 36.8643 28.0109 36.6756C28.0815 36.626 28.1365 36.5799 28.1635 36.5434C28.7527 35.757 28.4251 34.5928 27.8365 33.7694C28.082 33.6234 28.2564 33.3799 28.2564 33.0017C28.2564 32.7044 28.105 32.5 27.8818 32.364V30.7129C27.8818 28.4175 25.5004 26.5621 21.6126 26.4474V26.0026C21.6126 25.3597 23.3818 24.8532 26.2468 24.6059C27.5451 25.251 28.9448 25.6231 29.9213 25.6231C30.8879 25.6231 32.2682 25.2597 33.5544 24.6272C36.2765 24.8863 37.9431 25.4075 37.9431 25.9044V37.3051Z" fill="#4e1f4f8c"/>
<path d="M32.2268 23.2724C31.7867 23.0914 30.8912 22.9148 29.7384 22.8805C28.5849 22.8463 27.677 22.9693 27.2224 23.1238C27.101 23.1654 27.2586 23.2189 27.4359 23.196C28.9183 23.0047 30.5531 23.0548 32.0072 23.3317C32.1841 23.3649 32.3451 23.321 32.2268 23.2724Z" fill="#4e1f4f8c"/>
<path d="M26.7664 20.593C27.4793 20.593 28.0572 20.1551 28.0572 19.6149C28.0572 19.0746 27.4793 18.6367 26.7664 18.6367C26.0535 18.6367 25.4756 19.0746 25.4756 19.6149C25.4756 20.1551 26.0535 20.593 26.7664 20.593Z" fill="#4e1f4f8c"/>
<path d="M33.0769 20.593C33.7898 20.593 34.3677 20.1551 34.3677 19.6149C34.3677 19.0746 33.7898 18.6367 33.0769 18.6367C32.364 18.6367 31.7861 19.0746 31.7861 19.6149C31.7861 20.1551 32.364 20.593 33.0769 20.593Z" fill="#4e1f4f8c"/>
<path d="M9.63161 20.593C10.3445 20.593 10.9224 20.1551 10.9224 19.6149C10.9224 19.0746 10.3445 18.6367 9.63161 18.6367C8.91873 18.6367 8.34082 19.0746 8.34082 19.6149C8.34082 20.1551 8.91873 20.593 9.63161 20.593Z" fill="#4e1f4f8c"/>
<path d="M15.7908 20.593C16.5037 20.593 17.0816 20.1551 17.0816 19.6149C17.0816 19.0746 16.5037 18.6367 15.7908 18.6367C15.0779 18.6367 14.5 19.0746 14.5 19.6149C14.5 20.1551 15.0779 20.593 15.7908 20.593Z" fill="#4e1f4f8c"/>
<path d="M15.2512 23.3271C14.8111 23.1461 13.9157 22.9694 12.7628 22.9352C11.6093 22.901 10.7015 23.024 10.2469 23.1785C10.1254 23.2201 10.283 23.2735 10.4603 23.2507C11.9427 23.0594 13.5775 23.1095 15.0317 23.3864C15.2085 23.4196 15.3695 23.3756 15.2512 23.3271Z" fill="#4e1f4f8c"/>
<path d="M23.9327 33.1973C24.4871 33.1973 24.9366 32.8567 24.9366 32.4366C24.9366 32.0164 24.4871 31.6758 23.9327 31.6758C23.3782 31.6758 22.9287 32.0164 22.9287 32.4366C22.9287 32.8567 23.3782 33.1973 23.9327 33.1973Z" fill="#4e1f4f8c"/>
<path d="M18.6856 33.1973C19.2401 33.1973 19.6895 32.8567 19.6895 32.4366C19.6895 32.0164 19.2401 31.6758 18.6856 31.6758C18.1311 31.6758 17.6816 32.0164 17.6816 32.4366C17.6816 32.8567 18.1311 33.1973 18.6856 33.1973Z" fill="#4e1f4f8c"/>
<path d="M23.4813 35.2478C23.1337 34.9705 22.4276 34.7167 21.5178 34.7008C20.6064 34.6849 19.8929 34.9138 19.535 35.1788C19.4396 35.2491 19.5637 35.3299 19.7034 35.2874C20.8721 34.9284 22.1603 34.9534 23.3096 35.3504C23.4469 35.3976 23.574 35.3214 23.4813 35.2478Z" fill="#4e1f4f8c"/>
<path fill-rule="evenodd" clip-rule="evenodd" d="M18.8556 3.67665C17.8001 3.04555 16.291 3.18117 15.4285 4.18417L15.2221 4.42407C14.7425 4.98165 14.5107 5.68061 14.572 6.38425C14.6332 7.08788 14.9832 7.74559 15.5535 8.22872L20.1983 12.1648C20.2832 12.2371 20.3293 12.2757 20.3654 12.301L20.368 12.3028L20.3714 12.301C20.4291 12.2579 20.4848 12.2127 20.5384 12.1654L25.1826 8.22872C25.7528 7.74559 26.1028 7.08788 26.1641 6.38425C26.2254 5.68061 25.9935 4.98165 25.5139 4.42407L25.3068 4.18417C24.3983 3.12753 22.7723 3.03289 21.7148 3.78514L21.3013 3.31137C22.632 2.36563 24.6856 2.47775 25.8346 3.81468L26.0417 4.05458C26.6233 4.73067 26.9045 5.57822 26.8302 6.43145C26.756 7.28468 26.3316 8.08224 25.6402 8.66814L20.9953 12.6042L20.986 12.6126C20.9138 12.6729 20.8437 12.7332 20.7789 12.7784C20.6969 12.8387 20.6003 12.8806 20.497 12.9008C20.4118 12.9159 20.3242 12.9159 20.2391 12.9008C20.1357 12.8806 20.0391 12.8387 19.9572 12.7784C19.8854 12.726 19.8163 12.6707 19.7501 12.6126L19.7407 12.6048L15.0959 8.66814C14.4045 8.08216 13.9803 7.28456 13.9062 6.43133C13.8321 5.5781 14.1133 4.7306 14.695 4.05458L14.9008 3.81468C16.0832 2.43977 18.2209 2.36021 19.547 3.39455L19.7882 3.58322L19.5904 3.80925L18.8983 4.60068C18.6732 4.85867 18.5269 5.02684 18.4387 5.16306C18.3552 5.29206 18.3552 5.3463 18.3619 5.38006C18.3686 5.41321 18.39 5.46324 18.5189 5.55727C18.6545 5.65613 18.8576 5.76703 19.1696 5.93581L20.0066 6.38909L20.026 6.39933C20.2912 6.54339 20.519 6.66636 20.686 6.78751C20.8644 6.91651 21.0147 7.07142 21.0695 7.29143C21.1242 7.51083 21.0621 7.70854 20.9619 7.89419C20.8684 8.06779 20.7214 8.2679 20.5491 8.49997L20.5364 8.51685L19.9779 9.27332L19.4221 8.93878L19.9812 8.18291C20.1683 7.92855 20.2899 7.76339 20.3607 7.63139C20.4275 7.50722 20.4255 7.45538 20.4175 7.42343C20.4094 7.39088 20.3874 7.34387 20.2678 7.25767C20.1409 7.16545 19.9532 7.06298 19.6626 6.90566L18.8262 6.45298L18.8061 6.44213C18.5196 6.28722 18.2751 6.15461 18.098 6.02622C17.9103 5.88819 17.7527 5.72243 17.7052 5.48795C17.6571 5.25348 17.7393 5.04794 17.8615 4.85927C17.9764 4.68206 18.1528 4.48013 18.3592 4.24445L18.3739 4.22757L18.8556 3.67665Z" fill="#4e1f4f8c"/>
</svg>
