<svg width="28" height="22" viewBox="0 0 43 46" fill="#4E1F4F" xmlns="http://www.w3.org/2000/svg">
<path d="M34.9372 1.91797L32.9843 6.53714L28.6663 8.6263L32.9843 10.7155L34.9372 15.3346L36.908 10.7155L41.208 8.6263L36.908 6.53714M21.4997 3.83464C11.6455 3.83464 3.58301 12.4596 3.58301 23.0013V42.168H39.4163V23.0013C39.4163 20.1838 38.8251 17.5005 37.8038 15.0855L35.5822 20.2605C35.7434 21.1613 35.833 22.043 35.833 23.0013C35.833 31.4921 29.4368 38.3346 21.4997 38.3346C13.5626 38.3346 7.16634 31.4921 7.16634 23.0013V22.733C9.47546 21.818 11.5818 20.4 13.3521 18.5689C15.1224 16.7378 16.518 14.5335 17.4505 12.0955C19.3854 14.6415 21.8993 16.6132 24.7511 17.8214C27.6028 19.0296 30.697 19.4339 33.7368 18.9955L32.178 15.3346H31.3538C26.3013 15.3346 21.6788 12.4596 19.0988 7.89797C19.8872 7.7638 20.6755 7.66797 21.4997 7.66797C22.3955 7.66797 23.2197 7.7638 24.0438 7.91714L28.8993 5.5788C26.5797 4.43173 24.0551 3.83666 21.4997 3.83464ZM14.4943 9.58464C13.3672 13.2318 11.0187 16.304 7.90092 18.2096C9.02967 14.5105 11.4126 11.5013 14.4943 9.58464ZM16.1247 22.5221C15.5307 22.5221 14.9611 22.7746 14.5411 23.2239C14.121 23.6732 13.8851 24.2826 13.8851 24.918C13.8851 25.5534 14.121 26.1628 14.5411 26.6121C14.9611 27.0614 15.5307 27.3138 16.1247 27.3138C16.7186 27.3138 17.2883 27.0614 17.7083 26.6121C18.1283 26.1628 18.3643 25.5534 18.3643 24.918C18.3643 24.2826 18.1283 23.6732 17.7083 23.2239C17.2883 22.7746 16.7186 22.5221 16.1247 22.5221ZM26.8747 22.5221C26.2807 22.5221 25.7111 22.7746 25.2911 23.2239C24.871 23.6732 24.6351 24.2826 24.6351 24.918C24.6351 25.5534 24.871 26.1628 25.2911 26.6121C25.7111 27.0614 26.2807 27.3138 26.8747 27.3138C27.4686 27.3138 28.0383 27.0614 28.4583 26.6121C28.8783 26.1628 29.1143 25.5534 29.1143 24.918C29.1143 24.2826 28.8783 23.6732 28.4583 23.2239C28.0383 22.7746 27.4686 22.5221 26.8747 22.5221ZM7.16634 34.4438C8.20551 35.9196 9.42384 37.223 10.8034 38.3346H7.16634M35.833 34.4438V38.3346H32.1959C33.5755 37.223 34.7938 35.9196 35.833 34.4438Z" fill="#4E1F4F" fill-opacity="0.4"/>
<path d="M17.9252 33.1579C18.676 33.9845 20.2018 34.7236 22.1644 34.7236C24.1281 34.7236 25.6723 33.9851 26.4446 33.1579C26.6509 32.9354 26.3822 32.6954 26.0806 32.8337C23.5591 33.9922 20.7761 33.9845 18.2984 32.8337C17.997 32.6961 17.7233 32.936 17.9252 33.1579Z" fill="#4E1F4F" fill-opacity="0.4" />
</svg>
