<svg width="28" height="22" viewBox="0 0 66 46" fill="#4E1F4F" xmlns="http://www.w3.org/2000/svg">
<path d="M18.5183 15.2065C18.6528 15.4289 18.7016 15.7011 18.654 15.9632C18.6065 16.2253 18.4665 16.4558 18.2648 16.604C17.2313 17.3633 16.1503 17.7812 15.0156 17.7812C14.7732 17.7812 14.5407 17.675 14.3693 17.486C14.1979 17.297 14.1016 17.0406 14.1016 16.7734C14.1016 16.5061 14.1979 16.2497 14.3693 16.0607C14.5407 15.8717 14.7732 15.7655 15.0156 15.7655C15.7213 15.7655 16.455 15.5116 17.2508 14.927C17.4525 14.7788 17.6994 14.725 17.9371 14.7774C18.1748 14.8298 18.3838 14.9842 18.5183 15.2065ZM22.4817 15.2065C22.3472 15.4289 22.2984 15.7011 22.346 15.9632C22.3935 16.2253 22.5335 16.4558 22.7352 16.604C23.7687 17.3633 24.8497 17.7812 25.9844 17.7812C26.2268 17.7812 26.4593 17.675 26.6307 17.486C26.8021 17.297 26.8984 17.0406 26.8984 16.7734C26.8984 16.5061 26.8021 16.2497 26.6307 16.0607C26.4593 15.8717 26.2268 15.7655 25.9844 15.7655C25.2787 15.7655 24.545 15.5116 23.7492 14.927C23.5475 14.7788 23.3006 14.725 23.0629 14.7774C22.8252 14.8298 22.6162 14.9842 22.4817 15.2065ZM19.0375 23.2744L19.8784 20.2913C20.0612 19.6329 20.9022 19.6329 21.0606 20.2913L21.9016 23.2744C21.9418 23.4155 21.9513 23.5652 21.9293 23.7111C21.9072 23.857 21.8543 23.9952 21.7747 24.1143C21.6952 24.2334 21.5913 24.3302 21.4714 24.3967C21.3516 24.4633 21.2192 24.4977 21.085 24.4972H19.8541C19.2813 24.4972 18.8669 23.8791 19.0375 23.2744ZM22.1916 27.4884C21.0582 26.8636 19.9406 26.8636 18.8084 27.4884C18.736 27.5283 18.6522 27.5349 18.5754 27.5067C18.4986 27.4785 18.4351 27.4177 18.3989 27.3379C18.3627 27.2581 18.3567 27.1657 18.3823 27.081C18.4079 26.9963 18.463 26.9263 18.5354 26.8864C19.8394 26.1675 21.1593 26.1675 22.4646 26.8864C22.537 26.9263 22.5921 26.9963 22.6177 27.081C22.6433 27.1657 22.6373 27.2581 22.6011 27.3379C22.5649 27.4177 22.5014 27.4785 22.4246 27.5067C22.3478 27.5349 22.264 27.5283 22.1916 27.4884Z" fill="#4E1F4F" fill-opacity="0.4" />
<path d="M19.2053 19.8048C19.2894 20.1649 19.0079 20.4699 18.6715 20.4699H18.6411C18.686 20.226 18.6812 19.9741 18.627 19.7324C18.5728 19.4908 18.4705 19.2654 18.3277 19.0727C18.1848 18.8799 18.0048 18.7246 17.8008 18.618C17.5968 18.5113 17.3739 18.456 17.1481 18.456C16.9223 18.456 16.6994 18.5113 16.4954 18.618C16.2914 18.7246 16.1114 18.8799 15.9685 19.0727C15.8257 19.2654 15.7234 19.4908 15.6692 19.7324C15.615 19.9741 15.6102 20.226 15.6551 20.4699H15.0153C14.6789 20.4699 14.3986 20.1649 14.4815 19.8048C14.6153 19.2261 14.9201 18.713 15.3478 18.3466C15.7755 17.9802 16.3018 17.7812 16.8434 17.7812C17.3851 17.7812 17.9113 17.9802 18.339 18.3466C18.7667 18.713 19.0715 19.2261 19.2053 19.8048ZM26.5178 19.8048C26.6019 20.1649 26.3204 20.4699 25.984 20.4699H25.3442C25.3891 20.226 25.3843 19.9741 25.3301 19.7324C25.2759 19.4908 25.1737 19.2654 25.0308 19.0727C24.8879 18.8799 24.7079 18.7246 24.5039 18.618C24.2999 18.5113 24.077 18.456 23.8512 18.456C23.6254 18.456 23.4025 18.5113 23.1985 18.618C22.9945 18.7246 22.8145 18.8799 22.6717 19.0727C22.5288 19.2654 22.4265 19.4908 22.3723 19.7324C22.3181 19.9741 22.3133 20.226 22.3583 20.4699H22.3278C21.9914 20.4699 21.7111 20.1649 21.794 19.8048C21.9278 19.2261 22.2326 18.713 22.6603 18.3466C23.088 17.9802 23.6143 17.7812 24.1559 17.7812C24.6976 17.7812 25.2238 17.9802 25.6515 18.3466C26.0792 18.713 26.384 19.2261 26.5178 19.8048Z" fill="#4E1F4F" fill-opacity="0.4" />
<path d="M18.0104 20.4689C18.0706 20.281 18.079 20.0776 18.0345 19.8844C17.9899 19.6913 17.8945 19.517 17.7601 19.3837C17.6257 19.2504 17.4586 19.164 17.2797 19.1354C17.1008 19.1068 16.9182 19.1374 16.7551 19.2232C16.7834 19.2544 16.8059 19.2915 16.8212 19.3323C16.8365 19.3731 16.8444 19.4169 16.8444 19.461C16.8444 19.5052 16.8365 19.549 16.8212 19.5898C16.8059 19.6306 16.7834 19.6677 16.7551 19.6989C16.7267 19.7301 16.6931 19.7549 16.6561 19.7718C16.6191 19.7887 16.5794 19.7974 16.5393 19.7974C16.4993 19.7974 16.4596 19.7887 16.4226 19.7718C16.3856 19.7549 16.352 19.7301 16.3236 19.6989C16.2718 19.8182 16.2419 19.9477 16.2356 20.0798C16.2293 20.212 16.2468 20.3442 16.2871 20.4689H18.0104ZM24.7135 20.4689C24.7738 20.281 24.7822 20.0776 24.7376 19.8844C24.6931 19.6913 24.5976 19.517 24.4632 19.3837C24.3289 19.2504 24.1617 19.164 23.9828 19.1354C23.8039 19.1068 23.6213 19.1374 23.4582 19.2232C23.5154 19.2863 23.5475 19.3718 23.5475 19.461C23.5475 19.5503 23.5154 19.6358 23.4582 19.6989C23.4299 19.7301 23.3962 19.7549 23.3592 19.7718C23.3222 19.7887 23.2825 19.7974 23.2425 19.7974C23.1616 19.7974 23.084 19.762 23.0268 19.6989C22.9749 19.8182 22.945 19.9477 22.9387 20.0798C22.9325 20.212 22.95 20.3442 22.9902 20.4689H24.7135Z" fill="#4E1F4F" fill-opacity="0.4" />
<path d="M19.7115 4.82788C20.2273 5.0206 20.7868 5.01728 21.3007 4.81848C22.1234 4.39654 23.0374 4.23932 23.9454 4.46104C24.8643 4.68544 25.6785 5.27535 26.3232 6.16491L27.5663 7.62826C27.8308 7.94269 28.1452 8.20607 28.5035 8.4251L29.1495 8.80135C30.8533 9.81588 31.6954 11.9726 31.4163 14.0379L31.4115 14.0648L30.8106 17.9442C31.209 18.3893 31.5122 18.9267 31.6982 19.5174C31.8843 20.1081 31.9484 20.7371 31.8859 21.3586C31.8234 21.9801 31.6359 22.5784 31.3371 23.1098C31.0383 23.6412 30.6357 24.0924 30.1586 24.4305L29.9672 27.3787L29.9636 27.4204C29.8364 28.8617 29.3373 30.2326 28.5255 31.371C31.782 33.9644 33.9062 38.1099 33.9062 42.7969V43.3129C33.9062 43.6693 33.7778 44.0111 33.5493 44.2631C33.3207 44.5151 33.0107 44.6566 32.6875 44.6566H8.3125C7.98927 44.6566 7.67927 44.5151 7.45071 44.2631C7.22215 44.0111 7.09375 43.6693 7.09375 43.3129V42.7969C7.09375 38.1139 9.21437 33.9765 12.4648 31.3831C11.639 30.2323 11.1365 28.8404 11.0193 27.3787L10.8292 24.456C10.3402 24.1183 9.92708 23.6625 9.6211 23.1231C9.31512 22.5836 9.12424 21.9746 9.06286 21.342C9.00147 20.7094 9.0712 20.0696 9.26676 19.471C9.46233 18.8724 9.77863 18.3306 10.1918 17.8864L9.60072 14.0702V14.0675C9.27166 11.9713 10.1418 9.81051 11.8383 8.80269L11.8469 8.79732L12.4855 8.4251C12.828 8.21413 13.1473 7.94135 13.4215 7.61348L13.4252 7.61079L14.9778 5.77791L14.9803 5.77657C16.21 4.31591 18.1088 3.92219 19.7115 4.82654M11.892 20.1426C11.8439 20.0912 11.8002 20.0349 11.7616 19.9746C11.5415 20.2931 11.4445 20.6945 11.4918 21.0915C11.5391 21.4884 11.7267 21.8487 12.0138 22.0937L11.892 20.1426ZM15.0022 32.7819C11.9273 34.6672 9.82131 38.0588 9.55928 41.9691H31.4407C31.1787 38.0575 29.0703 34.6591 25.9929 32.7739C25.7131 32.6026 25.5056 32.3169 25.4152 31.9784C25.0135 32.1872 24.5904 32.342 24.155 32.4393C24.1075 34.7048 22.528 36.5941 20.5 36.5941C18.472 36.5941 16.8925 34.7062 16.8438 32.4393C16.4081 32.3419 15.9846 32.1871 15.5823 31.9784C15.4931 32.3203 15.2845 32.6093 15.0022 32.7819ZM20.5 35.2504C21.7492 35.2504 22.8315 34.1055 22.9302 32.5629H18.0698C18.1685 34.1055 19.2508 35.2504 20.5 35.2504ZM29.47 20.8938C29.4704 20.6098 29.3987 20.3314 29.2628 20.0902C29.214 20.1504 29.1597 20.2049 29.1007 20.2528L28.9886 22.048C29.1397 21.9054 29.2609 21.7283 29.3441 21.5291C29.4272 21.3298 29.4701 21.1131 29.47 20.8938ZM20.5414 11.8638C17.6433 11.8638 15.5507 12.3435 14.6 12.6243C14.5098 12.6512 14.4148 12.7641 14.4148 12.9294V14.5123C14.4148 15.3105 14.1198 16.0737 13.6043 16.622L13.5958 16.6314L13.3106 16.923C13.2074 17.0369 13.1274 17.1737 13.0757 17.3242C13.024 17.4748 13.0019 17.6357 13.0108 17.7964L13.1107 19.4963L13.1656 20.4234L13.2119 21.18L13.179 21.1786L13.5129 26.5402C13.753 29.2989 15.6738 31.2191 17.9772 31.2191H23.0228C25.3238 31.2191 27.2348 29.3016 27.4871 26.5389L28.055 17.4349C28.0092 17.2506 27.9196 17.0832 27.7954 16.9499L27.4786 16.622C27.2222 16.3482 27.0185 16.0203 26.8795 15.6578C26.7404 15.2954 26.669 14.9058 26.6693 14.5123V12.9307C26.6693 12.7668 26.5743 12.6552 26.4865 12.6257C25.5237 12.3556 23.4323 11.8638 20.5414 11.8638Z" fill="#4E1F4F" fill-opacity="0.4" />
<path d="M40.4209 32.5631V10.8556C40.4209 8.97211 40.997 7.16577 42.0225 5.83394C43.048 4.50212 44.4388 3.75391 45.8891 3.75391H53.18C54.6303 3.75391 56.0211 4.50212 57.0466 5.83394C58.0721 7.16577 58.6482 8.97211 58.6482 10.8556V32.5655M49.5346 10.8556V22.6917M45.8891 15.5901H53.18" stroke="white" stroke-width="2" stroke-linecap="round" stroke-linejoin="round" fill-opacity="0.4" />
<path d="M36.7754 44.0002V39.2658C36.7754 37.3823 37.3515 35.5759 38.377 34.2441C39.4025 32.9123 40.7933 32.1641 42.2436 32.1641H56.8255C58.2757 32.1641 59.6666 32.9123 60.6921 34.2441C61.7175 35.5759 62.2937 37.3823 62.2937 39.2658V44.0002H36.7754Z" stroke="white" stroke-width="2" stroke-linecap="round" stroke-linejoin="round" fill-opacity="0.4" />
</svg>
