<svg width="20" height="23" viewBox="0 0 20 23" fill="none" xmlns="http://www.w3.org/2000/svg">
<path d="M2.55018 22.3751C2.01352 22.3751 1.56552 22.189 1.20618 21.8168C0.846071 21.4439 0.666016 20.9795 0.666016 20.4236V4.99321C0.666016 4.43738 0.846071 3.97338 1.20618 3.60121C1.56552 3.22824 2.01352 3.04175 2.55018 3.04175H4.61518V0.347168H5.87168V3.04175H14.2168V0.347168H15.3835V3.04175H17.4485C17.9852 3.04175 18.4332 3.22824 18.7925 3.60121C19.1526 3.97338 19.3327 4.43738 19.3327 4.99321V20.4236C19.3327 20.9795 19.153 21.4435 18.7937 21.8156C18.4336 22.1886 17.9852 22.3751 17.4485 22.3751H2.55018ZM2.55018 21.1668H17.4485C17.6274 21.1668 17.7919 21.0894 17.942 20.9348C18.0913 20.7793 18.166 20.6089 18.166 20.4236V9.82654H1.83268V20.4236C1.83268 20.6089 1.90735 20.7793 2.05668 20.9348C2.20679 21.0894 2.37129 21.1668 2.55018 21.1668ZM1.83268 8.61821H18.166V4.99321C18.166 4.80793 18.0913 4.63756 17.942 4.48208C17.7919 4.32742 17.6274 4.25008 17.4485 4.25008H2.55018C2.37129 4.25008 2.20679 4.32742 2.05668 4.48208C1.90735 4.63756 1.83268 4.80793 1.83268 4.99321V8.61821ZM9.99935 14.1028C9.75824 14.1028 9.54824 14.0102 9.36935 13.8249C9.19046 13.6396 9.10102 13.4221 9.10102 13.1724C9.10102 12.9235 9.19046 12.7064 9.36935 12.5211C9.54824 12.3358 9.75824 12.2432 9.99935 12.2432C10.2405 12.2432 10.4505 12.3358 10.6293 12.5211C10.8082 12.7064 10.8977 12.9239 10.8977 13.1736C10.8977 13.4233 10.8082 13.6404 10.6293 13.8249C10.4505 14.0102 10.2405 14.1028 9.99935 14.1028ZM5.33268 14.1028C5.09157 14.1028 4.88157 14.0102 4.70268 13.8249C4.52379 13.6396 4.43435 13.4221 4.43435 13.1724C4.43435 12.9235 4.52379 12.7064 4.70268 12.5211C4.88157 12.3358 5.09157 12.2432 5.33268 12.2432C5.57379 12.2432 5.78379 12.3358 5.96268 12.5211C6.14157 12.7064 6.23102 12.9239 6.23102 13.1736C6.23102 13.4233 6.14157 13.6404 5.96268 13.8249C5.78379 14.0102 5.57379 14.1028 5.33268 14.1028ZM14.666 14.1028C14.4249 14.1028 14.2149 14.0102 14.036 13.8249C13.8571 13.6396 13.7677 13.4221 13.7677 13.1724C13.7677 12.9235 13.8571 12.7064 14.036 12.5211C14.2149 12.3358 14.4249 12.2432 14.666 12.2432C14.9071 12.2432 15.1171 12.3358 15.296 12.5211C15.4749 12.7064 15.5643 12.9239 15.5643 13.1736C15.5643 13.4233 15.4749 13.6404 15.296 13.8249C15.1171 14.0102 14.9071 14.1028 14.666 14.1028ZM9.99935 18.7501C9.75824 18.7501 9.54824 18.6574 9.36935 18.4722C9.19046 18.2869 9.10102 18.0694 9.10102 17.8197C9.10102 17.5708 9.19046 17.3537 9.36935 17.1684C9.54824 16.9831 9.75824 16.8905 9.99935 16.8905C10.2405 16.8905 10.4505 16.9831 10.6293 17.1684C10.8082 17.3537 10.8977 17.5712 10.8977 17.8209C10.8977 18.0706 10.8082 18.2881 10.6293 18.4734C10.4505 18.6578 10.2405 18.7501 9.99935 18.7501ZM5.33268 18.7501C5.09157 18.7501 4.88157 18.6574 4.70268 18.4722C4.52379 18.2869 4.43435 18.0694 4.43435 17.8197C4.43435 17.5708 4.52379 17.3537 4.70268 17.1684C4.88157 16.9831 5.09157 16.8905 5.33268 16.8905C5.57379 16.8905 5.78379 16.9831 5.96268 17.1684C6.14157 17.3537 6.23102 17.5712 6.23102 17.8209C6.23102 18.0706 6.14157 18.2881 5.96268 18.4734C5.78379 18.6578 5.57379 18.7501 5.33268 18.7501ZM14.666 18.7501C14.4249 18.7501 14.2149 18.6574 14.036 18.4722C13.8571 18.2869 13.7677 18.0694 13.7677 17.8197C13.7677 17.5708 13.8571 17.3537 14.036 17.1684C14.2149 16.9831 14.4249 16.8905 14.666 16.8905C14.9071 16.8905 15.1171 16.9831 15.296 17.1684C15.4749 17.3537 15.5643 17.5712 15.5643 17.8209C15.5643 18.0706 15.4749 18.2881 15.296 18.4734C15.1171 18.6578 14.9071 18.7501 14.666 18.7501Z" fill="#4E1F4F" fill-opacity="0.4"/>
</svg>
