<svg width="18" height="7" viewBox="0 0 18 7" fill="none" xmlns="http://www.w3.org/2000/svg">
<g clip-path="url(#clip0_2076_6633)">
<path d="M3.37547 1.5C3.37457 1.43442 3.38912 1.36941 3.41818 1.30913C3.44724 1.24885 3.49018 1.19465 3.54422 1.15C3.76922 0.95 4.11797 0.95 4.34297 1.15L9.01172 5.3L13.6692 1.15C13.8942 0.95 14.243 0.95 14.468 1.15C14.693 1.35 14.693 1.66 14.468 1.86L9.39422 6.35C9.16922 6.55 8.82047 6.55 8.59547 6.35L3.54422 1.85C3.43172 1.75 3.37547 1.62 3.37547 1.5Z" fill="white"/>
</g>
<defs>
<clipPath id="clip0_2076_6633">
<rect width="7" height="18" fill="white" transform="matrix(0 1 -1 0 18 0)"/>
</clipPath>
</defs>
</svg>
