<svg width="53" height="54" viewBox="0 0 53 54" fill="none" xmlns="http://www.w3.org/2000/svg">
<g filter="url(#filter0_d_760_2554)">
<rect x="4" y="0.285156" width="45" height="45" rx="10" fill="#2F779C"/>
<path d="M35.6702 32.9896C36.1952 33.5236 37.0056 32.6994 36.4806 32.1771L32.2007 27.8128C33.702 26.1234 34.5319 23.9266 34.5289 21.6494C34.5289 16.5539 30.4545 12.4102 25.4442 12.4102C20.4338 12.4102 16.3594 16.5539 16.3594 21.6494C16.3594 26.745 20.4338 30.8887 25.4442 30.8887C27.7039 30.8887 29.7925 30.0414 31.3903 28.6369L35.6702 32.9896ZM17.4995 21.6494C17.4995 17.1923 21.0718 13.5709 25.443 13.5709C29.8256 13.5709 33.3865 17.1923 33.3865 21.6494C33.3865 26.1066 29.8256 29.728 25.443 29.728C21.0718 29.728 17.4995 26.1066 17.4995 21.6494Z" fill="white"/>
</g>
<defs>
<filter id="filter0_d_760_2554" x="0" y="0.285156" width="53" height="53" filterUnits="userSpaceOnUse" color-interpolation-filters="sRGB">
<feFlood flood-opacity="0" result="BackgroundImageFix"/>
<feColorMatrix in="SourceAlpha" type="matrix" values="0 0 0 0 0 0 0 0 0 0 0 0 0 0 0 0 0 0 127 0" result="hardAlpha"/>
<feOffset dy="4"/>
<feGaussianBlur stdDeviation="2"/>
<feComposite in2="hardAlpha" operator="out"/>
<feColorMatrix type="matrix" values="0 0 0 0 0 0 0 0 0 0 0 0 0 0 0 0 0 0 0.25 0"/>
<feBlend mode="normal" in2="BackgroundImageFix" result="effect1_dropShadow_760_2554"/>
<feBlend mode="normal" in="SourceGraphic" in2="effect1_dropShadow_760_2554" result="shape"/>
</filter>
</defs>
</svg>
