<svg width="42" height="41" viewBox="0 0 42 41" fill="none" xmlns="http://www.w3.org/2000/svg">
<path d="M24.5 37.5833H17.5C10.9008 37.5833 7.60025 37.5833 5.551 35.5812C3.5 33.5807 3.5 30.3588 3.5 23.9167V20.5C3.5 14.0579 3.5 10.836 5.551 8.83551C7.60025 6.83334 10.9008 6.83334 17.5 6.83334H24.5C31.0993 6.83334 34.3998 6.83334 36.449 8.83551C38.5 10.836 38.5 14.0579 38.5 20.5V23.9167C38.5 30.3588 38.5 33.5807 36.449 35.5812C35.3063 36.6984 33.775 37.1921 31.5 37.4091M12.25 6.83334V4.27084M29.75 6.83334V4.27084M37.625 15.375H18.8125M3.5 15.375H10.2813" stroke="#3C759A" stroke-width="1.5" stroke-linecap="round"/>
<path d="M31.5 29.0417C31.5 29.4947 31.3156 29.9293 30.9874 30.2496C30.6593 30.57 30.2141 30.75 29.75 30.75C29.2859 30.75 28.8407 30.57 28.5126 30.2496C28.1844 29.9293 28 29.4947 28 29.0417C28 28.5886 28.1844 28.1541 28.5126 27.8337C28.8407 27.5133 29.2859 27.3333 29.75 27.3333C30.2141 27.3333 30.6593 27.5133 30.9874 27.8337C31.3156 28.1541 31.5 28.5886 31.5 29.0417ZM31.5 22.2083C31.5 22.6614 31.3156 23.0959 30.9874 23.4163C30.6593 23.7367 30.2141 23.9167 29.75 23.9167C29.2859 23.9167 28.8407 23.7367 28.5126 23.4163C28.1844 23.0959 28 22.6614 28 22.2083C28 21.7553 28.1844 21.3207 28.5126 21.0004C28.8407 20.68 29.2859 20.5 29.75 20.5C30.2141 20.5 30.6593 20.68 30.9874 21.0004C31.3156 21.3207 31.5 21.7553 31.5 22.2083ZM22.75 29.0417C22.75 29.4947 22.5656 29.9293 22.2374 30.2496C21.9092 30.57 21.4641 30.75 21 30.75C20.5359 30.75 20.0908 30.57 19.7626 30.2496C19.4344 29.9293 19.25 29.4947 19.25 29.0417C19.25 28.5886 19.4344 28.1541 19.7626 27.8337C20.0908 27.5133 20.5359 27.3333 21 27.3333C21.4641 27.3333 21.9092 27.5133 22.2374 27.8337C22.5656 28.1541 22.75 28.5886 22.75 29.0417ZM22.75 22.2083C22.75 22.6614 22.5656 23.0959 22.2374 23.4163C21.9092 23.7367 21.4641 23.9167 21 23.9167C20.5359 23.9167 20.0908 23.7367 19.7626 23.4163C19.4344 23.0959 19.25 22.6614 19.25 22.2083C19.25 21.7553 19.4344 21.3207 19.7626 21.0004C20.0908 20.68 20.5359 20.5 21 20.5C21.4641 20.5 21.9092 20.68 22.2374 21.0004C22.5656 21.3207 22.75 21.7553 22.75 22.2083ZM14 29.0417C14 29.4947 13.8156 29.9293 13.4874 30.2496C13.1592 30.57 12.7141 30.75 12.25 30.75C11.7859 30.75 11.3408 30.57 11.0126 30.2496C10.6844 29.9293 10.5 29.4947 10.5 29.0417C10.5 28.5886 10.6844 28.1541 11.0126 27.8337C11.3408 27.5133 11.7859 27.3333 12.25 27.3333C12.7141 27.3333 13.1592 27.5133 13.4874 27.8337C13.8156 28.1541 14 28.5886 14 29.0417ZM14 22.2083C14 22.6614 13.8156 23.0959 13.4874 23.4163C13.1592 23.7367 12.7141 23.9167 12.25 23.9167C11.7859 23.9167 11.3408 23.7367 11.0126 23.4163C10.6844 23.0959 10.5 22.6614 10.5 22.2083C10.5 21.7553 10.6844 21.3207 11.0126 21.0004C11.3408 20.68 11.7859 20.5 12.25 20.5C12.7141 20.5 13.1592 20.68 13.4874 21.0004C13.8156 21.3207 14 21.7553 14 22.2083Z" fill="#3C759A"/>
</svg>
