<svg xmlns="http://www.w3.org/2000/svg" width="19.899" height="21.005" viewBox="0 0 19.899 21.005">
  <path id="calender" d="M279.078,529v2.793M287.811,529v2.793m-7.641,10.892h3.274m-3.274-3.351h6.549m-12.349,3.274a14.679,14.679,0,0,1,0-6.55,7.979,7.979,0,0,1,5.874-6.011,13.693,13.693,0,0,1,6.4,0,7.979,7.979,0,0,1,5.874,6.011,14.678,14.678,0,0,1,0,6.55,7.979,7.979,0,0,1-5.874,6.012,13.693,13.693,0,0,1-6.4,0A7.979,7.979,0,0,1,274.37,542.609Z" transform="translate(-273.495 -528.5)" fill="none" stroke="#2f779c" stroke-linecap="round" stroke-width="1"/>
</svg>
