<svg width="58" height="67" viewBox="0 0 58 67" fill="none" xmlns="http://www.w3.org/2000/svg">
<path d="M13.2566 4.78564C11.9381 4.78564 10.6736 5.39069 9.74125 6.46769C8.80893 7.54468 8.28516 9.0054 8.28516 10.5285V56.4714C8.28516 57.9945 8.80893 59.4552 9.74125 60.5322C10.6736 61.6092 11.9381 62.2142 13.2566 62.2142H44.7423C46.0608 62.2142 47.3253 61.6092 48.2576 60.5322C49.19 59.4552 49.7137 57.9945 49.7137 56.4714V27.7044C49.7137 25.96 49.113 24.2874 48.0462 23.0527L33.6892 6.46782C32.7569 5.39081 31.4924 4.78572 30.1739 4.78564H13.2566ZM11.3923 10.5285C11.3923 9.95734 11.5887 9.40957 11.9383 9.0057C12.288 8.60182 12.7621 8.37493 13.2566 8.37493H28.9994V23.9285C28.9994 25.1978 29.4359 26.415 30.2129 27.3125C30.9898 28.21 32.0435 28.7142 33.1423 28.7142H46.6066V56.4714C46.6066 57.0425 46.4102 57.5903 46.0606 57.9942C45.7109 58.398 45.2367 58.6249 44.7423 58.6249H13.2566C12.7621 58.6249 12.288 58.398 11.9383 57.9942C11.5887 57.5903 11.3923 57.0425 11.3923 56.4714V10.5285ZM45.4466 25.1249H33.1423C32.8676 25.1249 32.6042 24.9989 32.4099 24.7745C32.2157 24.5501 32.1066 24.2458 32.1066 23.9285V9.71493L45.4466 25.1249Z" fill="#4E1F4F"/>
<path d="M39.375 37.5703H36.0012L34.3359 35.154C34.2716 35.0608 34.1845 34.9845 34.0822 34.9317C33.98 34.8789 33.8659 34.8514 33.75 34.8516H26.25C26.1341 34.8514 26.02 34.8789 25.9178 34.9317C25.8155 34.9845 25.7284 35.0608 25.6641 35.154L23.9977 37.5703H20.625C19.9412 37.5703 19.2855 37.8329 18.802 38.3003C18.3185 38.7676 18.0469 39.4015 18.0469 40.0625V52.75C18.0469 53.411 18.3185 54.0449 18.802 54.5122C19.2855 54.9796 19.9412 55.2422 20.625 55.2422H39.375C40.0588 55.2422 40.7145 54.9796 41.198 54.5122C41.6815 54.0449 41.9531 53.411 41.9531 52.75V40.0625C41.9531 39.4015 41.6815 38.7676 41.198 38.3003C40.7145 37.8329 40.0588 37.5703 39.375 37.5703ZM40.5469 52.75C40.5469 53.0504 40.4234 53.3386 40.2036 53.551C39.9839 53.7635 39.6858 53.8828 39.375 53.8828H20.625C20.3142 53.8828 20.0161 53.7635 19.7964 53.551C19.5766 53.3386 19.4531 53.0504 19.4531 52.75V40.0625C19.4531 39.7621 19.5766 39.4739 19.7964 39.2615C20.0161 39.049 20.3142 38.9297 20.625 38.9297H24.375C24.4909 38.9299 24.605 38.9023 24.7072 38.8496C24.8095 38.7968 24.8966 38.7204 24.9609 38.6272L26.6262 36.2109H33.3727L35.0391 38.6272C35.1034 38.7204 35.1905 38.7968 35.2928 38.8496C35.395 38.9023 35.5091 38.9299 35.625 38.9297H39.375C39.6858 38.9297 39.9839 39.049 40.2036 39.2615C40.4234 39.4739 40.5469 39.7621 40.5469 40.0625V52.75ZM30 41.1953C29.0265 41.1953 28.075 41.4744 27.2656 41.9971C26.4562 42.5199 25.8253 43.263 25.4528 44.1324C25.0803 45.0018 24.9828 45.9584 25.1727 46.8813C25.3626 47.8043 25.8314 48.652 26.5197 49.3174C27.208 49.9828 28.085 50.4359 29.0398 50.6195C29.9945 50.8031 30.9842 50.7089 31.8835 50.3488C32.7829 49.9887 33.5516 49.3788 34.0924 48.5964C34.6332 47.814 34.9219 46.8941 34.9219 45.9531C34.9219 44.6913 34.4033 43.4811 33.4803 42.5888C32.5573 41.6966 31.3054 41.1953 30 41.1953ZM30 49.3516C29.3047 49.3516 28.625 49.1522 28.0468 48.7788C27.4687 48.4054 27.0181 47.8746 26.752 47.2537C26.4859 46.6327 26.4163 45.9494 26.5519 45.2901C26.6876 44.6309 27.0224 44.0253 27.5141 43.5501C28.0057 43.0748 28.6322 42.7511 29.3141 42.62C29.9961 42.4889 30.703 42.5562 31.3454 42.8134C31.9878 43.0706 32.5368 43.5062 32.9231 44.0651C33.3094 44.6239 33.5156 45.281 33.5156 45.9531C33.5156 46.8544 33.1452 47.7189 32.4859 48.3562C31.8266 48.9935 30.9324 49.3516 30 49.3516Z" fill="#4E1F4F"/>
</svg>
