<svg xmlns="http://www.w3.org/2000/svg" width="92.08" height="31.963" viewBox="0 0 92.08 31.963">
  <path id="Path_9500" data-name="Path 9500" d="M430,152.385a5.065,5.065,0,0,0,2.232-.736c1.092-1.014.761-4.177.744-5.8,0-.394-1-.4-1.029-.808-.144-2.5-1.222-7.092-1.494-9.66a4.055,4.055,0,0,0-2.125-3.182c-1.926-1.19-7.441-4.436-9.534-5.314-1.382-.579-1.045-.72-2.529-.933-7.368-1.057-23.479-2.306-30.7-.012A72.067,72.067,0,0,0,369.1,133.9c-9.484,1.635-17.223,3.024-21.829,4.263a5.446,5.446,0,0,0-3.858,2.984c-.747,1.447-1.1,2.3-1.445,3.117-.82.068-1.019.825-1,1.848a14.974,14.974,0,0,0,.32,4.342,2.674,2.674,0,0,0,2.629,1.892l2.309.076c1.121-.213,1.465-.152,1.369-1.651-.033-.514-.041-1.042-.041-1.585a9.661,9.661,0,0,1,19.322,0c0,.746,0,1.472-.05,2.17-.167,2.378-.907,2.132,1.378,2.25l38.824-.043c1.66-.2,2.105,0,1.875-2.257a21.1,21.1,0,0,1-.084-2.119,9.661,9.661,0,0,1,19.322,0c0,.48,0,.949-.016,1.4-.062,1.833-.466,2.2,1.881,1.8m-30.939-17.678c.6-4.873.668-6.283,1.126-7.468a1.137,1.137,0,0,1,.827-.577c3.508.167,7.411.108,10.808.9,1.207.338,3.677,3.148,4.295,4,.239.325,2.013,2.386,1.728,2.811a1.041,1.041,0,0,1-.926.5c-5.282.177-11.179.734-16.454.8-1.479.018-1.567.379-1.4-.954m-20.055,1.715a7.728,7.728,0,0,0,.349-1.679c.077-1.289-2.752-1.385-4.213-1.29a46.871,46.871,0,0,1,11.278-5.655c3.1-1.04,7.283-1.064,10.609-1.135.579-.006.558.237.485.717-.232,1.529-.8,4.833-1.141,7.05-.166,1.071-.419,1.325-1.514,1.333-4.321.037-15.906.866-15.853.659m39.469,5.327a7.431,7.431,0,1,1-7.431,7.431,7.431,7.431,0,0,1,7.431-7.431m-61.264,0a7.431,7.431,0,1,1-7.431,7.431,7.431,7.431,0,0,1,7.431-7.431" transform="translate(-340.957 -124.649)" fill="#2f779c" fill-rule="evenodd" opacity="0.6"/>
</svg>
