<svg width="25" height="24" viewBox="0 0 25 24" fill="none" xmlns="http://www.w3.org/2000/svg">
<path d="M19.0622 23.4204H1.86902C1.37249 23.4195 0.896604 23.2248 0.545829 22.8791C0.195053 22.5333 -0.00195393 22.0648 -0.00195307 21.5763V12.0198C-0.00206774 11.5635 0.169704 11.1234 0.480179 10.7844C0.790653 10.4454 1.21781 10.2316 1.67913 10.1843C1.54606 9.75361 1.57747 9.28992 1.76747 8.88041C1.95746 8.4709 2.29295 8.14376 2.71087 7.96049L18.4155 1.08587C18.8693 0.888711 19.3838 0.875988 19.8471 1.05048C20.3103 1.22497 20.6847 1.57254 20.8886 2.01741L24.8388 10.7525C25.0383 11.1986 25.0506 11.7042 24.8731 12.1592C24.6956 12.6142 24.3427 12.9818 23.891 13.1821L20.9332 14.4735V21.5737C20.9332 22.0621 20.7363 22.5305 20.3857 22.8762C20.0351 23.2219 19.5595 23.4167 19.0631 23.4178L19.0622 23.4204ZM1.86902 10.9669C1.58632 10.9678 1.31554 11.079 1.11605 11.2761C0.916563 11.4731 0.804665 11.74 0.804898 12.0181V21.5746C0.804665 21.8526 0.916591 22.1194 1.1161 22.3163C1.31562 22.5132 1.5864 22.6242 1.86902 22.6249H19.0631C19.3455 22.6238 19.6159 22.5126 19.8152 22.3158C20.0145 22.1189 20.1263 21.8524 20.1263 21.5746V12.0181C20.1268 11.7401 20.0151 11.4732 19.8158 11.2761C19.6164 11.079 19.3457 10.9678 19.0631 10.9669H1.86902ZM20.9332 12.0181V13.6074L23.5646 12.4555C23.8212 12.3425 24.0219 12.1341 24.1227 11.876C24.2236 11.6179 24.2164 11.3309 24.1028 11.078L21.8275 6.04576L12.3895 10.1783H19.0622C19.5586 10.1794 20.0343 10.3742 20.3848 10.7199C20.7354 11.0657 20.9323 11.5341 20.9323 12.0224L20.9332 12.0181ZM7.60009 10.174H10.4065L21.5002 5.31654L21.0364 4.2903L7.60009 10.174ZM2.54286 10.174H5.61623L20.7083 3.56625L20.1526 2.34027C20.0363 2.08692 19.823 1.88908 19.559 1.78989C19.2951 1.6907 19.002 1.69821 18.7437 1.81079L3.03904 8.68455C2.90267 8.74547 2.78065 8.83359 2.6807 8.94332C2.58075 9.05306 2.50506 9.18202 2.45841 9.32204C2.41177 9.46206 2.39519 9.61008 2.40973 9.75673C2.42426 9.90338 2.4696 10.0455 2.54286 10.174ZM18.2947 20.5147H2.63824C2.53125 20.5147 2.42863 20.4729 2.35298 20.3985C2.27732 20.3241 2.23481 20.2231 2.23481 20.1179C2.23481 20.0126 2.27732 19.9116 2.35298 19.8372C2.42863 19.7628 2.53125 19.721 2.63824 19.721H18.293C18.4 19.721 18.5026 19.7628 18.5783 19.8372C18.6539 19.9116 18.6964 20.0126 18.6964 20.1179C18.6964 20.2231 18.6539 20.3241 18.5783 20.3985C18.5026 20.4729 18.4 20.5147 18.293 20.5147H18.2947ZM5.37645 16.272H2.99703C2.79495 16.2718 2.60121 16.1927 2.45832 16.0521C2.31542 15.9116 2.23505 15.721 2.23481 15.5221V13.1847C2.23505 12.9859 2.31542 12.7953 2.45832 12.6547C2.60121 12.5141 2.79495 12.435 2.99703 12.4348H5.37645C5.57853 12.435 5.77226 12.5141 5.91515 12.6547C6.05805 12.7953 6.13843 12.9859 6.13866 13.1847V15.5221C6.13843 15.721 6.05805 15.9116 5.91515 16.0521C5.77226 16.1927 5.57853 16.2718 5.37645 16.272ZM3.04167 15.4757H5.32831V13.2286H3.04167V15.4757ZM18.293 15.3474C18.186 15.3474 18.0834 15.3056 18.0077 15.2311C17.9321 15.1567 17.8896 15.0557 17.8896 14.9505V13.7538C17.8896 13.6485 17.9321 13.5476 18.0077 13.4731C18.0834 13.3987 18.186 13.3569 18.293 13.3569C18.4 13.3569 18.5026 13.3987 18.5783 13.4731C18.6539 13.5476 18.6964 13.6485 18.6964 13.7538V14.9531C18.6964 15.0583 18.6539 15.1593 18.5783 15.2337C18.5026 15.3081 18.4 15.35 18.293 15.35V15.3474ZM16.5122 15.3474C16.4052 15.3474 16.3025 15.3056 16.2269 15.2311C16.1512 15.1567 16.1087 15.0557 16.1087 14.9505V13.7538C16.1087 13.6485 16.1512 13.5476 16.2269 13.4731C16.3025 13.3987 16.4052 13.3569 16.5122 13.3569C16.6191 13.3569 16.7218 13.3987 16.7974 13.4731C16.8731 13.5476 16.9156 13.6485 16.9156 13.7538V14.9531C16.9156 15.0583 16.8731 15.1593 16.7974 15.2337C16.7218 15.3081 16.6191 15.35 16.5122 15.35V15.3474Z" fill="#2F779C"/>
</svg>
