<svg xmlns="http://www.w3.org/2000/svg" width="32" height="18.999" viewBox="0 0 32 18.999">
  <g id="Group_1" data-name="Group 1" transform="translate(-48.122 -15)">
    <g id="Group_1863" data-name="Group 1863" transform="translate(-268.899 -1981.792)">
      <g id="Group_1537" data-name="Group 1537" transform="translate(319.563 1997)">
        <path id="Subtraction_44" data-name="Subtraction 44" d="M1764.457-11427.308h0v-1.024a4,4,0,0,0,3-3.875v-6a4,4,0,0,0-4-4h-19a3.992,3.992,0,0,0-3.807,2.771l-1.049.034a4.987,4.987,0,0,1,4.856-3.806h19a5.006,5.006,0,0,1,5,5v6a5.013,5.013,0,0,1-4,4.9Z" transform="translate(-1739 11443)" fill="#4e1f4f"/>
      </g>
      <g id="Group_1536" data-name="Group 1536" transform="translate(317 1999.563)">
        <g id="Rectangle_2518" data-name="Rectangle 2518" transform="translate(0.022 0.229)" fill="none" stroke="#4e1f4f" stroke-width="1">
          <rect width="29" height="16" rx="5" stroke="none"/>
          <rect x="0.5" y="0.5" width="28" height="15" rx="4.5" fill="none"/>
        </g>
        <g id="Ellipse_650" data-name="Ellipse 650" transform="translate(9.022 2.229)" fill="none" stroke="#4e1f4f" stroke-width="1">
          <circle cx="6" cy="6" r="6" stroke="none"/>
          <circle cx="6" cy="6" r="5.5" fill="none"/>
        </g>
        <path id="Path_6883" data-name="Path 6883" d="M3.036-5.8a2.747,2.747,0,0,1-1.283-.288A2.634,2.634,0,0,1,.8-6.955l.627-.72a2.842,2.842,0,0,0,.8.822,1.729,1.729,0,0,0,.906.229,1.607,1.607,0,0,0,.584-.1,1.017,1.017,0,0,0,.415-.28.607.607,0,0,0,.152-.407A.813.813,0,0,0,4.231-7.7a.714.714,0,0,0-.157-.246,1.171,1.171,0,0,0-.271-.2,2.136,2.136,0,0,0-.385-.165,3.737,3.737,0,0,0-.508-.123A3.191,3.191,0,0,1,1.9-8.793a1.576,1.576,0,0,1-.6-.6,1.739,1.739,0,0,1-.2-.847,1.424,1.424,0,0,1,.157-.661,1.653,1.653,0,0,1,.432-.529,2.009,2.009,0,0,1,.648-.347,2.556,2.556,0,0,1,.8-.123,2.561,2.561,0,0,1,1.2.267,1.979,1.979,0,0,1,.809.775l-.644.635A1.9,1.9,0,0,0,3.9-10.86a1.446,1.446,0,0,0-.784-.22,1.5,1.5,0,0,0-.576.1.912.912,0,0,0-.385.284.682.682,0,0,0-.14.428.775.775,0,0,0,.068.326.732.732,0,0,0,.208.263,1.335,1.335,0,0,0,.377.2,3.82,3.82,0,0,0,.568.157,4.566,4.566,0,0,1,.83.258,2.507,2.507,0,0,1,.618.368,1.481,1.481,0,0,1,.385.474A1.251,1.251,0,0,1,5.2-7.65a1.8,1.8,0,0,1-.263.983,1.71,1.71,0,0,1-.745.64A2.713,2.713,0,0,1,3.036-5.8Zm-.508.686V-8.963l.822.28v3.566Zm1.16-3.566-.822-.28v-3.549h.822Z" transform="translate(12.062 17.044)" fill="#4e1f4f"/>
      </g>
    </g>
  </g>
</svg>
