<svg width="28" height="22" viewBox="0 0 28 22" fill="none" xmlns="http://www.w3.org/2000/svg">
<path d="M27.8706 11.3624C27.6217 9.92153 27.029 8.58266 26.1425 7.44481L26.3874 7.35527C27.4389 6.97091 27.9836 5.80063 27.6015 4.74649L26.9874 3.05161C26.6141 2.02174 25.8627 1.20005 24.8715 0.737938C23.8831 0.277104 22.7746 0.229504 21.7505 0.603888L20.0686 1.21878C19.0171 1.60314 18.4724 2.77342 18.8544 3.82756L18.9445 4.0763C17.4955 4.12681 16.0828 4.53783 14.8177 5.28245C14.5337 5.44964 14.2609 5.63158 14 5.82752C13.73 5.62481 13.4473 5.4371 13.1527 5.26519C11.894 4.53083 10.4926 4.12611 9.05539 4.07618L9.14552 3.82756C9.52754 2.77342 8.98288 1.60314 7.93137 1.21878L6.24938 0.603888C5.22523 0.229504 4.11689 0.277163 3.12838 0.737938C2.13723 1.20005 1.38578 2.02174 1.01257 3.05161L0.398318 4.74649C0.0162931 5.80063 0.560951 6.97091 1.61247 7.35527L1.85758 7.44487C0.956101 8.60226 0.358651 9.96703 0.117501 11.4316C-0.170374 13.18 0.0731097 14.9563 0.821585 16.5684C1.81098 18.6994 3.56827 20.3142 5.76983 21.1153C7.96293 21.9135 10.3349 21.8077 12.4491 20.8176C13.0074 20.5561 13.5254 20.2426 14 19.8854C14.4746 20.2426 14.9925 20.5561 15.5509 20.8176C16.7271 21.3685 17.9831 21.6456 19.2438 21.6456C20.249 21.6456 21.2572 21.4694 22.2301 21.1153C24.4317 20.3142 26.1889 18.6994 27.1783 16.5684C27.9373 14.9336 28.1767 13.1334 27.8706 11.3624ZM26.5047 5.14385C26.6682 5.595 26.4359 6.09556 25.9868 6.25971L22.3767 7.57945C22.3632 7.58435 22.3497 7.58895 22.3361 7.59321L23.5258 5.03057C24.4774 5.33962 25.496 5.33326 26.4548 5.00613L26.5047 5.14385ZM22.1511 1.69933C22.882 1.4321 23.6731 1.46611 24.3785 1.795C25.0867 2.12516 25.6236 2.71258 25.8905 3.44892L26.0573 3.90917C25.2075 4.19308 24.2965 4.14169 23.4809 3.76135C23.4792 3.7606 23.4777 3.75984 23.476 3.75908C23.4757 3.75896 23.4754 3.75879 23.4751 3.75861C22.6569 3.3753 22.0294 2.70529 21.6987 1.8647L22.1511 1.69933ZM20.4691 2.31422L20.6027 2.2654C20.9696 3.21483 21.6202 4.00297 22.4691 4.53631L21.2807 7.0961C21.2756 7.08396 21.2709 7.07171 21.2664 7.05929L19.9512 3.4302C19.7877 2.97893 20.0201 2.47837 20.4691 2.31422ZM7.39715 2.2654L7.53073 2.31422C7.97978 2.47837 8.21213 2.97893 8.04862 3.43008L6.73343 7.05917C6.72894 7.0716 6.72416 7.0839 6.71914 7.09598L5.53066 4.5362C6.3797 4.00297 7.03035 3.21483 7.39715 2.2654ZM2.10935 3.44892C2.37623 2.71258 2.91318 2.12516 3.62135 1.795C4.32678 1.46617 5.11778 1.4321 5.84875 1.69933L6.30124 1.8647C5.96979 2.70727 5.34008 3.37851 4.51893 3.76135C3.70337 4.14163 2.79238 4.1932 1.94258 3.90917L2.10935 3.44892ZM1.49516 5.14385L1.54503 5.00613C2.50374 5.33326 3.52236 5.33962 4.47401 5.03057L5.66378 7.59321C5.65018 7.58895 5.63665 7.5844 5.62312 7.57945L2.01298 6.25977C1.56399 6.09556 1.33165 5.595 1.49516 5.14385ZM11.9542 19.7613C10.1231 20.6189 8.06845 20.7105 6.16883 20.0193C4.26086 19.3249 2.7376 17.925 1.87975 16.0773C0.606743 13.3355 1.05725 10.1421 3.01772 7.86901L5.22254 8.675C5.73273 8.8615 6.28473 8.83781 6.77707 8.60821C7.27051 8.37815 7.6446 7.96917 7.83033 7.4566L8.63434 5.23806C10.2688 5.21059 11.8204 5.70391 13.1 6.60481C12.3663 7.33205 11.764 8.1888 11.3197 9.1457C9.71882 12.5938 10.5469 16.5645 13.0951 19.1011C12.7404 19.3499 12.3595 19.5715 11.9542 19.7613ZM12.3779 9.63686C12.7846 8.76075 13.3384 7.99099 14.001 7.35055C14.6621 7.99058 15.215 8.76017 15.622 9.63686C17.0283 12.6656 16.2748 16.1589 14 18.3547C11.7251 16.1589 10.9716 12.6656 12.3779 9.63686ZM26.1201 16.0773C25.2623 17.9249 23.7391 19.3249 21.831 20.0192C19.9315 20.7105 17.8769 20.6189 16.0457 19.7613C15.6403 19.5714 15.2594 19.3499 14.9048 19.1011C17.453 16.5645 18.281 12.5938 16.6801 9.1457C16.236 8.18909 15.6343 7.33293 14.9014 6.60615C16.1812 5.70578 17.7328 5.21123 19.3656 5.23818L20.1695 7.4566C20.3553 7.96917 20.7293 8.37815 21.2228 8.60821C21.7151 8.83781 22.2672 8.8615 22.7773 8.675L24.9823 7.86895C26.9467 10.1426 27.3988 13.3231 26.1201 16.0773Z" fill="#4E1F4F" fill-opacity="0.4"/>
</svg>
