<svg width="48" height="25" viewBox="0 0 48 25" fill="none" xmlns="http://www.w3.org/2000/svg">
<path d="M10.4899 25.0002C9.50776 24.9942 8.54825 24.7034 7.72725 24.1632C6.90626 23.6229 6.25879 22.8559 5.86294 21.9552C5.75861 21.5963 5.53122 21.2863 5.22068 21.0792C4.91015 20.8722 4.53652 20.7813 4.16592 20.8235H4.06348C3.05958 20.8557 2.08231 20.4967 1.33716 19.8218C0.592017 19.147 0.137026 18.2091 0.0678157 17.205C0.00257372 16.4366 -0.0182128 15.6651 0.00568187 14.8943V14.7576V14.7327C0.00568187 14.4311 0.010027 14.1197 0.00568187 13.8137C-0.0545824 12.9314 0.171113 12.0532 0.649146 11.3098C1.12718 10.5664 1.83225 9.99759 2.65895 9.68798L2.67562 9.68069C3.61355 9.25897 4.78115 8.73411 5.89537 8.19855C6.18243 8.05595 6.4267 7.83971 6.60309 7.57168C7.58571 6.03344 8.60355 4.41434 9.71342 2.62107C10.1764 1.79756 10.8568 1.11782 11.6799 0.656019C12.5029 0.194223 13.4369 -0.0317907 14.3795 0.00302572C16.2852 -0.000706365 18.3523 -0.0024412 21.076 -0.0024412C24.2275 -0.0024412 26.7245 -0.00254325 28.7139 0.00181085C29.5804 -0.0231283 30.4397 0.166884 31.2151 0.555185C31.9904 0.943486 32.6577 1.5181 33.1579 2.22746C33.765 3.03607 34.4067 3.87565 34.9728 4.61772L35.0859 4.76593L35.3547 5.11703L35.4477 5.24155C35.9996 5.96496 36.5702 6.7131 37.1238 7.45019C37.3629 7.78966 37.7152 8.0327 38.1171 8.13477C39.425 8.48372 40.7153 8.83627 42.1461 9.22876L42.6935 9.37819L43.146 9.50272C43.6928 9.652 44.2449 9.80234 44.7912 9.951C45.6733 10.1678 46.4661 10.6545 47.0598 11.3432C47.5217 11.9514 47.8415 12.6552 47.9958 13.4037V17.1722C47.9745 17.2132 47.96 17.2572 47.9524 17.3028C47.8296 18.2975 47.3425 19.2111 46.5855 19.8662C45.8285 20.5213 44.8555 20.8708 43.8555 20.8478C43.8139 20.8478 43.7662 20.8478 43.6967 20.8478H43.6576C43.4911 20.8424 43.3279 20.897 43.1975 21.0009C43.0671 21.1048 42.9779 21.2514 42.9456 21.4151C42.6045 22.4598 41.942 23.3698 41.0531 24.0138C40.1642 24.6577 39.0945 25.0031 37.9977 25.0002H37.9846C36.8932 25.0001 35.83 24.6541 34.9461 24.0125C34.0623 23.3709 33.4033 22.4664 33.063 21.4273C33.0238 21.2529 32.9232 21.0983 32.7799 20.9918C32.6366 20.8853 32.4599 20.8336 32.2819 20.8466C29.1199 20.8516 26.5546 20.8545 24.2076 20.8545C22.0071 20.8545 19.49 20.854 16.2808 20.8466C16.1025 20.8312 15.9246 20.8813 15.7804 20.9875C15.6362 21.0937 15.5353 21.2491 15.4967 21.4243C15.1622 22.4327 14.5288 23.3146 13.6809 23.953C12.833 24.5914 11.8109 24.9553 10.7512 24.9966C10.6705 24.9972 10.5818 25.0002 10.4899 25.0002ZM38.0022 15.9039C36.9895 15.9122 36.0202 16.3174 35.3023 17.0331C34.5843 17.7488 34.1747 18.7178 34.1611 19.7325C34.1558 20.2302 34.2495 20.7245 34.4366 21.1855C34.6238 21.6466 34.9006 22.0653 35.251 22.418C35.6072 22.7859 36.033 23.0793 36.5034 23.2806C36.9738 23.4819 37.4795 23.587 37.991 23.5904H38.0171C39.0295 23.5857 39.9994 23.1823 40.7176 22.4672C41.4358 21.7521 41.8446 20.7829 41.8557 19.7684C41.8586 19.2666 41.7618 18.7691 41.5714 18.3051C41.381 17.841 41.1007 17.4193 40.7464 17.0647C40.3922 16.6994 39.969 16.4089 39.5013 16.2094C39.0336 16.0099 38.5308 15.9059 38.0225 15.9033L38.0022 15.9039ZM10.5575 15.9039C9.54568 15.9128 8.5774 16.3174 7.8594 17.0319C7.1414 17.7464 6.73062 18.7138 6.71462 19.7277C6.70814 20.2246 6.80081 20.7176 6.9868 21.1782C7.17279 21.6389 7.44843 22.0582 7.79787 22.4107C8.15393 22.7805 8.58009 23.0752 9.05116 23.2781C9.52223 23.4811 10.0287 23.5877 10.5415 23.5922H10.5733C11.5844 23.5859 12.5527 23.1829 13.2702 22.469C13.9877 21.7552 14.397 20.7876 14.4104 19.7745C14.4152 19.2742 14.3203 18.7779 14.1313 18.3148C13.9423 17.8517 13.6631 17.4311 13.3099 17.0774C12.9557 16.7102 12.532 16.4174 12.0636 16.2161C11.5952 16.0148 11.0914 15.9092 10.5818 15.9051L10.5575 15.9039ZM14.578 1.36429C13.801 1.3283 13.0296 1.51154 12.3518 1.89397C11.674 2.27641 11.1173 2.84234 10.7451 3.52676C9.59368 5.46496 8.37203 7.36775 7.55328 8.63044C7.3558 8.91765 7.08857 9.1497 6.77676 9.30469C5.90277 9.7401 5.01821 10.1381 4.03559 10.5797L3.70037 10.7316L3.12753 10.9909C2.58841 11.2018 2.12945 11.5775 1.81575 12.0649C1.50204 12.5522 1.3496 13.1265 1.3802 13.7056C1.38579 14.2237 1.38455 14.7458 1.3802 15.2509V15.3062C1.3802 15.7584 1.3802 16.2256 1.3802 16.7008C1.37152 17.0671 1.43521 17.432 1.56751 17.7736C1.69982 18.1151 1.89794 18.4269 2.15097 18.6914C2.68123 19.2049 3.39315 19.4864 4.13046 19.4744C4.2335 19.4744 4.34174 19.4744 4.47023 19.4744H5.32131L5.35829 19.2065C5.50028 17.9471 6.09154 16.7817 7.02317 15.9245C7.95481 15.0673 9.16408 14.576 10.4284 14.5414H10.5415C11.8288 14.5363 13.0731 15.007 14.0361 15.8632C14.9991 16.7193 15.6135 17.9008 15.7619 19.1822L15.8034 19.4428H32.7639L32.803 19.178C32.892 18.4401 33.1354 17.7291 33.5174 17.092C33.8993 16.4549 34.4112 15.9058 35.0195 15.4805C35.8714 14.8674 36.8937 14.5377 37.9425 14.5371C38.0201 14.5371 38.0983 14.537 38.1759 14.5426C39.4234 14.5832 40.6154 15.0695 41.5366 15.9136C42.4577 16.7577 43.0474 17.9042 43.199 19.1458L43.2318 19.3517L43.4342 19.3985C43.6236 19.4431 43.8173 19.4661 44.0119 19.4665C44.6672 19.4643 45.2977 19.2141 45.7768 18.7661C46.2731 18.3099 46.57 17.6762 46.6031 17.0021C46.6651 15.7929 46.6389 14.6015 46.6085 13.6977C46.5826 13.1432 46.3766 12.6119 46.0217 12.1858C45.6668 11.7596 45.1824 11.4613 44.6427 11.3366C43.5769 11.0299 42.4875 10.7316 41.4341 10.4436L41.372 10.4272L41.1362 10.3653C40.8978 10.3031 40.6602 10.235 40.4218 10.1703L40.1896 10.1083L39.8865 10.0251L39.6768 9.9674L39.2828 9.85807C38.6502 9.68141 37.9792 9.49498 37.3175 9.33263C36.9079 9.23713 36.5479 8.99373 36.3064 8.64866C35.7744 7.93894 35.2257 7.22223 34.6924 6.52992L34.647 6.47161L34.6079 6.41998L34.4563 6.22256C33.7226 5.26279 32.9669 4.27058 32.2332 3.27225C31.8118 2.66233 31.2441 2.16845 30.5825 1.83566C29.9209 1.50287 29.1865 1.34212 28.4466 1.36793H28.416C25.9294 1.37975 23.5657 1.38494 21.3919 1.38494C19.2019 1.38494 16.9196 1.37916 14.6087 1.36672H14.5702L14.578 1.36429Z" fill="#2F779C"/>
</svg>
