<svg width="26" height="29" viewBox="0 0 26 29" fill="none" xmlns="http://www.w3.org/2000/svg">
<path d="M13.0018 3.92839C7.76656 3.92839 3.52261 8.66203 3.52261 14.5013C3.52261 16.4274 3.98356 18.2308 4.78902 19.7847C4.88111 19.9618 4.9044 20.1726 4.85402 20.3696L3.70786 24.8658L7.73785 23.5874C7.82515 23.5596 7.91655 23.5518 8.00662 23.5642C8.0967 23.5767 8.18361 23.6092 8.26219 23.6599C9.70254 24.5894 11.3377 25.0773 13.0018 25.0742C18.237 25.0742 22.4809 20.3406 22.4809 14.5013C22.4809 8.66203 18.237 3.92839 13.0018 3.92839ZM2.16844 14.5013C2.16844 7.82768 7.01852 2.41797 13.0018 2.41797C18.985 2.41797 23.8351 7.82768 23.8351 14.5013C23.8351 21.1749 18.985 26.5846 13.0018 26.5846C11.133 26.5846 9.37369 26.0566 7.83806 25.1262L3.37636 26.5411C2.6619 26.7677 2.00215 26.0312 2.20527 25.2349L3.47386 20.2578C2.61443 18.4907 2.16563 16.5116 2.16844 14.5013ZM8.66844 12.2357C8.66844 11.8188 8.97177 11.4805 9.34552 11.4805H16.658C16.7469 11.4805 16.835 11.5 16.9171 11.538C16.9993 11.5759 17.0739 11.6315 17.1368 11.7017C17.1997 11.7718 17.2495 11.855 17.2836 11.9467C17.3176 12.0383 17.3351 12.1365 17.3351 12.2357C17.3351 12.3349 17.3176 12.4331 17.2836 12.5247C17.2495 12.6163 17.1997 12.6996 17.1368 12.7697C17.0739 12.8398 16.9993 12.8954 16.9171 12.9334C16.835 12.9714 16.7469 12.9909 16.658 12.9909H9.34552C8.97177 12.9909 8.66844 12.6526 8.66844 12.2357ZM9.34552 16.0117C9.16595 16.0117 8.99373 16.0913 8.86675 16.2329C8.73977 16.3745 8.66844 16.5666 8.66844 16.7669C8.66844 16.9672 8.73977 17.1593 8.86675 17.3009C8.99373 17.4426 9.16595 17.5221 9.34552 17.5221H14.4914C14.6709 17.5221 14.8431 17.4426 14.9701 17.3009C15.0971 17.1593 15.1684 16.9672 15.1684 16.7669C15.1684 16.5666 15.0971 16.3745 14.9701 16.2329C14.8431 16.0913 14.6709 16.0117 14.4914 16.0117H9.34552Z" fill="#3C759A"/>
</svg>
