<svg xmlns="http://www.w3.org/2000/svg" xmlns:xlink="http://www.w3.org/1999/xlink" width="24" height="24" viewBox="0 0 24 24">
  <defs>
    <clipPath id="clip-path">
      <rect id="Rectangle_3541" data-name="Rectangle 3541" width="24" height="24" transform="translate(-11505 -9973)" fill="#a82424"/>
    </clipPath>
  </defs>
  <g id="Mask_Group_77" data-name="Mask Group 77" transform="translate(11505 9973)" clip-path="url(#clip-path)">
    <g id="Group_3320" data-name="Group 3320" transform="translate(14 0)">
      <path id="Subtraction_44" data-name="Subtraction 44" d="M11.832,7.345H8.592A3.049,3.049,0,0,0,7.2,5.444,1.941,1.941,0,0,1,8.5,4.6l.085-.014a6.993,6.993,0,0,1,2.275,0l.085.014a1.975,1.975,0,0,1,1.634,1.978A.759.759,0,0,1,11.832,7.345ZM9.723,3.213A1.639,1.639,0,0,1,8.056,1.607a1.667,1.667,0,0,1,3.333,0A1.639,1.639,0,0,1,9.723,3.213Z" transform="translate(-11511.382 -9964.673)" fill="none" stroke="#3b1144" stroke-width="1"/>
      <path id="Subtraction_45" data-name="Subtraction 45" d="M3.9,7.345H.746A.759.759,0,0,1,0,6.575,1.975,1.975,0,0,1,1.633,4.6l.086-.014a6.993,6.993,0,0,1,2.275,0l.085.014a1.917,1.917,0,0,1,1.271.812A3.038,3.038,0,0,0,3.9,7.344ZM2.857,3.213A1.639,1.639,0,0,1,1.191,1.607,1.639,1.639,0,0,1,2.857,0,1.639,1.639,0,0,1,4.523,1.607,1.639,1.639,0,0,1,2.857,3.213Z" transform="translate(-11515.195 -9964.673)" fill="none" stroke="#3b1144" stroke-width="1"/>
      <path id="Path_12850" data-name="Path 12850" d="M504.979,383.441A2.533,2.533,0,1,1,502.448,381,2.487,2.487,0,0,1,504.979,383.441Z" transform="translate(-12009.489 -10347.579)" fill="none" stroke="#3b1144" stroke-width="1"/>
      <path id="Path_12852" data-name="Path 12852" d="M497,395.168a3.015,3.015,0,0,1,2.482-3.005l.129-.022a10.637,10.637,0,0,1,3.457,0l.129.022a3.015,3.015,0,0,1,2.482,3.005,1.153,1.153,0,0,1-1.133,1.171h-6.413A1.153,1.153,0,0,1,497,395.168Z" transform="translate(-12008.382 -10351.76)" fill="none" stroke="#3b1144" stroke-width="1"/>
    </g>
  </g>
</svg>
