<svg xmlns="http://www.w3.org/2000/svg" width="23.468" height="24.753" viewBox="0 0 23.468 24.753">
  <path id="Path_11172" data-name="Path 11172" d="M279.9,529v3.247M290.053,529v3.247m-8.882,12.66h3.806m-3.806-3.9h7.612m-14.354,3.806a17.061,17.061,0,0,1,0-7.613,9.275,9.275,0,0,1,6.828-6.987,15.916,15.916,0,0,1,7.439,0,9.275,9.275,0,0,1,6.828,6.987,17.063,17.063,0,0,1,0,7.613,9.275,9.275,0,0,1-6.828,6.988,15.919,15.919,0,0,1-7.439,0A9.275,9.275,0,0,1,274.43,544.818Z" transform="translate(-273.244 -528.25)" fill="none" stroke="#2f779c" stroke-linecap="round" stroke-width="1.5"/>
</svg>
