<svg width="22" height="17" viewBox="0 0 22 17" fill="none" xmlns="http://www.w3.org/2000/svg">
<path d="M18.4375 7.0625C18.4375 7.15781 18.3914 7.24922 18.3094 7.31662C18.2273 7.38401 18.116 7.42188 18 7.42188H13.625C13.509 7.42188 13.3977 7.38401 13.3156 7.31662C13.2336 7.24922 13.1875 7.15781 13.1875 7.0625C13.1875 6.96719 13.2336 6.87578 13.3156 6.80838C13.3977 6.74099 13.509 6.70312 13.625 6.70312H18C18.116 6.70312 18.2273 6.74099 18.3094 6.80838C18.3914 6.87578 18.4375 6.96719 18.4375 7.0625ZM18 9.57812H13.625C13.509 9.57812 13.3977 9.61599 13.3156 9.68338C13.2336 9.75078 13.1875 9.84219 13.1875 9.9375C13.1875 10.0328 13.2336 10.1242 13.3156 10.1916C13.3977 10.259 13.509 10.2969 13.625 10.2969H18C18.116 10.2969 18.2273 10.259 18.3094 10.1916C18.3914 10.1242 18.4375 10.0328 18.4375 9.9375C18.4375 9.84219 18.3914 9.75078 18.3094 9.68338C18.2273 9.61599 18.116 9.57812 18 9.57812ZM21.9375 2.03125V14.9688C21.9375 15.2547 21.7992 15.5289 21.5531 15.7311C21.3069 15.9333 20.9731 16.0469 20.625 16.0469H1.375C1.0269 16.0469 0.693064 15.9333 0.446922 15.7311C0.200781 15.5289 0.0625 15.2547 0.0625 14.9688V2.03125C0.0625 1.74531 0.200781 1.47109 0.446922 1.2689C0.693064 1.06671 1.0269 0.953125 1.375 0.953125H20.625C20.9731 0.953125 21.3069 1.06671 21.5531 1.2689C21.7992 1.47109 21.9375 1.74531 21.9375 2.03125ZM21.0625 2.03125C21.0625 1.93594 21.0164 1.84453 20.9344 1.77713C20.8523 1.70974 20.741 1.67188 20.625 1.67188H1.375C1.25897 1.67188 1.14769 1.70974 1.06564 1.77713C0.983594 1.84453 0.9375 1.93594 0.9375 2.03125V14.9688C0.9375 15.0641 0.983594 15.1555 1.06564 15.2229C1.14769 15.2903 1.25897 15.3281 1.375 15.3281H20.625C20.741 15.3281 20.8523 15.2903 20.9344 15.2229C21.0164 15.1555 21.0625 15.0641 21.0625 14.9688V2.03125ZM11.4233 12.0039C11.4402 12.0502 11.4455 12.0989 11.439 12.1469C11.4324 12.1949 11.4141 12.2414 11.3852 12.2835C11.3563 12.3256 11.3174 12.3625 11.2707 12.392C11.224 12.4214 11.1706 12.4428 11.1136 12.4549C11.0566 12.467 10.9973 12.4695 10.9391 12.4623C10.8809 12.4552 10.825 12.4384 10.7749 12.4131C10.7248 12.3877 10.6814 12.3543 10.6473 12.3149C10.6133 12.2755 10.5893 12.2308 10.5767 12.1836C10.2409 11.1055 8.92188 10.2969 7.5 10.2969C6.07812 10.2969 4.76563 11.1055 4.42328 12.1836C4.39905 12.2607 4.34433 12.329 4.26772 12.3778C4.1911 12.4266 4.09694 12.4531 4 12.4531C3.96308 12.4532 3.92631 12.4492 3.89062 12.4414C3.77841 12.4176 3.68232 12.3581 3.62347 12.276C3.56461 12.194 3.5478 12.0961 3.57672 12.0039C3.73273 11.5352 4.01435 11.101 4.40097 10.7332C4.7876 10.3654 5.26945 10.0733 5.81125 9.8782C5.26207 9.58001 4.84448 9.1444 4.62039 8.63593C4.3963 8.12746 4.37764 7.57322 4.56717 7.05535C4.7567 6.53749 5.14434 6.08358 5.67261 5.76091C6.20089 5.43824 6.84168 5.26399 7.5 5.26399C8.15832 5.26399 8.79911 5.43824 9.32739 5.76091C9.85566 6.08358 10.2433 6.53749 10.4328 7.05535C10.6224 7.57322 10.6037 8.12746 10.3796 8.63593C10.1555 9.1444 9.73793 9.58001 9.18875 9.8782C9.7309 10.0729 10.213 10.3649 10.5997 10.7327C10.9864 11.1006 11.2678 11.535 11.4233 12.0039ZM7.5 9.57812C7.93265 9.57812 8.35558 9.47274 8.71531 9.2753C9.07504 9.07785 9.35542 8.79722 9.52099 8.46888C9.68655 8.14055 9.72987 7.77926 9.64547 7.4307C9.56106 7.08214 9.35272 6.76196 9.0468 6.51067C8.74087 6.25937 8.35109 6.08823 7.92676 6.0189C7.50243 5.94957 7.06259 5.98515 6.66288 6.12115C6.26317 6.25715 5.92153 6.48747 5.68116 6.78296C5.44079 7.07845 5.3125 7.42586 5.3125 7.78125C5.3125 8.25781 5.54297 8.71485 5.9532 9.05183C6.36344 9.38881 6.91984 9.57812 7.5 9.57812Z" fill="#4E1F4F" fill-opacity="0.4"/>
</svg>
