<svg width="174" height="166" viewBox="0 0 174 166" fill="none" xmlns="http://www.w3.org/2000/svg">
<path d="M48.6667 57.6268V74.2102H19.9167V148.835H154.083V74.2102H125.333V57.6268H154.083C159.167 57.6268 164.042 59.374 167.636 62.484C171.231 65.5939 173.25 69.812 173.25 74.2102V148.835C173.25 153.233 171.231 157.451 167.636 160.561C164.042 163.671 159.167 165.418 154.083 165.418H19.9167C14.8334 165.418 9.95823 163.671 6.36379 160.561C2.76934 157.451 0.75 153.233 0.75 148.835V74.2102C0.75 69.812 2.76934 65.5939 6.36379 62.484C9.95823 59.374 14.8334 57.6268 19.9167 57.6268H48.6667ZM95.4717 3.47395L127.662 31.3174C129.46 32.8732 130.471 34.9834 130.471 37.1837C130.471 39.384 129.46 41.4942 127.662 43.0501C125.864 44.6059 123.425 45.48 120.882 45.48C118.339 45.48 115.9 44.6059 114.102 43.0501L96.5833 27.8846V107.377C96.5833 109.576 95.5737 111.685 93.7764 113.24C91.9792 114.795 89.5417 115.668 87 115.668C84.4583 115.668 82.0208 114.795 80.2236 113.24C78.4263 111.685 77.4167 109.576 77.4167 107.377V27.8846L59.8983 43.0501C59.0079 43.8205 57.9509 44.4315 56.7875 44.8485C55.6242 45.2654 54.3773 45.48 53.1181 45.48C51.8589 45.48 50.6121 45.2654 49.4487 44.8485C48.2854 44.4315 47.2283 43.8205 46.3379 43.0501C45.4475 42.2797 44.7412 41.3651 44.2594 40.3586C43.7775 39.352 43.5295 38.2732 43.5295 37.1837C43.5295 36.0942 43.7775 35.0154 44.2594 34.0089C44.7412 33.0023 45.4475 32.0877 46.3379 31.3174L78.5379 3.47395C80.7841 1.53215 83.8295 0.441406 87.0048 0.441406C90.1801 0.441406 93.2254 1.53215 95.4717 3.47395Z" fill="#9E438F"/>
</svg>
