<svg width="135" height="137" viewBox="0 0 135 137" fill="none" xmlns="http://www.w3.org/2000/svg">
<g filter="url(#filter0_d_2155_2288)">
<path fill-rule="evenodd" clip-rule="evenodd" d="M106.042 0.898982C108.153 0.892878 113.294 0.945664 113.773 1.46434C115.234 2.52085 115.6 6.03745 116.372 7.8224C121.753 21.1632 125.787 34.7236 128.416 48.3096C132.013 67.3311 133.128 90.6201 122.225 106.888C114.231 118.815 100.768 126.369 84.7971 127.887C68.8264 129.405 51.6564 124.764 37.0643 114.984C22.4722 105.204 11.6533 91.0861 6.98766 75.7369C2.322 60.3876 4.19175 45.064 12.1856 33.137C23.089 16.8687 45.0543 9.04907 64.0193 5.141C77.5815 2.40991 91.6608 0.992204 106.042 0.898982Z" fill="#9E438F"/>
<path d="M113.426 1.82877C113.428 1.82957 113.43 1.83032 113.431 1.83104L113.44 1.84021L113.48 1.86947C113.752 2.06585 114.004 2.40221 114.239 2.87519C114.472 3.34357 114.669 3.90635 114.852 4.51398C114.975 4.92249 115.086 5.3357 115.197 5.74732C115.252 5.95159 115.308 6.15547 115.364 6.35819C115.529 6.95377 115.704 7.53534 115.91 8.01502C121.279 21.3251 125.303 34.8524 127.925 48.4034C131.519 67.4114 132.593 90.5202 121.809 106.61C113.91 118.397 100.591 125.883 84.7497 127.389C68.905 128.895 51.8487 124.291 37.3427 114.568C22.8367 104.846 12.0949 90.8196 7.46605 75.5915C2.83823 60.3667 4.70112 45.2021 12.6009 33.4153C23.3848 17.3255 45.1676 9.53635 64.1191 5.63093C77.648 2.90664 91.6946 1.49204 106.045 1.39898C107.097 1.39594 108.9 1.40765 110.496 1.48429C111.295 1.5227 112.032 1.57693 112.594 1.65192C112.876 1.68959 113.1 1.73079 113.261 1.77383C113.341 1.79538 113.394 1.81452 113.426 1.82877ZM113.445 1.83782C113.446 1.83863 113.447 1.83906 113.447 1.83907L113.445 1.83782Z" stroke="#E0E0E0"/>
</g>
<defs>
<filter id="filter0_d_2155_2288" x="0.470703" y="0.898438" width="134.461" height="135.271" filterUnits="userSpaceOnUse" color-interpolation-filters="sRGB">
<feFlood flood-opacity="0" result="BackgroundImageFix"/>
<feColorMatrix in="SourceAlpha" type="matrix" values="0 0 0 0 0 0 0 0 0 0 0 0 0 0 0 0 0 0 127 0" result="hardAlpha"/>
<feOffset dy="4"/>
<feGaussianBlur stdDeviation="2"/>
<feComposite in2="hardAlpha" operator="out"/>
<feColorMatrix type="matrix" values="0 0 0 0 0 0 0 0 0 0 0 0 0 0 0 0 0 0 0.25 0"/>
<feBlend mode="normal" in2="BackgroundImageFix" result="effect1_dropShadow_2155_2288"/>
<feBlend mode="normal" in="SourceGraphic" in2="effect1_dropShadow_2155_2288" result="shape"/>
</filter>
</defs>
</svg>
