<svg width="43" height="43" viewBox="0 0 43 43" fill="none" xmlns="http://www.w3.org/2000/svg">
<g filter="url(#filter0_d_1_81360)">
<circle cx="21.5" cy="17.5" r="17.5" fill="#4E1F4F"/>
</g>
<g clip-path="url(#clip0_1_81360)">
<path d="M15.3755 16.5C15.3746 16.4344 15.3891 16.3694 15.4182 16.3091C15.4472 16.2489 15.4902 16.1946 15.5442 16.15C15.7692 15.95 16.118 15.95 16.343 16.15L21.0117 20.3L25.6692 16.15C25.8942 15.95 26.243 15.95 26.468 16.15C26.693 16.35 26.693 16.66 26.468 16.86L21.3942 21.35C21.1692 21.55 20.8205 21.55 20.5955 21.35L15.5442 16.85C15.4317 16.75 15.3755 16.62 15.3755 16.5Z" fill="white"/>
</g>
<defs>
<filter id="filter0_d_1_81360" x="0" y="0" width="43" height="43" filterUnits="userSpaceOnUse" color-interpolation-filters="sRGB">
<feFlood flood-opacity="0" result="BackgroundImageFix"/>
<feColorMatrix in="SourceAlpha" type="matrix" values="0 0 0 0 0 0 0 0 0 0 0 0 0 0 0 0 0 0 127 0" result="hardAlpha"/>
<feOffset dy="4"/>
<feGaussianBlur stdDeviation="2"/>
<feComposite in2="hardAlpha" operator="out"/>
<feColorMatrix type="matrix" values="0 0 0 0 0 0 0 0 0 0 0 0 0 0 0 0 0 0 0.25 0"/>
<feBlend mode="normal" in2="BackgroundImageFix" result="effect1_dropShadow_1_81360"/>
<feBlend mode="normal" in="SourceGraphic" in2="effect1_dropShadow_1_81360" result="shape"/>
</filter>
<clipPath id="clip0_1_81360">
<rect width="7" height="18" fill="white" transform="matrix(0 1 -1 0 30 15)"/>
</clipPath>
</defs>
</svg>
