<svg width="28" height="29" viewBox="0 0 28 29" fill="none" xmlns="http://www.w3.org/2000/svg">
<path d="M21.875 11.7812C21.875 9.61808 21.0453 7.5435 19.5685 6.01391C18.0916 4.48432 16.0886 3.625 14 3.625C11.9114 3.625 9.90838 4.48432 8.43153 6.01391C6.95468 7.5435 6.125 9.61808 6.125 11.7812C6.125 15.1271 8.70975 19.488 14 24.7116C19.2902 19.488 21.875 15.1271 21.875 11.7812ZM14 27.1875C7.58275 21.1464 4.375 16.0098 4.375 11.7812C4.375 9.13737 5.38906 6.60178 7.1941 4.73228C8.99914 2.86278 11.4473 1.8125 14 1.8125C16.5527 1.8125 19.0009 2.86278 20.8059 4.73228C22.6109 6.60178 23.625 9.13737 23.625 11.7812C23.625 16.0098 20.4172 21.1464 14 27.1875Z" fill="#4E1F4F" fill-opacity="0.4"/>
<path d="M14 14.5C14.6962 14.5 15.3639 14.2136 15.8562 13.7037C16.3484 13.1938 16.625 12.5023 16.625 11.7812C16.625 11.0602 16.3484 10.3687 15.8562 9.8588C15.3639 9.34894 14.6962 9.0625 14 9.0625C13.3038 9.0625 12.6361 9.34894 12.1438 9.8588C11.6516 10.3687 11.375 11.0602 11.375 11.7812C11.375 12.5023 11.6516 13.1938 12.1438 13.7037C12.6361 14.2136 13.3038 14.5 14 14.5ZM14 16.3125C12.8397 16.3125 11.7269 15.8351 10.9064 14.9853C10.0859 14.1356 9.625 12.983 9.625 11.7812C9.625 10.5795 10.0859 9.42695 10.9064 8.57717C11.7269 7.7274 12.8397 7.25 14 7.25C15.1603 7.25 16.2731 7.7274 17.0936 8.57717C17.9141 9.42695 18.375 10.5795 18.375 11.7812C18.375 12.983 17.9141 14.1356 17.0936 14.9853C16.2731 15.8351 15.1603 16.3125 14 16.3125Z" fill="#4E1F4F" fill-opacity="0.4"/>
</svg>
