<svg xmlns="http://www.w3.org/2000/svg" width="23.015" height="17.691" viewBox="0 0 23.015 17.691">
  <g id="eye-open" transform="translate(-0.497 -0.499)">
    <path id="Subtraction_2" data-name="Subtraction 2" d="M-12732.49-373.964c-5.954,0-9.352-4.09-10.847-6.528a4.4,4.4,0,0,1,0-4.638c1.5-2.437,4.9-6.525,10.847-6.525s9.352,4.09,10.846,6.528a4.388,4.388,0,0,1,0,4.638C-12723.141-378.052-12726.535-373.964-12732.49-373.964Zm0-16.69c-5.459,0-8.6,3.79-9.992,6.048a3.394,3.394,0,0,0,0,3.592c1.389,2.259,4.533,6.048,9.992,6.048s8.6-3.79,9.989-6.048a3.39,3.39,0,0,0,0-3.592C-12723.888-386.865-12727.033-390.654-12732.49-390.654Z" transform="translate(12744.495 392.155)" fill="#2f779c"/>
    <path id="Subtraction_3" data-name="Subtraction 3" d="M-12739.5-382.655a4.506,4.506,0,0,1-4.5-4.5,4.5,4.5,0,0,1,4.5-4.5,4.514,4.514,0,0,1,4.5,4.5A4.505,4.505,0,0,1-12739.5-382.655Zm0-8a3.5,3.5,0,0,0-3.5,3.5,3.5,3.5,0,0,0,3.5,3.5,3.5,3.5,0,0,0,3.5-3.5A3.5,3.5,0,0,0-12739.5-390.654Z" transform="translate(12751.5 396.5)" fill="#2f779c"/>
  </g>
</svg>
