<svg xmlns="http://www.w3.org/2000/svg" width="23.018" height="20.995" viewBox="0 0 23.018 20.995">
  <path id="eye" d="M-12405.488-317a.509.509,0,0,1-.354-.146.506.506,0,0,1-.146-.355.492.492,0,0,1,.146-.352l3.188-3.189-.42-.349a15.338,15.338,0,0,1-3.267-3.79,4.386,4.386,0,0,1,0-4.637c1.5-2.438,4.9-6.527,10.849-6.527h.084a11.552,11.552,0,0,1,5.9,1.622l.336.2,3.319-3.323a.5.5,0,0,1,.353-.146.509.509,0,0,1,.354.146.5.5,0,0,1,.146.352.5.5,0,0,1-.146.355l-3.188,3.186.42.352a15.4,15.4,0,0,1,3.267,3.787,4.391,4.391,0,0,1,0,4.64c-1.5,2.436-4.9,6.524-10.849,6.524h-.068a11.573,11.573,0,0,1-5.907-1.622l-.334-.2-3.328,3.329A.5.5,0,0,1-12405.488-317Zm7.175-6.976h0l-2.78,2.784.6.315a10.626,10.626,0,0,0,4.942,1.224h.056c5.448,0,8.6-3.789,9.993-6.047a3.4,3.4,0,0,0,0-3.59,14.193,14.193,0,0,0-3.2-3.659l-.35-.283-2.917,2.918.224.343a4.5,4.5,0,0,1-.563,5.658,4.469,4.469,0,0,1-3.18,1.317,4.462,4.462,0,0,1-2.481-.75l-.343-.227Zm2.818-11.369c-5.446,0-8.6,3.791-9.993,6.05a3.4,3.4,0,0,0,0,3.59,14.177,14.177,0,0,0,3.2,3.659l.349.28,2.918-2.918-.224-.339a4.507,4.507,0,0,1,.563-5.661,4.475,4.475,0,0,1,3.18-1.314,4.479,4.479,0,0,1,2.481.747l.343.227,2.78-2.781-.6-.318a10.626,10.626,0,0,0-4.942-1.224Zm2.843,5.714h0l-4.976,4.973.629.308a3.477,3.477,0,0,0,1.5.352,3.507,3.507,0,0,0,3.5-3.5,3.473,3.473,0,0,0-.352-1.5l-.306-.629ZM-12395.5-331a3.5,3.5,0,0,0-3.5,3.5,3.48,3.48,0,0,0,.352,1.5l.306.629,4.976-4.976-.629-.308A3.433,3.433,0,0,0-12395.5-331Z" transform="translate(12407.004 338)" fill="#89708f"/>
</svg>
