<svg width="22" height="19" viewBox="0 0 22 19" fill="none" xmlns="http://www.w3.org/2000/svg">
<path d="M5.14961 5.75C5.322 5.75 5.48733 5.68415 5.60923 5.56694C5.73113 5.44973 5.79961 5.29076 5.79961 5.125C5.79961 4.95924 5.73113 4.80027 5.60923 4.68306C5.48733 4.56585 5.322 4.5 5.14961 4.5C4.97722 4.5 4.81189 4.56585 4.68999 4.68306C4.56809 4.80027 4.49961 4.95924 4.49961 5.125C4.49961 5.29076 4.56809 5.44973 4.68999 5.56694C4.81189 5.68415 4.97722 5.75 5.14961 5.75ZM4.49961 9.5C4.49961 9.33424 4.56809 9.17527 4.68999 9.05806C4.81189 8.94085 4.97722 8.875 5.14961 8.875H9.04961C9.222 8.875 9.38733 8.94085 9.50923 9.05806C9.63113 9.17527 9.69961 9.33424 9.69961 9.5C9.69961 9.66576 9.63113 9.82473 9.50923 9.94194C9.38733 10.0592 9.222 10.125 9.04961 10.125H5.14961C4.97722 10.125 4.81189 10.0592 4.68999 9.94194C4.56809 9.82473 4.49961 9.66576 4.49961 9.5ZM5.14961 13.25C4.97722 13.25 4.81189 13.3158 4.68999 13.4331C4.56809 13.5503 4.49961 13.7092 4.49961 13.875C4.49961 14.0408 4.56809 14.1997 4.68999 14.3169C4.81189 14.4342 4.97722 14.5 5.14961 14.5H9.04961C9.222 14.5 9.38733 14.4342 9.50923 14.3169C9.63113 14.1997 9.69961 14.0408 9.69961 13.875C9.69961 13.7092 9.63113 13.5503 9.50923 13.4331C9.38733 13.3158 9.222 13.25 9.04961 13.25H5.14961ZM3.19961 18.25H14.2093C15.0543 18.275 15.9162 17.7975 16.1619 16.7787L16.7118 14.5H19.4496C19.9668 14.5 20.4628 14.3025 20.8285 13.9508C21.1942 13.5992 21.3996 13.1223 21.3996 12.625V6.4775C21.3996 5.24875 20.4233 4.5275 19.4288 4.5H13.5996V2.625C13.5996 2.12772 13.3942 1.65081 13.0285 1.29917C12.6628 0.947544 12.1668 0.75 11.6496 0.75H2.54961C2.03244 0.75 1.53645 0.947544 1.17075 1.29917C0.805055 1.65081 0.599609 2.12772 0.599609 2.625V15.75C0.599609 16.413 0.873537 17.0489 1.36113 17.5178C1.84873 17.9866 2.51005 18.25 3.19961 18.25ZM1.89961 2.625C1.89961 2.45924 1.96809 2.30027 2.08999 2.18306C2.21189 2.06585 2.37722 2 2.54961 2H11.6496C11.822 2 11.9873 2.06585 12.1092 2.18306C12.2311 2.30027 12.2996 2.45924 12.2996 2.625V16.3525C12.2996 16.59 12.3373 16.8062 12.4036 17H3.19961C2.85483 17 2.52417 16.8683 2.28037 16.6339C2.03657 16.3995 1.89961 16.0815 1.89961 15.75V2.625ZM19.4496 13.25H17.0147L18.6878 6.3225C18.8802 5.525 20.0996 5.66 20.0996 6.4775V12.625C20.0996 12.7908 20.0311 12.9497 19.9092 13.0669C19.7873 13.1842 19.622 13.25 19.4496 13.25ZM13.5996 5.75H17.5126C17.4775 5.84125 17.4476 5.9375 17.4216 6.03875L14.8957 16.4963C14.7189 17.2275 13.5996 17.1038 13.5996 16.3525V5.75Z" fill="#4E1F4F" fill-opacity="0.4"/>
</svg>
