<svg xmlns="http://www.w3.org/2000/svg" width="58.953" height="58.953" viewBox="0 0 58.953 58.953">
  <g id="Group_1572" data-name="Group 1572" transform="translate(-1 -1)">
    <path id="Subtraction_14" data-name="Subtraction 14" d="M-7397.284,7282.929h-43.538a1.178,1.178,0,0,1-1.177-1.177,1.181,1.181,0,0,1,.927-1.151l.3-.026a3.19,3.19,0,0,0,3.127-3.176v-43.538a9.9,9.9,0,0,1,9.885-9.885h17.415a9.9,9.9,0,0,1,9.885,9.885v18.377l1.624.062a7.758,7.758,0,0,1,7.062,7.09l.022.611v8.691a3.18,3.18,0,0,0,3.178,3.176,3.174,3.174,0,0,0,3.125-2.606l.008-.045.043-.48v-21.815a3.171,3.171,0,0,0-.832-2.143l-.031-.034-.371-.336-7-5.253a1.176,1.176,0,0,1-.46-.773,1.183,1.183,0,0,1,.224-.875,1.17,1.17,0,0,1,.944-.471,1.2,1.2,0,0,1,.489.106l.25.157,6.931,5.2a5.553,5.553,0,0,1,2.18,3.824l.032.625v21.744a5.536,5.536,0,0,1-5.53,5.53,5.507,5.507,0,0,1-5.5-4.973l-.028-.581v-8.683a5.352,5.352,0,0,0-4.73-5.319l-1.624-.1v22.842a3.166,3.166,0,0,0,2.6,3.118l.044.009.443.039.049,0h.045a1.173,1.173,0,0,1,1.143.917l.026.291A1.17,1.17,0,0,1-7397.284,7282.929Zm-30.478-56.6a7.521,7.521,0,0,0-5.08,1.971,7.517,7.517,0,0,0-2.416,4.835l-.033.676,0,43.587a5.567,5.567,0,0,1-.215,1.532l-.564,1.644h34.007l-.534-1.627a5.468,5.468,0,0,1-.189-.981l-.028-.579v-43.527a7.511,7.511,0,0,0-1.971-5.08,7.514,7.514,0,0,0-4.835-2.417l-.676-.032Zm14.149,32.654H-7424.5a1.18,1.18,0,0,1-1.177-1.179,1.177,1.177,0,0,1,1.177-1.175h10.884a1.177,1.177,0,0,1,1.177,1.175A1.18,1.18,0,0,1-7413.612,7258.985Zm2.178-10.886h-15.239a2.268,2.268,0,0,1-2.266-2.264V7234.95a2.269,2.269,0,0,1,2.266-2.266h15.239a2.268,2.268,0,0,1,2.265,2.266v10.884A2.267,2.267,0,0,1-7411.434,7248.1Zm-15.151-13.061v10.707h15.062v-10.707Z" transform="translate(7443 -7222.977)" fill="#2f779c"/>
  </g>
</svg>
