<svg width="18" height="18" viewBox="0 0 18 18" fill="none" xmlns="http://www.w3.org/2000/svg">
<path d="M10.713 6.70737C10.5317 6.70737 10.3847 6.85439 10.3847 7.03571V12.6171C10.3847 12.7984 10.5317 12.9454 10.713 12.9454C10.8943 12.9454 11.0413 12.7984 11.0413 12.6171V7.03572C11.0413 6.85439 10.8943 6.70737 10.713 6.70737ZM6.77321 6.70737C6.59187 6.70737 6.44488 6.85439 6.44488 7.03571V12.6171C6.44488 12.7984 6.59187 12.9454 6.77321 12.9454C6.95455 12.9454 7.10153 12.7984 7.10153 12.6171V7.03572C7.10152 6.85439 6.95453 6.70737 6.77321 6.70737ZM14.9811 4.40915H11.6979V4.08082C11.6979 2.44889 10.375 1.12598 8.7431 1.12598C7.11117 1.12598 5.78825 2.44891 5.78825 4.08082V4.40915H2.50508C2.32375 4.40915 2.17676 4.55617 2.17676 4.73749C2.17676 4.91883 2.32375 5.06578 2.50508 5.06578H3.16168V11.1397C3.16168 14.3129 5.73408 16.8852 8.90723 16.8852C12.0804 16.8852 14.3245 14.3129 14.3245 11.1397V5.06578H14.9811C15.1625 5.06578 15.3094 4.91883 15.3094 4.73749C15.3094 4.55617 15.1625 4.40915 14.9811 4.40915ZM6.44488 4.05558C6.44488 2.80026 7.4738 1.78261 8.7431 1.78261C10.0124 1.78261 11.0413 2.80026 11.0413 4.05558V4.40915H6.44488V4.05558ZM13.6679 11.1397C13.6679 13.9502 11.7178 16.2286 8.90723 16.2286C6.0967 16.2286 3.81831 13.9502 3.81831 11.1397L3.81834 5.0658H13.6679V11.1397Z" fill="white"/>
</svg>
