<svg xmlns="http://www.w3.org/2000/svg" width="95" height="95" viewBox="0 0 95 95">
  <g id="icon-2" transform="translate(-27.002 -27)">
    <rect id="Rectangle_2381" data-name="Rectangle 2381" width="95" height="95" rx="16" transform="translate(27.002 27)" fill="#2f779c" opacity="0.1"/>
    <g id="Group_10444" data-name="Group 10444">
      <path id="Subtraction_9" data-name="Subtraction 9" d="M9203.707-738.839a7.146,7.146,0,0,1-6.5-4.27,2.188,2.188,0,0,0-2.345-1.556h-.144a5.455,5.455,0,0,1-5.619-5.08,27.915,27.915,0,0,1-.093-3.192v-.042c0-.29.012-.871,0-1.5a5.761,5.761,0,0,1,3.729-5.789l.167-.074c1.34-.6,2.859-1.283,4.358-2a2.473,2.473,0,0,0,.976-.862c1.315-2.054,2.737-4.314,4.349-6.911a7.228,7.228,0,0,1,6.556-3.668l2.242,0a9.2,9.2,0,0,0,.654,1.982l-1.125-.005-1.439-.008h-.054a5.769,5.769,0,0,0-5.331,3c-1.585,2.667-3.217,5.207-4.462,7.122a2.886,2.886,0,0,1-1.1.952c-1.2.592-2.446,1.157-3.835,1.782l-.123.056c-.354.157-.771.345-1.146.516a3.82,3.82,0,0,0-2.425,3.759c.007.679.007,1.469,0,2.225v.427c0,.439,0,.985,0,1.529a3.828,3.828,0,0,0,1.066,2.748,3.854,3.854,0,0,0,2.743,1.085c.158,0,.317,0,.472,0h1.164l.051-.344a7.358,7.358,0,0,1,7.12-6.537c.051,0,.105,0,.158,0a7.354,7.354,0,0,1,7.333,6.5l.057.339h23.654l.052-.344a7.4,7.4,0,0,1,3.112-5.18,7.044,7.044,0,0,1,4.1-1.324c.109,0,.221,0,.332.007a7.351,7.351,0,0,1,7.056,6.451l.044.265.263.06a3.463,3.463,0,0,0,.8.093,3.6,3.6,0,0,0,2.443-.969,3.538,3.538,0,0,0,1.146-2.435c.086-1.679.049-3.346.007-4.611a3.517,3.517,0,0,0-2.725-3.261c-1.569-.452-3.148-.883-4.763-1.322l-.051-.014-.084-.021-1.7-.467-.049-.012-.407-.112-.457-.125-.028-.007-.021-.007c-.951-.265-1.81-.5-2.681-.716a2.4,2.4,0,0,1-1.434-.962c-.616-.825-1.275-1.685-1.857-2.443l-.031-.041-.13-.169-.349-.455-.01-.013c-1.084-1.413-2.2-2.875-3.314-4.379a6.125,6.125,0,0,0-5.144-2.647,9.244,9.244,0,0,0,.647-1.959,7.336,7.336,0,0,1,5.827,3.108c.7.934,1.462,1.93,2.019,2.658l.116.153q.13.168.259.338l.062.081.1.138.135.176c1.052,1.372,2.011,2.632,2.851,3.745a2.4,2.4,0,0,0,1.373.936c1.865.5,3.668.991,5.671,1.54l.475.129.177.048.382.1.268.072,1.138.31,1.227.334a6.108,6.108,0,0,1,3.188,1.954,7.243,7.243,0,0,1,1.319,2.892v5.271a.494.494,0,0,0-.061.179,5.681,5.681,0,0,1-5.761,4.978c-.072,0-.147,0-.214,0h-.062a.949.949,0,0,0-.964.767,7.3,7.3,0,0,1-6.953,5.029h-.017a7.276,7.276,0,0,1-6.913-5.008,1,1,0,0,0-1.062-.79c-4.888.008-8.265.012-11.292.012-4.487,0-8.009,0-11.083-.009a.99.99,0,0,0-1.062.783,7.329,7.329,0,0,1-6.667,5.008C9203.967-738.843,9203.846-738.839,9203.707-738.839Zm38.469-12.693a5.384,5.384,0,0,0-5.336,5.31,5.193,5.193,0,0,0,1.515,3.724,5.348,5.348,0,0,0,3.808,1.624h.037a5.354,5.354,0,0,0,5.331-5.3,5.238,5.238,0,0,0-1.542-3.747,5.314,5.314,0,0,0-3.782-1.612Zm-38.373,0a5.386,5.386,0,0,0-5.339,5.3,5.185,5.185,0,0,0,1.5,3.719,5.373,5.373,0,0,0,3.813,1.635h.044a5.359,5.359,0,0,0,5.331-5.292,5.217,5.217,0,0,0-1.528-3.74,5.328,5.328,0,0,0-3.789-1.626Z" transform="translate(-9148.092 836.219)" fill="#2f779c"/>
      <g id="Group_1332" data-name="Group 1332" transform="translate(63.1 51.219)">
        <path id="Ellipse_575_-_Outline" data-name="Ellipse 575 - Outline" d="M9.3,1.7a7.6,7.6,0,1,0,7.6,7.6A7.612,7.612,0,0,0,9.3,1.7M9.3,0A9.3,9.3,0,1,1,0,9.3,9.3,9.3,0,0,1,9.3,0Z" transform="translate(0 0)" fill="#2f779c"/>
        <path id="Line_1628" data-name="Line 1628" d="M0,7.992a.85.85,0,0,1-.85-.85V0A.85.85,0,0,1,0-.85.85.85,0,0,1,.85,0V7.142A.85.85,0,0,1,0,7.992Z" transform="translate(9.302 5.732)" fill="#2f779c"/>
        <path id="Line_1629" data-name="Line 1629" d="M7.142.85H0A.85.85,0,0,1-.85,0,.85.85,0,0,1,0-.85H7.142a.85.85,0,0,1,.85.85A.85.85,0,0,1,7.142.85Z" transform="translate(5.732 9.303)" fill="#2f779c"/>
      </g>
    </g>
  </g>
</svg>
