<svg xmlns="http://www.w3.org/2000/svg" width="95" height="95" viewBox="0 0 95 95">
  <g id="icon-3" transform="translate(-27.004 -27)">
    <rect id="Rectangle_2382" data-name="Rectangle 2382" width="95" height="95" rx="16" transform="translate(27.004 27)" fill="#2f779c" opacity="0.1"/>
    <g id="Group_1333" data-name="Group 1333" transform="translate(51.053 46.784)">
      <g id="Group_1333-2" data-name="Group 1333" transform="translate(0 0)">
        <path id="Path_6497" data-name="Path 6497" d="M1678.046,1227.277a1.213,1.213,0,0,1,.569,1.111,9.181,9.181,0,0,0,1.1,4.076,5.81,5.81,0,0,0,5.122,3.156,4.292,4.292,0,0,1,.585.042.792.792,0,0,1,.689.868.772.772,0,0,1-.746.766,16.873,16.873,0,0,0-1.843.226,5.86,5.86,0,0,0-4.368,4.268,27.327,27.327,0,0,0-.553,2.871,1.48,1.48,0,0,1-.3.783,1.088,1.088,0,0,1-.8.174c-.38-.056-.52-.386-.579-.757a21.815,21.815,0,0,0-.51-2.88,6.01,6.01,0,0,0-5.925-4.66c-.752-.049-1.086-.31-1.085-.847s.359-.822,1.087-.851a5.966,5.966,0,0,0,5.885-4.506,18.092,18.092,0,0,0,.518-2.779,1.291,1.291,0,0,1,.57-1.062Zm-.317,5.061a8.26,8.26,0,0,1-3.674,4.149,3.7,3.7,0,1,0,7.35.019C1678.967,1234.532,1678.967,1234.532,1677.729,1232.338Z" transform="translate(-1640.208 -1224.97)" fill="#2f779c"/>
        <path id="Path_6498" data-name="Path 6498" d="M1514.082,1349.946h.623c3.757,0,7.514-.007,11.271,0a610.764,610.764,0,0,0,4.871,9.946,3.8,3.8,0,0,1-2.5,3.238,3.957,3.957,0,0,1,.417,3.328,3.759,3.759,0,0,1-2.191,2.342,13.109,13.109,0,0,1,.447,2.258,3.716,3.716,0,0,1-3.67,3.761c-6.037.024-12.074.032-18.111-.013a10.978,10.978,0,0,1-5.186-1.433,26.243,26.243,0,0,0-3.069-1.309c-.414-.16-.7-.045-.921.468a3.6,3.6,0,0,1-3.424,2.289c-1.55.042-3.1.015-4.654.009a3.829,3.829,0,0,1-4-3.98c-.01-3.439,0-6.878,0-10.317q0-4.205,0-8.411a3.847,3.847,0,0,1,4.065-4.089c1.458,0,2.916-.007,4.374,0a3.751,3.751,0,0,1,3.72,2.454c.136.324.306.393.586.311a15,15,0,0,0,2.763-.864,19.626,19.626,0,0,0,6.709-5.494,6.414,6.414,0,0,0,1.306-5.739,5.781,5.781,0,0,1-.166-1.05,3.619,3.619,0,0,1,1.692-3.65,4.031,4.031,0,0,1,4.547-.007,6.61,6.61,0,0,1,2.91,4.6,14.625,14.625,0,0,1-.969,7.906C1515.1,1347.654,1514.577,1348.767,1514.082,1349.946Zm-17.634,20.143a9.255,9.255,0,0,1,4.484,1.565,8.682,8.682,0,0,0,4.535,1.254c5.9.03,11.81.018,17.715.01a1.908,1.908,0,1,0-.024-3.815c-.86-.01-1.719,0-2.579,0-.751-.006-1.183-.372-1.175-.979.008-.591.414-.928,1.149-.93,1.42-.005,2.84,0,4.261-.005a3.557,3.557,0,0,0,.776-.077,1.9,1.9,0,0,0,.141-3.65,3.215,3.215,0,0,0-.885-.1c-1.364-.009-2.728,0-4.093,0-.91,0-1.355-.325-1.349-.974s.434-.942,1.37-.943q1.514,0,3.027,0c1.065,0,2.131.021,3.2-.008a1.894,1.894,0,0,0,1.949-2.107,1.928,1.928,0,0,0-2.062-1.72c-2.055-.011-4.111,0-6.167,0-.886,0-1.307-.306-1.312-.941s.436-.971,1.294-.974c.99,0,1.981,0,2.971,0,.859,0,1.72.02,2.578-.017a1.866,1.866,0,0,0,1.752-1.733,1.885,1.885,0,0,0-1.339-1.969,3.537,3.537,0,0,0-.94-.1q-6.5-.009-13.006,0c-1.227,0-1.612-.667-1.007-1.726a22.671,22.671,0,0,0,2.933-7.816,8.02,8.02,0,0,0-.637-5.081,3.539,3.539,0,0,0-2.1-1.906,2,2,0,0,0-2.649,2.149c.03.315.112.626.138.941a18.644,18.644,0,0,1,.178,2.723,8.312,8.312,0,0,1-1.935,4.576,21.65,21.65,0,0,1-7.389,5.98,25.988,25.988,0,0,1-3.8,1.257Zm-1.936-8.65q0-4.681,0-9.362a1.938,1.938,0,0,0-2.117-2.13q-2.186-.008-4.373,0a1.947,1.947,0,0,0-2.129,2.123q-.006,9.362,0,18.723a1.946,1.946,0,0,0,2.122,2.129q2.158.008,4.317,0a1.951,1.951,0,0,0,2.18-2.178Q1494.515,1366.092,1494.512,1361.44Z" transform="translate(-1483.977 -1317.415)" fill="#2f779c"/>
        <path id="Path_6499" data-name="Path 6499" d="M1527.145,1310.26a.767.767,0,0,1-.742.792,7.886,7.886,0,0,0-1.055.137,3.834,3.834,0,0,0-2.743,3.143,8.754,8.754,0,0,0-.2,1.374c-.052.56-.331.9-.788.909s-.719-.357-.819-.934a12.077,12.077,0,0,0-.6-2.458,3.361,3.361,0,0,0-3.182-2.162l-.093,0c-.544-.035-.848-.313-.854-.779a.792.792,0,0,1,.88-.807,3.587,3.587,0,0,0,2.088-.66,4.326,4.326,0,0,0,1.571-2.605,9.315,9.315,0,0,0,.2-1.375c.052-.562.329-.9.79-.908s.768.335.8.889a6.721,6.721,0,0,0,.638,2.593,3.45,3.45,0,0,0,3.163,2.061C1526.808,1309.491,1527.14,1309.772,1527.145,1310.26Zm-5.54,1.953,1.688-1.942-1.686-1.948-1.689,1.945Z" transform="translate(-1508.969 -1289.819)" fill="#2f779c"/>
      </g>
    </g>
  </g>
</svg>
