<svg xmlns="http://www.w3.org/2000/svg" width="42.616" height="71.661" viewBox="0 0 42.616 71.661">
  <g id="_295475" data-name="295475" transform="translate(0.693 1282.843)">
    <path id="Path_6457" data-name="Path 6457" d="M101.267-1279.678a7.412,7.412,0,0,0-6.284,6.191,9.532,9.532,0,0,0,.027,2.329,7.42,7.42,0,0,0,3.18,4.86,9.612,9.612,0,0,0,1.751.851,7.436,7.436,0,0,0,3.987.158,7.34,7.34,0,0,0,5.6-7.505,7.317,7.317,0,0,0-5.705-6.753A9.194,9.194,0,0,0,101.267-1279.678Z" transform="translate(-89.752 -2)" fill="none" stroke="#2f779c" stroke-width="2.2"/>
    <path id="Path_6458" data-name="Path 6458" d="M130.765-988.634a6.448,6.448,0,0,0-4.844,4.146,5.556,5.556,0,0,0-.322,2.187v.982l1.98,9.873c1.375,6.873,2.035,10.042,2.16,10.429a6.482,6.482,0,0,0,1.631,2.667,6.059,6.059,0,0,0,2.585,1.571c1,.311.736.305,9.676.305h8.225l.011,9.2s-.035,1.921,0,3.744.142,3.55.142,3.55a3.782,3.782,0,0,0,3.529,2.826,3.892,3.892,0,0,0,3.142-1.3,4.484,4.484,0,0,0,.791-1.609c.1-.415.1,1.379.1-10.059,0-9.595-.016-12.016-.071-12.3a5.418,5.418,0,0,0-3.556-4.195c-.807-.267-.927-.273-7.74-.3-3.518-.016-6.415-.038-6.425-.055s-.785-3.8-1.713-8.416c-1.265-6.322-1.729-8.531-1.882-8.962a6.292,6.292,0,0,0-4.429-4.238,5.235,5.235,0,0,0-1.456-.158A5.023,5.023,0,0,0,130.765-988.634Z" transform="translate(-118.754 -275.14)" fill="none" stroke="#2f779c" stroke-width="2.2"/>
    <path id="Path_6460" data-name="Path 6460" d="M18529.807-7670.633l4.584,20.721a9.137,9.137,0,0,0,8.367,6.275c6.576.2,14.844,0,14.844,0" transform="translate(-18529.188 6418.805)" fill="none" stroke="#2f779c" stroke-linecap="round" stroke-width="2.2"/>
  </g>
</svg>
