<svg xmlns="http://www.w3.org/2000/svg" width="24.5" height="24.5" viewBox="0 0 24.5 24.5">
  <g id="info" transform="translate(0.25 0.25)">
    <path id="Path_9507" data-name="Path 9507" d="M12,0A12,12,0,1,0,24,12,12,12,0,0,0,12,0Zm0,22A10,10,0,1,1,22,12,10,10,0,0,1,12,22Z" stroke="#eef4f7" stroke-width="0.5"/>
    <path id="Path_9508" data-name="Path 9508" d="M12,10H11a1,1,0,0,0,0,2h1v6a1,1,0,0,0,2,0V12A2,2,0,0,0,12,10Z" stroke="#eef4f7" stroke-width="0.5"/>
    <circle id="Ellipse_660" data-name="Ellipse 660" cx="1.5" cy="1.5" r="1.5" transform="translate(10.5 5)" stroke="#eef4f7" stroke-width="0.5"/>
  </g>
</svg>
