<svg width="29" height="36" viewBox="0 0 29 36" fill="none" xmlns="http://www.w3.org/2000/svg">
<path d="M21.3371 7.95712C17.5623 3.34763 11.4421 3.34763 7.66726 7.95712C6.77102 9.04408 6.05886 10.3425 5.57263 11.776C5.08641 13.2095 4.83594 14.7492 4.83594 16.3046C4.83594 17.86 5.08641 19.3997 5.57263 20.8333C6.05886 22.2668 6.77102 23.5652 7.66726 24.6521L14.5016 32.9996L21.3371 24.6521C22.2334 23.5652 22.9455 22.2668 23.4318 20.8333C23.918 19.3997 24.1685 17.86 24.1685 16.3046C24.1685 14.7492 23.918 13.2095 23.4318 11.776C22.9455 10.3425 22.2334 9.04408 21.3371 7.95712ZM14.5016 20.2496C13.6944 20.2496 12.9368 19.8596 12.3653 19.1516C11.7995 18.4478 11.4817 17.494 11.4817 16.4996C11.4817 15.5053 11.7995 14.5515 12.3653 13.8476C12.9356 13.1396 13.6944 12.7496 14.5016 12.7496C15.3088 12.7496 16.0676 13.1396 16.6379 13.8476C17.2037 14.5515 17.5215 15.5053 17.5215 16.4996C17.5215 17.494 17.2037 18.4478 16.6379 19.1516C16.0676 19.8596 15.3088 20.2496 14.5016 20.2496Z" fill="#4E1F4F" fill-opacity="0.25"/>
</svg>
