<svg width="26" height="21" viewBox="0 0 26 21" fill="none" xmlns="http://www.w3.org/2000/svg">
<path d="M22.8751 17.3282V16.2546C23.5462 16.0221 24.1406 15.4975 24.5649 14.7623C24.9892 14.0271 25.2193 13.123 25.219 12.1932V5.90477C25.219 4.79289 24.8897 3.72688 24.3036 2.94067C23.7175 2.15445 22.9226 1.71245 22.0938 1.71245H7.24913C6.58786 1.71104 5.94334 1.99183 5.40871 2.51386C4.87407 3.03588 4.47697 3.77263 4.27472 4.61718L3.45508 4.65198C3.66213 3.51247 4.14889 2.49942 4.83704 1.7759C5.52519 1.05238 6.3748 0.66079 7.24913 0.663342H22.0938C23.1295 0.665007 24.1223 1.21723 24.8547 2.19964C25.587 3.18204 25.999 4.51441 26.0003 5.90374V12.1922C25.9986 13.3996 25.6869 14.569 25.1177 15.5043C24.5485 16.4396 23.7566 17.0842 22.8751 17.3282Z" fill="#2F779C"/>
<path d="M19.7511 4.33179H4.90647C2.96472 4.33179 1.39062 6.44337 1.39062 9.04815V15.3366C1.39062 17.9414 2.96472 20.053 4.90647 20.053H19.7511C21.6929 20.053 23.267 17.9414 23.267 15.3366V9.04815C23.267 6.44337 21.6929 4.33179 19.7511 4.33179Z" stroke="#2F779C"/>
<path d="M12.719 17.9566C15.0923 17.9566 17.0162 15.3758 17.0162 12.1922C17.0162 9.00856 15.0923 6.42773 12.719 6.42773C10.3458 6.42773 8.42188 9.00856 8.42188 12.1922C8.42188 15.3758 10.3458 17.9566 12.719 17.9566Z" stroke="#2F779C"/>
<path d="M12.7782 15.3524C12.4308 15.3621 12.0868 15.2585 11.7758 15.0505C11.4754 14.835 11.2195 14.5227 11.0312 14.1418L11.5211 13.3872C11.6837 13.7284 11.8963 14.0215 12.1462 14.2487C12.3612 14.4144 12.6061 14.4974 12.854 14.4888C13.0096 14.4921 13.1644 14.4565 13.3103 14.3839C13.4349 14.3239 13.5464 14.223 13.6345 14.0905C13.712 13.9728 13.7543 13.8209 13.7533 13.6639C13.7533 13.5604 13.7393 13.4578 13.7119 13.361C13.6847 13.2647 13.6429 13.1769 13.5892 13.1032C13.5265 13.02 13.4552 12.9494 13.3775 12.8936C13.2817 12.8228 13.1809 12.7649 13.0767 12.7206C12.9468 12.6653 12.8142 12.6222 12.6798 12.5917C12.4028 12.5269 12.136 12.3997 11.8907 12.2155C11.6945 12.0673 11.5324 11.8498 11.4219 11.5866C11.3146 11.3133 11.2608 11.0078 11.2656 10.6989C11.2643 10.4581 11.3063 10.2204 11.3883 10.0061C11.4708 9.7918 11.5858 9.60296 11.7258 9.45168C11.8765 9.28971 12.0481 9.16642 12.2321 9.08799C12.434 9.00076 12.645 8.95725 12.8571 8.95908C13.182 8.94886 13.5038 9.04491 13.7947 9.23892C14.0593 9.42235 14.2788 9.70441 14.4268 10.0512L13.9236 10.7167C13.8078 10.448 13.6467 10.2194 13.4533 10.0491C13.2698 9.8951 13.0572 9.81507 12.8407 9.81851C12.6871 9.81351 12.5341 9.84912 12.3907 9.92332C12.2725 9.98486 12.1686 10.0876 12.0899 10.221C12.0166 10.3496 11.9781 10.5077 11.9805 10.6695C11.9796 10.7873 11.9977 10.9038 12.0337 11.0112C12.0712 11.1187 12.1268 11.2131 12.1962 11.2869C12.2853 11.3775 12.3848 11.4483 12.4907 11.4965C12.6353 11.5666 12.7836 11.6216 12.9345 11.661C13.1566 11.7233 13.3737 11.8138 13.583 11.9314C13.7569 12.0282 13.9195 12.1581 14.0658 12.3171C14.1907 12.4529 14.2932 12.6221 14.3666 12.8139C14.4357 13 14.4708 13.2055 14.469 13.4134C14.4758 13.7762 14.4044 14.1339 14.2635 14.4437C14.1225 14.7388 13.9202 14.972 13.6814 15.1145C13.397 15.2815 13.0886 15.3628 12.7782 15.3524ZM12.3813 16.0714V12.0373L13.0236 12.3308V16.0682L12.3813 16.0714ZM13.2876 12.3339L12.6454 12.0404V8.3208H13.2876V12.3339Z" fill="#2F779C"/>
</svg>
