<svg width="45" height="43" viewBox="0 0 45 43" fill="none" xmlns="http://www.w3.org/2000/svg">
<path d="M22.5006 41.4642C33.7506 41.4642 41.7863 37.6618 41.7863 29.1969C41.7863 19.998 36.9648 13.8644 27.322 9.26336L31.1148 4.60093C31.308 4.2951 31.4129 3.94581 31.4188 3.58863C31.4247 3.23146 31.3315 2.87917 31.1486 2.56765C30.9656 2.25612 30.6995 1.99649 30.3774 1.81521C30.0553 1.63392 29.6887 1.53746 29.3148 1.53564H15.6863C15.3132 1.53935 14.9478 1.63699 14.6269 1.81871C14.3059 2.00044 14.0408 2.25982 13.8583 2.5707C13.6757 2.88158 13.5822 3.23296 13.5871 3.58941C13.592 3.94585 13.6952 4.29476 13.8863 4.60093L17.6791 9.29407C8.03627 13.9258 3.21484 20.0594 3.21484 29.2584C3.21484 37.6618 11.2506 41.4642 22.5006 41.4642Z" stroke="#3C759A" stroke-linecap="round" stroke-linejoin="round"/>
<path d="M26.9465 20.9039C26.7069 20.2544 26.2622 19.6919 25.6738 19.2941C25.0853 18.8963 24.3822 18.6829 23.6615 18.6833H20.9679C20.2004 18.6818 19.4595 18.9518 18.8878 19.4411C18.3162 19.9304 17.9542 20.6046 17.8716 21.3337C17.789 22.0628 17.9916 22.7953 18.4404 23.3902C18.8892 23.9851 19.5525 24.4003 20.3025 24.5559L24.4072 25.4159C25.2436 25.5941 25.9819 26.0606 26.481 26.7262C26.9801 27.3918 27.205 28.2099 27.1128 29.024C27.0205 29.8381 26.6175 30.5911 25.9808 31.1392C25.3441 31.6872 24.5184 31.9919 23.6615 31.9949H21.344C19.8268 31.9949 18.5379 31.0673 18.059 29.7773M22.5011 18.6833V15.3569M22.5011 35.3212V31.9949" stroke="#3C759A" stroke-linecap="round" stroke-linejoin="round"/>
</svg>
