<svg xmlns="http://www.w3.org/2000/svg" width="31.792" height="30.369" viewBox="0 0 31.792 30.369">
  <g id="msg" transform="translate(0.75 0.75)">
    <path id="Path_9317" data-name="Path 9317" d="M325.467,171.135c.826,1.621.826,3.741.826,7.982v1.793a18.972,18.972,0,0,1-.306,4.882,7.573,7.573,0,0,1-5.136,5.136,18.973,18.973,0,0,1-4.882.306h-.93a7.576,7.576,0,0,0-4.314,1.383l-.08.058L306.69,195.5a1.667,1.667,0,0,1-2.517-1.977,1.668,1.668,0,0,0-1.549-2.287h-.91A5.714,5.714,0,0,1,296,185.521v-6.4c0-4.241,0-6.361.825-7.982a7.564,7.564,0,0,1,3.309-3.309c1.621-.825,3.741-.825,7.982-.825h6.058c4.241,0,6.361,0,7.982.825A7.564,7.564,0,0,1,325.467,171.135Z" transform="translate(-296 -167)" fill="none" stroke="#3b1144" stroke-width="1.5" fill-rule="evenodd"/>
    <line id="Line_1653" data-name="Line 1653" x2="12.705" transform="translate(8.387 14.855)" fill="none" stroke="#3b1144" stroke-linecap="round" stroke-width="1.5"/>
    <line id="Line_1654" data-name="Line 1654" x2="7.411" transform="translate(8.387 8.502)" fill="none" stroke="#3b1144" stroke-linecap="round" stroke-width="1.5"/>
  </g>
</svg>
