<svg width="16" height="18" viewBox="0 0 16 18" fill="none" xmlns="http://www.w3.org/2000/svg">
<g id="carbon:sales-ops">
<path id="Vector" d="M15 4.25V3.125H13.5V2H12.5V3.125H12C11.4485 3.125 11 3.63013 11 4.25V5.375C11 5.99544 11.4485 6.5 12 6.5H14V7.625H11V8.75H12.5V9.875H13.5V8.75H14C14.5515 8.75 15 8.24544 15 7.625V6.5C15 5.88013 14.5515 5.375 14 5.375H12V4.25H15ZM12 12.125V13.25H13.293L11.5 15.2671L10.354 13.9773C10.2604 13.872 10.1334 13.8127 10.001 13.8125H10C9.93442 13.8125 9.86948 13.8271 9.8089 13.8553C9.74833 13.8836 9.69331 13.9251 9.647 13.9773L7 16.9546L7.707 17.75L10.0005 15.1704L11.1465 16.4602C11.2403 16.5656 11.3674 16.6249 11.5 16.6249C11.6326 16.6249 11.7597 16.5656 11.8535 16.4602L14 14.0454V15.5H15V12.125H12ZM2 17.75H1V14.9375C1 12.7662 2.57 11 4.5 11H7.5C8.4945 11 9.445 11.4781 10.1085 12.3123L9.3635 13.0627C9.12885 12.7679 8.84163 12.5321 8.52055 12.3705C8.19947 12.2089 7.85173 12.1253 7.5 12.125H4.5C3.1215 12.125 2 13.3867 2 14.9375V17.75ZM6 9.875C6.92826 9.875 7.8185 9.46016 8.47487 8.72173C9.13125 7.98331 9.5 6.98179 9.5 5.9375C9.5 4.89321 9.13125 3.89169 8.47487 3.15327C7.8185 2.41484 6.92826 2 6 2C5.07174 2 4.1815 2.41484 3.52513 3.15327C2.86875 3.89169 2.5 4.89321 2.5 5.9375C2.5 6.98179 2.86875 7.98331 3.52513 8.72173C4.1815 9.46016 5.07174 9.875 6 9.875ZM6 3.125C6.66304 3.125 7.29893 3.42132 7.76777 3.94876C8.23661 4.47621 8.5 5.19158 8.5 5.9375C8.5 6.68342 8.23661 7.39879 7.76777 7.92624C7.29893 8.45368 6.66304 8.75 6 8.75C5.33696 8.75 4.70107 8.45368 4.23223 7.92624C3.76339 7.39879 3.5 6.68342 3.5 5.9375C3.5 5.19158 3.76339 4.47621 4.23223 3.94876C4.70107 3.42132 5.33696 3.125 6 3.125Z" fill="#4E1F4F"/>
</g>
</svg>
