<svg xmlns="http://www.w3.org/2000/svg" width="220" height="220" viewBox="0 0 220 220">
  <g id="Group_10122" data-name="Group 10122" transform="translate(0 -0.022)">
    <g id="Group_10120" data-name="Group 10120" transform="translate(0 0.022)">
      <path id="Path_11360" data-name="Path 11360" d="M220,110.015A110,110,0,1,1,109.993.022,109.6,109.6,0,0,1,220,110.015" transform="translate(0 -0.022)" fill="#dedfe0"/>
      <path id="Path_11361" data-name="Path 11361" d="M131.895,90.993V66.714a38.113,38.113,0,1,0-76.226,0V90.993a27.609,27.609,0,0,1-7.049,18.428,27.621,27.621,0,0,0-7.048,18.429v33.012H145.992V127.85a27.621,27.621,0,0,0-7.048-18.429,27.609,27.609,0,0,1-7.049-18.428" transform="translate(15.923 10.924)" fill="#7d737e"/>
      <path id="Path_11362" data-name="Path 11362" d="M180.634,153.564a110.222,110.222,0,0,1-26.375,20.151,107.555,107.555,0,0,1-10,4.854c-.111.042-.221.1-.332.138a107.216,107.216,0,0,1-14.951,5.02c-1.134.3-2.268.581-3.416.83-.055.014-.124.028-.18.041-1.812.4-3.624.761-5.477,1.065a109.621,109.621,0,0,1-18.45,1.549,110.419,110.419,0,0,1-18.394-1.535c-1.618-.277-3.236-.581-4.827-.94-1.134-.235-2.268-.5-3.4-.775-1.2-.3-2.406-.622-3.6-.968a101.819,101.819,0,0,1-11.355-3.928c-.4-.152-.788-.318-1.189-.484a106.83,106.83,0,0,1-9.737-4.688,110.222,110.222,0,0,1-26.679-20.331l1.895-7.468a31.2,31.2,0,0,1,22.972-22.627l1.812-.429,8.1-1.936,2.821-.678,6.1-1.452a23.085,23.085,0,0,0,4.55-1.618,1.512,1.512,0,0,0,.207-.111c.277-.138.539-.277.8-.415h.014a21.633,21.633,0,0,0,3.278-2.158,21.884,21.884,0,0,0,2.365-2.158c.3-.318.595-.65.871-.982A21.748,21.748,0,0,0,79.6,109.5a22.64,22.64,0,0,0,3.181-7.054l1.466-5.7.387-1.535.028-.124,1.881-7.261.553-2.171h28.7l2.144,8.3.194.747.111.415.014.1.4,1.549,1.466,5.684a22.328,22.328,0,0,0,3.181,7.054,21.132,21.132,0,0,0,2.075,2.628,23.293,23.293,0,0,0,5.989,4.7c.415.235.83.443,1.245.636a23.1,23.1,0,0,0,4.315,1.508l7,1.673,2.227.526,8.1,1.936,1.508.36A31.2,31.2,0,0,1,178.739,146.1Z" transform="translate(8.533 32.78)" fill="#eef4f7"/>
      <path id="Path_11363" data-name="Path 11363" d="M100.966,95.123c-2.434,10.691-9.024,18.358-16.778,18.358S69.825,105.8,67.4,95.094l1.873-7.261.562-2.17H98.526l2.137,8.3.194.744Z" transform="translate(25.816 32.782)" fill="#ddd"/>
      <path id="Path_11364" data-name="Path 11364" d="M55.475,64.16c-14.288-16.032-4.755,23.16,3.149,18.58,13.894-8.052-3.149-18.58-3.149-18.58" transform="translate(18.427 23.061)" fill="#eef4f7"/>
      <path id="Path_11365" data-name="Path 11365" d="M108.021,64.16c14.288-16.032,4.755,23.16-3.149,18.58-13.894-8.052,3.149-18.58,3.149-18.58" transform="translate(38.082 23.061)" fill="#eef4f7"/>
      <path id="Path_11366" data-name="Path 11366" d="M121.989,63.941a30.988,30.988,0,0,1-.207,3.6c-.083.816-.373,3.679-.9,7.593-.166,1.231-.346,2.559-.553,3.969-.484,3.292-1.093,6.984-1.826,10.677-1.77,8.879-4.246,17.731-7.482,20.967-1.784,1.784-3.4,3.5-4.979,5.062a44.528,44.528,0,0,1-3.983,3.568c-.1.069-.18.152-.277.221-.221.18-.456.346-.692.512a20.125,20.125,0,0,1-5.311,2.808,21.317,21.317,0,0,1-7.04,1.093,20.976,20.976,0,0,1-6.694-1,20.057,20.057,0,0,1-5.657-2.891c-.166-.111-.318-.235-.47-.36a1.978,1.978,0,0,1-.207-.152,44.524,44.524,0,0,1-4.26-3.8c-1.59-1.563-3.209-3.278-4.993-5.062-3.222-3.222-5.7-12.074-7.455-20.953h-.014c-.041-.194-.069-.387-.111-.581l-.014-.014c-.18-.982-.373-1.95-.539-2.918l-.249-1.411c-.346-2.005-.65-3.942-.927-5.767-.207-1.411-.387-2.738-.553-3.969-.622-4.661-.927-7.842-.927-7.842-.1-1.093-.166-2.213-.166-3.347,0-.29.014-.581.014-.871.014-.622.055-1.231.1-1.839a33.8,33.8,0,0,1,.844-5.186c.041-.194.083-.373.138-.567l.083-.332A33.25,33.25,0,0,1,67.995,38c.028-.014.041-.041.069-.055a32.915,32.915,0,0,1,18.782-7.178c.622-.041,1.245-.055,1.881-.055h.014a33.13,33.13,0,0,1,20.995,7.455,30.046,30.046,0,0,1,2.517,2.268,33.2,33.2,0,0,1,8.8,15.615,31.936,31.936,0,0,1,.83,5.186c.069.9.111,1.8.111,2.711" transform="translate(21.261 11.732)" fill="#eef4f7"/>
      <path id="Path_11367" data-name="Path 11367" d="M86.3,78.57c0,2.294-2.337,4.153-5.228,4.153s-5.214-1.859-5.214-4.153a2.624,2.624,0,0,1,.111-.806c.456,1.906,2.572,3.347,5.1,3.347s4.661-1.441,5.117-3.347a2.624,2.624,0,0,1,.111.806" transform="translate(29.058 29.756)" fill="#ddd"/>
      <path id="Path_11368" data-name="Path 11368" d="M122.785,63.836a34.15,34.15,0,0,1-.212,3.813c-.084.864-.38,3.9-.916,8.049-.169,1.306-.945,2.714-1.156,4.209-38.365-.353-43.325-32.479-43.325-32.479C73.4,75.771,57.324,79.907,57.324,79.907c-.212-1.5-.986-2.9-1.156-4.209-.633-4.942-.943-8.313-.943-8.313-.1-1.159-.169-2.347-.169-3.549,0-.308.014-.615.014-.924.014-.66.055-1.3.1-1.95a37.3,37.3,0,0,1,.859-5.5c.043-.2.086-.4.141-.6.029-.118.057-.235.084-.353A35.381,35.381,0,0,1,67.779,36.328c.028-.015.042-.044.071-.059a32.782,32.782,0,0,1,19.134-7.609c.633-.044,1.267-.059,1.916-.059h.014A32.952,32.952,0,0,1,110.3,36.5a31.15,31.15,0,0,1,2.564,2.405,35.589,35.589,0,0,1,8.961,16.554,35.1,35.1,0,0,1,.846,5.5c.069.953.112,1.906.112,2.874" transform="translate(21.089 10.924)" fill="#7d737e"/>
      <path id="Path_11369" data-name="Path 11369" d="M49.671,111.287v39h-8.1V113.223Z" transform="translate(15.922 42.597)" fill="#aa87ac"/>
      <path id="Path_11370" data-name="Path 11370" d="M119.951,113.273v37h-8.1V111.337Z" transform="translate(42.841 42.616)" fill="#aa87ac"/>
      <path id="Path_11371" data-name="Path 11371" d="M146.871,133.887v21.354a107.555,107.555,0,0,1-10,4.854c-.111.041-.221.1-.332.138a107.214,107.214,0,0,1-14.951,5.02c-1.134.3-2.268.581-3.416.83-.055.014-.124.028-.18.041-1.812.4-3.624.761-5.477,1.065a109.62,109.62,0,0,1-18.45,1.549A110.419,110.419,0,0,1,75.672,167.2c-1.618-.277-3.236-.581-4.827-.94-1.134-.235-2.268-.5-3.4-.775-1.2-.3-2.406-.622-3.6-.968a101.822,101.822,0,0,1-11.355-3.928c-.4-.152-.788-.318-1.189-.484a106.834,106.834,0,0,1-9.737-4.688V133.887H67.775a26.367,26.367,0,0,1,20.732,10.027,7.242,7.242,0,0,0,11.424,0,26.367,26.367,0,0,1,20.732-10.027Z" transform="translate(15.921 51.253)" fill="#b1a0b4"/>
    </g>
  </g>
</svg>
