<svg xmlns="http://www.w3.org/2000/svg" width="26.021" height="28.817" viewBox="0 0 26.021 28.817">
  <g id="notification" transform="translate(-1610.989 -44.705)">
    <path id="Subtraction_7" data-name="Subtraction 7" d="M-13757.314-8283.682a5.734,5.734,0,0,1-5.6-4.576l-.079-.4h-1.79a5.7,5.7,0,0,1-4.459-2.139,5.7,5.7,0,0,1-1.119-4.814l1.824-8.219a11.07,11.07,0,0,1,10.527-8.672h.294a11.11,11.11,0,0,1,10.673,8.111l2.36,8.488.021.08a5.745,5.745,0,0,1-.978,4.907,5.736,5.736,0,0,1-4.549,2.257h-1.444l-.087.4A5.73,5.73,0,0,1-13757.314-8283.682Zm-4.1-4.974v.294l.131.373a4.238,4.238,0,0,0,3.975,2.817,4.233,4.233,0,0,0,3.965-2.817l.241-.667h-8.312Zm3.445-22.361a9.585,9.585,0,0,0-9.113,7.514l-1.828,8.219a4.2,4.2,0,0,0,.832,3.561,4.2,4.2,0,0,0,3.3,1.582h14.612a4.224,4.224,0,0,0,3.349-1.665,4.231,4.231,0,0,0,.709-3.7l-2.36-8.491a9.559,9.559,0,0,0-3.442-5.074,9.539,9.539,0,0,0-5.793-1.949Z" transform="translate(15381.488 8357.204)" fill="#3b1144"/>
  </g>
</svg>
