<svg xmlns="http://www.w3.org/2000/svg" width="38.34" height="29.03" viewBox="0 0 38.34 29.03">
  <g id="noun-cart-1279459" transform="translate(-73.432 -60.616)">
    <path id="Path_9352" data-name="Path 9352" d="M151.814,66.8h-26.9l-.767-3.214a3.611,3.611,0,0,0-3.511-2.771h-4.929a.9.9,0,0,0,0,1.805h4.965a1.806,1.806,0,0,1,1.72,1.417l3.949,16.483a5.415,5.415,0,0,0,5.267,4.152h12.909a5.416,5.416,0,0,0,5.276-4.193l2.925-12.575a.9.9,0,0,0-.9-1.106Zm-3.782,13.266a3.611,3.611,0,0,1-3.516,2.794H131.607a3.611,3.611,0,0,1-3.512-2.771l-2.749-11.482H150.69Z" transform="translate(-41.171)" fill="#3b1144" stroke="#fff" stroke-width="0.4"/>
    <circle id="Ellipse_652" data-name="Ellipse 652" cx="1.597" cy="1.597" r="1.597" transform="translate(99.95 86.453)" fill="#3b1144"/>
    <circle id="Ellipse_653" data-name="Ellipse 653" cx="1.597" cy="1.597" r="1.597" transform="translate(90.544 86.453)" fill="#3b1144"/>
  </g>
</svg>
