<svg width="20" height="14" viewBox="0 0 20 14" fill="none" xmlns="http://www.w3.org/2000/svg">
<path d="M19.375 8C18.5164 6.87847 17.5049 5.90355 16.375 5.10846M16.375 5.10846C15.1588 4.25309 13.8006 3.65886 12.375 3.35846C11.0538 3.08482 9.69623 3.08482 8.375 3.35846C6.94944 3.65886 5.59121 4.25309 4.375 5.10846M16.375 5.10846L17.875 3.15385M1.375 8C2.23361 6.87847 3.24509 5.90355 4.375 5.10846M4.375 5.10846L2.875 3.15385M12.375 3.35954L12.875 1M8.375 3.35954L7.875 1" stroke="white" stroke-linecap="round" stroke-linejoin="round"/>
<path d="M19.6961 7.77219C19.6687 7.71664 19.007 6.39547 17.5359 5.07148C15.5758 3.30734 13.1 2.375 10.375 2.375C7.64999 2.375 5.17421 3.30734 3.21406 5.07148C1.74296 6.39547 1.07812 7.71875 1.0539 7.77219C1.01836 7.84413 1 7.92198 1 8.0007C1 8.07943 1.01836 8.15728 1.0539 8.22922C1.08124 8.28477 1.74296 9.60523 3.21406 10.9292C5.17421 12.6927 7.64999 13.625 10.375 13.625C13.1 13.625 15.5758 12.6927 17.5359 10.9292C19.007 9.60523 19.6687 8.28477 19.6961 8.22922C19.7316 8.15728 19.75 8.07943 19.75 8.0007C19.75 7.92198 19.7316 7.84413 19.6961 7.77219ZM10.375 12.5C7.97031 12.5 5.86952 11.7132 4.13046 10.1621C3.4169 9.52346 2.80983 8.7952 2.32812 8C2.8097 7.20472 3.41679 6.47645 4.13046 5.83789C5.86952 4.2868 7.97031 3.5 10.375 3.5C12.7797 3.5 14.8805 4.2868 16.6195 5.83789C17.3345 6.4763 17.9429 7.20457 18.4258 8C17.8625 8.94641 15.4086 12.5 10.375 12.5ZM10.375 4.625C9.63331 4.625 8.90829 4.82294 8.2916 5.19379C7.67492 5.56464 7.19427 6.09174 6.91044 6.70844C6.62662 7.32514 6.55235 8.00374 6.69705 8.65843C6.84174 9.31312 7.1989 9.91448 7.72334 10.3865C8.24779 10.8585 8.91598 11.1799 9.64341 11.3102C10.3708 11.4404 11.1248 11.3735 11.8101 11.1181C12.4953 10.8626 13.0809 10.4301 13.493 9.87505C13.9051 9.32003 14.125 8.66751 14.125 8C14.124 7.10518 13.7285 6.24728 13.0255 5.61454C12.3225 4.98181 11.3692 4.62593 10.375 4.625ZM10.375 10.25C9.88054 10.25 9.39719 10.118 8.98607 9.87081C8.57495 9.62357 8.25451 9.27217 8.06529 8.86104C7.87608 8.4499 7.82657 7.9975 7.92303 7.56105C8.01949 7.12459 8.25759 6.72368 8.60723 6.40901C8.95686 6.09434 9.40232 5.88005 9.88727 5.79323C10.3722 5.70642 10.8749 5.75097 11.3317 5.92127C11.7885 6.09157 12.179 6.37996 12.4537 6.74997C12.7284 7.11998 12.875 7.55499 12.875 8C12.875 8.59674 12.6116 9.16903 12.1428 9.59099C11.6739 10.0129 11.038 10.25 10.375 10.25Z" fill="white"/>
</svg>
