<svg width="24" height="27" viewBox="0 0 24 27" fill="none" xmlns="http://www.w3.org/2000/svg">
<path d="M12.0006 14.22C11.6435 14.2216 11.2967 14.3551 11.0135 14.5999C10.7304 14.8448 10.5265 15.1876 10.4334 15.5754C10.3402 15.9633 10.3629 16.3749 10.4979 16.7469C10.6329 17.1189 10.8728 17.4307 11.1806 17.6344V20.25H12.8406V17.6344C13.0842 17.4723 13.2863 17.2421 13.4274 16.9661C13.5684 16.6901 13.6436 16.3777 13.6456 16.0594C13.6456 15.8169 13.603 15.5768 13.5202 15.3529C13.4374 15.129 13.3161 14.9257 13.1632 14.7548C13.0103 14.5838 12.8289 14.4485 12.6294 14.3568C12.4298 14.265 12.2162 14.2185 12.0006 14.22Z" stroke="#4E1F4F" stroke-opacity="0.4" stroke-linecap="round" stroke-linejoin="round"/>
<path d="M18.1445 9.99562H5.84945C4.65652 9.99562 3.68945 11.0836 3.68945 12.4256V22.0387C3.68945 23.3808 4.65652 24.4687 5.84945 24.4687H18.1445C19.3374 24.4687 20.3045 23.3808 20.3045 22.0387V12.4256C20.3045 11.0836 19.3374 9.99562 18.1445 9.99562Z" stroke="#4E1F4F" stroke-opacity="0.4" stroke-linecap="round" stroke-linejoin="round"/>
<path d="M6.67578 9.99563V8.5275C6.67578 6.9372 7.23733 5.41203 8.2369 4.28751C9.23647 3.163 10.5922 2.53125 12.0058 2.53125C13.4194 2.53125 14.7751 3.163 15.7747 4.28751C16.7742 5.41203 17.3358 6.9372 17.3358 8.5275V9.99563" stroke="#4E1F4F" stroke-opacity="0.4" stroke-linecap="round" stroke-linejoin="round"/>
</svg>
