<svg width="85" height="79" viewBox="0 0 85 79" fill="none" xmlns="http://www.w3.org/2000/svg">
<path d="M83.5833 70.625V65.0916H80.75V62.325C80.75 60.7991 79.4792 59.5583 77.9167 59.5583V37.4249C79.4792 37.4249 80.75 36.1841 80.75 34.6583V31.8916H84.4588L80.2088 23.5916H70.4664L67.5991 15.2916H65.7758C64.7799 6.78412 54.7301 0.0749512 42.5 0.0749512C30.1764 0.0749512 20.0501 6.78412 19.0471 15.2916H17.3995L14.5322 23.5916H4.79117L0.541167 31.8916H4.25V34.6583C4.25 36.1841 5.52075 37.4249 7.08333 37.4249V59.5583C5.52075 59.5583 4.25 60.7991 4.25 62.325V65.0916H1.41667V70.625H0V78.9249H85V70.625H83.5833ZM77.9167 34.6583C76.3541 34.6583 75.0833 35.8991 75.0833 37.4249V59.5583C75.0833 61.0841 76.3541 62.325 77.9167 62.325V65.0916H69.4167V62.325C70.9792 62.325 72.25 61.0841 72.25 59.5583V37.4249C72.25 35.8991 70.9792 34.6583 69.4167 34.6583V31.8916H77.9167V34.6583ZM15.5833 59.5583V37.4249C17.1459 37.4249 18.4167 36.1841 18.4167 34.6583V31.8916H19.8333V34.6583C19.8333 36.1841 21.1041 37.4249 22.6667 37.4249V59.5583C21.1041 59.5583 19.8333 60.7991 19.8333 62.325V65.0916H18.4167V62.325C18.4167 60.7991 17.1459 59.5583 15.5833 59.5583ZM22.6667 62.325C24.2292 62.325 25.5 61.0841 25.5 59.5583V37.4249C25.5 35.8991 24.2292 34.6583 22.6667 34.6583V31.8916H31.1667V34.6583C29.6041 34.6583 28.3333 35.8991 28.3333 37.4249V59.5583C28.3333 61.0841 29.6041 62.325 31.1667 62.325V65.0916H22.6667V62.325ZM31.1667 59.5583V37.4249C32.7292 37.4249 34 36.1841 34 34.6583V31.8916H35.4167V34.6583C35.4167 36.1841 36.6874 37.4249 38.25 37.4249V59.5583C36.6874 59.5583 35.4167 60.7991 35.4167 62.325V65.0916H34V62.325C34 60.7991 32.7292 59.5583 31.1667 59.5583ZM38.25 62.325C39.8126 62.325 41.0833 61.0841 41.0833 59.5583V37.4249C41.0833 35.8991 39.8126 34.6583 38.25 34.6583V31.8916H46.75V34.6583C45.1874 34.6583 43.9167 35.8991 43.9167 37.4249V59.5583C43.9167 61.0841 45.1874 62.325 46.75 62.325V65.0916H38.25V62.325ZM46.75 59.5583V37.4249C48.3126 37.4249 49.5833 36.1841 49.5833 34.6583V31.8916H51V34.6583C51 36.1841 52.2707 37.4249 53.8333 37.4249V59.5583C52.2707 59.5583 51 60.7991 51 62.325V65.0916H49.5833V62.325C49.5833 60.7991 48.3126 59.5583 46.75 59.5583ZM53.8333 62.325C55.3959 62.325 56.6667 61.0841 56.6667 59.5583V37.4249C56.6667 35.8991 55.3959 34.6583 53.8333 34.6583V31.8916H62.3333V34.6583C60.7707 34.6583 59.5 35.8991 59.5 37.4249V59.5583C59.5 61.0841 60.7707 62.325 62.3333 62.325V65.0916H53.8333V62.325ZM62.3333 59.5583V37.4249C63.8959 37.4249 65.1667 36.1841 65.1667 34.6583V31.8916H66.5833V34.6583C66.5833 36.1841 67.8541 37.4249 69.4167 37.4249V59.5583C67.8541 59.5583 66.5833 60.7991 66.5833 62.325V65.0916H65.1667V62.325C65.1667 60.7991 63.8959 59.5583 62.3333 59.5583ZM22.2048 19.6325L18.0852 21.9621L19.4324 18.0583H24.99L22.2048 19.6325ZM24.5154 21.5249L42.5 11.356L64.141 23.5916H20.859L24.5154 21.5249ZM66.9134 21.9621L62.7938 19.6325L60.0086 18.0583H65.5662L66.9134 21.9621ZM42.5 2.84162C53.1335 2.84162 61.9055 8.31132 62.9397 15.2916H55.1168L42.5 8.16053L29.8846 15.2916H21.8889C22.967 8.4123 31.9671 2.84162 42.5 2.84162ZM6.54217 26.3583H10.3091H15.351L15.6613 26.5298L15.9658 26.3583H69.0866L69.4096 26.5201L69.6816 26.3583H74.6923H78.4592L79.8759 29.125H66.5833H65.1667H51H49.5833H35.4167H34H19.8333H18.4167H5.1255L6.54217 26.3583ZM7.08333 62.325C8.64592 62.325 9.91667 61.0841 9.91667 59.5583V37.4249C9.91667 35.8991 8.64592 34.6583 7.08333 34.6583V31.8916H15.5833V34.6583C14.0207 34.6583 12.75 35.8991 12.75 37.4249V59.5583C12.75 61.0841 14.0207 62.325 15.5833 62.325V65.0916H7.08333V62.325ZM4.25 67.8583H18.4167H19.8333H34H35.4167H49.5833H51H65.1667H66.5833H80.75V70.625H4.25V67.8583ZM82.1667 76.1583H2.83333V73.3916H82.1667V76.1583Z" fill="#4E1F4F"/>
</svg>
