<svg width="22" height="21" viewBox="0 0 22 21" fill="none" xmlns="http://www.w3.org/2000/svg">
<g clip-path="url(#clip0_4758_9215)">
<path d="M21.0869 10.5467C21.0582 10.485 20.3634 9.01699 18.8188 7.5459C16.7606 5.58574 14.161 4.5498 11.2998 4.5498C8.43855 4.5498 5.83898 5.58574 3.78081 7.5459C2.23616 9.01699 1.53808 10.4873 1.51265 10.5467C1.47533 10.6266 1.45605 10.7131 1.45605 10.8006C1.45605 10.8881 1.47533 10.9746 1.51265 11.0545C1.54136 11.1162 2.23616 12.5834 3.78081 14.0545C5.83898 16.0139 8.43855 17.0498 11.2998 17.0498C14.161 17.0498 16.7606 16.0139 18.8188 14.0545C20.3634 12.5834 21.0582 11.1162 21.0869 11.0545C21.1243 10.9746 21.1435 10.8881 21.1435 10.8006C21.1435 10.7131 21.1243 10.6266 21.0869 10.5467ZM11.2998 15.7998C8.77488 15.7998 6.56905 14.9256 4.74304 13.2021C3.9938 12.4925 3.35637 11.6834 2.85058 10.7998C3.35624 9.91616 3.99368 9.10697 4.74304 8.39746C6.56905 6.67402 8.77488 5.7998 11.2998 5.7998C13.8247 5.7998 16.0305 6.67402 17.8566 8.39746C18.6073 9.1068 19.2461 9.91599 19.7531 10.7998C19.1617 11.8514 16.5851 15.7998 11.2998 15.7998ZM11.2998 7.0498C10.521 7.0498 9.75976 7.26974 9.11224 7.68179C8.46472 8.09385 7.96004 8.67952 7.66202 9.36474C7.364 10.05 7.28603 10.804 7.43795 11.5314C7.58988 12.2588 7.96489 12.927 8.51556 13.4515C9.06623 13.9759 9.76783 14.3331 10.5316 14.4777C11.2954 14.6224 12.0871 14.5482 12.8066 14.2644C13.5261 13.9805 14.1411 13.4999 14.5737 12.8832C15.0064 12.2665 15.2373 11.5415 15.2373 10.7998C15.2362 9.80556 14.821 8.85233 14.0828 8.1493C13.3446 7.44626 12.3438 7.05084 11.2998 7.0498ZM11.2998 13.2998C10.7806 13.2998 10.2731 13.1532 9.84143 12.8785C9.40975 12.6038 9.07329 12.2133 8.87461 11.7565C8.67593 11.2997 8.62395 10.797 8.72524 10.3121C8.82652 9.82713 9.07653 9.38167 9.44364 9.03204C9.81075 8.68241 10.2785 8.4443 10.7877 8.34784C11.2969 8.25138 11.8247 8.30089 12.3043 8.49011C12.784 8.67932 13.194 8.99976 13.4824 9.41088C13.7708 9.822 13.9248 10.3054 13.9248 10.7998C13.9248 11.4628 13.6482 12.0987 13.156 12.5676C12.6637 13.0364 11.996 13.2998 11.2998 13.2998Z" fill="#3C759A"/>
</g>
<defs>
<clipPath id="clip0_4758_9215">
<rect width="21" height="20" fill="white" transform="translate(0.799805 0.799805)"/>
</clipPath>
</defs>
</svg>
