<svg width="20" height="25" viewBox="0 0 20 25" fill="none" xmlns="http://www.w3.org/2000/svg">
<path d="M5.83049 0.993947L4.71914 1.30715C3.72958 1.58631 2.84587 2.12411 2.17201 2.85725C1.49815 3.59039 1.06219 4.48835 0.915436 5.44545C0.455086 8.44405 1.48429 11.9501 3.96584 15.971C6.44119 19.9817 9.16609 22.5656 12.1653 23.6966C13.129 24.0599 14.184 24.1567 15.2047 23.9755C16.2255 23.7943 17.1692 23.3427 17.9236 22.6743L18.7637 21.929C19.3092 21.4461 19.6487 20.7942 19.7191 20.0947C19.7896 19.3951 19.5861 18.6955 19.1465 18.1257L17.0447 15.3997C16.7606 15.0317 16.3604 14.7561 15.9004 14.6115C15.4404 14.4669 14.9435 14.4606 14.4795 14.5935L11.3004 15.5026L11.2183 15.5171C10.868 15.565 10.0589 14.8559 9.05138 13.2232C7.99739 11.5151 7.78039 10.5161 8.07024 10.258L9.68689 8.84715C10.2781 8.33162 10.6819 7.65589 10.8418 6.91476C11.0016 6.17363 10.9094 5.40428 10.5781 4.71465L9.55204 2.5817C9.24349 1.93984 8.69597 1.42485 8.01153 1.13273C7.3271 0.840604 6.55092 0.791278 5.83049 0.993947ZM8.14154 3.1762L9.16454 5.30915C9.36377 5.72273 9.41948 6.18432 9.32384 6.62905C9.22821 7.07378 8.98603 7.4793 8.63134 7.78865L7.01004 9.20095C5.97154 10.1202 6.31564 11.6891 7.71064 13.9482C9.02194 16.0739 10.2185 17.1237 11.505 16.941L11.6972 16.9033L14.9336 15.9797C15.0883 15.9352 15.254 15.9372 15.4075 15.9853C15.5609 16.0334 15.6944 16.1253 15.7892 16.2479L17.891 18.9739C18.1111 19.2588 18.2131 19.6087 18.178 19.9587C18.143 20.3086 17.9732 20.6347 17.7004 20.8763L16.8587 21.6216C16.3199 22.0987 15.6459 22.4211 14.917 22.5504C14.188 22.6796 13.4347 22.6105 12.7466 22.351C10.1147 21.3592 7.62694 19 5.30969 15.246C2.98624 11.4832 2.04539 8.2831 2.44994 5.65135C2.55466 4.96757 2.86604 4.32602 3.34742 3.80223C3.82879 3.27844 4.46013 2.89421 5.16709 2.6948L6.27844 2.3816C6.63875 2.28031 7.02614 2.30508 7.36836 2.45128C7.71059 2.59748 7.9843 2.85514 8.13844 3.1762" fill="#3C759A"/>
</svg>
