<svg xmlns="http://www.w3.org/2000/svg" width="23.667" height="23.667" viewBox="0 0 23.667 23.667">
  <g id="phone-icon" transform="translate(-852.393 -356.259)">
    <g id="Group_1660" data-name="Group 1660" transform="translate(832 336)">
      <g id="Group_1640" data-name="Group 1640" transform="translate(21.211 21.212)">
        <path id="Call" d="M5.144,3.806c.086-.086.129-.129.167-.164a2.436,2.436,0,0,1,3.3,0c.038.035.081.078.167.164L10.55,5.582a3.36,3.36,0,0,1,.7,3.718,3.36,3.36,0,0,0,.7,3.718l2.919,2.919a3.359,3.359,0,0,0,3.718.7,3.36,3.36,0,0,1,3.718.7l1.776,1.776c.086.086.129.129.164.167a2.436,2.436,0,0,1,0,3.3c-.035.038-.078.081-.164.167l-1.079,1.08a3.636,3.636,0,0,1-3.36.978A21.816,21.816,0,0,1,3.087,8.245a3.636,3.636,0,0,1,.978-3.36Z" transform="translate(-3 -3)" fill="none" stroke="#3b1144" stroke-width="1.6"/>
      </g>
    </g>
  </g>
</svg>
