<svg width="24" height="24" viewBox="0 0 24 24" fill="none" xmlns="http://www.w3.org/2000/svg">
<path d="M17.7062 13.7081L20.3542 16.3561C20.4389 16.4408 20.5061 16.5414 20.552 16.6521C20.5978 16.7627 20.6214 16.8813 20.6214 17.0011C20.6214 17.1209 20.5978 17.2396 20.552 17.3502C20.5061 17.4609 20.4389 17.5615 20.3542 17.6461C19.4229 18.5773 18.1871 19.1413 16.8735 19.2346C15.5599 19.3279 14.2567 18.9443 13.2032 18.1541L11.6282 16.9721C9.88461 15.6645 8.33578 14.1157 7.02818 12.3721L5.84618 10.7971C5.05603 9.74362 4.6724 8.44044 4.76571 7.12684C4.85903 5.81325 5.42303 4.57739 6.35418 3.64614C6.43887 3.56142 6.53942 3.49421 6.65009 3.44836C6.76076 3.40251 6.87938 3.37891 6.99918 3.37891C7.11897 3.37891 7.23759 3.40251 7.34826 3.44836C7.45893 3.49421 7.55949 3.56142 7.64418 3.64614L10.2922 6.29414C10.4796 6.48167 10.585 6.73598 10.585 7.00114C10.585 7.26631 10.4796 7.52062 10.2922 7.70814L9.27118 8.72914C9.19189 8.80828 9.13955 8.9104 9.1216 9.02098C9.10365 9.13156 9.12099 9.24498 9.17118 9.34514C10.3577 11.7183 12.282 13.6426 14.6552 14.8291C14.7553 14.8793 14.8688 14.8967 14.9793 14.8787C15.0899 14.8608 15.192 14.8084 15.2712 14.7291L16.2912 13.7091C16.384 13.6162 16.4943 13.5424 16.6157 13.4921C16.7371 13.4418 16.8673 13.4159 16.9987 13.4159C17.1301 13.4159 17.2602 13.4418 17.3816 13.4921C17.503 13.5424 17.6133 13.6162 17.7062 13.7091V13.7081Z" stroke="#4E1F4F" stroke-opacity="0.36"/>
</svg>
