<svg width="46" height="38" viewBox="0 0 46 38" fill="none" xmlns="http://www.w3.org/2000/svg">
<path d="M24.4375 4.75C24.4375 4.43506 24.286 4.13301 24.0165 3.91031C23.7469 3.68761 23.3812 3.5625 23 3.5625C22.6188 3.5625 22.2531 3.68761 21.9835 3.91031C21.714 4.13301 21.5625 4.43506 21.5625 4.75V7.91667C21.5625 8.23161 21.714 8.53366 21.9835 8.75636C22.2531 8.97906 22.6188 9.10417 23 9.10417C23.3812 9.10417 23.7469 8.97906 24.0165 8.75636C24.286 8.53366 24.4375 8.23161 24.4375 7.91667V4.75Z" fill="#2F779C"/>
<path d="M17.2545 7.521C17.6357 7.52016 18.001 7.39424 18.2698 7.17095C18.5387 6.94766 18.6892 6.64528 18.6882 6.33033C18.6871 6.01539 18.5347 5.71368 18.2644 5.49157C17.9941 5.26947 17.6281 5.14516 17.2468 5.146C14.2817 5.15392 11.8802 5.1935 9.95007 5.46583C7.97973 5.74133 6.36207 6.27492 5.06257 7.35C3.6289 8.53433 2.99257 10.0369 2.68973 11.8926C2.39648 13.6976 2.39648 16.0013 2.39648 18.9115V19.0888C2.39648 21.999 2.39648 24.3043 2.68973 26.1078C2.99257 27.9634 3.6289 29.466 5.06257 30.6519C6.49815 31.8362 8.31707 32.3619 10.5634 32.6121C12.7484 32.8543 15.5372 32.8543 19.0581 32.8543H26.9432C30.4642 32.8543 33.2548 32.8543 35.4379 32.6121C37.6842 32.3619 39.5032 31.8362 40.9387 30.6519C42.3724 29.466 43.0087 27.9634 43.3116 26.1078C43.6048 24.3028 43.6048 21.999 43.6048 19.0888V18.9115C43.6048 16.0013 43.6048 13.696 43.3116 11.8926C43.0087 10.0369 42.3724 8.53433 40.9387 7.34842C39.6392 6.27492 38.0216 5.74133 36.0512 5.46425C34.1231 5.19508 31.7196 5.15392 28.7545 5.14758C28.3732 5.14674 28.0072 5.27105 27.7369 5.49316C27.4666 5.71526 27.3142 6.01697 27.3132 6.33192C27.3121 6.64686 27.4626 6.94924 27.7315 7.17253C28.0003 7.39583 28.3656 7.52174 28.7468 7.52258C31.7502 7.5305 33.9142 7.57483 35.5702 7.80758C37.184 8.03242 38.1672 8.41875 38.9052 9.02675C39.7159 9.69808 40.2027 10.6164 40.4615 12.2093C40.726 13.8369 40.7298 15.9808 40.7298 19.0002C40.7298 22.0196 40.726 24.165 40.4615 25.7927C40.2027 27.3839 39.7159 28.3023 38.9052 28.972C38.0944 29.6418 36.9827 30.0439 35.0546 30.2577C33.0862 30.4762 30.4891 30.4793 26.834 30.4793H19.1673C15.5122 30.4793 12.9171 30.4762 10.9448 30.2577C9.01857 30.0439 7.9069 29.6418 7.09615 28.972C6.2854 28.3023 5.79857 27.3839 5.53982 25.7911C5.27532 24.1634 5.27148 22.0196 5.27148 19.0002C5.27148 15.9808 5.27532 13.8369 5.53982 12.2077C5.79857 10.6164 6.2854 9.69808 7.09615 9.02833C7.83407 8.41875 8.81732 8.03242 10.4312 7.806C12.0872 7.57483 14.2511 7.5305 17.2545 7.521Z" fill="#2F779C"/>
<path d="M13.8965 16.625C13.8965 16.3101 14.0479 16.008 14.3175 15.7853C14.5871 15.5626 14.9527 15.4375 15.334 15.4375H30.6673C31.0486 15.4375 31.4142 15.5626 31.6838 15.7853C31.9534 16.008 32.1048 16.3101 32.1048 16.625C32.1048 16.9399 31.9534 17.242 31.6838 17.4647C31.4142 17.6874 31.0486 17.8125 30.6673 17.8125H15.334C14.9527 17.8125 14.5871 17.6874 14.3175 17.4647C14.0479 17.242 13.8965 16.9399 13.8965 16.625ZM15.334 20.9792C14.9527 20.9792 14.5871 21.1043 14.3175 21.327C14.0479 21.5497 13.8965 21.8517 13.8965 22.1667C13.8965 22.4816 14.0479 22.7837 14.3175 23.0064C14.5871 23.2291 14.9527 23.3542 15.334 23.3542H25.8757C26.2569 23.3542 26.6225 23.2291 26.8921 23.0064C27.1617 22.7837 27.3132 22.4816 27.3132 22.1667C27.3132 21.8517 27.1617 21.5497 26.8921 21.327C26.6225 21.1043 26.2569 20.9792 25.8757 20.9792H15.334Z" fill="#2F779C"/>
</svg>
