<svg width="150" height="50" viewBox="0 0 150 50" fill="none" xmlns="http://www.w3.org/2000/svg">
<path d="M139.589 17.7117H145.992V26.0768C145.992 26.9064 145.801 27.6895 145.419 28.4267C145.037 29.1638 144.436 29.8079 143.62 30.3602C142.803 30.9118 141.946 31.2997 141.049 31.5231C139.802 31.836 138.305 31.9918 136.558 31.9918C135.548 31.9918 134.446 31.9437 133.251 31.8484C132.056 31.7523 131.057 31.5631 130.254 31.2786C129.451 30.9948 128.717 30.5909 128.051 30.0677C127.385 29.5444 126.929 29.0052 126.684 28.4499C126.288 27.5563 126.089 26.7653 126.089 26.0761V17.7109H132.492V26.2755C132.492 27.0411 132.806 27.6393 133.434 28.0701C134.061 28.5009 134.933 28.7163 136.047 28.7163C137.161 28.7163 138.018 28.5045 138.646 28.0803C139.274 27.656 139.588 27.0549 139.588 26.2762V17.7117H139.589Z" fill="#A84185"/>
<path d="M148.305 16.047C148.32 16.063 148.329 16.0827 148.329 16.1074C148.329 16.1365 148.323 16.1591 148.309 16.1744C148.295 16.1919 148.273 16.205 148.241 16.2137C148.208 16.2231 148.165 16.2297 148.111 16.2319C148.058 16.2348 147.991 16.2355 147.911 16.2355H147.712V15.9961H147.998C148.051 15.9961 148.097 15.9975 148.138 15.999C148.177 16.0019 148.212 16.0056 148.241 16.0136C148.268 16.0201 148.292 16.0318 148.306 16.0463L148.305 16.047Z" fill="#A84185"/>
<path d="M147.993 14.9609C146.883 14.9609 145.985 15.5686 145.985 16.3181C145.985 17.0677 146.884 17.6746 147.993 17.6746C149.101 17.6746 149.999 17.067 149.999 16.3181C149.999 15.5693 149.1 14.9609 147.993 14.9609ZM148.868 16.952H148.293V16.7941C148.293 16.7388 148.281 16.6936 148.254 16.6609C148.228 16.6282 148.194 16.602 148.149 16.5859C148.104 16.5685 148.051 16.5568 147.991 16.5517C147.93 16.5466 147.866 16.5437 147.798 16.5437H147.711V16.952H147.16V15.677H147.996C148.166 15.677 148.304 15.6865 148.415 15.7047C148.525 15.7221 148.615 15.7498 148.679 15.7847C148.746 15.8204 148.79 15.8648 148.816 15.9179C148.843 15.9717 148.855 16.0336 148.855 16.1049C148.855 16.185 148.84 16.2526 148.804 16.305C148.771 16.3589 148.717 16.4026 148.641 16.4353C148.687 16.4579 148.725 16.4812 148.754 16.5088C148.783 16.535 148.806 16.5627 148.824 16.5932C148.841 16.6238 148.853 16.6551 148.86 16.6871C148.866 16.7198 148.868 16.7519 148.868 16.7832V16.952Z" fill="#A84185"/>
<path d="M103.481 17.7358H109.898V23.0417L116.619 17.7358H125.154L117.575 23.0351L125.493 31.7758H117.59L113.212 26.0013L109.897 28.3489V31.7751H103.479V17.7344L103.481 17.7358Z" fill="#007792"/>
<path d="M117.577 23.0352L125.495 31.7758H117.592L113.214 26.0014" fill="#007792"/>
<path d="M94.1729 21.4414H100.604V31.8296H94.1729V21.4414Z" fill="#A84185"/>
<path d="M94.1729 17.7891H100.604V20.7982H94.1729V17.7891Z" fill="#A84185"/>
<path d="M117.837 22.8477L125.827 31.6684H117.853L113.435 25.8415" fill="#007792"/>
<path d="M83.3418 28.0407H80.144V31.7645H74.2812V17.75H83.7573C89.4134 17.75 92.9664 19.7323 92.9664 22.935C92.9664 24.9974 91.4854 26.5191 88.9097 27.3596L93.3808 31.7638H87.1036L83.3429 28.04L83.3418 28.0407ZM83.401 20.8945H80.144V24.7929H83.401C85.8292 24.7929 87.0433 24.0703 87.0433 22.8528C87.0433 21.6353 85.8292 20.8938 83.401 20.8938V20.8945Z" fill="#007792"/>
<path d="M68.6826 25C68.6826 38.7856 56.0612 50 40.5459 50C33.3153 50 26.7118 47.5639 21.72 43.5655C19.7181 41.9586 17.9745 40.1035 16.5572 38.0497L24.7759 38.0358C26.7319 39.9108 29.1093 41.4323 31.7662 42.492C34.4498 43.5586 37.4208 44.1505 40.5459 44.1505C52.4285 44.1505 62.0992 35.5609 62.0992 25C62.0992 14.4391 52.4285 5.84952 40.5459 5.84952C34.6935 5.84952 29.3843 7.92814 25.5002 11.3068C24.8496 11.8679 24.2371 12.4667 23.6727 13.1033H15.8027C17.0457 11.0734 18.5915 9.21523 20.3921 7.57359C25.5046 2.90391 32.6503 0 40.5471 0C56.0623 0 68.6837 11.2144 68.6837 25H68.6826Z" fill="#007792"/>
<path d="M22.2887 14.8359C21.0916 16.5252 20.1862 18.3903 19.6285 20.3766H3.92324L0 14.8737L14.8334 14.8498L22.2887 14.8359Z" fill="#A84185"/>
<path d="M19.2726 28.0814H9.56288L5.63965 22.5824L12.545 22.5685L19.1675 22.5586C19.0513 23.3571 18.9932 24.1724 18.9932 24.9987C18.9932 26.0484 19.0904 27.0773 19.2715 28.0824L19.2726 28.0814Z" fill="#007792"/>
<path d="M22.924 36.0158H15.0853L11.1621 30.5169L13.098 30.5139L19.8994 30.5C20.5734 32.4962 21.604 34.3543 22.924 36.0158Z" fill="#A84185"/>
<path d="M37.5362 27.4429C39.3916 26.7418 40.6066 25.3971 40.6066 23.3701V23.3324C40.6066 22.0254 40.1584 21.0025 39.2843 20.2447C38.2828 19.335 36.7057 18.8047 34.4244 18.8047H27.3682V21.9877H34.212C35.598 21.9877 36.4497 22.517 36.4497 23.5588V23.5975C36.4497 24.5638 35.6405 25.1687 34.2333 25.1687H27.3682V32.0629H31.5049V28.0477H33.3167L36.3223 32.0629H41.0973L37.5373 27.4419L37.5362 27.4429Z" fill="#007792"/>
<path d="M41.3164 18.8047H45.452V24.1845L50.5891 18.8047H55.4926L49.8436 24.5062L55.6848 32.0639H50.7176L46.9654 27.139L45.452 28.6357V32.0639H41.3164V18.8047Z" fill="#007792"/>
</svg>
