<svg id="send" xmlns="http://www.w3.org/2000/svg" xmlns:xlink="http://www.w3.org/1999/xlink" width="20.237" height="17.462" viewBox="0 0 20.237 17.462">
  <defs>
    <clipPath id="clip-path">
      <rect id="Rectangle_2752" data-name="Rectangle 2752" width="20.237" height="17.462" fill="#fff"/>
    </clipPath>
  </defs>
  <g id="Group_1824" data-name="Group 1824" clip-path="url(#clip-path)">
    <path id="Path_11141" data-name="Path 11141" d="M0,2.2V1.685A4.614,4.614,0,0,1,.357.841,1.936,1.936,0,0,1,2.841.2L9.289,2.873q4.818,2,9.637,4a1.963,1.963,0,0,1-.019,3.708q-6.749,2.8-13.5,5.6c-.953.4-1.9.81-2.868,1.166A1.813,1.813,0,0,1,.607,16.9,2.143,2.143,0,0,1,0,15.756v-.514c.008-.01.021-.019.024-.031Q.429,13.6.834,11.98c.224-.885.452-1.769.682-2.666H8.453c.072,0,.145,0,.217,0A.584.584,0,0,0,9.217,8.7a.593.593,0,0,0-.666-.573H1.522c-.02-.064-.038-.113-.051-.163Q1.011,6.159.552,4.353.277,3.275,0,2.2" transform="translate(0 0)" fill="#fff"/>
  </g>
</svg>
