<svg width="49" height="16" viewBox="0 0 49 16" fill="none" xmlns="http://www.w3.org/2000/svg">
<g clip-path="url(#clip0_2173_447)">
<path opacity="0.6" fill-rule="evenodd" clip-rule="evenodd" d="M47.3832 13.8843C47.8044 13.8508 48.2112 13.7246 48.571 13.5158C49.1521 13.0083 48.9759 11.4249 48.9669 10.6125C48.9669 10.4153 48.4347 10.4123 48.4193 10.208C48.3427 8.95657 47.769 6.65791 47.6243 5.37243C47.5897 5.03988 47.4684 4.72051 47.2712 4.44265C47.0739 4.16478 46.8068 3.93703 46.4935 3.77959C45.4686 3.1839 42.5338 1.55902 41.42 1.11951C40.6846 0.829675 40.8639 0.759094 40.0742 0.652471C36.1534 0.123359 27.58 -0.501864 23.7373 0.646464C20.6487 1.61927 17.7044 2.95825 14.9755 4.63107C9.92868 5.44951 5.81039 6.14482 3.35933 6.76503C2.91724 6.84676 2.50151 7.02433 2.14513 7.28362C1.78875 7.54292 1.50153 7.8768 1.30631 8.25877C0.908796 8.9831 0.720945 9.4101 0.537355 9.81907C0.100995 9.85311 -0.00490215 10.232 0.00520862 10.7441C-0.0508992 11.4726 0.00647323 12.2048 0.175499 12.9176C0.266436 13.1977 0.452526 13.4421 0.705225 13.6131C0.957925 13.7842 1.26329 13.8726 1.57451 13.8647L2.80325 13.9028C3.39978 13.7962 3.58283 13.8267 3.53175 13.0763C3.51419 12.819 3.50992 12.5547 3.50992 12.2829C3.50992 11.0003 4.05157 9.77023 5.01571 8.86329C5.97984 7.95634 7.28749 7.44682 8.65099 7.44682C10.0145 7.44682 11.3221 7.95634 12.2863 8.86329C13.2504 9.77023 13.7921 11.0003 13.7921 12.2829C13.7921 12.6564 13.792 13.0198 13.7654 13.3692C13.6766 14.5596 13.2828 14.4364 14.4987 14.4955L35.1588 14.474C36.0421 14.3738 36.2789 14.474 36.1566 13.3441C36.1228 12.9915 36.1078 12.6375 36.1118 12.2834C36.1118 11.0008 36.6535 9.77073 37.6176 8.86378C38.5818 7.95684 39.8894 7.44733 41.2529 7.44733C42.6164 7.44733 43.9241 7.95684 44.8882 8.86378C45.8523 9.77073 46.394 11.0008 46.394 12.2834C46.394 12.5237 46.394 12.7585 46.3855 12.9842C46.3525 13.9018 46.1375 14.0855 47.3864 13.8853M30.9224 5.03604C31.2416 2.59672 31.2778 1.8909 31.5216 1.29771C31.5664 1.22097 31.6294 1.15499 31.7057 1.10489C31.782 1.0548 31.8696 1.02194 31.9616 1.00888C33.8284 1.09248 35.9054 1.06295 37.7131 1.4594C38.3554 1.6286 39.6698 3.03522 39.9986 3.46172C40.1258 3.6244 41.0699 4.6561 40.9182 4.86884C40.8671 4.94798 40.7945 5.01288 40.7079 5.05688C40.6213 5.10087 40.5238 5.12236 40.4254 5.11913C37.6146 5.20774 34.4766 5.48656 31.6695 5.5196C30.8825 5.52861 30.8356 5.70931 30.9245 5.04204M20.2523 5.90054C20.3472 5.62773 20.4094 5.34584 20.438 5.06007C20.479 4.41482 18.9736 4.36676 18.1961 4.41432C20.0518 3.22061 22.0706 2.2684 24.1976 1.58354C25.8473 1.06294 28.0733 1.05093 29.8432 1.01539C30.1513 1.01239 30.1401 1.13402 30.1013 1.3743C29.9778 2.13969 29.6755 3.7936 29.4941 4.90339C29.4057 5.43951 29.2711 5.56665 28.6884 5.57065C26.389 5.58917 20.2241 6.00416 20.2523 5.90054ZM41.2556 8.56712C42.0377 8.56712 42.8022 8.78528 43.4525 9.19402C44.1028 9.60276 44.6096 10.1837 44.9089 10.8634C45.2082 11.5431 45.2865 12.2911 45.134 13.0126C44.9814 13.7342 44.6048 14.397 44.0517 14.9172C43.4987 15.4374 42.7941 15.7917 42.027 15.9352C41.26 16.0788 40.4649 16.0051 39.7423 15.7236C39.0197 15.442 38.4021 14.9653 37.9676 14.3535C37.5331 13.7418 37.3012 13.0226 37.3012 12.2869C37.3012 11.3004 37.7178 10.3542 38.4594 9.65662C39.201 8.95902 40.2068 8.56712 41.2556 8.56712ZM8.65419 8.56712C9.43629 8.56712 10.2008 8.78528 10.8511 9.19402C11.5014 9.60276 12.0082 10.1837 12.3075 10.8634C12.6068 11.5431 12.6852 12.2911 12.5326 13.0126C12.38 13.7342 12.0034 14.397 11.4504 14.9172C10.8973 15.4374 10.1927 15.7917 9.42564 15.9352C8.65857 16.0788 7.86348 16.0051 7.14091 15.7236C6.41835 15.442 5.80076 14.9653 5.36624 14.3535C4.93173 13.7418 4.69981 13.0226 4.69981 12.2869C4.69981 11.3004 5.11643 10.3542 5.85802 9.65662C6.59961 8.95902 7.60542 8.56712 8.65419 8.56712Z" fill="#3C759A"/>
</g>
<defs>
<clipPath id="clip0_2173_447">
<rect width="49" height="16" fill="white"/>
</clipPath>
</defs>
</svg>
