<svg width="76" height="88" viewBox="0 0 76 88" fill="none" xmlns="http://www.w3.org/2000/svg">
<path d="M3.37976 76.4843H43.5882C45.4368 76.4843 46.9412 74.667 46.9412 72.4339V21.1291C46.9412 21.067 46.9188 21.013 46.9121 20.9536C46.9059 20.897 46.8962 20.841 46.883 20.7862C46.8392 20.556 46.7451 20.3443 46.6103 20.1732L30.9655 1.27413C30.7883 1.07183 30.5617 0.943988 30.3195 0.9096C30.2726 0.9042 30.2279 0.877197 30.1765 0.877197H3.36635C1.51106 0.877197 0 2.69447 0 4.92758V72.4339C0 74.667 1.51553 76.4843 3.37976 76.4843ZM31.2941 5.48653L43.1255 19.779H32.4118C32.1153 19.779 31.8311 19.6367 31.6215 19.3835C31.4119 19.1303 31.2941 18.7869 31.2941 18.4288V5.48653ZM2.23529 4.92758C2.23529 4.18231 2.7427 3.57745 3.36635 3.57745H29.0588V18.4288C29.0588 20.662 30.5632 22.4792 32.4118 22.4792H44.7059V72.4339C44.7059 72.792 44.5881 73.1354 44.3785 73.3886C44.1689 73.6418 43.8846 73.784 43.5882 73.784H3.37976C3.23123 73.7862 3.0838 73.7529 2.94589 73.6862C2.80799 73.6196 2.68231 73.5207 2.57603 73.3953C2.46976 73.27 2.38497 73.1205 2.3265 72.9556C2.26804 72.7906 2.23704 72.6133 2.23529 72.4339V4.92758Z" fill="#4E1F4F"/>
<path d="M48.0586 14.3785H58.1174V29.2299C58.1174 31.463 59.6218 33.2802 61.4703 33.2802H73.7645V83.2349C73.7645 83.593 73.6467 83.9364 73.4371 84.1896C73.2275 84.4428 72.9432 84.5851 72.6468 84.5851H32.4384C32.2898 84.5872 32.1424 84.554 32.0045 84.4873C31.8666 84.4206 31.7409 84.3217 31.6346 84.1964C31.5284 84.071 31.4436 83.9215 31.3851 83.7566C31.3266 83.5916 31.2956 83.4144 31.2939 83.2349V80.5347C31.2939 80.1766 31.1761 79.8332 30.9665 79.58C30.7569 79.3268 30.4727 79.1845 30.1762 79.1845C29.8798 79.1845 29.5955 79.3268 29.3859 79.58C29.1763 79.8332 29.0586 80.1766 29.0586 80.5347V83.2349C29.0586 85.468 30.5741 87.2853 32.4384 87.2853H72.6468C74.4954 87.2853 75.9997 85.468 75.9997 83.2349V31.9301C75.9997 31.868 75.9774 31.814 75.9707 31.7546C75.9645 31.698 75.9547 31.642 75.9416 31.5872C75.8978 31.357 75.8037 31.1453 75.6689 30.9742L60.0241 12.0752C59.8481 11.8712 59.6207 11.7439 59.3781 11.7133C59.3312 11.7052 59.2865 11.6782 59.2351 11.6782H48.0586C47.7622 11.6782 47.4779 11.8205 47.2683 12.0737C47.0587 12.3269 46.9409 12.6703 46.9409 13.0283C46.9409 13.3864 47.0587 13.7298 47.2683 13.983C47.4779 14.2362 47.7622 14.3785 48.0586 14.3785ZM61.4703 30.58C61.1739 30.58 60.8896 30.4377 60.68 30.1846C60.4704 29.9314 60.3527 29.5879 60.3527 29.2299V16.2876L72.1841 30.58H61.4703Z" fill="#4E1F4F"/>
<path d="M6.227 23.9335H27.3026C27.7684 23.9335 28.2151 23.8569 28.5445 23.7205C28.8739 23.5842 29.0589 23.3993 29.0589 23.2065C29.0589 23.0137 28.8739 22.8288 28.5445 22.6924C28.2151 22.5561 27.7684 22.4795 27.3026 22.4795H6.227C5.7612 22.4795 5.31448 22.5561 4.98511 22.6924C4.65574 22.8288 4.4707 23.0137 4.4707 23.2065C4.4707 23.3993 4.65574 23.5842 4.98511 23.7205C5.31448 23.8569 5.7612 23.9335 6.227 23.9335ZM6.227 29.7494H27.3026C27.7684 29.7494 28.2151 29.6728 28.5445 29.5365C28.8739 29.4001 29.0589 29.2152 29.0589 29.0224C29.0589 28.8296 28.8739 28.6447 28.5445 28.5084C28.2151 28.372 27.7684 28.2954 27.3026 28.2954H6.227C5.7612 28.2954 5.31448 28.372 4.98511 28.5084C4.65574 28.6447 4.4707 28.8296 4.4707 29.0224C4.4707 29.2152 4.65574 29.4001 4.98511 29.5365C5.31448 29.6728 5.7612 29.7494 6.227 29.7494ZM6.227 35.5653H27.3026C27.7684 35.5653 28.2151 35.4887 28.5445 35.3524C28.8739 35.2161 29.0589 35.0312 29.0589 34.8383C29.0589 34.6455 28.8739 34.4606 28.5445 34.3243C28.2151 34.1879 27.7684 34.1114 27.3026 34.1114H6.227C5.7612 34.1114 5.31448 34.1879 4.98511 34.3243C4.65574 34.4606 4.4707 34.6455 4.4707 34.8383C4.4707 35.0312 4.65574 35.2161 4.98511 35.3524C5.31448 35.4887 5.7612 35.5653 6.227 35.5653ZM6.227 41.3813H27.3026C27.7684 41.3813 28.2151 41.3047 28.5445 41.1683C28.8739 41.032 29.0589 40.8471 29.0589 40.6543C29.0589 40.4615 28.8739 40.2766 28.5445 40.1402C28.2151 40.0039 27.7684 39.9273 27.3026 39.9273H6.227C5.7612 39.9273 5.31448 40.0039 4.98511 40.1402C4.65574 40.2766 4.4707 40.4615 4.4707 40.6543C4.4707 40.8471 4.65574 41.032 4.98511 41.1683C5.31448 41.3047 5.7612 41.3813 6.227 41.3813Z" fill="#4E1F4F"/>
<path d="M50.7724 45.5353H69.9321C70.3555 45.5353 70.7616 45.4587 71.0611 45.3224C71.3605 45.186 71.5287 45.0011 71.5287 44.8083C71.5287 44.6155 71.3605 44.4306 71.0611 44.2942C70.7616 44.1579 70.3555 44.0813 69.9321 44.0813H50.7724C50.349 44.0813 49.9429 44.1579 49.6434 44.2942C49.344 44.4306 49.1758 44.6155 49.1758 44.8083C49.1758 45.0011 49.344 45.186 49.6434 45.3224C49.9429 45.4587 50.349 45.5353 50.7724 45.5353ZM50.7724 51.3512H69.9321C70.3555 51.3512 70.7616 51.2746 71.0611 51.1383C71.3605 51.0019 71.5287 50.817 71.5287 50.6242C71.5287 50.4314 71.3605 50.2465 71.0611 50.1102C70.7616 49.9738 70.3555 49.8972 69.9321 49.8972H50.7724C50.349 49.8972 49.9429 49.9738 49.6434 50.1102C49.344 50.2465 49.1758 50.4314 49.1758 50.6242C49.1758 50.817 49.344 51.0019 49.6434 51.1383C49.9429 51.2746 50.349 51.3512 50.7724 51.3512ZM50.7724 57.1671H69.9321C70.3555 57.1671 70.7616 57.0905 71.0611 56.9542C71.3605 56.8179 71.5287 56.633 71.5287 56.4402C71.5287 56.2473 71.3605 56.0624 71.0611 55.9261C70.7616 55.7898 70.3555 55.7132 69.9321 55.7132H50.7724C50.349 55.7132 49.9429 55.7898 49.6434 55.9261C49.344 56.0624 49.1758 56.2473 49.1758 56.4402C49.1758 56.633 49.344 56.8179 49.6434 56.9542C49.9429 57.0905 50.349 57.1671 50.7724 57.1671ZM50.7724 62.9831H69.9321C70.3555 62.9831 70.7616 62.9065 71.0611 62.7701C71.3605 62.6338 71.5287 62.4489 71.5287 62.2561C71.5287 62.0633 71.3605 61.8784 71.0611 61.742C70.7616 61.6057 70.3555 61.5291 69.9321 61.5291H50.7724C50.349 61.5291 49.9429 61.6057 49.6434 61.742C49.344 61.8784 49.1758 62.0633 49.1758 62.2561C49.1758 62.4489 49.344 62.6338 49.6434 62.7701C49.9429 62.9065 50.349 62.9831 50.7724 62.9831Z" fill="#4E1F4F"/>
<path d="M35.404 48.8427C33.5551 47.7682 31.3938 47.2004 29.1537 47.2004C26.1859 47.2004 23.3903 48.1891 21.2814 49.9857C19.1767 51.7861 18.0176 54.1786 18.0176 56.7222C18.0176 61.9721 23.0134 66.2437 29.1537 66.2437C34.997 66.2437 39.8741 62.3416 40.2572 57.371C40.2773 57.1686 40.2864 56.9567 40.2864 56.7216C40.2864 53.5645 38.4613 50.619 35.404 48.8427ZM38.8774 56.1853L29.9821 56.4044L36.0946 50.8761C37.7291 52.2951 38.7265 54.1748 38.8774 56.1853ZM34.6239 49.8245C34.9647 50.0225 35.2874 50.2373 35.5921 50.4668L29.1468 56.296L22.513 50.6223C24.3272 49.1798 26.6711 48.3877 29.1537 48.3877C31.1141 48.3877 33.0054 48.8845 34.6239 49.8245ZM29.1537 65.0562C23.7789 65.0562 19.4057 61.3171 19.4057 56.7219C19.4057 54.595 20.3336 52.5898 22.0216 51.0414L28.9084 56.9318C28.909 56.9327 28.9104 56.933 28.9115 56.9336C28.9403 56.9576 28.9746 56.9763 29.0118 56.9905C29.0152 56.992 29.018 56.995 29.0215 56.9962C29.0621 57.0107 29.1069 57.0187 29.1537 57.0187C29.1558 57.0187 29.1572 57.0187 29.1589 57.019L29.1603 57.0187C29.1613 57.0187 29.1624 57.0187 29.1638 57.0187L38.8972 56.7789C38.8958 56.9567 38.8896 57.1208 38.8736 57.2823C38.537 61.6418 34.2682 65.0562 29.1537 65.0562Z" fill="#4E1F4F"/>
<path d="M20.8546 57.5694C21.0458 57.5561 21.1881 57.4133 21.1722 57.2495C21.1555 57.0749 21.1472 56.8972 21.1472 56.7223C21.1472 56.5582 20.9917 56.4255 20.8002 56.4255C20.6082 56.4255 20.4531 56.5582 20.4531 56.7223C20.4531 56.9135 20.4621 57.107 20.4805 57.2981C20.4955 57.4531 20.6471 57.5706 20.8262 57.5706C20.8359 57.5706 20.8453 57.57 20.8546 57.5694Z" fill="#4E1F4F"/>
<path d="M21.496 58.6477C21.4377 58.4913 21.2426 58.4049 21.0598 58.4548C20.8776 58.5047 20.7766 58.6721 20.8349 58.8282C21.3523 60.2148 22.3524 61.4095 23.7274 62.2815C23.7895 62.321 23.862 62.34 23.9338 62.34C24.04 62.34 24.1448 62.299 24.2125 62.2201C24.3267 62.0886 24.2944 61.9031 24.1407 61.8051C22.8834 61.0073 21.969 59.9157 21.496 58.6477Z" fill="#4E1F4F"/>
</svg>
