<svg width="180" height="189" viewBox="0 0 180 189" fill="none" xmlns="http://www.w3.org/2000/svg">
<g clip-path="url(#clip0_1_92894)">
<path d="M161.881 59.5513L161.645 59.7997C159.5 62.0515 158.819 65.3974 159.836 68.3976C162.604 76.5525 164.109 85.335 164.109 94.4867C164.119 137.319 130.824 172.304 90.0321 172.321C49.4571 172.335 16.4858 138.111 15.8977 95.6613C15.3032 52.8294 48.1084 17.3168 88.8974 16.6926C105.39 16.4409 120.667 21.844 133.087 31.1802C136.178 33.5025 140.419 33.1166 143.107 30.2942L143.324 30.066C146.738 26.4819 146.249 20.5519 142.324 17.6021C127.542 6.49388 109.423 -0.0334307 89.8531 0.000128778C40.3002 0.0840273 -0.0765981 42.624 0.000109115 94.6545C0.0768164 146.772 40.3449 189 90.0033 189C139.71 189 180 146.692 180 94.5035C180 83.3148 178.146 72.5791 174.746 62.6153C172.809 56.9471 165.937 55.2926 161.881 59.5513Z" fill="#9E438F"/>
<path d="M136.034 73.7355L75.6908 137.096C72.7472 140.187 67.9721 140.187 65.0285 137.096L44.0363 115.054C40.7442 111.597 40.6643 105.852 44.0203 102.462C47.2739 99.1769 52.4453 99.2171 55.651 102.583L70.3596 118.027L124.288 61.4024C127.532 57.9961 132.79 57.9961 136.034 61.4024C139.278 64.8087 139.278 70.3292 136.034 73.7355Z" fill="#9E438F"/>
</g>
<defs>
<clipPath id="clip0_1_92894">
<rect width="180" height="189" fill="white"/>
</clipPath>
</defs>
</svg>
