<svg width="29" height="30" viewBox="0 0 29 30" fill="none" xmlns="http://www.w3.org/2000/svg">
<g clip-path="url(#clip0_5091_20297)">
<path d="M8.45811 10.9186L8.46543 10.9262L8.47314 10.9334C9.07122 11.4902 10.0011 11.5112 10.5739 10.9186C11.139 10.3341 11.1195 9.39513 10.5881 8.78433L10.5743 8.76845L10.5589 8.75412C9.96081 8.19728 9.03091 8.17631 8.45811 8.76887L8.45081 8.77641L8.44393 8.78433C7.91253 9.39513 7.89305 10.3341 8.45811 10.9186ZM6.2457 9.06798L8.77944 6.44688H13.0308L28.4272 20.5487L19.8653 29.4059L6.2457 13.4928V9.06798Z" stroke="#3C759A" stroke-width="0.8"/>
<path d="M9.92344 9.75C9.7875 9.14062 9.51562 8.53125 9.19844 8.01563C8.42812 6.70313 7.34062 5.625 6.07187 4.82813C4.35 3.79688 2.40156 3.32813 0.407812 3.14062C0.18125 3.14062 0 3.375 0 3.5625C0 3.79688 0.18125 3.98438 0.407812 3.98438C2.5375 4.17188 4.7125 4.78125 6.47969 6.09375C6.97813 6.46875 7.56719 7.07812 7.975 7.64062C8.06563 7.73437 7.92969 7.54687 7.975 7.6875C7.975 7.73437 8.02031 7.73438 8.02031 7.78125C8.06563 7.82813 8.11094 7.92188 8.15625 7.96875C8.24688 8.10938 8.3375 8.20312 8.38281 8.34375C8.51875 8.57812 8.60937 8.76563 8.74531 9C8.79062 9.04688 8.79062 9.14063 8.83594 9.1875C8.83594 9.23438 8.88125 9.23437 8.88125 9.28125C8.92656 9.375 8.97187 9.51563 8.97187 9.60938C9.01719 9.70313 9.01719 9.79688 9.0625 9.89063C9.19844 10.5469 10.0594 10.3125 9.92344 9.75Z" fill="#3C759A"/>
<path d="M6.932 7.78125L6.88669 7.73438C6.66013 7.54687 6.47888 7.35937 6.29763 7.125C5.88982 6.65625 5.52732 6.04688 5.25544 5.4375C4.48513 3.89063 4.07732 2.15625 3.94138 0.46875C3.89607 0.1875 3.71482 0 3.44294 0C3.21638 0 2.98982 0.1875 3.03513 0.421875C3.17107 2.29687 3.6695 4.17188 4.48513 5.85938C4.80232 6.51562 5.21013 7.17187 5.66325 7.73438C5.8445 7.96875 6.07107 8.20312 6.29763 8.39062L6.932 7.78125Z" fill="#3C759A"/>
</g>
<defs>
<clipPath id="clip0_5091_20297">
<rect width="29" height="30" fill="white"/>
</clipPath>
</defs>
</svg>
