<svg xmlns="http://www.w3.org/2000/svg" width="23.607" height="24.705" viewBox="0 0 23.607 24.705">
  <path id="Path_11173" data-name="Path 11173" d="M12.877,9.01a.824.824,0,1,0-1.647,0ZM9.258,16.264a.824.824,0,0,0,1.2,1.13ZM1.657,2.876a.824.824,0,1,0,1.03,1.287Zm3.775-.909A.824.824,0,1,0,4.4.68Zm15.989,2.2a.824.824,0,1,0,1.03-1.287ZM19.706.68a.824.824,0,0,0-1.03,1.287ZM11.455,15.134l-.6-.565ZM11.23,9.01v4.618h1.647V9.01Zm-.773,8.385,1.6-1.7-1.2-1.13-1.6,1.7ZM2.686,4.163l2.745-2.2L4.4.68l-2.745,2.2ZM22.451,2.876,19.706.68l-1.03,1.287,2.745,2.2ZM22.21,13.4A10.156,10.156,0,0,1,12.054,23.558v1.647a11.8,11.8,0,0,0,11.8-11.8ZM12.054,23.558A10.156,10.156,0,0,1,1.9,13.4H.25a11.8,11.8,0,0,0,11.8,11.8ZM1.9,13.4A10.156,10.156,0,0,1,12.054,3.245V1.6A11.8,11.8,0,0,0,.25,13.4ZM12.054,3.245A10.156,10.156,0,0,1,22.21,13.4h1.647a11.8,11.8,0,0,0-11.8-11.8ZM11.23,13.628a1.374,1.374,0,0,1-.373.941l1.2,1.13a3.019,3.019,0,0,0,.822-2.071Z" transform="translate(-0.25 -0.5)" fill="#2f779c"/>
</svg>
