<svg width="67" height="76" viewBox="0 0 67 76" fill="none" xmlns="http://www.w3.org/2000/svg">
<path d="M16.7493 6.33325C15.2686 6.33325 13.8484 7.00051 12.8013 8.18824C11.7543 9.37597 11.166 10.9869 11.166 12.6666V63.3332C11.166 65.013 11.7543 66.6239 12.8013 67.8116C13.8484 68.9993 15.2686 69.6666 16.7493 69.6666H50.2494C51.7301 69.6666 53.1503 68.9993 54.1974 67.8116C55.2444 66.6239 55.8327 65.013 55.8327 63.3332V31.1219C55.8324 29.4424 55.2439 27.8317 54.1968 26.6442L37.9269 8.18892C36.8801 7.00111 35.4602 6.33361 33.9795 6.33325H16.7493ZM15.3535 12.6666C15.3535 12.2467 15.5006 11.8439 15.7623 11.547C16.0241 11.2501 16.3792 11.0833 16.7493 11.0833H33.4993V25.3333C33.4993 27.013 34.0876 28.6239 35.1347 29.8116C36.1817 30.9993 37.6019 31.6666 39.0827 31.6666H51.6452V63.3332C51.6452 63.7532 51.4981 64.1559 51.2364 64.4528C50.9746 64.7498 50.6195 64.9166 50.2494 64.9166H16.7493C16.3792 64.9166 16.0241 64.7498 15.7623 64.4528C15.5006 64.1559 15.3535 63.7532 15.3535 63.3332V12.6666ZM48.5185 26.9166H39.0827C38.7125 26.9166 38.3574 26.7498 38.0957 26.4528C37.8339 26.1559 37.6868 25.7532 37.6868 25.3333V14.6299L48.5185 26.9166Z" fill="#4E1F4F"/>
<path d="M17.0254 25.8611H30.7549" stroke="#4E1F4F"/>
<path d="M17.5742 32.7222H31.3037" stroke="#4E1F4F"/>
<path d="M17.5742 40.1111H49.4267" stroke="#4E1F4F"/>
<path fill-rule="evenodd" clip-rule="evenodd" d="M40.6387 44.1575C40.7279 44.1574 40.8161 44.1739 40.8972 44.2057C40.9782 44.2375 41.0502 44.284 41.1083 44.3418L43.5796 46.8048C43.6862 46.9112 43.739 47.0494 43.7263 47.189C43.7137 47.3286 43.6366 47.4582 43.512 47.5493C43.3875 47.6404 43.2257 47.6855 43.0623 47.6747C42.8988 47.6638 42.7471 47.598 42.6405 47.4916L41.2566 46.1124V53.8334C41.2566 53.9734 41.1915 54.1076 41.0756 54.2066C40.9597 54.3056 40.8026 54.3612 40.6387 54.3612C40.4749 54.3612 40.3177 54.3056 40.2019 54.2066C40.086 54.1076 40.0209 53.9734 40.0209 53.8334V46.1117L38.637 47.4916C38.5842 47.5443 38.5198 47.5876 38.4474 47.619C38.375 47.6504 38.2961 47.6693 38.2152 47.6747C38.1343 47.68 38.0529 47.6717 37.9757 47.6502C37.8985 47.6287 37.8271 47.5944 37.7654 47.5493C37.7038 47.5042 37.6531 47.4492 37.6163 47.3874C37.5796 47.3256 37.5574 47.2581 37.5511 47.189C37.5449 47.1199 37.5546 47.0504 37.5798 46.9844C37.605 46.9185 37.6451 46.8575 37.6979 46.8048L40.1692 44.3418C40.2272 44.284 40.2993 44.2375 40.3803 44.2057C40.4614 44.1739 40.5495 44.1574 40.6387 44.1575ZM36.5166 49.0848C36.6804 49.0841 36.8379 49.1389 36.9544 49.2374C37.0709 49.3358 37.1368 49.4698 37.1377 49.6098C37.1386 49.7497 37.0743 49.8843 36.9591 49.9838C36.8438 50.0833 36.687 50.1396 36.5232 50.1404C35.6228 50.1446 34.9844 50.1643 34.4992 50.2403C34.0329 50.3142 33.7619 50.4317 33.5617 50.6027C33.3335 50.7976 33.1853 51.0714 33.1037 51.5879C33.0205 52.1192 33.0189 52.8236 33.0189 53.8334V54.5371C33.0189 55.5476 33.0205 56.252 33.1037 56.7833C33.1853 57.2998 33.3344 57.5729 33.5617 57.7685C33.7899 57.9627 34.1095 58.0894 34.715 58.1591C35.3361 58.2308 36.1615 58.2315 37.3437 58.2315H43.9338C45.1159 58.2315 45.9405 58.2308 46.5633 58.1591C47.1679 58.0894 47.4876 57.9627 47.7157 57.7678C47.9439 57.5729 48.0922 57.2998 48.1738 56.7833C48.257 56.252 48.2586 55.5476 48.2586 54.5371V53.8334C48.2586 52.8236 48.257 52.1192 48.1738 51.5872C48.0922 51.0714 47.9431 50.7976 47.7157 50.6027C47.5147 50.4317 47.2446 50.3142 46.7783 50.2403C46.2931 50.1643 45.6547 50.1446 44.7543 50.1404C44.6732 50.14 44.5929 50.126 44.5181 50.0991C44.4433 50.0722 44.3755 50.0331 44.3184 49.9838C44.2613 49.9345 44.2162 49.8761 44.1855 49.812C44.1549 49.7478 44.1393 49.6791 44.1398 49.6098C44.1402 49.5405 44.1566 49.4719 44.1881 49.408C44.2195 49.3441 44.2654 49.2861 44.323 49.2374C44.3807 49.1886 44.4491 49.1501 44.5242 49.1239C44.5993 49.0977 44.6798 49.0844 44.7609 49.0848C45.6522 49.089 46.3944 49.1073 47.0015 49.2023C47.626 49.3008 48.1573 49.4873 48.5898 49.8568C49.0857 50.2797 49.2982 50.8138 49.3987 51.4471C49.4943 52.0565 49.4943 52.8327 49.4943 53.7947V54.5758C49.4943 55.5385 49.4943 56.314 49.3987 56.9241C49.2982 57.5574 49.0857 58.0908 48.5898 58.5144C48.0939 58.9381 47.4694 59.1196 46.728 59.2055C46.0138 59.2871 45.1052 59.2871 43.9791 59.2871H37.2983C36.1723 59.2871 35.2636 59.2871 34.5494 59.2055C33.808 59.1203 33.1836 58.9381 32.6877 58.5144C32.1918 58.0908 31.9793 57.5574 31.8796 56.9241C31.7832 56.314 31.7832 55.5378 31.7832 54.5758V53.7947C31.7832 52.8327 31.7832 52.0565 31.8796 51.4464C31.9784 50.8131 32.1926 50.2797 32.6877 49.8561C33.1202 49.4873 33.6515 49.3001 34.2759 49.2023C34.8831 49.1073 35.6253 49.089 36.5166 49.0848Z" fill="#4E1F4F"/>
</svg>
