<svg xmlns="http://www.w3.org/2000/svg" xmlns:xlink="http://www.w3.org/1999/xlink" width="40" height="40" viewBox="0 0 40 40">
  <defs>
    <clipPath id="clip-path">
      <rect id="Rectangle_2900" data-name="Rectangle 2900" width="30" height="30" fill="#4e1f4f"/>
    </clipPath>
  </defs>
  <g id="user-icon" transform="translate(-390 -691)">
    <circle id="Ellipse_841" data-name="Ellipse 841" cx="20" cy="20" r="20" transform="translate(390 691)" fill="#e3e3e3"/>
    <g id="Component_65_45" data-name="Component 65 – 45" transform="translate(395 696)">
      <g id="Mask_Group_68" data-name="Mask Group 68" clip-path="url(#clip-path)">
        <g id="user-icon-black" transform="translate(8.268 6.346)">
          <path id="Path_11169" data-name="Path 11169" d="M497,396.915a4.677,4.677,0,0,1,3.85-4.662l.2-.034a16.5,16.5,0,0,1,5.362,0l.2.034a4.677,4.677,0,0,1,3.85,4.662,1.788,1.788,0,0,1-1.758,1.816h-9.947A1.788,1.788,0,0,1,497,396.915Z" transform="translate(-497 -381.423)" fill="none" stroke="#4e1f4f" stroke-width="1"/>
          <path id="Path_11170" data-name="Path 11170" d="M507.77,384.787A3.929,3.929,0,1,1,503.843,381,3.858,3.858,0,0,1,507.77,384.787Z" transform="translate(-497.112 -381)" fill="none" stroke="#4e1f4f" stroke-width="1"/>
        </g>
      </g>
    </g>
  </g>
</svg>
