<svg width="16" height="20" viewBox="0 0 16 20" fill="none" xmlns="http://www.w3.org/2000/svg">
<path d="M13.4385 19.937H2.5625C1.89946 19.937 1.26357 19.6736 0.794733 19.2048C0.325892 18.7359 0.0625 18.1 0.0625 17.437V16.61C0.0625 12.641 3.6235 9.40999 8.0005 9.40999C12.3775 9.40999 15.9385 12.639 15.9385 16.61V17.437C15.9385 18.1 15.6751 18.7359 15.2063 19.2048C14.7374 19.6736 14.1015 19.937 13.4385 19.937ZM8.0005 10.412C4.1745 10.412 1.0625 13.192 1.0625 16.612V17.439C1.0625 17.8368 1.22054 18.2183 1.50184 18.4997C1.78314 18.781 2.16468 18.939 2.5625 18.939H13.4385C13.8363 18.939 14.2179 18.781 14.4992 18.4997C14.7805 18.2183 14.9385 17.8368 14.9385 17.439V16.61C14.9385 13.192 11.8265 10.412 8.0005 10.412ZM8.0005 7.91099C7.22436 7.91119 6.4656 7.68122 5.82017 7.25016C5.17474 6.81911 4.67164 6.20633 4.37448 5.48933C4.07733 4.77233 3.99948 3.98332 4.15078 3.22207C4.30207 2.46082 4.67572 1.76154 5.22446 1.21266C5.7732 0.663775 6.47239 0.289951 7.2336 0.138462C7.99481 -0.0130277 8.78384 0.0646222 9.50092 0.361591C10.218 0.65856 10.8309 1.16151 11.2621 1.80683C11.6933 2.45215 11.9235 3.21085 11.9235 3.98699C11.9227 5.02728 11.5092 6.02475 10.7737 6.76045C10.0382 7.49614 9.04079 7.90993 8.0005 7.91099ZM8.0005 1.06399C7.4221 1.06379 6.85664 1.23514 6.37564 1.55636C5.89463 1.87757 5.5197 2.33423 5.29827 2.86856C5.07683 3.40289 5.01884 3.9909 5.13164 4.55819C5.24443 5.12548 5.52293 5.64658 5.93192 6.05557C6.34091 6.46456 6.86201 6.74306 7.4293 6.85585C7.9966 6.96865 8.5846 6.91066 9.11893 6.68922C9.65326 6.46779 10.1099 6.09286 10.4311 5.61185C10.7524 5.13085 10.9237 4.56539 10.9235 3.98699C10.9227 3.21201 10.6145 2.46899 10.0665 1.92099C9.5185 1.373 8.77548 1.06478 8.0005 1.06399Z" fill="#4E1F4F" fill-opacity="0.4"/>
</svg>
