<svg xmlns="http://www.w3.org/2000/svg" width="34.201" height="32.658" viewBox="0 0 34.201 32.658">
  <g id="chat" transform="translate(0 -0.001)">
    <path id="Path_10359" data-name="Path 10359" d="M98.853,166.363c-1.375-.113-3.086-.113-5.268-.113h-6.47c-2.182,0-3.893,0-5.268.113a9.4,9.4,0,0,0-3.6.884,9.144,9.144,0,0,0-4,4,9.412,9.412,0,0,0-.885,3.6c-.112,1.374-.112,3.086-.112,5.267v6.78a7.192,7.192,0,0,0,7.193,7.193H81.4a.559.559,0,0,1,.519.767,2.945,2.945,0,0,0,4.446,3.49l4.153-2.967.078-.056a6.76,6.76,0,0,1,3.851-1.234h1.2a19.749,19.749,0,0,0,5.228-.369,9.148,9.148,0,0,0,6.2-6.2,19.686,19.686,0,0,0,.37-5.229v-2.171c0-2.181,0-3.893-.112-5.267a9.412,9.412,0,0,0-.885-3.6,9.144,9.144,0,0,0-4-4A9.4,9.4,0,0,0,98.853,166.363Zm-19.526,3.01a7.115,7.115,0,0,1,2.715-.632c1.266-.1,2.88-.1,5.127-.1h6.363c2.247,0,3.86,0,5.127.1a7.115,7.115,0,0,1,2.715.632,6.766,6.766,0,0,1,2.954,2.956,7.1,7.1,0,0,1,.632,2.714c.1,1.266.1,2.879.1,5.127v1.883a19.2,19.2,0,0,1-.273,4.791,6.759,6.759,0,0,1-4.585,4.584,19.185,19.185,0,0,1-4.791.274h-.984a9.151,9.151,0,0,0-5.21,1.67l-.091.064L84.978,196.4a.558.558,0,0,1-.844-.662A2.945,2.945,0,0,0,81.4,191.7h-.957a4.807,4.807,0,0,1-4.807-4.807v-6.726c0-2.248,0-3.861.1-5.127a7.1,7.1,0,0,1,.632-2.714A6.766,6.766,0,0,1,79.327,169.373Z" transform="translate(-73.25 -166.249)" fill="#2d264b" fill-rule="evenodd"/>
    <path id="Path_10360" data-name="Path 10360" d="M82.182,175.591A1.591,1.591,0,1,1,80.591,174,1.591,1.591,0,0,1,82.182,175.591Z" transform="translate(-69.853 -161.671)" fill="#2d264b"/>
    <path id="Path_10361" data-name="Path 10361" d="M86.181,175.591A1.591,1.591,0,1,1,84.591,174,1.591,1.591,0,0,1,86.181,175.591Z" transform="translate(-67.49 -161.671)" fill="#2d264b"/>
    <path id="Path_10362" data-name="Path 10362" d="M90.182,175.591A1.591,1.591,0,1,1,88.591,174,1.591,1.591,0,0,1,90.182,175.591Z" transform="translate(-65.127 -161.671)" fill="#2d264b"/>
  </g>
</svg>
