<svg xmlns="http://www.w3.org/2000/svg" width="43.821" height="43.821" viewBox="0 0 43.821 43.821">
  <path id="end-call" d="M83.575,168.4a4.374,4.374,0,0,0-5.92,0c-.069.064-.142.137-.237.231l-1.428,1.428a5.943,5.943,0,0,0-1.6,5.491,29.688,29.688,0,0,0,22.542,22.541,5.943,5.943,0,0,0,5.491-1.6l1.428-1.428c.1-.094.168-.167.231-.235a4.376,4.376,0,0,0,0-5.921c-.063-.068-.136-.142-.231-.237l-2.337-2.337a5.58,5.58,0,0,0-6.177-1.169,3.2,3.2,0,0,1-3.536-.67l-3.813-3.813a3.2,3.2,0,0,1-.67-3.536,5.581,5.581,0,0,0-1.17-6.177l-2.337-2.338C83.716,168.54,83.643,168.467,83.575,168.4Zm-4.305,1.758a1.987,1.987,0,0,1,2.691,0c.026.024.061.057.182.178l2.32,2.319a3.2,3.2,0,0,1,.67,3.536,5.584,5.584,0,0,0,1.17,6.178l3.813,3.811a5.584,5.584,0,0,0,6.177,1.171,3.2,3.2,0,0,1,3.536.67l2.32,2.319c.121.121.155.156.179.181a1.989,1.989,0,0,1,0,2.691c-.024.025-.058.06-.179.181l-1.41,1.409a3.554,3.554,0,0,1-3.286.958,27.3,27.3,0,0,1-20.73-20.73,3.554,3.554,0,0,1,.957-3.285l1.41-1.411C79.209,170.218,79.243,170.185,79.269,170.161Z" transform="translate(214.587 87.671) rotate(135)" fill="#fff" fill-rule="evenodd"/>
</svg>
