<svg id="microphone" xmlns="http://www.w3.org/2000/svg" width="27.838" height="34.201" viewBox="0 0 27.838 34.201">
  <path id="Path_10715" data-name="Path 10715" d="M604.806,462.25a7.557,7.557,0,0,0-7.556,7.556v6.363a7.556,7.556,0,0,0,15.112,0v-6.363A7.557,7.557,0,0,0,604.806,462.25Zm-5.17,7.556a5.17,5.17,0,0,1,10.34,0v6.363a5.17,5.17,0,0,1-10.34,0Z" transform="translate(-590.887 -462.25)" fill="#2d264b" fill-rule="evenodd"/>
  <path id="Path_10716" data-name="Path 10716" d="M595.636,471.443a1.193,1.193,0,1,0-2.386,0,13.92,13.92,0,0,0,12.726,13.868v3.555a8.764,8.764,0,0,0-1.026.2l-1.252.312a1.194,1.194,0,1,0,.579,2.316l1.252-.313a6.758,6.758,0,0,1,3.28,0l1.252.313a1.194,1.194,0,1,0,.579-2.316l-1.252-.312a8.762,8.762,0,0,0-1.026-.2v-3.555a13.92,13.92,0,0,0,12.726-13.868,1.193,1.193,0,1,0-2.386,0,11.533,11.533,0,0,1-23.066,0Z" transform="translate(-593.25 -457.524)" fill="#2d264b"/>
</svg>
