<svg xmlns="http://www.w3.org/2000/svg" width="35.868" height="35.869" viewBox="0 0 35.868 35.869">
  <g id="Group_3263" data-name="Group 3263" transform="translate(-815.731 -749.732)">
    <path id="Subtraction_42" data-name="Subtraction 42" d="M16052.27-24125.355a7.566,7.566,0,0,1-7.558-7.557v-4.611l2.388,2.389v2.223a5.175,5.175,0,0,0,5.17,5.17,5.169,5.169,0,0,0,1.871-.35l1.791,1.791A7.581,7.581,0,0,1,16052.27-24125.355Zm5.629-2.516v0l-1.691-1.689a5.163,5.163,0,0,0,1.232-3.35v-6.363a5.174,5.174,0,0,0-5.169-5.17,5.175,5.175,0,0,0-5.17,5.17v.605l-2.215-2.215a7.585,7.585,0,0,1,2.612-4.25,7.56,7.56,0,0,1,4.772-1.7,7.567,7.567,0,0,1,7.558,7.559v6.363a7.537,7.537,0,0,1-1.928,5.039Z" transform="translate(-15218.27 24897.734)" fill="#2d264b"/>
    <g id="Group_2052" data-name="Group 2052" transform="translate(820.082 750.898)">
      <path id="Subtraction_43" data-name="Subtraction 43" d="M15229.011-24863.529a1.2,1.2,0,0,1-1.162-.9,1.2,1.2,0,0,1,.868-1.449l1.25-.312a10.238,10.238,0,0,1,1.024-.193v-3.557a13.874,13.874,0,0,1-9.032-4.428,13.877,13.877,0,0,1-3.69-9.439,1.194,1.194,0,0,1,1.193-1.193,1.2,1.2,0,0,1,1.194,1.193,11.542,11.542,0,0,0,11.529,11.529,11.465,11.465,0,0,0,6.546-2.033l1.711,1.711a13.862,13.862,0,0,1-7.063,2.66v3.557a8.969,8.969,0,0,1,1.024.193l1.256.313a1.2,1.2,0,0,1,.869,1.449,1.2,1.2,0,0,1-1.164.9,1.192,1.192,0,0,1-.286-.033l-1.249-.312a6.593,6.593,0,0,0-1.644-.207,6.586,6.586,0,0,0-1.638.207l-1.25.313A1.221,1.221,0,0,1,15229.011-24863.529Zm13.307-10.738v0l-1.687-1.686a11.484,11.484,0,0,0,3.092-7.857,1.194,1.194,0,0,1,1.193-1.193,1.194,1.194,0,0,1,1.193,1.193,13.852,13.852,0,0,1-3.789,9.543Z" transform="translate(-15218.269 24897.732)" fill="#2d264b"/>
    </g>
    <g id="Group_3253" data-name="Group 3253">
      <path id="Path_11322" data-name="Path 11322" d="M-15214.07,24646.313v45.727" transform="translate(-5852.104 -27434.047) rotate(-45)" fill="none" stroke="#2d264b" stroke-linecap="round" stroke-width="2.5"/>
    </g>
  </g>
</svg>
