<svg xmlns="http://www.w3.org/2000/svg" xmlns:xlink="http://www.w3.org/1999/xlink" width="40" height="40" viewBox="0 0 40 40">
  <defs>
    <clipPath id="clip-path">
      <rect id="Rectangle_2899" data-name="Rectangle 2899" width="40" height="40" transform="translate(1432 266)" fill="#a82424"/>
    </clipPath>
  </defs>
  <g id="Group_10021" data-name="Group 10021" transform="translate(-30 -627)">
    <g id="Component_69_39" data-name="Component 69 – 39" transform="translate(30 627)">
      <g id="Group_67" data-name="Group 67" transform="translate(-1432 -266)" clip-path="url(#clip-path)">
        <path id="Path_11355" data-name="Path 11355" d="M508.385,385.083A4.237,4.237,0,1,1,504.151,381,4.16,4.16,0,0,1,508.385,385.083Z" transform="translate(947.849 -99.871)" fill="none"/>
        <g id="time-past_1_" data-name="time-past (1)" transform="translate(1439.013 273.012)">
          <path id="Subtraction_56" data-name="Subtraction 56" d="M12.488,24.976A12.5,12.5,0,0,1,0,12.488a.543.543,0,0,1,1.086,0A11.389,11.389,0,1,0,12.477,1.117,11.316,11.316,0,0,0,4.394,4.48l-.655.661.9.248c.057.014.113.025.172.034l.039.006h3.3a.543.543,0,1,1,0,1.085H4.889A2.718,2.718,0,0,1,2.172,3.8V.542a.544.544,0,0,1,1.088,0V4.014l.9-.816a12.482,12.482,0,1,1,8.325,21.778Z" transform="translate(0.499 0.5)" fill="#fff"/>
          <path id="Subtraction_57" data-name="Subtraction 57" d="M3.8,9.772a.533.533,0,0,1-.385-.16L.16,6.356A.551.551,0,0,1,0,5.972V.542a.543.543,0,0,1,1.087,0V5.747l3.1,3.1a.538.538,0,0,1,0,.766A.526.526,0,0,1,3.8,9.772Z" transform="translate(12.444 7.015)" fill="#fff"/>
        </g>
      </g>
    </g>
  </g>
</svg>
