<svg xmlns="http://www.w3.org/2000/svg" xmlns:xlink="http://www.w3.org/1999/xlink" width="40" height="40" viewBox="0 0 40 40">
  <defs>
    <clipPath id="clip-path">
      <rect id="Rectangle_2899" data-name="Rectangle 2899" width="40" height="40" transform="translate(1432 266)" fill="#a82424"/>
    </clipPath>
    <clipPath id="clip-path-2">
      <rect id="Rectangle_16877" data-name="Rectangle 16877" width="26.197" height="28.853" fill="none" stroke="#707070" stroke-width="1"/>
    </clipPath>
  </defs>
  <g id="Group_10020" data-name="Group 10020" transform="translate(-30 -627)">
    <g id="Component_69_38" data-name="Component 69 – 38" transform="translate(30 627)">
      <g id="Group_67" data-name="Group 67" transform="translate(-1432 -266)" clip-path="url(#clip-path)">
        <g id="Group_10016" data-name="Group 10016" transform="translate(1444.24 280.36)">
          <g id="Group_10017" data-name="Group 10017" transform="translate(4.285 2.047)">
            <path id="Path_11169" data-name="Path 11169" d="M497,395.411a3.246,3.246,0,0,1,2.672-3.235l.139-.023a11.449,11.449,0,0,1,3.721,0l.139.023a3.245,3.245,0,0,1,2.672,3.235,1.241,1.241,0,0,1-1.22,1.261h-6.9A1.241,1.241,0,0,1,497,395.411Z" transform="translate(-498.196 -387.468)" fill="none" stroke="#fff" stroke-width="0.8"/>
            <path id="Path_11170" data-name="Path 11170" d="M505.366,383.628A2.726,2.726,0,1,1,502.641,381,2.677,2.677,0,0,1,505.366,383.628Z" transform="translate(-499.167 -383.809)" fill="none" stroke="#fff" stroke-width="0.8"/>
            <g id="Group_10018" data-name="Group 10018" transform="translate(-9.624 -10.834)">
              <g id="Group_10018-2" data-name="Group 10018" transform="translate(0 0)" clip-path="url(#clip-path-2)">
                <path id="Subtraction_55" data-name="Subtraction 55" d="M12.565,27.8a3.991,3.991,0,0,1-1.353-.236A4.032,4.032,0,0,1,8.737,24.9a3.133,3.133,0,0,0-2.048-2.119,2.917,2.917,0,0,0-.949-.152,3.109,3.109,0,0,0-.776.1A3.851,3.851,0,0,1,4,22.852a3.969,3.969,0,0,1-2.778-1.131,3.99,3.99,0,0,1-.094-5.639,3.126,3.126,0,0,0,.881-2.18,3.1,3.1,0,0,0-.881-2.178,3.992,3.992,0,0,1,3.836-6.65,3.067,3.067,0,0,0,.767.1A3.14,3.14,0,0,0,8.737,2.9,3.992,3.992,0,0,1,11.479.154,4.049,4.049,0,0,1,12.583,0a3.915,3.915,0,0,1,1.933.51,4.018,4.018,0,0,1,1.9,2.387,3.063,3.063,0,0,0,1.6,1.939,3.126,3.126,0,0,0,1.406.332,3.047,3.047,0,0,0,.767-.094,3.933,3.933,0,0,1,.964-.113,3.989,3.989,0,0,1,2.867,6.764,3.141,3.141,0,0,0,0,4.357,4,4,0,0,1-2.861,6.77,3.686,3.686,0,0,1-.975-.121,3.2,3.2,0,0,0-.767-.1A3.14,3.14,0,0,0,16.419,24.9a4.015,4.015,0,0,1-3.854,2.9Zm-6.84-6.027a5.037,5.037,0,0,1,.708.057,3.978,3.978,0,0,1,3.132,2.842,3.133,3.133,0,0,0,1.157,1.656,2.952,2.952,0,0,0,1,.492,3.192,3.192,0,0,0,.864.119,3.148,3.148,0,0,0,3.007-2.271A3.991,3.991,0,0,1,20.4,21.893a3.142,3.142,0,0,0,.771.094,3.064,3.064,0,0,0,2.163-.875,3.127,3.127,0,0,0,.078-4.43,3.973,3.973,0,0,1,0-5.557A3.088,3.088,0,0,0,24.2,8.191a3.133,3.133,0,0,0-3.028-2.377,3.3,3.3,0,0,0-.771.1,3.939,3.939,0,0,1-.958.115,4.284,4.284,0,0,1-1.055-.137A3.985,3.985,0,0,1,15.59,3.137v-.01a3.089,3.089,0,0,0-.374-.809A3.127,3.127,0,0,0,13.443.984a2.959,2.959,0,0,0-.871-.125A3.137,3.137,0,0,0,9.565,3.137a4.017,4.017,0,0,1-3.84,2.9,3.958,3.958,0,0,1-.965-.121,3.27,3.27,0,0,0-.771-.094,3.121,3.121,0,0,0-2.241,5.3,3.984,3.984,0,0,1,0,5.557,3.131,3.131,0,0,0,2.241,5.311,3.141,3.141,0,0,0,.766-.1A3.982,3.982,0,0,1,5.726,21.777Z" transform="translate(0.523 0.522)" fill="#fff" stroke="#fff" stroke-width="0.2"/>
              </g>
            </g>
          </g>
        </g>
        <path id="Path_11355" data-name="Path 11355" d="M508.385,385.083A4.237,4.237,0,1,1,504.151,381,4.16,4.16,0,0,1,508.385,385.083Z" transform="translate(947.849 -99.871)" fill="none"/>
      </g>
    </g>
  </g>
</svg>
