<svg xmlns="http://www.w3.org/2000/svg" xmlns:xlink="http://www.w3.org/1999/xlink" width="40" height="40" viewBox="0 0 40 40">
  <defs>
    <clipPath id="clip-path">
      <rect id="Rectangle_16935" data-name="Rectangle 16935" width="40" height="40" transform="translate(-0.192 -0.403)" fill="#a82424"/>
    </clipPath>
  </defs>
  <g id="Mask_Group_77" data-name="Mask Group 77" transform="translate(0.192 0.403)" clip-path="url(#clip-path)">
    <path id="Path_11394" data-name="Path 11394" d="M370.9,331.015a2.568,2.568,0,0,1,.62-.076,2.522,2.522,0,0,1,2.523,2.523v2.523a2.523,2.523,0,1,1-5.046,0v-2.523A2.526,2.526,0,0,1,370.9,331.015Zm0,0-.141-.946a12.251,12.251,0,1,1,24.231,0l-.141.946m0,0a2.567,2.567,0,0,0-.619-.076,2.523,2.523,0,0,0-2.523,2.523v2.523a2.523,2.523,0,1,0,5.047,0v-2.523A2.526,2.526,0,0,0,394.852,331.015Z" transform="translate(-363.07 -307.658)" fill="none" stroke="#fff" stroke-width="1"/>
  </g>
</svg>
