<svg xmlns="http://www.w3.org/2000/svg" xmlns:xlink="http://www.w3.org/1999/xlink" width="40" height="40" viewBox="0 0 40 40">
  <defs>
    <clipPath id="clip-path">
      <rect id="Rectangle_2900" data-name="Rectangle 2900" width="40" height="40" transform="translate(22 171)" fill="#a82424"/>
    </clipPath>
  </defs>
  <g id="Mask_Group_68" data-name="Mask Group 68" transform="translate(-22 -171)" clip-path="url(#clip-path)">
    <g id="Group_2099" data-name="Group 2099" transform="translate(34.959 186.232)">
      <path id="Path_11169" data-name="Path 11169" d="M497,397.141a4.892,4.892,0,0,1,4.028-4.876l.209-.035a17.262,17.262,0,0,1,5.609,0l.209.035a4.892,4.892,0,0,1,4.028,4.876,1.87,1.87,0,0,1-1.839,1.9H498.839A1.87,1.87,0,0,1,497,397.141Z" transform="translate(-497 -380.935)" fill="none" stroke="#fff" stroke-width="1"/>
      <path id="Path_11170" data-name="Path 11170" d="M508.131,384.961A4.11,4.11,0,1,1,504.024,381,4.036,4.036,0,0,1,508.131,384.961Z" transform="translate(-496.983 -381)" fill="none" stroke="#fff" stroke-width="1"/>
    </g>
    <g id="Polygon_1" data-name="Polygon 1" transform="translate(29.87 183.516)" fill="none">
      <path d="M3.238.473a.3.3,0,0,1,.525,0L4.625,2.03a.3.3,0,0,0,.2.147l1.7.387a.3.3,0,0,1,.162.487L5.508,4.431a.3.3,0,0,0-.07.223L5.613,6.48a.3.3,0,0,1-.425.3L3.626,6.057a.3.3,0,0,0-.252,0l-1.562.724a.3.3,0,0,1-.425-.3l.175-1.826a.3.3,0,0,0-.07-.223L.32,3.051a.3.3,0,0,1,.162-.487l1.7-.387a.3.3,0,0,0,.2-.147Z" stroke="none"/>
      <path d="M 3.500224590301514 2.063035011291504 L 3.249805212020874 2.514904022216797 C 3.070805311203003 2.837893962860107 2.761645317077637 3.070194244384766 2.401605129241943 3.152244091033936 L 1.829229354858398 3.282688856124878 L 2.254705429077148 3.78356409072876 C 2.480825424194336 4.049783706665039 2.591345310211182 4.401884078979492 2.557915210723877 4.749524116516113 L 2.499229431152344 5.360150814056396 L 2.953835487365723 5.149623870849609 C 3.293878793716431 4.992100715637207 3.706448793411255 4.992076873779297 4.046525001525879 5.149574279785156 L 4.501220703125 5.360145092010498 L 4.442535400390625 4.749564170837402 C 4.40910530090332 4.401884078979492 4.519625186920166 4.049783706665039 4.745785236358643 3.783504009246826 L 5.171220779418945 3.282685279846191 L 4.598855018615723 3.152244091033936 C 4.238805294036865 3.070194244384766 3.929645299911499 2.837893962860107 3.750635385513306 2.514894008636475 L 3.500224590301514 2.063035011291504 M 3.500225305557251 0.3189115524291992 C 3.602870225906372 0.3189115524291992 3.705515384674072 0.3704390525817871 3.762625217437744 0.4734940528869629 L 4.62530517578125 2.030164241790771 C 4.666665077209473 2.104794025421143 4.737845420837402 2.158284187316895 4.821045398712158 2.177244186401367 L 6.518345355987549 2.564054012298584 C 6.737895488739014 2.614084243774414 6.826105117797852 2.879164218902588 6.680325508117676 3.050774097442627 L 5.507925033569336 4.430923938751221 C 5.455435276031494 4.492723941802979 5.430185317993164 4.57314395904541 5.437945365905762 4.653854370117188 L 5.613425254821777 6.479634284973145 C 5.635595321655273 6.710304260253906 5.3990159034729 6.877943992614746 5.188735008239746 6.780563831329346 L 3.626295328140259 6.056993961334229 C 3.546325445175171 6.019953727722168 3.454125165939331 6.019953727722168 3.374155282974243 6.056993961334229 L 1.811715126037598 6.780563831329346 C 1.601434707641602 6.877943515777588 1.364855289459229 6.710304260253906 1.387025356292725 6.479634284973145 L 1.56250524520874 4.653854370117188 C 1.570265293121338 4.57314395904541 1.545015335083008 4.492723941802979 1.492525100708008 4.430923938751221 L 0.3201251029968262 3.050774097442627 C 0.1743454933166504 2.879164218902588 0.2625551223754883 2.614084243774414 0.4821052551269531 2.564054012298584 L 2.179405212402344 2.177244186401367 C 2.2626051902771 2.158284187316895 2.333785533905029 2.104794025421143 2.375145435333252 2.030164241790771 L 3.237825393676758 0.4734940528869629 C 3.29493522644043 0.3704390525817871 3.39758038520813 0.3189115524291992 3.500225305557251 0.3189115524291992 Z" stroke="none" fill="#fff"/>
    </g>
    <g id="Polygon_2" data-name="Polygon 2" transform="translate(38.5 177.663)" fill="none">
      <path d="M3.238.473a.3.3,0,0,1,.525,0L4.625,2.03a.3.3,0,0,0,.2.147l1.7.387a.3.3,0,0,1,.162.487L5.508,4.431a.3.3,0,0,0-.07.223L5.613,6.48a.3.3,0,0,1-.425.3L3.626,6.057a.3.3,0,0,0-.252,0l-1.562.724a.3.3,0,0,1-.425-.3l.175-1.826a.3.3,0,0,0-.07-.223L.32,3.051a.3.3,0,0,1,.162-.487l1.7-.387a.3.3,0,0,0,.2-.147Z" stroke="none"/>
      <path d="M 3.500224590301514 2.063035011291504 L 3.249805212020874 2.514904022216797 C 3.070805311203003 2.837893962860107 2.761645317077637 3.070194244384766 2.401605129241943 3.152244091033936 L 1.829229354858398 3.282688856124878 L 2.254705429077148 3.78356409072876 C 2.480825424194336 4.049783706665039 2.591345310211182 4.401884078979492 2.557915210723877 4.749524116516113 L 2.499229431152344 5.360150814056396 L 2.953835487365723 5.149623870849609 C 3.293878793716431 4.992100715637207 3.706448793411255 4.992076873779297 4.046525001525879 5.149574279785156 L 4.501220703125 5.360145092010498 L 4.442535400390625 4.749564170837402 C 4.40910530090332 4.401884078979492 4.519625186920166 4.049783706665039 4.745785236358643 3.783504009246826 L 5.171220779418945 3.282685279846191 L 4.598855018615723 3.152244091033936 C 4.238805294036865 3.070194244384766 3.929645299911499 2.837893962860107 3.750635385513306 2.514894008636475 L 3.500224590301514 2.063035011291504 M 3.500225305557251 0.3189115524291992 C 3.602870225906372 0.3189115524291992 3.705515384674072 0.3704390525817871 3.762625217437744 0.4734940528869629 L 4.62530517578125 2.030164241790771 C 4.666665077209473 2.104794025421143 4.737845420837402 2.158284187316895 4.821045398712158 2.177244186401367 L 6.518345355987549 2.564054012298584 C 6.737895488739014 2.614084243774414 6.826105117797852 2.879164218902588 6.680325508117676 3.050774097442627 L 5.507925033569336 4.430923938751221 C 5.455435276031494 4.492723941802979 5.430185317993164 4.57314395904541 5.437945365905762 4.653854370117188 L 5.613425254821777 6.479634284973145 C 5.635595321655273 6.710304260253906 5.3990159034729 6.877943992614746 5.188735008239746 6.780563831329346 L 3.626295328140259 6.056993961334229 C 3.546325445175171 6.019953727722168 3.454125165939331 6.019953727722168 3.374155282974243 6.056993961334229 L 1.811715126037598 6.780563831329346 C 1.601434707641602 6.877943515777588 1.364855289459229 6.710304260253906 1.387025356292725 6.479634284973145 L 1.56250524520874 4.653854370117188 C 1.570265293121338 4.57314395904541 1.545015335083008 4.492723941802979 1.492525100708008 4.430923938751221 L 0.3201251029968262 3.050774097442627 C 0.1743454933166504 2.879164218902588 0.2625551223754883 2.614084243774414 0.4821052551269531 2.564054012298584 L 2.179405212402344 2.177244186401367 C 2.2626051902771 2.158284187316895 2.333785533905029 2.104794025421143 2.375145435333252 2.030164241790771 L 3.237825393676758 0.4734940528869629 C 3.29493522644043 0.3704390525817871 3.39758038520813 0.3189115524291992 3.500225305557251 0.3189115524291992 Z" stroke="none" fill="#fff"/>
    </g>
    <g id="Polygon_3" data-name="Polygon 3" transform="translate(47.13 183.154)" fill="none">
      <path d="M3.238.473a.3.3,0,0,1,.525,0L4.625,2.03a.3.3,0,0,0,.2.147l1.7.387a.3.3,0,0,1,.162.487L5.508,4.431a.3.3,0,0,0-.07.223L5.613,6.48a.3.3,0,0,1-.425.3L3.626,6.057a.3.3,0,0,0-.252,0l-1.562.724a.3.3,0,0,1-.425-.3l.175-1.826a.3.3,0,0,0-.07-.223L.32,3.051a.3.3,0,0,1,.162-.487l1.7-.387a.3.3,0,0,0,.2-.147Z" stroke="none"/>
      <path d="M 3.500224590301514 2.063035011291504 L 3.249805212020874 2.514904022216797 C 3.070805311203003 2.837893962860107 2.761645317077637 3.070194244384766 2.401605129241943 3.152244091033936 L 1.829229354858398 3.282688856124878 L 2.254705429077148 3.78356409072876 C 2.480825424194336 4.049783706665039 2.591345310211182 4.401884078979492 2.557915210723877 4.749524116516113 L 2.499229431152344 5.360150814056396 L 2.953835487365723 5.149623870849609 C 3.293878793716431 4.992100715637207 3.706448793411255 4.992076873779297 4.046525001525879 5.149574279785156 L 4.501220703125 5.360145092010498 L 4.442535400390625 4.749564170837402 C 4.40910530090332 4.401884078979492 4.519625186920166 4.049783706665039 4.745785236358643 3.783504009246826 L 5.171220779418945 3.282685279846191 L 4.598855018615723 3.152244091033936 C 4.238805294036865 3.070194244384766 3.929645299911499 2.837893962860107 3.750635385513306 2.514894008636475 L 3.500224590301514 2.063035011291504 M 3.500225305557251 0.3189115524291992 C 3.602870225906372 0.3189115524291992 3.705515384674072 0.3704390525817871 3.762625217437744 0.4734940528869629 L 4.62530517578125 2.030164241790771 C 4.666665077209473 2.104794025421143 4.737845420837402 2.158284187316895 4.821045398712158 2.177244186401367 L 6.518345355987549 2.564054012298584 C 6.737895488739014 2.614084243774414 6.826105117797852 2.879164218902588 6.680325508117676 3.050774097442627 L 5.507925033569336 4.430923938751221 C 5.455435276031494 4.492723941802979 5.430185317993164 4.57314395904541 5.437945365905762 4.653854370117188 L 5.613425254821777 6.479634284973145 C 5.635595321655273 6.710304260253906 5.3990159034729 6.877943992614746 5.188735008239746 6.780563831329346 L 3.626295328140259 6.056993961334229 C 3.546325445175171 6.019953727722168 3.454125165939331 6.019953727722168 3.374155282974243 6.056993961334229 L 1.811715126037598 6.780563831329346 C 1.601434707641602 6.877943515777588 1.364855289459229 6.710304260253906 1.387025356292725 6.479634284973145 L 1.56250524520874 4.653854370117188 C 1.570265293121338 4.57314395904541 1.545015335083008 4.492723941802979 1.492525100708008 4.430923938751221 L 0.3201251029968262 3.050774097442627 C 0.1743454933166504 2.879164218902588 0.2625551223754883 2.614084243774414 0.4821052551269531 2.564054012298584 L 2.179405212402344 2.177244186401367 C 2.2626051902771 2.158284187316895 2.333785533905029 2.104794025421143 2.375145435333252 2.030164241790771 L 3.237825393676758 0.4734940528869629 C 3.29493522644043 0.3704390525817871 3.39758038520813 0.3189115524291992 3.500225305557251 0.3189115524291992 Z" stroke="none" fill="#fff"/>
    </g>
  </g>
</svg>
