<svg id="Component_69_2" data-name="Component 69 – 2" xmlns="http://www.w3.org/2000/svg" xmlns:xlink="http://www.w3.org/1999/xlink" width="40" height="40" viewBox="0 0 40 40">
  <defs>
    <clipPath id="clip-path">
      <rect id="Rectangle_2899" data-name="Rectangle 2899" width="40" height="40" fill="#a82424"/>
    </clipPath>
  </defs>
  <g id="Mask_Group_67" data-name="Mask Group 67" clip-path="url(#clip-path)">
    <g id="Group_2093" data-name="Group 2093" transform="translate(7.131 8.784)">
      <g id="Group_2092" data-name="Group 2092">
        <path id="Path_11161" data-name="Path 11161" d="M77.216,266.172a.4.4,0,0,1-.8.025.949.949,0,0,0-.727-.917H70.794a.4.4,0,0,1-.122-.019c-.025-.006-.059-.016-.1-.03l-.011,0c-.823-.263-2.312-.774-3.72-1.257-1.527-.524-2.963-1.017-3.263-1.1-.453-.126-.743.487-.744.489h0l-.011.021a.8.8,0,0,0,.163.872l9.516,5.291.021.011a1.289,1.289,0,0,0,1.236.014.4.4,0,0,1,.1-.048l7.064-2.331a.4.4,0,0,1,.142-.026h1.576a.4.4,0,1,1,0,.8H81.129l-6.989,2.306a2.123,2.123,0,0,1-2.018-.025l-.008,0-9.575-5.323a.4.4,0,0,1-.093-.071h0a1.65,1.65,0,0,1-.334-1.839h0s.575-1.22,1.68-.913c.355.1,1.787.59,3.31,1.113.834.286,1.7.582,2.409.824a2.054,2.054,0,0,1-.039-.433,1.657,1.657,0,0,1,1.465-1.626.426.426,0,0,1,.052,0H74.67a25.564,25.564,0,0,1,4.349-1.578l.015,0a12.677,12.677,0,0,1,2.033-.142c.681,0,1.28.027,1.6.046a.4.4,0,1,1-.047.8c-.316-.019-.907-.048-1.549-.046a11.83,11.83,0,0,0-1.894.132l-.013,0a25.235,25.235,0,0,0-4.209,1.538.4.4,0,0,1-.2.052H71.011a.851.851,0,0,0-.738.836,1.122,1.122,0,0,0,.057.387.732.732,0,0,0,.161.266.794.794,0,0,0,.3.2l.015.005.023.008.01,0h4.891a.391.391,0,0,1,.074.007A1.765,1.765,0,0,1,77.216,266.172Z" transform="translate(-61.944 -248.088)" fill="#fff"/>
        <path id="Path_11162" data-name="Path 11162" d="M359.005,235.7h-3.5a.1.1,0,0,0-.068.027h0a.1.1,0,0,0-.029.068v9.458a.1.1,0,0,0,.029.068l.009.01a.1.1,0,0,0,.058.019h3.5a.1.1,0,0,0,.068-.027l0,0h0a.1.1,0,0,0,.027-.068V235.8a.1.1,0,0,0-.027-.068l0,0h0a.1.1,0,0,0-.068-.027Zm-3.5-.8h3.5a.9.9,0,0,1,.634.263h0a.9.9,0,0,1,.264.635v9.458a.9.9,0,0,1-.263.634h0a.9.9,0,0,1-.635.264h-3.5a.9.9,0,0,1-.606-.237l-.03-.027a.9.9,0,0,1-.264-.636V235.8a.9.9,0,0,1,.264-.636h0A.9.9,0,0,1,355.5,234.895Z" transform="translate(-334.168 -224.505)" fill="#fff"/>
        <path id="Path_11163" data-name="Path 11163" d="M103.122,86.083a6.011,6.011,0,1,1-4.25,1.76,5.992,5.992,0,0,1,4.25-1.76Zm3.681,2.329a5.206,5.206,0,1,0,1.525,3.681A5.19,5.19,0,0,0,106.8,88.412Z" transform="translate(-94.656 -86.083)" fill="#fff"/>
        <path id="Path_11164" data-name="Path 11164" d="M162.608,127.747a1.451,1.451,0,0,1-.118.6,1.317,1.317,0,0,1-.332.457,1.64,1.64,0,0,1-.52.308,2.51,2.51,0,0,1-.672.146l-.081.823a.137.137,0,0,1-.017.054.09.09,0,0,1-.05.038.379.379,0,0,1-.1.025,1.069,1.069,0,0,1-.16.01,1.342,1.342,0,0,1-.2-.012.392.392,0,0,1-.117-.033.107.107,0,0,1-.055-.055.139.139,0,0,1-.007-.077l.081-.781c-.11-.016-.214-.035-.312-.059a2.558,2.558,0,0,1-.265-.081,1.561,1.561,0,0,1-.206-.091.564.564,0,0,1-.13-.089.252.252,0,0,1-.063-.131,1.24,1.24,0,0,1-.02-.256c0-.087,0-.159.008-.215a.469.469,0,0,1,.026-.131.131.131,0,0,1,.049-.063.128.128,0,0,1,.067-.017.324.324,0,0,1,.146.058c.064.038.147.08.247.127a2.268,2.268,0,0,0,.364.126,1.9,1.9,0,0,0,.5.058,1.1,1.1,0,0,0,.669-.167.533.533,0,0,0,.219-.445.473.473,0,0,0-.094-.3.861.861,0,0,0-.252-.21,2.185,2.185,0,0,0-.356-.161c-.131-.047-.266-.1-.406-.152a3.513,3.513,0,0,1-.406-.188,1.541,1.541,0,0,1-.356-.265,1.173,1.173,0,0,1-.252-.383,1.4,1.4,0,0,1-.095-.543,1.373,1.373,0,0,1,.1-.525,1.193,1.193,0,0,1,.277-.413,1.353,1.353,0,0,1,.444-.286,2.174,2.174,0,0,1,.6-.148l.076-.773a.123.123,0,0,1,.017-.053.133.133,0,0,1,.05-.038.336.336,0,0,1,.1-.025,1.318,1.318,0,0,1,.161-.008,1.368,1.368,0,0,1,.2.012.4.4,0,0,1,.121.033.1.1,0,0,1,.054.055.244.244,0,0,1,.012.077l-.076.727c.071.01.147.024.226.042a2.141,2.141,0,0,1,.223.063,1.89,1.89,0,0,1,.189.077.4.4,0,0,1,.117.074.267.267,0,0,1,.05.064.294.294,0,0,1,.027.081.836.836,0,0,1,.013.115c0,.045,0,.1,0,.155,0,.08,0,.146-.005.2a.418.418,0,0,1-.022.117.1.1,0,0,1-.034.054.076.076,0,0,1-.046.013.342.342,0,0,1-.146-.05c-.064-.033-.143-.068-.238-.108a2.977,2.977,0,0,0-.323-.108,1.528,1.528,0,0,0-.4-.05,1.368,1.368,0,0,0-.343.038.634.634,0,0,0-.23.109.428.428,0,0,0-.131.165.522.522,0,0,0-.042.211.476.476,0,0,0,.1.3.824.824,0,0,0,.256.211,2.494,2.494,0,0,0,.361.161c.135.049.272.1.412.154a3.862,3.862,0,0,1,.411.188,1.463,1.463,0,0,1,.36.261,1.2,1.2,0,0,1,.255.377A1.349,1.349,0,0,1,162.608,127.747Z" transform="translate(-152.471 -120.788)" fill="#fff"/>
      </g>
    </g>
  </g>
</svg>
