<svg xmlns="http://www.w3.org/2000/svg" xmlns:xlink="http://www.w3.org/1999/xlink" width="40" height="40" viewBox="0 0 40 40">
  <defs>
    <clipPath id="clip-path">
      <rect id="Rectangle_2780" data-name="Rectangle 2780" width="40" height="40" transform="translate(0)" fill="#a82424"/>
    </clipPath>
    <clipPath id="clip-path-2">
      <rect id="Rectangle_16873" data-name="Rectangle 16873" width="40" height="40" transform="translate(-10607 -16349)" fill="#a82424"/>
    </clipPath>
  </defs>
  <g id="Group_2094" data-name="Group 2094" transform="translate(-25 -332)">
    <g id="Mask_Group_52" data-name="Mask Group 52" transform="translate(25 332)" clip-path="url(#clip-path)">
      <g id="Mask_Group_76" data-name="Mask Group 76" transform="translate(10609 16349)" clip-path="url(#clip-path-2)">
        <g id="Group_9998" data-name="Group 9998" transform="translate(-25 0)">
          <path id="Subtraction_47" data-name="Subtraction 47" d="M12.482,27H4a4,4,0,0,1-4-4V6A4,4,0,0,1,4,2h.5V3H4A3,3,0,0,0,1,6V23a3,3,0,0,0,3,3h8.694a1.531,1.531,0,0,0-.212,1ZM18,20.186h0a1.627,1.627,0,0,0-.874-.249c-.05,0-.088,0-.124,0V6a3,3,0,0,0-3-3h-.5V2H14a4,4,0,0,1,4,4V20.186Z" transform="translate(-10573 -16343.999)" fill="#fff"/>
          <g id="Group_9997" data-name="Group 9997" transform="translate(10605.277 -25233.758)">
            <g id="Rectangle_16872" data-name="Rectangle 16872" transform="translate(-21174.277 8889.759)" fill="none" stroke="#fff" stroke-width="1">
              <rect width="10" height="5" rx="2" stroke="none"/>
              <rect x="0.5" y="0.5" width="9" height="4" rx="1.5" fill="none"/>
            </g>
            <g id="Group_9995" data-name="Group 9995" transform="translate(-21172.334 8896.99)">
              <line id="Line_1773" data-name="Line 1773" x2="11.378" transform="translate(-2.632 0.27)" fill="none" stroke="#fff" stroke-linecap="round" stroke-width="1"/>
              <line id="Line_1774" data-name="Line 1774" x2="11.378" transform="translate(-2.632 4.27)" fill="none" stroke="#fff" stroke-linecap="round" stroke-width="1"/>
              <line id="Line_1775" data-name="Line 1775" x2="11.378" transform="translate(-2.632 8.27)" fill="none" stroke="#fff" stroke-linecap="round" stroke-width="1"/>
              <line id="Line_1776" data-name="Line 1776" x2="7.188" transform="translate(-2.631 12.27)" fill="none" stroke="#fff" stroke-linecap="round" stroke-width="1"/>
            </g>
            <g id="Group_9996" data-name="Group 9996" transform="translate(-21229.277 8624.758)">
              <path id="Path_11342" data-name="Path 11342" d="M519.6,167.79l-.082.329Zm1.523-.879-.325-.093Zm-2.738,2.985.243-.236Zm0,1.758-.243-.235h0Zm1.216,2.106.082.328Zm1.523.879-.325.093Zm2.431,0,.326.093Zm1.523-.879.082-.329Zm1.216-2.106-.243.236h0Zm0-1.758-.243-.236h0Zm-1.216-2.106-.082-.328Zm-1.523-.879.326-.093Zm-4.036,1.208A1.6,1.6,0,0,0,521.45,167l-.651-.186a.925.925,0,0,1-1.115.644Zm-.89,1.542a.926.926,0,0,1,.89-1.542l.164-.657a1.6,1.6,0,0,0-1.541,2.669Zm0,2.229a1.6,1.6,0,0,0,0-2.229l-.486.471a.927.927,0,0,1,0,1.288Zm.89,1.542a.926.926,0,0,1-.89-1.542l-.486-.471a1.6,1.6,0,0,0,1.541,2.669Zm1.931,1.115a1.6,1.6,0,0,0-1.931-1.115l.164.657a.925.925,0,0,1,1.115.644Zm1.78,0a.925.925,0,0,1-1.78,0l-.651.186a1.6,1.6,0,0,0,3.082,0Zm1.931-1.115a1.6,1.6,0,0,0-1.931,1.115l.651.186a.925.925,0,0,1,1.115-.644Zm.89-1.542a.926.926,0,0,1-.89,1.542l-.164.657a1.6,1.6,0,0,0,1.541-2.669Zm0-2.229a1.6,1.6,0,0,0,0,2.229l.486-.471a.926.926,0,0,1,0-1.288Zm-.89-1.542a.926.926,0,0,1,.89,1.542l.486.471A1.6,1.6,0,0,0,525,167.462ZM523.229,167a1.6,1.6,0,0,0,1.931,1.115l-.164-.657a.925.925,0,0,1-1.115-.644Zm.651-.186a1.6,1.6,0,0,0-3.082,0l.651.186a.925.925,0,0,1,1.78,0Zm-3.233,3.957a1.692,1.692,0,0,0,1.692,1.692v-.677a1.015,1.015,0,0,1-1.015-1.015Zm1.692,1.692a1.692,1.692,0,0,0,1.692-1.692h-.677a1.015,1.015,0,0,1-1.015,1.015Zm1.692-1.692a1.692,1.692,0,0,0-1.692-1.692v.677a1.015,1.015,0,0,1,1.015,1.015Zm-1.692-1.692a1.692,1.692,0,0,0-1.692,1.692h.677a1.015,1.015,0,0,1,1.015-1.015Z" transform="translate(-454.215 119.281)" fill="#fff"/>
            </g>
          </g>
        </g>
      </g>
    </g>
  </g>
</svg>
