<svg xmlns="http://www.w3.org/2000/svg" xmlns:xlink="http://www.w3.org/1999/xlink" width="40" height="40" viewBox="0 0 40 40">
  <defs>
    <clipPath id="clip-path">
      <rect id="Rectangle_2780" data-name="Rectangle 2780" width="40" height="40" transform="translate(0)" fill="#a82424"/>
    </clipPath>
  </defs>
  <g id="Group_9999" data-name="Group 9999" transform="translate(-25 -332)">
    <g id="Mask_Group_52" data-name="Mask Group 52" transform="translate(25 332)" clip-path="url(#clip-path)">
      <g id="Group_2111" data-name="Group 2111" transform="translate(20893 -9074)">
        <path id="Subtraction_54" data-name="Subtraction 54" d="M-10396.982,14997.177h0a.5.5,0,0,1-.5-.5.36.36,0,0,1,.019-.132.5.5,0,0,1,.478-.368,11.619,11.619,0,0,0,6.158-1.78,2.006,2.006,0,0,0,.621.786,13.241,13.241,0,0,1-1.777.948.074.074,0,0,0-.029.016l-.016,0-.011,0-.016.007,0,0a.081.081,0,0,0-.033.016.068.068,0,0,1-.02,0l0,0s-.006,0-.006,0l-.016,0-.01.012a.094.094,0,0,1-.023,0l-.012,0s0,0-.008,0,0,0,0,.008l-.008,0h-.016l-.007,0a.19.19,0,0,0-.027.012l-.011,0h-.007c0,.008,0,.008,0,.008h-.016l-.007.007h0l0,0h-.011a0,0,0,0,0,0,0h-.007a.007.007,0,0,1-.008,0l0,0h-.008l-.008,0h0l0,0a.022.022,0,0,0-.015,0l-.007,0-.007,0-.009,0c-.008,0-.015,0-.015.008l-.016,0s0,0,0,0h-.007l-.012,0,0,0c-.007,0-.007,0-.007,0h-.012l-.008,0a.027.027,0,0,1-.019.007s0,0-.008,0l0,0h-.008l-.008,0h-.008l-.008,0,0,0s-.006,0-.006,0l-.015,0,0,0h-.012l-.008,0-.006,0-.009,0s-.007,0-.011.008h-.016l-.007,0h0l0,0-.016,0-.008,0-.015,0,0,0-.007,0h-.008l-.008,0h-.008l-.008,0,0,0s-.006,0-.006,0h-.011l0,0-.012,0-.008,0a.012.012,0,0,1-.011,0l-.012,0-.012,0h-.011l0,0h0l0,0c-.007,0-.007,0-.007,0h-.012l0,0-.011,0a.019.019,0,0,0-.012,0s-.007,0-.007,0h-.008l-.008,0h-.008l0,0-.007,0-.013,0c-.007,0-.007,0-.007,0h-.008l-.008,0h-.008l0,0-.008,0h-.011l-.007.008h-.016l-.007,0-.008,0h-.012c-.007,0-.007,0-.007.008l-.02,0h0l-.008,0s0,0-.007,0-.012,0-.012,0h-.007l0,0-.016,0s-.007,0-.007,0h-.008l-.008,0h-.008l-.008.008h-.011a.014.014,0,0,0-.008,0l-.007,0h-.012l0,0-.022,0,0,0-.007,0-.012,0h-.008l0,0-.02,0h0c-.007,0-.007,0-.007,0h-.008a.03.03,0,0,1-.012,0s0,0-.007,0h-.008l-.008,0-.008,0-.008,0h-.006a.015.015,0,0,0-.013,0l-.015,0c-.008,0-.008,0-.008,0h-.007l0,0h-.012l-.008,0-.007,0c-.008,0-.009,0-.012,0h-.007l-.008,0h-.012l-.008,0s0,0-.007,0-.012,0-.012,0h-.007l-.008,0a.038.038,0,0,1-.016,0l-.008,0-.019,0s0,0-.007,0h-.012l0,0c-.007,0-.007,0-.007,0h-.008a.007.007,0,0,0-.008,0h-.007s0,0-.008,0-.012,0-.012,0h-.007a.012.012,0,0,1-.008,0c-.008,0-.012,0-.016,0l-.019,0h-.008l0,0-.015,0-.008,0c-.007,0-.007,0-.007,0h-.012s-.008,0-.008,0h-.007l-.008,0h-.008l0,0h-.008a.03.03,0,0,1-.016,0l0,0h-.008l-.008,0h-.008l0,0h-.016l-.011,0h0l0,0h-.011a.007.007,0,0,0-.008,0h-.007l0,0h-.012l0,0h-.007l0,0h-.012s0,0,0,0h-.007l-.016,0h-.007l0,0h-.008c-.008,0-.008,0-.008,0h-.007a.019.019,0,0,1-.012,0c-.008,0-.008,0-.008,0h-.011s0,0-.012,0h-.007l-.008,0c-.011,0-.012,0-.012,0h-.007a.007.007,0,0,1-.008,0h-.012s0,0-.007,0h-.008l-.015,0-.008,0c-.012,0-.012,0-.012,0h-.007s0,0,0,0h-.016l-.008,0h-.007s-.008,0-.008,0h-.008l-.008,0h-.011c-.008,0-.008,0-.011,0l0,0h-.016l-.008,0c-.008,0-.012,0-.015,0h-.008l-.008,0h-.011c-.007,0-.007,0-.007,0h-.008c-.008,0-.008,0-.012,0h-.007l-.008,0h-.016l-.011,0-.008,0h-.008l-.011,0c-.009,0-.013,0-.016,0h-.011a.014.014,0,0,1-.012,0,.012.012,0,0,0-.011,0h-.012s0,0,0,0h-.011l-.019,0,0,0h-.02l-.008,0h-.015v0h-.006l-.02,0h-.007a.007.007,0,0,1-.008,0c-.012,0-.012,0-.012,0h-.015l-.008,0c-.011,0-.011,0-.011,0h-.023l-.019,0a.011.011,0,0,1-.007,0h-.008l-.008,0h-.008a.052.052,0,0,0-.019,0h-.008l-.007,0h-.012a.027.027,0,0,1-.015,0l-.012,0h-.019a.03.03,0,0,1-.016,0l-.011,0h-.012s-.011,0-.022,0l0,0h-.007a.073.073,0,0,1-.022,0l-.02,0h-.007s-.014,0-.023,0h0l0,0h-.022l-.022,0-.008,0a.075.075,0,0,1-.022,0h-.007l-.008,0h-.008a.037.037,0,0,1-.022,0h-.007a.014.014,0,0,0-.008,0h-.012A13.4,13.4,0,0,1-10396.982,14997.177Zm-8-2.86h0l-.007-.012,0-.008h-.012l-.007,0v-.008l-.016-.008h0l0,0-.007,0,0-.007,0,0c-.008-.008-.012-.008-.016-.008l0-.007,0,0-.012,0h0l0,0,0-.007s0,0-.007,0v-.007l-.019-.008h0l0,0,0-.007-.016-.007-.007-.012,0,0-.016-.007-.007-.012-.012,0-.008-.008s0-.007-.007-.007v-.008h0c-.009,0-.011,0-.011,0l-.008,0-.007-.012a.02.02,0,0,0-.016-.007h0l0,0-.007-.011,0,0a.014.014,0,0,0-.012,0h0l0,0,0-.008,0,0a.014.014,0,0,0-.012,0c0-.008,0-.008-.007-.008l0-.008,0,0a.02.02,0,0,0-.016-.007l0-.008,0,0,0,0-.012-.007,0,0-.007-.008,0,0-.008-.008s0,0-.008,0l0-.008,0,0-.012-.008,0,0a.007.007,0,0,0-.007,0l0-.008-.016-.012h0l0,0-.006-.011s0,0-.012,0h0l0,0,0,0,0-.007,0,0s0,0-.012,0l0-.008h0l0,0h0l0,0-.015-.011,0,0-.007-.008a.012.012,0,0,1,0-.011h-.012l0-.008,0,0h0l0,0c0-.007,0-.007-.014-.01h0l-.006,0c-.007-.012-.007-.012-.011-.012l-.008-.007c-.008,0-.008,0-.011-.008l0-.007,0,0-.012-.007c0-.008,0-.008-.007-.008s0,0,0-.008l0,0-.016-.011,0,0h0l-.015-.015-.007-.008,0,0,0-.007-.012,0h0l0,0-.011-.016-.008,0-.011-.011,0,0-.012-.008,0-.007-.007-.008-.008-.008v-.008l-.016-.007-.007-.012-.016-.008-.011-.015s0,0-.012,0,0,0,0-.008,0-.007-.007-.007l0-.008a.014.014,0,0,0-.012,0h0l0,0c-.007-.015-.007-.015-.011-.015v-.008l-.012,0a.007.007,0,0,0-.007,0l0-.008,0,0-.008-.008-.008-.007c0-.008,0-.008-.007-.008s0-.012-.016-.012h0l0,0,0-.007s0,0,0,0l0-.012a.03.03,0,0,0-.016,0v-.007l-.007-.008s0,0-.012,0l-.008-.011,0,0,0-.008,0,0-.008,0a.007.007,0,0,0-.007,0c0-.007,0-.008,0-.011l0,0-.008,0c0-.007,0-.007-.008-.007s0-.008-.007-.008,0,0,0-.008l-.008,0c0-.007,0-.007-.008-.007l0-.012-.016-.008,0-.008s0,0-.007,0v-.012l-.012,0-.008-.007,0,0c0-.008,0-.008-.007-.008l0-.008-.012-.007,0,0c0-.008,0-.008,0-.008s-.008-.008-.008-.012l-.012,0,0-.008-.007-.008,0-.007-.012-.008a.008.008,0,0,1,0-.008l-.008-.008c-.011-.011-.012-.011-.016-.011l0-.008v-.008l-.016-.007-.008-.008-.007-.011,0-.009-.012-.007,0,0c-.011-.015-.011-.015-.019-.015a.014.014,0,0,1,0-.012l-.007,0v-.007l-.008-.008-.008,0-.008-.012-.007-.007,0,0-.008-.008-.008-.011-.007-.008,0,0-.008-.008h0l0,0-.011-.016-.012-.008-.007-.007,0-.007-.012-.009v-.007s0,0-.008,0l-.011-.016a.008.008,0,0,0-.008-.007h0l0,0-.007-.008,0-.007,0,0-.008,0h0l0,0-.007-.016,0-.006,0,0-.012-.008,0,0,0-.008-.008-.007-.008-.008,0-.007h0l0,0-.007-.008a.007.007,0,0,1,0-.008l-.008,0c0-.007,0-.007-.007-.007s0-.008,0-.012l-.012,0,0-.008h0l0,0a.032.032,0,0,0-.011-.019s-.008-.007-.012-.007a.007.007,0,0,1,0-.008l0-.008-.008-.008c-.007,0-.008,0-.008-.007s0,0-.008,0l0-.008-.016-.015,0,0,0-.007,0,0,0,0,0,0a.057.057,0,0,1-.011-.013l0-.008,0-.007,0,0s0-.008,0-.008h0l0,0-.012-.008v-.008l0,0a.007.007,0,0,0-.008,0l-.012-.015-.007-.011a.031.031,0,0,0-.011-.012.008.008,0,0,1,0,0l-.007-.007,0-.007-.012-.008s0-.008-.008-.012a.015.015,0,0,0,0-.011l0,0-.016-.012c0-.008,0-.008,0-.008l0-.007c0-.008,0-.008,0-.008l0,0h0l-.008,0-.008-.007,0-.008s0-.007-.008-.012v-.007c-.01,0-.012-.007-.012-.008l0,0a.016.016,0,0,0-.007-.015s0,0-.012,0l0-.008,0-.008,0-.007-.012-.008,0,0,0,0a.045.045,0,0,0-.022-.03v-.007a.168.168,0,0,1-.037-.049l-.011-.011-.009-.009a12.89,12.89,0,0,1-1.652-2.867.018.018,0,0,1,0-.012l0-.012c-.007,0-.012-.009-.012-.015s0,0,0-.008a.047.047,0,0,0,0-.015c0-.008,0-.008,0-.012s0-.007,0-.011l-.007,0a.072.072,0,0,1,0-.014v-.006h0a.077.077,0,0,0-.007-.021l0,0v-.008a.017.017,0,0,0,0-.012l-.008-.007,0-.007s0,0,0,0v-.008a.018.018,0,0,1,0-.008v-.007h0a.1.1,0,0,0,0-.012v-.007l0,0-.008-.008a.015.015,0,0,0,0-.008s0-.007,0-.007v-.008l0-.012v-.007a.012.012,0,0,1,0-.008c0-.008,0-.008,0-.012l-.008-.011,0,0v-.008l0-.008,0-.007v-.015l0-.008,0,0v-.008c-.008,0-.008,0-.008-.007l0-.008v-.008l0,0v-.007s0,0,0-.008v-.008s0,0,0,0v-.007a.007.007,0,0,1,0-.008v-.008a.014.014,0,0,0-.012,0v-.007l0,0v-.02a.007.007,0,0,0,0-.007c0-.012,0-.012,0-.016h0l0,0s0,0-.008-.007,0-.007,0-.007l0-.012a.007.007,0,0,1,0-.008v-.008l0-.015,0,0c0-.008,0-.012-.008-.016s0,0,0-.007a.007.007,0,0,0,0-.008v-.008l0,0v-.015c0-.012,0-.012,0-.012s0,0,0-.007v-.008a.019.019,0,0,0-.008-.015l-.008-.012v-.008s0,0,0-.007l0,0c0-.008,0-.008,0-.012s0-.011,0-.015,0-.008-.008-.008a.052.052,0,0,0-.008-.025v-.009l-.011-.045,0-.008c-.03-.082-.064-.181-.091-.263l0-.016a.539.539,0,0,1,0-.278.479.479,0,0,1,.335-.347.323.323,0,0,1,.146-.025.5.5,0,0,1,.479.354,11.577,11.577,0,0,0,3.485,5.333,2,2,0,0,0-.407.963Zm19.542-5.676a.578.578,0,0,1-.15-.022.523.523,0,0,1-.3-.245.5.5,0,0,1-.029-.376l.034-.12.018-.064c.024-.084.045-.157.061-.226a11.462,11.462,0,0,0,0-6.008,2.141,2.141,0,0,0,.945-.342,12.663,12.663,0,0,1,.384,4.72.1.1,0,0,1,0,.03v.029l-.008,0,0,.007a.057.057,0,0,1-.006.02v.026c0,.009,0,.017,0,.019v.023a.283.283,0,0,1,0,.053v.007a.052.052,0,0,1,0,.026c0,.012,0,.022-.007.026a.075.075,0,0,0,0,.017.146.146,0,0,1,0,.018v.019l0,.012v.06a.108.108,0,0,0,0,.03.1.1,0,0,0,0,.026.014.014,0,0,1-.007.012.008.008,0,0,0,0,.006l0,0,0,.02v.037s0,.007,0,.012v.037s0,0,0,.012,0,.015-.012.015v.022a.014.014,0,0,1,0,.008c0,.008,0,.012,0,.015v.03a.037.037,0,0,1,0,.02v.037a.014.014,0,0,0,0,.012v.011s0,0-.012,0v.022s0,0,0,.012,0,.009,0,.011v.034a.013.013,0,0,1,0,.012v.033h0l0,0c0,.012,0,.019-.007.022l0,.012v.011l0,.008h0l0,0v.037s0,.012,0,.019v.019a.013.013,0,0,1,0,.012v.007a.011.011,0,0,1-.007.012l0,.011a.007.007,0,0,1,0,.008v.012a.032.032,0,0,0,0,.015v.022s0,0,0,.012v.019a.014.014,0,0,0,0,.012v.007s-.008,0-.008.008a.013.013,0,0,1,0,.012c0,.007,0,.008,0,.011v.012s0,0,0,.011v.016s0,.012,0,.015v.026a.014.014,0,0,0,0,.012v.007l-.008,0,0,0v.016s0,0,0,.007l0,.012v.049s0,0,0,.008a.012.012,0,0,0,0,.011v.012c-.006,0-.012,0-.012.007a.013.013,0,0,1,0,.012v.03a.014.014,0,0,0,0,.008v.022s0,0,0,.007v.008a.014.014,0,0,1,0,.008c-.008,0-.008,0-.008.008s0,0,0,.007v.012s0,0,0,.011v.02s0,0,0,.007v.02a.012.012,0,0,1,0,.011v.012l-.012,0v.011s0,.008,0,.008v.008s0,0,0,.007v.026l0,.012v.015s0,0,0,.008v.008c-.012,0-.012.007-.012.011a.013.013,0,0,1,0,.012s0,0,0,.007v.023a.009.009,0,0,1,0,.007v.03a.014.014,0,0,0,0,.012c-.006,0-.012,0-.012.007v.012s0,0,0,.008a.015.015,0,0,0,0,.011v.02a.012.012,0,0,0,0,.011v.019a.014.014,0,0,0,0,.012l-.008,0,0,0a.012.012,0,0,1,0,.011v.008a.016.016,0,0,0,0,.011v.008a.025.025,0,0,1,0,.01.014.014,0,0,0,0,.006v.015a.013.013,0,0,1,0,.012v.011c-.012,0-.012.008-.012.012s0,0,0,.007l0,.02v.011l0,.012v.019a.012.012,0,0,0,0,.008l-.008.007s0,0,0,.008a.007.007,0,0,1,0,.008v.019a.014.014,0,0,0,0,.008v.015s0,0,0,.008v.008h0l0,0c-.008,0-.008,0-.008.011a.007.007,0,0,1,0,.008.012.012,0,0,1,0,.011v.023l0,.007v.008a.012.012,0,0,1,0,.011v.008l-.008,0,0,0a.012.012,0,0,1,0,.011.018.018,0,0,1,0,.012v.012A.5.5,0,0,1-10385.442,14988.641Zm-22.53-7.771h0a2,2,0,0,0-.958-.282c0-.008,0-.009,0-.013s.008-.007.008-.011h0l0,0v-.008s0,0,0-.008v-.019a.015.015,0,0,0,0-.011s0,0,0-.008a.014.014,0,0,1,0-.008l.007,0v-.007h0l0,0v-.008c0-.007,0-.008,0-.008v-.019a.016.016,0,0,0,0-.011s0,0,0-.008a.014.014,0,0,0,0-.012c.008,0,.008,0,.008-.007h0l0,0v-.008c0-.007,0-.008,0-.008v-.019a.018.018,0,0,0,0-.012s0,0,0-.007a.014.014,0,0,0,0-.012c.008,0,.008,0,.008-.007h0l0,0v-.008a.015.015,0,0,1,0-.008v-.019a.014.014,0,0,0,0-.012l.013-.007v-.012s0,0,0-.008a.012.012,0,0,0,0-.011.018.018,0,0,0,0-.012v-.007a.007.007,0,0,1,0-.008s0-.012,0-.012,0,0,.007-.007a.019.019,0,0,1,0-.012c0-.007,0-.008,0-.008v-.019a.016.016,0,0,0,0-.011s0,0,0-.008h0l0,0v-.008c.006,0,.008,0,.008-.007a.014.014,0,0,0,0-.012s0,0,0-.008v-.011s0,0,0-.008,0-.012,0-.012,0,0,0-.007,0,0,.008-.012a.014.014,0,0,1,0-.008s0-.007,0-.007v-.02l0-.007,0-.012a.012.012,0,0,0,0-.011c.008,0,.008,0,.008-.008a.014.014,0,0,0,0-.012s0,0,0-.007v-.008l0-.012,0-.011s0,0,0-.008.008-.008.008-.008a.012.012,0,0,0,0-.011.054.054,0,0,0,0-.012v-.007s0,0,0-.008a.014.014,0,0,1,0-.008l.008-.008,0-.007v-.008s0,0,0-.008l0-.007h0l0,0,0-.008,0,0h0v-.007s0,0,0-.008.008,0,.008-.008h0l0,0v-.007s0,0,0-.008l0-.012v-.007s0,0,0-.008h0l0,0v-.008c.008,0,.008,0,.008-.007s0,0,0-.008h0l0,0v-.015l0-.012a.014.014,0,0,1,0-.008s0-.007,0-.007l.007,0v-.012s0,0,0-.008,0,0,0-.007v-.008l0-.011a.012.012,0,0,0,0-.008.014.014,0,0,0,0-.012c.008,0,.008,0,.008-.007a.014.014,0,0,0,0-.012s0,0,0-.008v-.007a.018.018,0,0,0,0-.012l.008,0s0,0,0-.007l.011,0,0-.009c0-.01,0-.011,0-.011v-.007a.021.021,0,0,1,0-.012s0-.012,0-.012,0,0,0-.007l.007,0v-.008s0,0,0-.008,0,0,0-.007v-.012a.007.007,0,0,0,0-.007.014.014,0,0,0,0-.012c.008,0,.008,0,.008-.008s0,0,0-.007a.012.012,0,0,0,0-.008s0-.006,0-.008v-.008s0,0,0-.007a.012.012,0,0,0,0-.008v-.008h0l0,0,.007-.007s0,0,0-.008a.015.015,0,0,1,0-.008v-.007h0l0,0v-.008a.014.014,0,0,0,0-.012c.008,0,.008,0,.008-.007s0,0,0-.008a.03.03,0,0,0,0-.012s0-.007,0-.007,0-.008,0-.008,0-.008,0-.011l.008-.008a.014.014,0,0,0,0-.012s0,0,0-.007v-.008l0-.008h0l0,0c0-.006,0-.007,0-.007s0-.008.008-.008,0-.008,0-.008,0-.011,0-.011v-.012a.014.014,0,0,0,0-.008s0,0,0-.007h0l0,0c.008,0,.008-.008.008-.008l0-.008c0-.006,0-.007,0-.007v-.008c0-.011,0-.012,0-.012l0-.007a.014.014,0,0,0,0-.008c.008-.007.008-.007.008-.012l0-.007a.037.037,0,0,1,0-.01c0-.009,0-.01,0-.01s0-.007,0-.007,0-.008.008-.008l0-.012a.012.012,0,0,0,0-.011s0-.006,0-.008v-.008l0-.007,0-.008s0,0,.008,0,0-.008,0-.008,0-.007,0-.007a.015.015,0,0,0,0-.008v-.012a.009.009,0,0,0,0-.007h0l0,0c.008,0,.008,0,.008-.008h0l0,0v-.007s0,0,0-.008v-.008a.007.007,0,0,0,0-.007h0l0,0a.012.012,0,0,0,0-.008c0-.008,0-.008.008-.008a.01.01,0,0,1,0-.007.014.014,0,0,1,0-.008v-.008c0-.01,0-.011.007-.011s0-.008,0-.008,0-.008.008-.008l0,0,0,0v-.022a.007.007,0,0,0,0-.007h0l0,0c.008-.006.012-.01.012-.016s0,0,0-.007,0,0,0-.008v-.008l0-.008c.008,0,.008-.007.008-.011s.008-.008.008-.012,0,0,0-.007l.008,0a.019.019,0,0,1,0-.015c.006,0,.006,0,.006-.008s.008,0,.008-.008l0-.008h0l0,0a.007.007,0,0,1,0-.007v-.008s0,0,0-.008,0-.007.012-.007,0-.009,0-.012,0-.008,0-.008,0,0,0-.007l0-.008v-.012l.013-.007s0,0,0-.008h0a.014.014,0,0,0,0-.008v-.008l0-.007h0l0,0c0-.007,0-.008,0-.008a.131.131,0,0,1,.016-.019v-.008a.031.031,0,0,0,0-.011h0l0,0a.03.03,0,0,0,0-.016l.012,0,0,0v-.012a.015.015,0,0,1,0-.008v-.007s0,0,0-.008l.012,0,0,0v-.007a.012.012,0,0,0,0-.008.024.024,0,0,0,0-.012l0-.007c0-.008.008-.008.012-.008s0-.008,0-.008,0-.008,0-.011v-.008s0,0,0-.008l0-.007.007,0,0-.008a.014.014,0,0,1,0-.008.011.011,0,0,1,0-.007v-.008l0-.008h0l0,0s0,0,.007-.007,0,0,0-.008a.014.014,0,0,0,0-.012.008.008,0,0,1,0-.007h0a.014.014,0,0,0,0-.008s0,0,0-.008.012-.007.012-.011,0,0,0-.008v-.008l.007-.008,0-.007s0-.007.007-.01l.009-.009v-.008s0,0,0-.008l0-.008c.012-.007.012-.011.012-.011s0,0,0-.008,0,0,0-.008a.044.044,0,0,0,0-.011s0,0,0-.008l.012,0c0-.007,0-.007,0-.011h0l0,0v-.008l.008,0s0,0,0-.006,0-.009.007-.009l.008,0a.012.012,0,0,0,0-.008s0-.006,0-.007v-.008s0,0,0-.008l0-.008.008,0a.011.011,0,0,1,0-.008s0,0,0-.008l.007-.011v-.008s0,0,0-.008l.013-.007a.008.008,0,0,0,0-.008s0-.008,0-.008l0-.011a.014.014,0,0,0,0-.008c.008,0,.008,0,.008-.008l.008,0v-.015l.008,0c0-.007,0-.008,0-.008s0-.007.008-.007l0,0s0-.008,0-.008v-.008a.008.008,0,0,1,0-.007.012.012,0,0,0,0-.008l.016-.012s0,0,0-.007v-.008l0-.008,0-.007h0l0,0c.007,0,.007,0,.007-.007s0,0,0-.008l.007-.011v-.008l.008-.008.007,0s0-.007,0-.007l0-.012,0-.011h0l0,0c.008,0,.008,0,.008-.008l.011-.012v-.007a.012.012,0,0,0,0-.008.012.012,0,0,0,0-.008s0,0,0,0l.011-.006v-.008c0-.011,0-.012.007-.012a.016.016,0,0,1,0-.007l.007,0,0,0a.013.013,0,0,0,0-.011v-.008l.011-.012.008-.007,0,0a.014.014,0,0,1,0-.008v-.008a.016.016,0,0,0,.007-.011s0,0,0-.008l.012-.008s0,0,0-.007v-.008a.023.023,0,0,0,.007-.012s0-.006,0-.007l.007,0,.009,0v-.008l0-.008a.012.012,0,0,1,0-.007.007.007,0,0,0,0-.008l.012,0,0-.015s0,0,0-.008l.012-.011,0,0a.007.007,0,0,0,0-.008s0,0,0-.008l0-.007a.007.007,0,0,0,0-.008l.008-.008,0-.007h.007l0,0a.019.019,0,0,1,.006-.01l0,0,.008-.008,0-.007,0-.008s0,0,0-.008l0-.007,0,0,.016-.012v-.008a.023.023,0,0,1,.007-.011.007.007,0,0,0,0-.008l.008-.008.008-.007,0-.008,0-.008s0-.007,0-.007l.012-.008a.014.014,0,0,1,0-.008v-.007l.007-.008.012-.008,0,0v-.007l0-.008,0-.008a.016.016,0,0,1,.016-.008v-.007l.008,0v-.012l.008-.007s0,0,.007-.008,0,0,0-.008l.008,0,0-.006a.019.019,0,0,1,.006-.009l0-.008.007-.008.009,0v-.008l.008,0v-.008c.008,0,.012-.006.012-.011l.008,0v-.008l.007-.007,0-.008h0l0,0,.007,0,0,0,.008-.01a.008.008,0,0,1,0-.008.014.014,0,0,1,0-.008l0,0,.007,0c.009-.01.009-.011.009-.015l.008,0s0,0,0-.007l.011,0,0-.008c0-.008.006-.008.007-.008v-.008c.008,0,.008-.007.008-.011l.012,0,0-.008a.015.015,0,0,0,0-.011l.008-.008c0-.008,0-.008.008-.008s0,0,.008,0v-.012l.007-.008s0-.007,0-.007l.007,0,.009,0v-.008l0-.007s0,0,0-.008l.012,0,0,0a.029.029,0,0,0,0-.015l.007-.008,0-.008a.03.03,0,0,1,.012,0l0-.007a.024.024,0,0,0,0-.012l0-.008.012,0,.008-.011v-.008l.007-.008a.01.01,0,0,0,0-.007l.008,0c.007-.007.007-.008.007-.012s0,0,0-.007l.012-.008a.012.012,0,0,0,0-.008l.008,0v-.011l.008-.008.012-.008s0,0,0-.007l0-.008s0,0,0-.008l.012,0,.008-.011v-.008l.008,0c0-.007,0-.007.01-.011s0,0,0-.008l.007-.012c.01-.009.016-.016.016-.019a.012.012,0,0,1,.008,0v-.007l.008,0v-.008c.012,0,.012,0,.012-.008l.008,0v-.008c.007-.007.007-.008.007-.012l.012,0,0,0,0-.008a.03.03,0,0,0,0-.012l.013-.007,0,0,0,0,0-.008h0l0,0,.012-.011,0-.008s0,0,0-.008a.007.007,0,0,0,0-.007l.008,0,.012-.012a.007.007,0,0,0,0-.008.011.011,0,0,0,0-.007h0l0,0,.012-.008.008-.008v-.007c.007-.007.007-.008.007-.012l.013-.007,0,0,0-.008s0-.008,0-.008l.016-.007,0,0,0,0v-.008l.015-.015.008-.008c0-.008,0-.009.007-.012l.012-.007,0-.008.007-.008c0-.006,0-.007,0-.007l0,0,.007,0c0-.007,0-.008,0-.008a.007.007,0,0,0,0-.008s0,0,0-.007.008,0,.008-.008l.012,0,0-.007c.007-.015.011-.02.018-.023l.009-.007,0-.008.016-.012.008-.007,0-.012.008-.008.012-.011,0,0a.018.018,0,0,1,.009-.008l.01-.011a.007.007,0,0,0,0-.008l.008,0c0-.008,0-.011.01-.015l.009-.008h0l0,0,0-.008.007-.007,0,0,.008-.008.007,0,.012-.011a.007.007,0,0,0,0-.008.041.041,0,0,1,.007-.011.056.056,0,0,1,.015-.016l.006,0h0l0,0,.019-.019V14976l0,0,0,0V14976l0,0a.045.045,0,0,1,.014-.009s0,0,0-.008l.007-.012,0-.007.012,0a.011.011,0,0,0,0-.007l.011-.012.007,0,.009-.011.019-.016a.034.034,0,0,0,.008-.011l0-.008.02-.015.007-.012,0,0a.045.045,0,0,0,.022-.026l.016,0a10.186,10.186,0,0,1,1.189-1.08.488.488,0,0,1,.309-.109.5.5,0,0,1,.392.192.52.52,0,0,1,.105.365.521.521,0,0,1-.185.335,11.567,11.567,0,0,0-3.753,5.337Zm17.776-5.771a.531.531,0,0,1-.278-.091,11.286,11.286,0,0,0-3.526-1.61,11.4,11.4,0,0,0-2.992-.4c-.146,0-.3,0-.437.008h-.025a.5.5,0,0,1-.493-.482.583.583,0,0,1,.011-.146.5.5,0,0,1,.463-.373c.185-.007.354-.007.5-.007.119,0,.214,0,.309,0a.064.064,0,0,1,.022,0h.109l.011,0h.079a.02.02,0,0,1,.012,0h.063l.012,0s0,0,0,.008h.06l.016,0h.049s.008,0,.008,0h.041a.016.016,0,0,0,.011,0h.05a.007.007,0,0,0,.007,0h.042s0,0,.007,0h.042s.008,0,.008,0h.022c.01,0,.023,0,.026,0h.037a.052.052,0,0,0,.019,0h.016a.025.025,0,0,1,.015,0h.03a.12.12,0,0,0,.034,0h.007a.042.042,0,0,0,.02,0,.083.083,0,0,1,.03,0h.045a.013.013,0,0,0,.011,0h.02s0,0,.011,0l.049,0,.049.007.1.012h0a.467.467,0,0,0,.063.007l.034.007a1.248,1.248,0,0,1,.207.03h0c.016,0,.021,0,.024,0h.008c.015,0,.015,0,.022,0h.008c.008,0,.011,0,.011,0h.023a.007.007,0,0,0,.007,0h.016a.024.024,0,0,0,.015,0l.016,0h.019a.012.012,0,0,0,.008,0,.068.068,0,0,1,.022,0h0c.01,0,.014,0,.014,0h.019a.068.068,0,0,0,.022,0s0,0,.008,0,.017,0,.019,0h.02s0,0,.011,0a.1.1,0,0,0,.03,0h.013l0,0h.007a.014.014,0,0,1,.012,0h.006a.01.01,0,0,1,.009,0h.016s.012,0,.019,0l.008,0h0a.031.031,0,0,1,.019,0,.08.08,0,0,0,.026,0s.007,0,.007,0h.01c.01,0,.011,0,.014,0h.023l0,0h.023l0,0,.019,0s.007,0,.015,0a.02.02,0,0,1,.012,0h.007a.036.036,0,0,1,.014,0h.01s0,0,.007,0h.02l.011,0h0a.019.019,0,0,1,.011,0,.057.057,0,0,0,.022,0,.007.007,0,0,1,.008,0h0a.019.019,0,0,1,.014,0h.008a.052.052,0,0,0,.022,0s0,0,.007,0,.013,0,.016,0h.014v0l0,0h.011s0,0,.007,0h.008a.056.056,0,0,0,.022,0l.012,0h0s.006,0,.006,0h.011c.008,0,.009,0,.012,0h.007a.014.014,0,0,1,.008,0h.016a.007.007,0,0,0,.007,0,.021.021,0,0,1,.012,0h.007s.008,0,.016,0h.008l.007,0h0c.006,0,.008,0,.008,0h.008a.009.009,0,0,0,.007,0h.017l0,0h0a.038.038,0,0,1,.014,0h.008l.022,0h0l0,0s0,0,.007,0h.016l.007,0h0c.006,0,.008,0,.008,0h.011l0,0h.016l.007,0s0,0,.008,0,.013,0,.016,0h.007s0,0,.012,0h.008l.007,0h.012l.008,0c.007,0,.007,0,.011,0s.012,0,.016,0l.019,0a.011.011,0,0,0,.007,0h.008l.008,0h.008l.019,0h0l0,0c.006,0,.007,0,.011,0h.016a.007.007,0,0,0,.007,0l.008,0h.012l.007,0,.016,0h.008l.007,0,0,0h.012l0,0h0s.006,0,.006,0h.015l0,0,.016,0h.007l.008,0h.013l0,0h.006v0l0,0h.011a.012.012,0,0,0,.008,0l.022,0h0l0,0c.007,0,.007,0,.011,0l.012,0h.007s.008,0,.016,0a.014.014,0,0,1,.008,0h.007l.012,0h0l0,0,.01,0h.008s.008,0,.008,0h.007s0,0,.012,0h.008l.007,0,0,0h.011a.007.007,0,0,0,.007,0s0,0,.008,0,.013,0,.016,0h.006v0l0,0h.007c.006,0,.012,0,.012,0l.007,0h.017l0,0h.014l0,0a.008.008,0,0,1,.007,0l0,0h.013l0,0h.007s0,0,.008,0,.012,0,.012,0h.007l0,0h.012s0,0,.008,0l.011,0,.012,0,0,0h.007a.023.023,0,0,0,.016,0h0l0,0h0s.006,0,.006,0h.012l.007,0,0,0h.012s0,0,.007,0,0,0,.008,0,.012,0,.012,0h.007l.008,0a.03.03,0,0,0,.016,0l.007,0a.019.019,0,0,1,.012,0l.008,0h.007l.012,0,.008,0h0s.007,0,.007,0l.012,0,.007,0h.02l0,.008a.031.031,0,0,0,.019,0s.006,0,.007,0l.008,0h.008c.007,0,.008,0,.011,0l.008,0,.008,0h.008l.01,0a.018.018,0,0,1,.009,0l.008,0,.007,0h.016l.011.007.016,0h.006l.01.009.011,0h0s0,0,0,0h.016l.007,0,.008,0c.008,0,.008,0,.012,0a.011.011,0,0,0,.007,0l.008,0h0a.017.017,0,0,1,.013,0l.011,0,.012,0h0l0,0h.007l.012,0a.012.012,0,0,0,.008,0s0,0,.007,0h.013l0,0,0,0h0s.007,0,.007,0a.03.03,0,0,0,.012,0h0l0,0h0a.013.013,0,0,1,.011,0h.008l.008,0,.011,0c.008,0,.008,0,.011,0l.02,0h0l0,0v0l0,0,.007,0h0a.019.019,0,0,1,.011,0h.006l.01.009h0a.022.022,0,0,1,.017.007h0a.013.013,0,0,1,.011,0l.008,0h0l.006,0c.016.006.016.006.02.006l.007,0a.038.038,0,0,0,.016,0l.007,0,.008,0h0l.006,0c.006.006.007.006.011.006a.014.014,0,0,0,.012,0,.014.014,0,0,0,.008,0,.025.025,0,0,0,.019.008.012.012,0,0,0,.008,0,.012.012,0,0,1,.007,0h.013l0,0s0,0,.007,0h.012c.006,0,.008,0,.008.007l.016.008h.012l0,0,0,0,.011,0h0s.007,0,.009,0,.008,0,.016,0l0,0h0s0,0,.007,0h.006l.014.007a.133.133,0,0,1,.041.019h.013l0,0v0l0,0,.007,0h.012l.007.007a.039.039,0,0,0,.016,0,.007.007,0,0,1,.008,0l.011,0s0,0,.008,0,.007,0,.007,0l.008,0,.042.02.007,0h.008l.007,0,.008,0h0a.059.059,0,0,1,.02.008.031.031,0,0,0,.022.008l.008,0,.007.008h0a.02.02,0,0,0,.012,0,12.461,12.461,0,0,1,2,1.11.5.5,0,0,1,.21.325.484.484,0,0,1-.078.367A.5.5,0,0,1-10390.2,14975.1Z" transform="translate(-10476 -5890.585)" fill="#fff"/>
        <path id="Path_11348_-_Outline" data-name="Path 11348 - Outline" d="M2,1A1,1,0,1,0,3,2,1,1,0,0,0,2,1M2,0A2,2,0,1,1,0,2,2,2,0,0,1,2,0Z" transform="translate(-20887 9094) rotate(-90)" fill="#fff"/>
        <path id="Path_11345_-_Outline" data-name="Path 11345 - Outline" d="M2,1A1,1,0,1,0,3,2,1,1,0,0,0,2,1M2,0A2,2,0,1,1,0,2,2,2,0,0,1,2,0Z" transform="translate(-20864 9091) rotate(-90)" fill="#fff"/>
        <path id="Path_11346_-_Outline" data-name="Path 11346 - Outline" d="M2,1A1,1,0,1,0,3,2,1,1,0,0,0,2,1M2,0A2,2,0,1,1,0,2,2,2,0,0,1,2,0Z" transform="translate(-20867 9105) rotate(-90)" fill="#fff"/>
        <path id="Path_11347_-_Outline" data-name="Path 11347 - Outline" d="M2,1A1,1,0,1,0,3,2,1,1,0,0,0,2,1M2,0A2,2,0,1,1,0,2,2,2,0,0,1,2,0Z" transform="translate(-20881 9106) rotate(-90)" fill="#fff"/>
        <path id="Path_11349_-_Outline" data-name="Path 11349 - Outline" d="M2,1A1,1,0,1,0,3,2,1,1,0,0,0,2,1M2,0A2,2,0,1,1,0,2,2,2,0,0,1,2,0Z" transform="translate(-20877 9084) rotate(-90)" fill="#fff"/>
        <path id="Path_11173" data-name="Path 11173" d="M81.065,244.576a1.814,1.814,0,0,1-1.814,1.814v.837a2.652,2.652,0,0,0,2.652-2.652Zm-1.814,1.814a1.814,1.814,0,0,1-1.814-1.814H76.6a2.652,2.652,0,0,0,2.652,2.652Zm-1.814-1.814a1.814,1.814,0,0,1,1.814-1.814v-.837a2.652,2.652,0,0,0-2.652,2.652Zm1.814-1.814a1.814,1.814,0,0,1,1.814,1.814H81.9a2.652,2.652,0,0,0-2.652-2.652ZM77.576,248.9h3.349v-.837H77.576Zm-3.489-2.652a5.164,5.164,0,0,1,5.164-5.164v-.837a6,6,0,0,0-6,6Zm5.164-5.164a5.164,5.164,0,0,1,5.164,5.164h.837a6,6,0,0,0-6-6Zm5.164,5.164a5.149,5.149,0,0,1-1.589,3.726l.58.6a5.985,5.985,0,0,0,1.846-4.33Zm-1.589,3.726a5.146,5.146,0,0,1-3.575,1.437v.837a5.982,5.982,0,0,0,4.155-1.671Zm-1.9-1.075a1.815,1.815,0,0,1,1.779,1.458l.821-.163a2.652,2.652,0,0,0-2.6-2.132Zm-1.675,2.512a5.146,5.146,0,0,1-3.575-1.437l-.58.6a5.982,5.982,0,0,0,4.155,1.671Zm-3.575-1.437a5.149,5.149,0,0,1-1.589-3.726H73.25a5.985,5.985,0,0,0,1.846,4.33Zm1.9-1.912a2.652,2.652,0,0,0-2.6,2.132l.821.163a1.815,1.815,0,0,1,1.779-1.458Z" transform="translate(-20952.25 8847.749)" fill="#fff"/>
      </g>
    </g>
  </g>
</svg>
