<svg id="Component_72_4" data-name="Component 72 – 4" xmlns="http://www.w3.org/2000/svg" xmlns:xlink="http://www.w3.org/1999/xlink" width="24" height="24" viewBox="0 0 24 24">
  <defs>
    <clipPath id="clip-path">
      <rect id="Rectangle_2902" data-name="Rectangle 2902" width="24" height="24" fill="#a82424"/>
    </clipPath>
  </defs>
  <g id="Mask_Group_70" data-name="Mask Group 70" clip-path="url(#clip-path)">
    <g id="Group_2101" data-name="Group 2101" transform="translate(4.795 4.076)">
      <path id="Path_11171" data-name="Path 11171" d="M230.723,240.854a2.461,2.461,0,0,0-4.734,0,1.466,1.466,0,0,1-1.766,1.019,2.461,2.461,0,0,0-2.367,4.1,1.466,1.466,0,0,1,0,2.039,2.462,2.462,0,0,0,2.367,4.1,1.465,1.465,0,0,1,1.766,1.019,2.461,2.461,0,0,0,4.734,0,1.465,1.465,0,0,1,1.766-1.019,2.462,2.462,0,0,0,2.367-4.1,1.466,1.466,0,0,1,0-2.039,2.461,2.461,0,0,0-2.367-4.1A1.466,1.466,0,0,1,230.723,240.854Zm-3.776.273a1.466,1.466,0,0,1,2.818,0,2.462,2.462,0,0,0,2.966,1.713,1.465,1.465,0,0,1,1.409,2.441,2.462,2.462,0,0,0,0,3.424,1.465,1.465,0,0,1-1.409,2.441,2.461,2.461,0,0,0-2.966,1.712,1.465,1.465,0,0,1-2.818,0,2.461,2.461,0,0,0-2.966-1.712,1.466,1.466,0,0,1-1.409-2.441,2.46,2.46,0,0,0,0-3.424,1.465,1.465,0,0,1,1.409-2.441A2.462,2.462,0,0,0,226.947,241.127Z" transform="translate(-221.152 -239.067)" fill="#2d264b" fill-rule="evenodd"/>
      <g id="Ellipse_663" data-name="Ellipse 663" transform="translate(5.043 5.763)" fill="none" stroke="#2d264b" stroke-width="1">
        <circle cx="2.161" cy="2.161" r="2.161" stroke="none"/>
        <circle cx="2.161" cy="2.161" r="1.661" fill="none"/>
      </g>
    </g>
  </g>
</svg>
