<svg xmlns="http://www.w3.org/2000/svg" xmlns:xlink="http://www.w3.org/1999/xlink" width="40" height="40" viewBox="0 0 40 40">
  <defs>
    <clipPath id="clip-path">
      <rect id="Rectangle_2784" data-name="Rectangle 2784" width="40" height="40" transform="translate(22 171)" fill="#a82424"/>
    </clipPath>
  </defs>
  <g id="Mask_Group_56" data-name="Mask Group 56" transform="translate(-22 -171)" clip-path="url(#clip-path)">
    <g id="Group_2116" data-name="Group 2116" transform="translate(-1.948 -1.326)">
      <path id="Subtraction_49" data-name="Subtraction 49" d="M10352.669,6149.086h-5.308a5.221,5.221,0,0,0-.242-1h5.55a.765.765,0,0,0,.743-.785,2.792,2.792,0,0,0-2.3-2.8l-.144-.026a11.152,11.152,0,0,0-3.627,0l-.141.023a2.7,2.7,0,0,0-1.828,1.2,4.864,4.864,0,0,0-.861-.512,3.727,3.727,0,0,1,2.525-1.669l.141-.023a12.215,12.215,0,0,1,3.955,0l.143.023a3.789,3.789,0,0,1,3.143,3.789A1.767,1.767,0,0,1,10352.669,6149.086Z" transform="translate(-10296.304 -5950.14)" fill="#fff"/>
      <g id="Group_2114" data-name="Group 2114" transform="translate(48.087 186.205)">
        <path id="Path_11180" data-name="Path 11180" d="M505.471,383.678A2.779,2.779,0,1,1,502.694,381,2.729,2.729,0,0,1,505.471,383.678Z" transform="translate(-497.932 -381)" fill="none" stroke="#fff" stroke-width="1"/>
      </g>
      <path id="Subtraction_50" data-name="Subtraction 50" d="M10339.854,6149.086h-5.162a1.767,1.767,0,0,1-1.744-1.785,3.79,3.79,0,0,1,3.142-3.789l.141-.023a12.018,12.018,0,0,1,3.958,0l.143.023a3.679,3.679,0,0,1,2.491,1.619,4.869,4.869,0,0,0-.877.492,2.7,2.7,0,0,0-1.78-1.126l-.144-.023a11.152,11.152,0,0,0-3.627,0l-.141.023a2.8,2.8,0,0,0-2.3,2.8.765.765,0,0,0,.743.785h5.4a5.19,5.19,0,0,0-.242,1Z" transform="translate(-10303.159 -5950.14)" fill="#fff"/>
      <g id="Group_2115" data-name="Group 2115" transform="translate(30.289 186.205)">
        <path id="Path_11180-2" data-name="Path 11180" d="M505.471,383.678A2.779,2.779,0,1,1,502.694,381,2.729,2.729,0,0,1,505.471,383.678Z" transform="translate(-497.932 -381)" fill="none" stroke="#fff" stroke-width="1"/>
      </g>
      <g id="Group_2113" data-name="Group 2113" transform="translate(36.645 183.027)">
        <path id="Path_11180-3" data-name="Path 11180" d="M508.354,385.069A4.222,4.222,0,1,1,504.136,381,4.146,4.146,0,0,1,508.354,385.069Z" transform="translate(-496.901 -381)" fill="none" stroke="#fff" stroke-width="1"/>
      </g>
      <path id="Path_11344" data-name="Path 11344" d="M497,397.281a5.025,5.025,0,0,1,4.137-5.009l.215-.036a17.73,17.73,0,0,1,5.761,0l.215.036a5.025,5.025,0,0,1,4.137,5.009,1.921,1.921,0,0,1-1.889,1.952H498.889A1.921,1.921,0,0,1,497,397.281Z" transform="translate(-460.355 -197.607)" fill="none" stroke="#fff" stroke-width="1"/>
    </g>
  </g>
</svg>
