<svg id="Group_1867" data-name="Group 1867" xmlns="http://www.w3.org/2000/svg" width="30.947" height="16.342" viewBox="0 0 30.947 16.342">
  <path id="Subtraction_38" data-name="Subtraction 38" d="M6.765,16.342a3.282,3.282,0,0,1-2.983-1.99,1.019,1.019,0,0,0-1.094-.74H2.621A2.518,2.518,0,0,1,.045,11.247,13.163,13.163,0,0,1,0,9.737V9.631c0-.2,0-.4,0-.6a2.688,2.688,0,0,1,1.71-2.7l.011,0C2.33,6.053,3.083,5.711,3.8,5.36a1.174,1.174,0,0,0,.456-.409c.634-1.005,1.29-2.064,2.006-3.236A3.3,3.3,0,0,1,9.271,0c1.229,0,2.56,0,4.318,0,2.032,0,3.643,0,4.925,0a3.371,3.371,0,0,1,2.865,1.455c.391.528.805,1.078,1.17,1.562l.073.1.173.229.06.081c.356.472.723.962,1.08,1.444a1.124,1.124,0,0,0,.642.445c.843.228,1.676.459,2.6.715l.353.1.292.081L28.88,6.5a2.809,2.809,0,0,1,1.463.91,3.367,3.367,0,0,1,.6,1.347v2.463a.289.289,0,0,0-.028.085,2.617,2.617,0,0,1-2.641,2.318c-.027,0-.057,0-.1,0h-.025a.456.456,0,0,0-.459.371A3.352,3.352,0,0,1,24.5,16.339h-.009A3.346,3.346,0,0,1,21.32,14a.48.48,0,0,0-.5-.38c-2.038,0-3.693.005-5.205.005-1.419,0-3.043,0-5.11-.005A.478.478,0,0,0,9.994,14a3.369,3.369,0,0,1-3.059,2.336C6.88,16.34,6.822,16.342,6.765,16.342ZM24.5,10.4a2.517,2.517,0,0,0-2.477,2.5,2.508,2.508,0,0,0,2.469,2.522h.017a2.511,2.511,0,0,0,1.759-4.265,2.445,2.445,0,0,0-1.756-.76Zm-17.694,0a2.52,2.52,0,0,0-2.478,2.5A2.511,2.511,0,0,0,6.8,15.421h.02a2.509,2.509,0,0,0,2.474-2.5A2.519,2.519,0,0,0,6.824,10.4ZM9.4.892A2.666,2.666,0,0,0,6.929,2.305C6.187,3.572,5.4,4.816,4.872,5.641a1.321,1.321,0,0,1-.5.441c-.563.282-1.134.545-1.767.834l-.216.1-.37.17A1.8,1.8,0,0,0,.892,8.958c0,.339,0,.681,0,1.01V10c0,.3,0,.6,0,.912a1.835,1.835,0,0,0,.5,1.3,1.78,1.78,0,0,0,1.276.511h.767l.024-.175A3.4,3.4,0,0,1,6.728,9.505H6.8a3.392,3.392,0,0,1,3.365,3.034l.027.17H21.127l.025-.173a3.462,3.462,0,0,1,1.429-2.417A3.2,3.2,0,0,1,24.466,9.5c.05,0,.1,0,.15,0a3.391,3.391,0,0,1,3.238,3.008l.021.135.13.031a1.634,1.634,0,0,0,.372.045,1.663,1.663,0,0,0,1.138-.458,1.685,1.685,0,0,0,.533-1.153c.04-.791.023-1.569,0-2.16A1.657,1.657,0,0,0,28.786,7.41c-.687-.2-1.39-.4-2.068-.584l-.039-.011-.152-.042-.46-.127-.15-.042-.2-.054-.135-.038-.254-.071c-.408-.116-.841-.237-1.267-.343a1.1,1.1,0,0,1-.652-.446c-.343-.463-.7-.931-1.039-1.385l-.029-.038L22.32,4.2l-.1-.129c-.473-.627-.962-1.276-1.433-1.928A2.834,2.834,0,0,0,18.347.894h-.019C16.724.9,15.2.905,13.8.905S10.916.9,9.426.892Z" fill="#fff"/>
</svg>
