<svg xmlns="http://www.w3.org/2000/svg" width="74.071" height="31.788" viewBox="0 0 74.071 31.788">
  <g id="Group_1709" data-name="Group 1709" transform="translate(-323.511 -2270.606)">
    <path id="Subtraction_12" data-name="Subtraction 12" d="M-7048.072,9260.288c-.527,0-1.106-.025-1.771-.077a2.092,2.092,0,0,1-1.852-1.922,6.36,6.36,0,0,0-4.367-5.132,6.41,6.41,0,0,0-2.066-.344,6.422,6.422,0,0,0-4.009,1.417,6.483,6.483,0,0,0-2.275,3.724c-.367,1.772-1.039,2.313-2.875,2.313h-26.428c-1.735,0-2.44-.565-2.793-2.24a6.528,6.528,0,0,0-2.22-3.744,6.347,6.347,0,0,0-4.06-1.453h-.04a6.381,6.381,0,0,0-6.319,5.1c-.409,1.834-1.041,2.336-2.936,2.336h-1.673a3.506,3.506,0,0,1-3.63-2.619,1.4,1.4,0,0,0-.1-.217l-.012-.019,0-16.157a.031.031,0,0,0,.008-.011l0,0,.013-.021,0-.007a1.008,1.008,0,0,0,.092-.192,3.5,3.5,0,0,1,3.5-2.592c.82-.01,1.618-.019,2.361-.019.844,0,1.592.009,2.287.027h.074a1.866,1.866,0,0,0,1.548-.719c1.079-1.26,2.239-2.58,3.17-3.641l.2-.225.144-.163c.793-.9,1.692-1.923,2.56-2.926a6.3,6.3,0,0,1,5.039-2.264h.021c3.7.011,7.469.012,10.717.012,3.285,0,7.13,0,11.188-.012h.016a6.532,6.532,0,0,1,4.569,1.773c3.279,2.974,6.629,5.98,9.959,8.935a2.769,2.769,0,0,0,1.32.622c2.006.337,4.042.662,6.01.978l.151.024.091.015c1.593.255,3.24.519,4.871.787a4.676,4.676,0,0,1,4.023,3.6.819.819,0,0,0,.123.238l0,.006,0,11.953a3.463,3.463,0,0,1-2.908,2.757A13.793,13.793,0,0,1-7048.072,9260.288Zm-10.1-9.423a8.446,8.446,0,0,1,7.986,5.462,4.936,4.936,0,0,1,.161.564v.006l.007.027a1.9,1.9,0,0,0,.623,1.248,1.59,1.59,0,0,0,.86.2c.2,0,.4-.019.595-.037h.011l.061-.006.034,0c.2-.018.387-.034.565-.034,1.3-.007,1.855-.55,1.855-1.815.007-3.861.007-7,0-9.885a2.766,2.766,0,0,0-2.533-3c-3.37-.545-7.292-1.176-11.208-1.778a3.7,3.7,0,0,1-2.052-.943c-1.723-1.579-3.492-3.168-5.2-4.705l-.048-.043-.442-.4-.583-.522c-1.167-1.048-2.49-2.235-3.769-3.4a4.838,4.838,0,0,0-3.379-1.32h-.014c-3.8.011-7.692.012-11.042.012-4.06,0-7.492,0-10.8-.009h-.012a4.458,4.458,0,0,0-3.561,1.607c-1.074,1.247-2.188,2.512-3.17,3.627l-.042.048c-1.1,1.247-2.275,2.587-3.44,3.939a1.843,1.843,0,0,1-1.513.716h-.051c-.772-.014-1.6-.021-2.52-.021-.872,0-1.8.007-2.54.013h-.407c-1.456.012-1.764.88-1.767,1.606-.012,4.735-.012,9.676,0,14.682a1.482,1.482,0,0,0,1.555,1.585c.139.006.291.009.493.009.132,0,.272,0,.441,0,.144,0,.288,0,.435,0,.228,0,.416,0,.593.014l.045,0h.038c.581,0,.739-.369.823-.768a8.394,8.394,0,0,1,8.184-6.682h.079a8.369,8.369,0,0,1,8.211,6.547.968.968,0,0,0,1.125.909h.009c6.216-.015,12.493-.017,18.913-.018h8.061l.04-.2c.007-.037.014-.072.021-.1v-.008l.005-.025c.006-.03.012-.059.016-.085l.01-.05.01-.048c.013-.069.026-.132.041-.193a8.448,8.448,0,0,1,7.477-6.682C-7058.643,9250.875-7058.4,9250.865-7058.175,9250.865Z" transform="translate(7441.012 -6957.894)" fill="#2f779c"/>
    <path id="Subtraction_13" data-name="Subtraction 13" d="M-7084.218,9250.36l-3.294,0h-.335c-2.107,0-4.244,0-6.386,0-3.685,0-6.886,0-9.786.007a2.5,2.5,0,0,1-2.382-1.4,11.291,11.291,0,0,0-9.008-6,2.244,2.244,0,0,1-2.062-2.311c0-.279-.007-.563-.014-.845v-.068c-.016-.908-.033-1.848.042-2.767a3.094,3.094,0,0,1,.6-1.639c1.2-1.452,2.492-2.933,3.636-4.239l.15-.172.159-.182.2-.224c.339-.387.689-.786,1.03-1.179a2.46,2.46,0,0,1,2-.829h.014c1.384,0,2.886,0,4.787,0h8.518c1.073,0,1.965,0,2.826,0,1.823,0,3.313,0,4.69-.014h.028a3.266,3.266,0,0,1,2.254.847c2.253,1.961,4.708,4.063,7.3,6.246a2.736,2.736,0,0,1,1.059,2.266c-.031,1.955-.021,3.882,0,5.672a2.944,2.944,0,0,1-.949,2.138,27.432,27.432,0,0,0-2.65,3.295A2.7,2.7,0,0,1-7084.218,9250.36Zm-19.945-19.871c-2.219,0-3.931,0-5.389.017a1.359,1.359,0,0,0-.9.462c-1.494,1.685-2.922,3.332-4.634,5.31l-.033.037,0,0a1.132,1.132,0,0,0-.354.656c-.021.951-.019,1.908-.016,2.833,0,.151,0,.3,0,.452s0,.3,0,.453v.221l.218.025a13.15,13.15,0,0,1,9.974,6.046,2.448,2.448,0,0,0,2.236,1.372c.115,0,.232-.006.348-.017.424-.033.866-.049,1.391-.049.386,0,.771.008,1.1.015.357.007.74.014,1.119.014h.251v-17.756l-.209-.035-.089-.016h-.007l-.036-.007a1.357,1.357,0,0,0-.244-.035h-1.481Q-7102.543,9230.488-7104.164,9230.489Zm11.666,0c-.71,0-1.444,0-2.164,0-.427,0-.852,0-1.277,0a4.429,4.429,0,0,0-.451.028c-.027,0-.054,0-.081.006l-.041,0-.085.007-.232.017v17.682l.19.047a.931.931,0,0,1,.1.023l.022.006a.744.744,0,0,0,.218.04l1.637.007,1.31,0c1.388,0,3.216.009,5.042.009,1.7,0,2.878,0,3.954-.01a1.4,1.4,0,0,0,.892-.557c1.028-1.242,1.948-2.391,2.812-3.511a2.007,2.007,0,0,0,.439-1.077c.043-1.795.045-3.463,0-5.1a1.717,1.717,0,0,0-.531-1.148c-2.249-1.967-4.563-3.948-7.077-6.058a1.88,1.88,0,0,0-1.126-.4C-7089.923,9230.49-7091.019,9230.484-7092.5,9230.484Z" transform="translate(7454.664 -6952.941)" fill="#2f779c"/>
  </g>
</svg>
