<svg xmlns="http://www.w3.org/2000/svg" width="53.757" height="53.762" viewBox="0 0 53.757 53.762">
  <g id="Group_1579" data-name="Group 1579" transform="translate(-1543.495 -784.813)">
    <g id="Group_1187" data-name="Group 1187" transform="translate(1542.746 784.063)">
      <path id="Path_6444" data-name="Path 6444" d="M1652.27,993.626a.5.5,0,0,1-.006.086h-2.023a.459.459,0,0,0-.005-.09Z" transform="translate(-1622.351 -939.201)" fill="#ccbed2"/>
      <path id="Subtraction_16" data-name="Subtraction 16" d="M-8404.134,7106.442h0a1.52,1.52,0,0,0-.972-.283c-.119,0-.229.006-.321.013-.122.009-.258.013-.428.013-.154,0-.3,0-.443-.006l-.087,0-.093,0a.931.931,0,0,1-.983-.962,26.215,26.215,0,0,1,4.844-15.25,26.433,26.433,0,0,1,9.754-8.427,25.489,25.489,0,0,1,8.741-2.621,25.767,25.767,0,0,1,2.845-.2l.226,0h.112a.944.944,0,0,1,.929.855c.006.116,0,.318-.008.513v.042l0,.044v.024a8.289,8.289,0,0,0,.016,1.225l-.007.019.011.057c0,.046,0,.093,0,.142.006.994.006,1.934,0,2.794a1.025,1.025,0,0,0,.019.2,3.081,3.081,0,0,0-.016.53v.059a.232.232,0,0,0,0,.027c0,.013,0,.024,0,.034-.006,1.923-.006,3.876-.006,5.766V7093c0,.937-.3,1.241-1.23,1.249a10.742,10.742,0,0,0-7.065,2.833,10.673,10.673,0,0,0-3.528,6.721,12.808,12.808,0,0,0-.1,1.342.94.94,0,0,1-1.027,1.026c-1.4,0-3.213,0-4.968,0-1.486,0-2.946,0-4.122,0l-.652,0-.021.152c-.207.01-.414.029-.613.047l-.041,0-.1.01h-.015c-.224.021-.436.041-.638.051Z" transform="translate(8408.211 -7077.966)" fill="#2f779c"/>
      <path id="Subtraction_18" data-name="Subtraction 18" d="M-8399.637,7094.25h-.015a7.792,7.792,0,0,1-7.809-7.741,7.816,7.816,0,0,1,7.809-7.793,7.781,7.781,0,0,1,7.724,7.821A7.814,7.814,0,0,1-8399.637,7094.25Zm-.069-12.875a5.113,5.113,0,0,0-5.1,5.1,5.123,5.123,0,0,0,5.1,5.12h.027a5.1,5.1,0,0,0,5.094-5.042,5.117,5.117,0,0,0-1.485-3.664,5.066,5.066,0,0,0-3.613-1.511Z" transform="translate(8428.648 -7057.522)" fill="#2f779c"/>
      <path id="Ellipse_545" data-name="Ellipse 545" d="M25.5,2.5a23.007,23.007,0,0,0-8.952,44.194,23.007,23.007,0,0,0,17.9-42.387A22.854,22.854,0,0,0,25.5,2.5m0-2.5A25.5,25.5,0,1,1,0,25.5,25.5,25.5,0,0,1,25.5,0Z" transform="translate(3.506 3.281)" fill="#2f779c"/>
      <path id="Path_6453" data-name="Path 6453" d="M1578.228,802.582c0,1.525-.022,3.051.014,4.575.011.459-.14.607-.565.673a13.238,13.238,0,0,0-8,4.356,13.054,13.054,0,0,0-3.271,6.8c-.064.4-.169.593-.655.589-3.05-.03-6.1-.014-9.151-.017-.246,0-.552.1-.5-.366a24.015,24.015,0,0,1,2.011-7.717,23.684,23.684,0,0,1,14.639-13.023,25.732,25.732,0,0,1,5.031-1.02c.348-.042.462.058.458.419C1578.218,799.425,1578.228,801,1578.228,802.582Z" transform="translate(-1552.681 -794.003)" fill="#eef4f7"/>
      <path id="Path_6455" data-name="Path 6455" d="M1616.782,817.049a1.7,1.7,0,1,1-1.747,1.631A1.711,1.711,0,0,1,1616.782,817.049Z" transform="translate(-1596.301 -808.529)" fill="#2f779c"/>
      <path id="Path_6456" data-name="Path 6456" d="M1579.126,858.051a1.7,1.7,0,1,1-1.746-1.686A1.712,1.712,0,0,1,1579.126,858.051Z" transform="translate(-1567.207 -837.625)" fill="#2f779c"/>
    </g>
  </g>
</svg>
