<svg xmlns="http://www.w3.org/2000/svg" xmlns:xlink="http://www.w3.org/1999/xlink" width="29.333" height="29.333" viewBox="0 0 29.333 29.333">
  <defs>
    <clipPath id="clip-path">
      <rect id="Rectangle_2058" data-name="Rectangle 2058" width="29.333" height="29.333" fill="#eef4f7"/>
    </clipPath>
  </defs>
  <g id="Mask_Group_17" data-name="Mask Group 17" clip-path="url(#clip-path)">
    <g id="Group_835" data-name="Group 835" transform="translate(3.056 3.056)">
      <path id="Rectangle_2090" data-name="Rectangle 2090" d="M0,0H13a0,0,0,0,1,0,0V6.5A6.5,6.5,0,0,1,6.5,13h0A6.5,6.5,0,0,1,0,6.5V0A0,0,0,0,1,0,0Z" transform="translate(18.165 13) rotate(180)" fill="none" stroke="#ee3232" stroke-linecap="round" stroke-width="1.5"/>
      <path id="Rectangle_2089" data-name="Rectangle 2089" d="M0,0H17a0,0,0,0,1,0,0V11a7,7,0,0,1-7,7H7a7,7,0,0,1-7-7V0A0,0,0,0,1,0,0Z" transform="translate(3.165 5)" fill="#eef4f7" stroke="#ee3232" stroke-linecap="round" stroke-width="1.5"/>
      <line id="Line_1589" data-name="Line 1589" x2="23.222" transform="translate(0 4.889)" fill="none" stroke="#ee3232" stroke-linecap="round" stroke-width="1.5"/>
      <path id="Path_5427" data-name="Path 5427" d="M1020,316v5.724m5.724-5.724v5.724" transform="translate(-1011.251 -305.296)" fill="none" stroke="#ee3232" stroke-linecap="round" stroke-linejoin="round" stroke-width="1.5"/>
    </g>
  </g>
</svg>
