<svg xmlns="http://www.w3.org/2000/svg" width="45.7" height="60.953" viewBox="0 0 45.7 60.953">
  <g id="Group_1578" data-name="Group 1578" transform="translate(-806.95 -335.794)">
    <path id="Path_6435" data-name="Path 6435" d="M807.894,396.746c-.988-.561-1.159-1.052-.709-2.1q3.224-7.537,6.457-15.071a3.882,3.882,0,0,1,5.044-2.343c2.37.7,4.736,1.422,7.156,2.15l1.5-4.209q3.858-10.8,7.725-21.587a.806.806,0,0,0-.174-.943,10.049,10.049,0,0,1-1.43-11.311,10.147,10.147,0,0,1,19.173,4.113,10.021,10.021,0,0,1-8.468,10.447,1.955,1.955,0,0,0-1.82,1.541c-2.778,7.922-5.626,15.819-8.453,23.724-.06.167-.114.336-.191.565.537.168,1.057.335,1.581.493,1.44.436,2.885.856,4.322,1.3a3.8,3.8,0,0,1,2.886,3.829c.032,2.618.005,5.237.01,7.855a1.472,1.472,0,0,1-1.042,1.547Zm2.257-2.571h29.766c.012-.194.031-.349.031-.505,0-2.062.005-4.125,0-6.187a1.366,1.366,0,0,0-1.2-1.58q-10.38-3.116-20.761-6.227a1.4,1.4,0,0,0-2.021.948q-1.795,4.174-3.583,8.35C811.651,390.682,810.918,392.39,810.151,394.175Zm32.355-40.617a7.614,7.614,0,1,0-7.615-7.583A7.628,7.628,0,0,0,842.506,353.559ZM831.26,381l8.957-25.067-2.867-1.2-9.068,25.38Z" transform="translate(0 0)" fill="#2f779c"/>
  </g>
</svg>
