<svg xmlns="http://www.w3.org/2000/svg" width="24.9" height="26.269" viewBox="0 0 24.9 26.269">
  <path id="Path_6528" data-name="Path 6528" d="M280.287,529v3.458M291.1,529v3.458m-9.461,13.486h4.054m-4.054-4.149h8.108m-15.289,4.054a18.172,18.172,0,0,1,0-8.11,9.879,9.879,0,0,1,7.273-7.442,16.954,16.954,0,0,1,7.924,0,9.879,9.879,0,0,1,7.273,7.442,18.173,18.173,0,0,1,0,8.11,9.88,9.88,0,0,1-7.273,7.444,16.956,16.956,0,0,1-7.924,0A9.879,9.879,0,0,1,274.458,545.849Z" transform="translate(-273.244 -528.25)" fill="none" stroke="#2f779c" stroke-linecap="round" stroke-width="1.5"/>
</svg>
