<svg xmlns="http://www.w3.org/2000/svg" width="63.452" height="59.125" viewBox="0 0 63.452 59.125">
  <g id="Group_1587" data-name="Group 1587" transform="translate(-653.295 -820.132)">
    <path id="Path_6462" data-name="Path 6462" d="M1011.188,963.687c-.8.844-1.588,1.7-2.416,2.524a1.04,1.04,0,1,1-1.458-1.482c.59-.635,1.214-1.238,1.83-1.848.826-.818,1.472-.714,2.043.32Z" transform="translate(-294.441 -118.859)" fill="#2f779c"/>
    <path id="Path_6463" data-name="Path 6463" d="M1011.365,1106.8c-.606,1-1.237,1.07-2.078.237-.56-.555-1.125-1.109-1.672-1.677a1.082,1.082,0,0,1-.121-1.61,1.055,1.055,0,0,1,1.6.132c.773.793,1.512,1.619,2.266,2.431Z" transform="translate(-294.619 -236.794)" fill="#2f779c"/>
    <path id="Path_6464" data-name="Path 6464" d="M1011.273,1040.575a1.459,1.459,0,0,1-1.47.735c-.5-.036-1.009,0-1.514-.01-.75-.018-1.221-.441-1.211-1.067.01-.609.456-1,1.183-1.023.525-.015,1.051.021,1.575-.01a1.339,1.339,0,0,1,1.436.768Z" transform="translate(-294.527 -183.099)" fill="#2f779c"/>
    <path id="Path_6465" data-name="Path 6465" d="M695.516,861.382h-4.148v.644q0,3.709,0,7.417c0,1.076-.449,1.461-1.519,1.331a5.233,5.233,0,0,1-4.8-5.388c-.016-1.314,0-2.628,0-3.983H680.84v.728q0,6.809,0,13.618c0,1.82-.9,3.144-2.5,3.384a11.706,11.706,0,0,1-3.442-.005,3.037,3.037,0,0,1-2.483-3.279c-.012-3.1,0-6.2,0-9.3V854.753c0-1.588.213-1.8,1.771-1.8h7.25c-.74-.747-1.358-1.4-2.017-2.011-.132-.122-.42-.1-.636-.1-3-.006-6-.016-9,.005a2.082,2.082,0,0,1-1.616-.653q-6.817-6.854-13.664-13.677a3.2,3.2,0,0,1-.017-5q5.091-5.1,10.19-10.185a3.188,3.188,0,0,1,4.956-.009q6.883,6.873,13.765,13.747a1.891,1.891,0,0,1,.6,1.454c-.017,3.019,0,6.039-.015,9.058a1.286,1.286,0,0,0,.4,1.016c2,1.979,3.981,3.986,5.994,5.957a1.532,1.532,0,0,0,.939.388c1.234.045,2.472.012,3.708.022a.644.644,0,0,0,.682-.4,1.413,1.413,0,0,1,.989-.634c1.354-.073,2.714-.048,4.071-.022.749.015,1.107.447,1.114,1.3.013,1.662,0,3.323,0,4.985,0,.932,0,1.864,0,2.8-.008,1.109-.343,1.438-1.468,1.443s-2.229,0-3.344,0C696.094,862.412,695.871,862.264,695.516,861.382Zm-25.067-36.3-12.192,12.192c-.006-.006.046.057.1.113q5.52,5.522,11.049,11.034a1.157,1.157,0,0,0,.736.291c2.066.023,4.132.017,6.2.011a8.467,8.467,0,0,0,3-.11c.848-.347,1.43-1.331,2.151-2.011a1.179,1.179,0,0,0,.4-.949c-.017-2.856,0-5.712-.026-8.567a1.481,1.481,0,0,0-.385-.936c-2.7-2.74-5.43-5.454-8.151-8.175C672.35,826.988,671.365,826,670.449,825.082Zm10.862,24.707c.143.151.277.3.418.442q1.353,1.355,2.709,2.706c.4.4.773.811.518,1.433s-.784.7-1.363.674c-.121-.005-.243,0-.365,0h-8.7v.758q0,9.846,0,19.694c0,.142,0,.284,0,.426a1.117,1.117,0,0,0,1.252,1.231c.445.015.891,0,1.337,0,1.313,0,1.607-.295,1.607-1.607q0-7.415,0-14.831c0-1.107.343-1.45,1.451-1.452q2.766-.006,5.531,0c1.123,0,1.43.316,1.433,1.456,0,1.479,0,2.958.005,4.437a6.054,6.054,0,0,0,.092,1.087,2.718,2.718,0,0,0,2.029,2.172q0-3.833,0-7.659c0-1.2.3-1.493,1.515-1.5,1.418,0,2.837.01,4.255-.014.18,0,.51-.185.513-.292.036-1.29.023-2.581.023-3.915-1.147,0-2.218.012-3.289,0-2.926-.041-2,.373-4.1-1.685-1.6-1.576-3.183-3.178-4.775-4.766-.153-.153-.315-.3-.44-.415Zm-12.562-26.382c-.119-.124-.254-.272-.4-.415-1-1.006-1.381-1-2.4.017-3.179,3.18-6.331,6.387-9.548,9.528-1.54,1.5-1.062,1.891.123,3.005.028.026.071.035.06.03Zm28.984,30.6v6.235h2v-6.235Z" transform="translate(0 0)" fill="#2f779c"/>
    <path id="Path_6466" data-name="Path 6466" d="M985.7,988.931a5.541,5.541,0,0,1-.548.9c-.608.65-1.241,1.275-1.883,1.892a1.058,1.058,0,1,1-1.485-1.479c.646-.669,1.307-1.324,1.975-1.972a.954.954,0,0,1,1.219-.2A3.823,3.823,0,0,1,985.7,988.931Z" transform="translate(-273.045 -140.248)" fill="#2f779c"/>
    <path id="Path_6467" data-name="Path 6467" d="M957.03,1017.824c-.245-.183-.641-.335-.766-.61a1.2,1.2,0,0,1,.019-1.047,27.721,27.721,0,0,1,2.373-2.4,1.009,1.009,0,0,1,1.419,1.387c-.753.837-1.571,1.616-2.382,2.4A2.358,2.358,0,0,1,957.03,1017.824Z" transform="translate(-251.963 -161.648)" fill="#2f779c"/>
    <path id="Path_6468" data-name="Path 6468" d="M985.569,1080.9c-.177.233-.333.628-.608.747a1.22,1.22,0,0,1-1.053-.038,27.339,27.339,0,0,1-2.368-2.345,1.01,1.01,0,0,1,1.364-1.431c.858.765,1.647,1.608,2.446,2.437C985.462,1080.381,985.47,1080.6,985.569,1080.9Z" transform="translate(-272.994 -215.223)" fill="#2f779c"/>
    <path id="Path_6469" data-name="Path 6469" d="M956.749,1051.4a4.717,4.717,0,0,1,.875.5c.666.622,1.309,1.268,1.938,1.927a1.05,1.05,0,1,1-1.471,1.489c-.674-.642-1.327-1.308-1.975-1.977a.947.947,0,0,1-.208-1.219A3.87,3.87,0,0,1,956.749,1051.4Z" transform="translate(-251.637 -193.303)" fill="#2f779c"/>
    <path id="Path_6470" data-name="Path 6470" d="M977.084,1041.323c-.364,0-.729.027-1.089-.005a1.057,1.057,0,0,1-1.012-1.08,1.025,1.025,0,0,1,1.032-.986c.705-.029,1.414-.029,2.119,0a1.037,1.037,0,0,1,1.046,1.039,1.061,1.061,0,0,1-1.006,1.027C977.813,1041.35,977.447,1041.322,977.084,1041.323Z" transform="translate(-267.699 -183.129)" fill="#2f779c"/>
  </g>
</svg>
