<svg xmlns="http://www.w3.org/2000/svg" width="63.73" height="44.614" viewBox="0 0 63.73 44.614">
  <path id="Path_9323" data-name="Path 9323" d="M1320.17,478.453a3.49,3.49,0,0,1,2.362-2.407,3.153,3.153,0,0,1,3.976,2.9c.039,1.22.011,2.442.013,3.664,0,.222,0,.444,0,.7h3.2c0-1.279.068-2.521-.015-3.753a3.288,3.288,0,0,1,3.653-3.621c.844.062,1.7.021,2.546.006a1.1,1.1,0,0,0,1.233-1.107,3.17,3.17,0,0,1,3.566-3.131c1.611,0,3.221,0,4.876,0v-3.189c-1.646,0-3.275.007-4.9-.005a5.01,5.01,0,0,1-1.166-.117,3.161,3.161,0,0,1,.705-6.219q10.713-.024,21.426,0a3.094,3.094,0,0,1,3.043,3.132,3.132,3.132,0,0,1-3.052,3.2c-1.552.036-3.105.01-4.658.011h-.719V471.7h1.107c1.056,0,2.112-.023,3.167.011a3.141,3.141,0,0,1,3.112,3.143c.018.641,0,1.284.006,1.925.009.9.385,1.272,1.3,1.28s1.822,0,2.733,0a3.179,3.179,0,0,1,3.389,3.376c.015,1.449,0,2.9,0,4.347v.707h2.124c0-.336-.008-.677,0-1.018a3.126,3.126,0,0,1,3.2-3.169,18.953,18.953,0,0,1,3.154.13,5.13,5.13,0,0,1,4.213,4.933c.047,3.684.053,7.37,0,11.054a5.227,5.227,0,0,1-5.133,5.06,16.531,16.531,0,0,1-2.6-.027,3.081,3.081,0,0,1-2.828-3.082c-.011-.346,0-.693,0-1.079H1371.1c-.011.232-.031.45-.031.669,0,1.139.017,2.278-.007,3.416a3.154,3.154,0,0,1-3.352,3.286q-11.055.009-22.11.008a3.417,3.417,0,0,1-2.554-1.061c-1.573-1.589-3.166-3.158-4.736-4.75a1.683,1.683,0,0,0-1.316-.554c-1.324.026-2.65.015-3.975.006a3.153,3.153,0,0,1-3.295-3.274c-.012-1.7,0-3.391,0-5.14h-3.2c0,.469,0,.956,0,1.443,0,.89.008,1.78,0,2.671a3.176,3.176,0,0,1-6.219.967,2.365,2.365,0,0,0-.13-.267Zm36.486,26.1h10.682c1.331,0,1.6-.27,1.6-1.594q0-8.974,0-17.947c0-1.18.009-2.36,0-3.54-.01-.921-.377-1.282-1.283-1.287-.994-.006-1.988.018-2.981-.008a3.158,3.158,0,0,1-3.145-3.177c-.011-.579,0-1.159,0-1.739,0-1.1-.335-1.434-1.453-1.434q-9.688,0-19.376,0c-1.087,0-1.321.214-1.462,1.311a3.181,3.181,0,0,1-3.275,2.926c-.931.013-1.863,0-2.795,0-.968,0-1.325.349-1.326,1.294q0,8.756,0,17.513c0,.952.367,1.324,1.305,1.328,1.263.006,2.526.034,3.788-.008a3.7,3.7,0,0,1,2.927,1.223c1.5,1.546,3.047,3.043,4.554,4.579a1.768,1.768,0,0,0,1.373.566C1349.41,504.544,1353.033,504.552,1356.656,504.552Zm18.654-11.688c0,2.422,0,4.845,0,7.267,0,.851.357,1.228,1.2,1.245a21.009,21.009,0,0,0,2.3-.036,3.067,3.067,0,0,0,2.844-3.008q.055-5.434,0-10.869a3.124,3.124,0,0,0-3.088-3.041c-.621-.018-1.242-.007-1.863,0-1.04,0-1.383.337-1.384,1.367Q1375.305,489.323,1375.309,492.864Zm-24.4-26.467h3.847c2.192,0,4.385.005,6.577,0,.867,0,1.38-.589,1.2-1.331-.129-.533-.538-.782-1.309-.782q-10.3,0-20.6,0a2.824,2.824,0,0,0-.5.019,1.016,1.016,0,0,0-.618,1.669,1.708,1.708,0,0,0,1.1.41C1344.04,466.409,1347.474,466.4,1350.907,466.4Zm-26.5,21.239q0-2.669,0-5.339c0-1.055.013-2.111-.008-3.166a1.014,1.014,0,0,0-1.052-1.062,1.048,1.048,0,0,0-1.051,1.012c-.014.144-.006.289-.006.434q0,8.071,0,16.141a3.535,3.535,0,0,0,.017.558,1.037,1.037,0,0,0,1.327.87,1.074,1.074,0,0,0,.776-1.191C1324.4,493.14,1324.4,490.388,1324.4,487.636Zm29.644-15.96v-3.122h-6.261v3.122Zm19.086,25.421v-8.405h-2.025V497.1Zm-43.45-7.4v-4.173h-3.113V489.7Z" transform="translate(-1320.12 -462.111)" fill="#2f779c" stroke="#2f779c" stroke-width="0.1"/>
</svg>
