<svg xmlns="http://www.w3.org/2000/svg" width="50" height="29" viewBox="0 0 50 29">
  <g id="Group_1536" data-name="Group 1536" transform="translate(-317 -1997)">
    <g id="Group_1537" data-name="Group 1537" transform="translate(6 -23)">
      <g id="Rectangle_2518" data-name="Rectangle 2518" transform="translate(315 2020)" fill="#fff" stroke="#4e1f4f" stroke-width="1.5">
        <rect width="46" height="25" rx="5" stroke="none"/>
        <rect x="0.75" y="0.75" width="44.5" height="23.5" rx="4.25" fill="none"/>
      </g>
    </g>
    <g id="Group_1536-2" data-name="Group 1536">
      <g id="Rectangle_2518-2" data-name="Rectangle 2518" transform="translate(317 2001)" fill="#fff" stroke="#4e1f4f" stroke-width="1.5">
        <rect width="46" height="25" rx="5" stroke="none"/>
        <rect x="0.75" y="0.75" width="44.5" height="23.5" rx="4.25" fill="none"/>
      </g>
      <g id="Ellipse_650" data-name="Ellipse 650" transform="translate(331 2004)" fill="#fff" stroke="#4e1f4f" stroke-width="1.5">
        <circle cx="9.5" cy="9.5" r="9.5" stroke="none"/>
        <circle cx="9.5" cy="9.5" r="8.75" fill="none"/>
      </g>
      <path id="Path_6883" data-name="Path 6883" d="M4.289-2.044a4.286,4.286,0,0,1-2-.449A4.11,4.11,0,0,1,.8-3.841l.978-1.123A4.434,4.434,0,0,0,3.021-3.683a2.7,2.7,0,0,0,1.414.357,2.508,2.508,0,0,0,.912-.159,1.587,1.587,0,0,0,.648-.436.947.947,0,0,0,.238-.634A1.269,1.269,0,0,0,6.153-5a1.114,1.114,0,0,0-.245-.383,1.827,1.827,0,0,0-.423-.317,3.333,3.333,0,0,0-.6-.258,5.831,5.831,0,0,0-.793-.192A4.98,4.98,0,0,1,2.512-6.71a2.459,2.459,0,0,1-.938-.938A2.713,2.713,0,0,1,1.263-8.97,2.223,2.223,0,0,1,1.507-10a2.579,2.579,0,0,1,.674-.826,3.134,3.134,0,0,1,1.011-.542,3.989,3.989,0,0,1,1.256-.192,4,4,0,0,1,1.87.416A3.088,3.088,0,0,1,7.581-9.935l-1,.991a2.968,2.968,0,0,0-.945-.991,2.256,2.256,0,0,0-1.223-.344,2.34,2.34,0,0,0-.9.159,1.424,1.424,0,0,0-.6.443,1.065,1.065,0,0,0-.218.667A1.209,1.209,0,0,0,2.8-8.5a1.142,1.142,0,0,0,.324.41,2.084,2.084,0,0,0,.588.317,5.96,5.96,0,0,0,.886.245,7.125,7.125,0,0,1,1.3.4,3.911,3.911,0,0,1,.965.575,2.311,2.311,0,0,1,.6.74,1.953,1.953,0,0,1,.2.886,2.807,2.807,0,0,1-.41,1.533,2.668,2.668,0,0,1-1.163,1A4.234,4.234,0,0,1,4.289-2.044ZM3.5-.973v-6l1.282.436V-.973ZM5.307-6.538,4.025-6.974v-5.538H5.307Z" transform="translate(336.271 2020.243)" fill="#4e1f4f"/>
    </g>
  </g>
</svg>
