<svg xmlns="http://www.w3.org/2000/svg" width="47.566" height="43.5" viewBox="0 0 47.566 43.5">
  <g id="noun-credit-card-5258383" transform="translate(-73.138 -32.003)">
    <path id="Path_6884" data-name="Path 6884" d="M115.027,75.5H82.313a3.567,3.567,0,0,1-3.559-3.567V53.451a3.569,3.569,0,0,1,3.2-3.549,3.571,3.571,0,0,1,1.962-4.3L113.8,32.308a3.576,3.576,0,0,1,4.706,1.8L126.017,51a3.574,3.574,0,0,1-1.8,4.7l-5.628,2.5V71.936a3.566,3.566,0,0,1-3.558,3.567ZM82.313,51.418a2.031,2.031,0,0,0-2.024,2.033V71.936a2.03,2.03,0,0,0,2.024,2.032h32.714a2.031,2.031,0,0,0,2.024-2.032V53.451a2.03,2.03,0,0,0-2.024-2.033Zm36.272,2.033v3.074l5.006-2.227a2.023,2.023,0,0,0,1.023-2.672l-4.327-9.733-17.956,7.99h12.7a3.567,3.567,0,0,1,3.558,3.567ZM93.217,49.884h5.34l21.107-9.393-.883-1.985Zm-9.622,0h5.848L118.157,37.1,117.1,34.734a2.036,2.036,0,0,0-2.68-1.025L84.539,47a2.057,2.057,0,0,0-.944,2.88Zm29.967,20H83.777a.767.767,0,0,1,0-1.535h29.786a.767.767,0,0,1,0,1.535Zm-24.582-8.2H84.46a1.452,1.452,0,0,1-1.45-1.45V55.707a1.451,1.451,0,0,1,1.45-1.45H88.98a1.451,1.451,0,0,1,1.45,1.45v4.521a1.452,1.452,0,0,1-1.45,1.45Zm-4.436-1.535H88.9V55.791H84.544Zm29.019-.249h0a.767.767,0,0,1-.767-.767V56.807a.767.767,0,1,1,1.535,0v2.319a.767.767,0,0,1-.767.767Zm-3.389,0h0a.767.767,0,0,1-.767-.767V56.807a.767.767,0,1,1,1.535,0v2.319a.767.767,0,0,1-.767.767Z" transform="translate(-5.616)" fill="#4e1f4f"/>
  </g>
</svg>
