<svg xmlns="http://www.w3.org/2000/svg" width="55.524" height="29.392" viewBox="0 0 55.524 29.392">
  <g id="Group_1834" data-name="Group 1834" transform="translate(-932.74 -410.805)">
    <path id="Subtraction_38" data-name="Subtraction 38" d="M-7091.905,9258.193a5.867,5.867,0,0,1-5.333-3.556,1.823,1.823,0,0,0-1.956-1.321h-.06a.15.15,0,0,0-.03,0h-.028a4.5,4.5,0,0,1-4.606-4.227,23.534,23.534,0,0,1-.075-2.7v-.187c0-.354.006-.717,0-1.073a4.8,4.8,0,0,1,3.058-4.818l.02-.008c1.082-.492,2.427-1.1,3.711-1.73a2.1,2.1,0,0,0,.815-.731c1.133-1.8,2.306-3.687,3.585-5.781a5.908,5.908,0,0,1,5.378-3.058c2.2,0,4.577,0,7.719,0,3.632,0,6.513,0,8.8,0a6.028,6.028,0,0,1,5.122,2.6c.7.942,1.439,1.925,2.093,2.791l.13.173.31.41.108.145c.636.844,1.293,1.718,1.931,2.579a2.01,2.01,0,0,0,1.148.795c1.508.407,3,.819,4.645,1.277l.631.175.522.145,1.9.523a5.029,5.029,0,0,1,2.615,1.626,6.006,6.006,0,0,1,1.079,2.406v4.4a.506.506,0,0,0-.05.152,4.677,4.677,0,0,1-4.721,4.141c-.047,0-.1,0-.183,0h-.045a.814.814,0,0,0-.821.663,5.993,5.993,0,0,1-5.7,4.185h-.015a5.981,5.981,0,0,1-5.673-4.171.858.858,0,0,0-.9-.679c-3.644.006-6.6.01-9.307.01-2.537,0-5.44,0-9.137-.01a.853.853,0,0,0-.9.674,6.023,6.023,0,0,1-5.47,4.172C-7091.7,9258.189-7091.8,9258.193-7091.905,9258.193Zm31.712-10.622a4.5,4.5,0,0,0-4.428,4.472,4.409,4.409,0,0,0,1.257,3.136,4.411,4.411,0,0,0,3.158,1.369h.03a4.479,4.479,0,0,0,4.424-4.463,4.451,4.451,0,0,0-1.278-3.156,4.37,4.37,0,0,0-3.139-1.357Zm-31.634,0a4.5,4.5,0,0,0-4.43,4.466,4.4,4.4,0,0,0,1.249,3.132,4.416,4.416,0,0,0,3.162,1.379h.037a4.485,4.485,0,0,0,4.423-4.459,4.427,4.427,0,0,0-1.268-3.149,4.391,4.391,0,0,0-3.145-1.368Zm4.634-16.978a4.766,4.766,0,0,0-4.418,2.524c-1.328,2.264-2.735,4.485-3.679,5.96a2.364,2.364,0,0,1-.9.787c-1.007.5-2.027.974-3.159,1.489l-.387.177-.661.3a3.222,3.222,0,0,0-2.014,3.17c.006.605,0,1.216,0,1.8v.064c0,.527,0,1.074,0,1.629a3.274,3.274,0,0,0,.889,2.322,3.184,3.184,0,0,0,2.282.914h1.372l.043-.312a6.085,6.085,0,0,1,5.845-5.446h.13a6.063,6.063,0,0,1,6.017,5.42l.048.3h19.549l.045-.309a6.182,6.182,0,0,1,2.555-4.318,5.732,5.732,0,0,1,3.37-1.1c.09,0,.18,0,.269.006a6.062,6.062,0,0,1,5.79,5.374l.039.241.232.055a2.887,2.887,0,0,0,.666.08,2.975,2.975,0,0,0,2.035-.818,3.012,3.012,0,0,0,.952-2.06c.072-1.412.042-2.8.006-3.859a2.961,2.961,0,0,0-2.266-2.756c-1.228-.358-2.484-.707-3.7-1.043l-.07-.02-.272-.075-.823-.227-.267-.074-.35-.1-.242-.068-.454-.127c-.729-.207-1.5-.424-2.265-.613a1.967,1.967,0,0,1-1.166-.8c-.613-.828-1.245-1.664-1.857-2.474l-.052-.067-.045-.061-.174-.23c-.846-1.12-1.72-2.279-2.562-3.444a5.068,5.068,0,0,0-4.366-2.224h-.035c-2.867.014-5.591.021-8.1.021-2.524,0-5.155-.007-7.819-.023Z" transform="translate(8036.836 -8818.097)" fill="#ee3232" stroke="#ee3232" stroke-width="0.2"/>
    <path id="Path_11132" data-name="Path 11132" d="M130,761.373h10.745M135.373,756v10.745" transform="translate(1401.406 -212.338) rotate(45)" fill="none" stroke="#ee3232" stroke-linecap="round" stroke-width="1.7"/>
  </g>
</svg>
