<svg xmlns="http://www.w3.org/2000/svg" width="27.405" height="24.865" viewBox="0 0 27.405 24.865">
  <g id="Group_1577" data-name="Group 1577" transform="translate(-1387 -404)">
    <path id="Path_4590" data-name="Path 4590" d="M423.622,153.811a3.812,3.812,0,1,1-1.117-2.694A3.806,3.806,0,0,1,423.622,153.811Z" transform="translate(989.784 255)" fill="none" stroke="#2f779c" stroke-width="2"/>
    <path id="Path_4591" data-name="Path 4591" d="M407.68,158.557l10.975-4.217" transform="translate(987.535 256.173)" fill="rgba(0,0,0,0)" stroke="#2f779c" stroke-width="2"/>
    <path id="Path_4592" data-name="Path 4592" d="M409.622,159.811a3.812,3.812,0,1,1-1.117-2.694A3.806,3.806,0,0,1,409.622,159.811Z" transform="translate(986 256.622)" fill="none" stroke="#2f779c" stroke-width="2"/>
    <path id="Path_4593" data-name="Path 4593" d="M423.622,165.811a3.812,3.812,0,1,1-1.117-2.694A3.806,3.806,0,0,1,423.622,165.811Z" transform="translate(989.784 258.243)" fill="none" stroke="#2f779c" stroke-width="2"/>
    <path id="Path_4594" data-name="Path 4594" d="M418.569,164.514,408,160.5" transform="translate(987.622 257.838)" fill="rgba(0,0,0,0)" stroke="#2f779c" stroke-width="2"/>
  </g>
</svg>
