<svg xmlns="http://www.w3.org/2000/svg" width="63.674" height="48.42" viewBox="0 0 63.674 48.42">
  <g id="Group_1571" data-name="Group 1571" transform="translate(-1.003 -1)">
    <path id="Subtraction_15" data-name="Subtraction 15" d="M-7383.769,7423.813a1.325,1.325,0,0,1-.639-.165l-6.146-3.548a1.347,1.347,0,0,1-.492-1.837,1.35,1.35,0,0,1,1.166-.672,1.336,1.336,0,0,1,.413.065l.3.138,4.905,2.829.463-.983a29.327,29.327,0,0,0,2.768-12.72,29.288,29.288,0,0,0-3.052-12.7,1.35,1.35,0,0,1,.6-1.805,1.344,1.344,0,0,1,.6-.142,1.34,1.34,0,0,1,1.205.746,31.73,31.73,0,0,1-.921,30.122A1.355,1.355,0,0,1-7383.769,7423.813Zm-52.8-.006a1.357,1.357,0,0,1-.673-.177,1.331,1.331,0,0,1-.506-.5,31.859,31.859,0,0,1,5.07-38.411,31.642,31.642,0,0,1,22.521-9.325,31.955,31.955,0,0,1,14.243,3.368,1.336,1.336,0,0,1,.673.778,1.338,1.338,0,0,1-.073,1.027,1.342,1.342,0,0,1-1.206.742,1.344,1.344,0,0,1-.6-.142,28.933,28.933,0,0,0-10.627-2.984l-1.084-.089,0,5.7a1.347,1.347,0,0,1-1.345,1.345,1.35,1.35,0,0,1-1.316-1.063l-.03-.327,0-5.657-1.084.092a29.072,29.072,0,0,0-9.713,2.547,29.021,29.021,0,0,0-8.461,5.888,29.314,29.314,0,0,0-3.332,3.982l-.622.893,4.922,2.839a1.33,1.33,0,0,1,.628.816,1.343,1.343,0,0,1-.134,1.021,1.352,1.352,0,0,1-1.168.672,1.331,1.331,0,0,1-.411-.065l-.3-.138-4.883-2.818-.461.983a29.38,29.38,0,0,0-2.779,12.361,29.243,29.243,0,0,0,2.771,12.472l.463.983,4.928-2.84a1.338,1.338,0,0,1,.669-.179,1.352,1.352,0,0,1,1.168.672,1.35,1.35,0,0,1-.264,1.671l-.267.188-6.055,3.495A1.338,1.338,0,0,1-7436.565,7423.807Zm26.4-10.55a5.989,5.989,0,0,1-4.267-1.768,6.041,6.041,0,0,1,0-8.532,5.835,5.835,0,0,1,.682-.589l23.9-17.317a1.355,1.355,0,0,1,.792-.279,1.428,1.428,0,0,1,1.222.792,1.243,1.243,0,0,1-.137,1.366l-17.3,23.832a5.909,5.909,0,0,1-.622.727A5.994,5.994,0,0,1-7410.169,7413.257Zm9.96-17.387-11.98,8.686-.32.276-.026.024a3.32,3.32,0,0,0-.979,2.367,3.318,3.318,0,0,0,.979,2.363,3.316,3.316,0,0,0,2.366.981,3.317,3.317,0,0,0,2.366-.981l.028-.026.3-.346,8.667-11.947-1.4-1.4Z" transform="translate(7442.999 -7374.393)" fill="#2f779c"/>
  </g>
</svg>
