<svg xmlns="http://www.w3.org/2000/svg" width="77.328" height="40.192" viewBox="0 0 77.328 40.192">
  <path id="Subtraction_19" data-name="Subtraction 19" d="M-7087.1,9269.192a8.2,8.2,0,0,1-7.454-4.895,2.548,2.548,0,0,0-2.734-1.819h-.165a6.252,6.252,0,0,1-6.437-5.818,32.075,32.075,0,0,1-.1-3.715l0-.219v-.04c0-.485.007-.986,0-1.478a6.6,6.6,0,0,1,4.274-6.633l.027-.012c1.511-.678,3.392-1.521,5.187-2.382a2.918,2.918,0,0,0,1.14-1.008c1.583-2.473,3.223-5.076,5.011-7.959a8.278,8.278,0,0,1,7.517-4.209c3.07-.006,6.4-.009,10.788-.009,5.077,0,9.1,0,12.305.007a8.468,8.468,0,0,1,7.159,3.578c.978,1.3,2.012,2.65,2.924,3.843l.182.238.433.565.15.2c.889,1.163,1.808,2.366,2.7,3.551a2.8,2.8,0,0,0,1.6,1.1c2.107.561,4.186,1.128,6.491,1.759l.882.24.729.2c.881.24,1.77.482,2.65.721a7.048,7.048,0,0,1,3.655,2.238,8.213,8.213,0,0,1,1.508,3.313v6.058a.708.708,0,0,0-.07.21,6.5,6.5,0,0,1-6.6,5.7c-.067,0-.144,0-.256,0h-.063a1.132,1.132,0,0,0-1.147.912,8.364,8.364,0,0,1-7.971,5.763h-.021a8.346,8.346,0,0,1-7.929-5.744,1.2,1.2,0,0,0-1.258-.933c-5.094.008-9.227.012-13.008.012-3.545,0-7.6,0-12.77-.012a1.189,1.189,0,0,0-1.263.928,8.4,8.4,0,0,1-7.645,5.744C-7086.809,9269.188-7086.952,9269.192-7087.1,9269.192Zm44.322-14.624a6.24,6.24,0,0,0-6.188,6.156,6.027,6.027,0,0,0,1.756,4.317,6.207,6.207,0,0,0,4.414,1.885h.042a6.213,6.213,0,0,0,6.184-6.145,6.093,6.093,0,0,0-1.787-4.346,6.164,6.164,0,0,0-4.388-1.868Zm-44.213,0a6.247,6.247,0,0,0-6.191,6.148,6.009,6.009,0,0,0,1.745,4.313,6.218,6.218,0,0,0,4.42,1.9h.051a6.221,6.221,0,0,0,6.182-6.138,6.048,6.048,0,0,0-1.773-4.336,6.181,6.181,0,0,0-4.395-1.885Zm6.477-23.375a6.681,6.681,0,0,0-6.175,3.477c-1.855,3.116-3.823,6.175-5.142,8.205a3.3,3.3,0,0,1-1.251,1.084c-1.408.7-2.833,1.34-4.416,2.05l-.54.244-.923.417a4.433,4.433,0,0,0-2.815,4.364c.009.833.007,1.673,0,2.485v.088c0,.727,0,1.479,0,2.243a4.471,4.471,0,0,0,1.242,3.2,4.484,4.484,0,0,0,3.189,1.259c.166,0,.34,0,.547,0h1.371l.06-.431a8.452,8.452,0,0,1,8.168-7.5h.182a8.433,8.433,0,0,1,8.41,7.461l.067.419h27.323l.063-.426a8.491,8.491,0,0,1,3.571-5.944,8.08,8.08,0,0,1,4.709-1.517c.125,0,.251,0,.376.009a8.428,8.428,0,0,1,8.092,7.4l.053.331.326.076a4.1,4.1,0,0,0,.931.109,4.188,4.188,0,0,0,2.843-1.126,4.123,4.123,0,0,0,1.331-2.836c.1-1.944.058-3.86.009-5.313a4.091,4.091,0,0,0-3.167-3.795c-1.717-.493-3.472-.973-5.169-1.436l-.1-.026-.38-.1c-.384-.1-.767-.209-1.151-.313l-.374-.1-.488-.134-.338-.093-.635-.175c-1.019-.284-2.1-.584-3.166-.845a2.751,2.751,0,0,1-1.629-1.1c-.857-1.141-1.741-2.293-2.6-3.406l-.073-.094-.063-.083-.244-.317c-1.182-1.543-2.4-3.138-3.582-4.743a7.118,7.118,0,0,0-6.1-3.062h-.049c-4.006.019-7.814.028-11.316.028-3.528,0-7.205-.01-10.928-.03l-.062,0Z" transform="translate(7104 -9229)" fill="#2f779c"/>
</svg>
