<svg xmlns="http://www.w3.org/2000/svg" width="58.23" height="49.215" viewBox="0 0 58.23 49.215">
  <path id="Subtraction_9" data-name="Subtraction 9" d="M-7073.937,9279.416h-34.03c-4.814,0-7.811-2.983-7.82-7.78,0-1.616,0-3.258,0-4.8V9265.7c.007-3.2.014-6.517-.016-9.776a13.845,13.845,0,0,1,3.517-9.5c1.769-2.057,3.555-4.172,5.537-6.524l.549-.65c1.219-1.443,2.411-2.854,3.6-4.241a13.2,13.2,0,0,1,10.457-4.8c3.41,0,7.2-.007,12.283-.007,3.566,0,7.485,0,13.1,0h1.484c4.667,0,7.687,3.021,7.694,7.691.013,10.521.013,21.588,0,33.834-.007,4.664-3.031,7.68-7.706,7.683Q-7069.611,9279.417-7073.937,9279.416Zm-39.269-27.158-.079,1.016c-.021.3-.051.607-.077.871v.006c-.059.62-.114,1.206-.116,1.82-.014,4.6-.012,9.205-.009,13.659l0,1.952c0,3.577,1.906,5.47,5.506,5.472l10.651,0h21.3l10.647,0c3.6,0,5.5-1.9,5.5-5.479,0-4.064,0-8.151,0-12.147v-7.17Zm21.288-19.709a12,12,0,0,0-5.129,1.078,11.985,11.985,0,0,0-4.107,3.25c-1.819,2.189-3.688,4.392-5.6,6.644l-.248.292c-.782.92-1.547,1.821-2.305,2.72-.245.288-.481.573-.754.9l-.021.025c-.143.17-.274.329-.441.533l-1.5,1.8h52.146v-4.389c0-2.525,0-4.937,0-7.372,0-3.578-1.91-5.47-5.509-5.47h-1.25c-2.308,0-4.694,0-7.042,0h-7.042c-4.4,0-7.929-.008-11.116-.023l-.08,0Z" transform="translate(7115.8 -9230.201)" fill="#2f779c"/>
</svg>
