<svg xmlns="http://www.w3.org/2000/svg" width="64.793" height="34.031" viewBox="0 0 64.793 34.031">
  <path id="Subtraction_11" data-name="Subtraction 11" d="M-7053.158,9263.732l0-.561c-9.44-.009-19.812-.014-30.83-.014-10.587,0-20.9,0-30.66.014-1.046,0-1.416-.334-1.648-.837v-.565c.289-.708.578-1.439.826-2.069l.033-.084c.619-1.558,1.258-3.168,1.969-4.7A45.184,45.184,0,0,1-7103,9240.264a39.1,39.1,0,0,1,17.63-9.2,54.109,54.109,0,0,1,12.607-1.354h10.375c2.479,0,5.768,0,9.231-.016h.021c1.028,0,1.4.335,1.63.839v31.792c-.239.5-.611.84-1.651.84v.561Zm-18.475-31.8a62.926,62.926,0,0,0-9.477.564,38.935,38.935,0,0,0-15.561,5.664,36.94,36.94,0,0,0-7.306,6.186,41.975,41.975,0,0,0-5.541,7.754c-.944,1.687-1.785,3.438-2.6,5.13l-.036.074-.04.084c-.355.737-.723,1.5-1.1,2.255l-.528,1.063,1.176.158c.12.016.213.029.284.042l.011,0a2.124,2.124,0,0,0,.322.03l.805,0h.818q1.3,0,2.606,0c1.776,0,3.257-.006,4.8-.019a2.273,2.273,0,0,0,1.4-.637,39.2,39.2,0,0,1,19.88-10.05c.58-.111,1.19-.225,1.921-.355l.314-.058.6-.11.695-.128v-7.1l-1.42,1.281-.242.221-.068.063c-.109.1-.2.184-.292.261a1.205,1.205,0,0,1-.774.283,1.075,1.075,0,0,1-.777-.32,1.081,1.081,0,0,1-.04-1.468c1.339-1.4,2.706-2.758,4.06-4.048a.987.987,0,0,1,.681-.276.992.992,0,0,1,.688.281c1.382,1.323,2.748,2.687,4.06,4.051a1.034,1.034,0,0,1-.042,1.46,1.061,1.061,0,0,1-.776.323,1.182,1.182,0,0,1-.765-.284c-.1-.086-.2-.183-.318-.3l-.023-.022c-.067-.065-.14-.135-.219-.209l-1.435-1.349v6.8h22.129v-17.3h-6.354l-4.679,0c-2.008,0-3.726,0-5.309,0h-1.53Zm10.558,19.521h-.021c-4.29,0-8.726.01-13.088.109a40.878,40.878,0,0,0-15.851,3.576,34.541,34.541,0,0,0-7.089,4.246l-1.969,1.522h45.343v-9.356l-.768-.074-.037,0-.018,0a.508.508,0,0,1-.055-.008l-.042,0a2.613,2.613,0,0,0-.274-.019h-.009c-1.873.01-3.781.012-5.626.014h-.5Z" transform="translate(7116.299 -9229.701)" fill="#2f779c"/>
</svg>
