<svg xmlns="http://www.w3.org/2000/svg" width="51.434" height="55.303" viewBox="0 0 51.434 55.303">
  <g id="Group_1585" data-name="Group 1585" transform="translate(-1233 -2254.201)">
    <g id="Path_6529" data-name="Path 6529" transform="translate(1233 2266.234)" fill="none">
      <path d="M11.43,0H40a8.164,8.164,0,0,1,8.164,8.164l3.266,26.942A8.164,8.164,0,0,1,43.27,43.27H8.164A8.164,8.164,0,0,1,0,35.106L3.266,8.164A8.164,8.164,0,0,1,11.43,0Z" stroke="none"/>
      <path d="M 11.42981338500977 2.499996185302734 C 8.306594848632812 2.499996185302734 5.765663146972656 5.040927886962891 5.765663146972656 8.164157867431641 L 5.765663146972656 8.315116882324219 L 2.501636505126953 35.24324035644531 C 2.574871063232422 38.30323028564453 5.086864471435547 40.77001953125 8.164154052734375 40.77001953125 L 43.27001571655273 40.77001953125 C 46.34729385375977 40.77001953125 48.85928726196289 38.30323028564453 48.93252182006836 35.24324035644531 L 45.66850280761719 8.315116882324219 L 45.66850280761719 8.164157867431641 C 45.66850280761719 5.040927886962891 43.1275749206543 2.499996185302734 40.00435638427734 2.499996185302734 L 11.42981338500977 2.499996185302734 M 11.42981338500977 -3.814697265625e-06 L 40.00435638427734 -3.814697265625e-06 C 44.5132942199707 -3.814697265625e-06 48.16850662231445 3.655216217041016 48.16850662231445 8.164157867431641 L 51.43416595458984 35.10585784912109 C 51.43416595458984 39.61479949951172 47.77895355224609 43.27001953125 43.27001571655273 43.27001953125 L 8.164154052734375 43.27001953125 C 3.655216217041016 43.27001953125 -3.814697265625e-06 39.61479949951172 -3.814697265625e-06 35.10585784912109 L 3.265663146972656 8.164157867431641 C 3.265663146972656 3.655216217041016 6.920875549316406 -3.814697265625e-06 11.42981338500977 -3.814697265625e-06 Z" stroke="none" fill="#2f779c"/>
    </g>
    <g id="Ellipse_645" data-name="Ellipse 645" transform="translate(1252.143 2254.201)" fill="none" stroke="#2f779c" stroke-width="2.5">
      <circle cx="6.913" cy="6.913" r="6.913" stroke="none"/>
      <circle cx="6.913" cy="6.913" r="5.663" fill="none"/>
    </g>
    <path id="Path_6530" data-name="Path 6530" d="M3.451-1.044v-8.43H.544v-1.744h7.79v1.744H5.34v8.43ZM14.293-.9a5.144,5.144,0,0,1-2.02-.392,4.919,4.919,0,0,1-1.621-1.1A4.933,4.933,0,0,1,9.584-4.052a5.661,5.661,0,0,1-.378-2.093,5.661,5.661,0,0,1,.378-2.093A4.933,4.933,0,0,1,10.652-9.9,4.919,4.919,0,0,1,12.273-11a5.144,5.144,0,0,1,2.02-.392A5.182,5.182,0,0,1,16.328-11a4.788,4.788,0,0,1,1.613,1.1A5.09,5.09,0,0,1,19-8.231a5.6,5.6,0,0,1,.378,2.086A5.62,5.62,0,0,1,19-4.067,5.072,5.072,0,0,1,17.941-2.4a4.788,4.788,0,0,1-1.613,1.1A5.182,5.182,0,0,1,14.293-.9Zm0-1.8a3.105,3.105,0,0,0,1.272-.254,2.888,2.888,0,0,0,1-.727,3.53,3.53,0,0,0,.661-1.1,3.783,3.783,0,0,0,.24-1.366,3.783,3.783,0,0,0-.24-1.366,3.53,3.53,0,0,0-.661-1.1,2.888,2.888,0,0,0-1-.727,3.105,3.105,0,0,0-1.272-.254,3.12,3.12,0,0,0-1.264.254,2.913,2.913,0,0,0-1,.719,3.337,3.337,0,0,0-.654,1.09,3.932,3.932,0,0,0-.233,1.381,3.949,3.949,0,0,0,.233,1.373,3.322,3.322,0,0,0,.654,1.1,2.913,2.913,0,0,0,1,.719A3.12,3.12,0,0,0,14.293-2.7Zm7.281,1.657V-11.218h1.7l5.9,7.95-.32.058q-.058-.407-.1-.836t-.08-.894q-.036-.465-.058-.974t-.036-1.068q-.015-.56-.015-1.184v-3.052H30.44V-1.044H28.71l-5.93-7.834.378-.1q.073.814.124,1.388t.08.988q.029.414.051.69t.029.5q.007.225.007.429v3.939Z" transform="translate(1243.225 2294.015)" fill="#2f779c"/>
  </g>
</svg>
