<svg xmlns="http://www.w3.org/2000/svg" width="26.382" height="21.814" viewBox="0 0 26.382 21.814">
  <g id="Group_5" data-name="Group 5" transform="translate(-50.932 -13.092)">
    <path id="Subtraction_39" data-name="Subtraction 39" d="M-4483.278,8127.814h-22.812a.642.642,0,0,1-.641-.641.642.642,0,0,1,.641-.641h1.64v-10.125h-.853a2.588,2.588,0,0,1-2.3-1.39,2.275,2.275,0,0,1,.143-2.4l0-.006a4.9,4.9,0,0,1,1.724-1.55l8.552-4.452a5.416,5.416,0,0,1,2.493-.61,5.4,5.4,0,0,1,2.491.61l8.552,4.454a4.923,4.923,0,0,1,1.724,1.553l0,.006a2.27,2.27,0,0,1,.141,2.405,2.588,2.588,0,0,1-2.293,1.381h-.853v10.125h1.64a.642.642,0,0,1,.641.641A.642.642,0,0,1-4483.278,8127.814Zm-7.344-11.406v10.125h4.423v-10.125Zm-6.844,0v10.125h5.563v-10.125Zm-5.7,0v10.125h4.421v-10.125Zm8.484-9.127a4.144,4.144,0,0,0-1.9.463l-8.554,4.456-.01.006a3.573,3.573,0,0,0-1.25,1.136,1.02,1.02,0,0,0-.057,1.1,1.322,1.322,0,0,0,1.154.682h21.233a1.314,1.314,0,0,0,1.153-.68,1.022,1.022,0,0,0-.053-1.105,3.6,3.6,0,0,0-1.252-1.138l-8.564-4.46A4.132,4.132,0,0,0-4494.684,8107.281Z" transform="translate(4558.807 -8092.908)" fill="#4e1f4f"/>
  </g>
</svg>
