<svg xmlns="http://www.w3.org/2000/svg" width="26.383" height="21.814" viewBox="0 0 26.383 21.814">
  <path id="Subtraction_1" data-name="Subtraction 1" d="M-16568.4,8898.814h-22.814a.642.642,0,0,1-.641-.642.639.639,0,0,1,.641-.637h1.641v-10.129h-.854a2.6,2.6,0,0,1-2.3-1.387,2.276,2.276,0,0,1,.146-2.4l0-.009a4.953,4.953,0,0,1,1.725-1.549l8.549-4.452a5.486,5.486,0,0,1,2.494-.608,5.46,5.46,0,0,1,2.492.608l8.553,4.456a4.949,4.949,0,0,1,1.725,1.549l0,.009a2.272,2.272,0,0,1,.148,2.407,2.6,2.6,0,0,1-2.295,1.378h-.854v10.129h1.641a.639.639,0,0,1,.641.637A.642.642,0,0,1-16568.4,8898.814Zm-7.348-11.407h0v10.129h4.428v-10.129Zm-6.842,0h0v10.129h5.564v-10.129Zm-5.7,0h0v10.129h4.418v-10.129Zm8.482-9.128a4.156,4.156,0,0,0-1.9.466l-8.555,4.456-.008,0a3.663,3.663,0,0,0-1.254,1.137,1.008,1.008,0,0,0-.053,1.1,1.308,1.308,0,0,0,1.15.683h21.238a1.3,1.3,0,0,0,1.148-.683,1.011,1.011,0,0,0-.049-1.1,3.6,3.6,0,0,0-1.254-1.137l-8.566-4.465A4.191,4.191,0,0,0-16579.807,8878.279Z" transform="translate(16592.998 -8877)" fill="#2f779c"/>
</svg>
