<svg xmlns="http://www.w3.org/2000/svg" xmlns:xlink="http://www.w3.org/1999/xlink" width="20.605" height="20.605" viewBox="0 0 20.605 20.605">
  <defs>
    <clipPath id="clip-path">
      <rect id="Rectangle_1943" data-name="Rectangle 1943" width="20.605" height="20.605" transform="translate(331 833)" fill="#fff"/>
    </clipPath>
  </defs>
  <g id="Mask_Group_13" data-name="Mask Group 13" transform="translate(-331 -833)" clip-path="url(#clip-path)">
    <path id="Path_5318" data-name="Path 5318" d="M475.89,1078.045a19.2,19.2,0,0,0,2.111,1.893,2.021,2.021,0,0,0,1.148.417,2.074,2.074,0,0,0,1.181-.312l.5-.312a2.119,2.119,0,0,1,1.232-.369,2.155,2.155,0,0,1,1.211.436l2.348,1.894a1.006,1.006,0,0,1,.274.322,1.062,1.062,0,0,1,.116.416,1.043,1.043,0,0,1-.063.426,1.067,1.067,0,0,1-.231.36h0a6.173,6.173,0,0,1-7.044,1.184,20.178,20.178,0,0,1-9.051-9.042,6.166,6.166,0,0,1,1.174-7.053h0a1.079,1.079,0,0,1,.359-.237,1.062,1.062,0,0,1,.422-.066,1.045,1.045,0,0,1,.413.114,1.023,1.023,0,0,1,.33.275l1.894,2.357a2.051,2.051,0,0,1,.133,2.357l-.369.578a2.037,2.037,0,0,0-.315,1.174,2.065,2.065,0,0,0,.41,1.155,20.309,20.309,0,0,0,1.846,2.121Z" transform="translate(-136.204 -233.203)" fill="none" stroke="#fff" stroke-linejoin="round" stroke-width="1"/>
  </g>
</svg>
