<svg xmlns="http://www.w3.org/2000/svg" width="28.568" height="26.126" viewBox="0 0 28.568 26.126">
  <g id="Group_4" data-name="Group 4" transform="translate(-301.717 -714.122)">
    <g id="Group_2087" data-name="Group 2087" transform="translate(251.879 703)">
      <g id="noun-credit-card-5258383" transform="translate(-23.3 -20.88)">
        <path id="Path_6884" data-name="Path 6884" d="M100.539,58.128H80.892a2.142,2.142,0,0,1-2.138-2.142v-11.1a2.143,2.143,0,0,1,1.921-2.132,2.145,2.145,0,0,1,1.179-2.583L99.8,32.186a2.148,2.148,0,0,1,2.826,1.082l4.514,10.146a2.147,2.147,0,0,1-1.083,2.822l-3.38,1.5v8.247a2.142,2.142,0,0,1-2.137,2.142ZM80.892,43.663a1.22,1.22,0,0,0-1.216,1.221v11.1a1.219,1.219,0,0,0,1.216,1.22h19.648a1.22,1.22,0,0,0,1.215-1.22v-11.1a1.219,1.219,0,0,0-1.215-1.221Zm21.785,1.221v1.846l3.007-1.338a1.215,1.215,0,0,0,.615-1.6l-2.6-5.845-10.785,4.8h7.625a2.142,2.142,0,0,1,2.137,2.142ZM87.441,42.742h3.207L103.325,37.1l-.53-1.192Zm-5.779,0h3.512l17.246-7.675-.635-1.424a1.223,1.223,0,0,0-1.61-.615L82.229,41.012a1.236,1.236,0,0,0-.567,1.73Zm18,12.011H81.771a.461.461,0,0,1,0-.922H99.66a.461.461,0,0,1,0,.922ZM84.9,49.825H82.181a.872.872,0,0,1-.871-.871V46.239a.872.872,0,0,1,.871-.871H84.9a.872.872,0,0,1,.871.871v2.715a.872.872,0,0,1-.871.871ZM82.232,48.9h2.613V46.29H82.232Zm17.428-.149h0a.461.461,0,0,1-.461-.461V46.9a.461.461,0,1,1,.922,0v1.393a.461.461,0,0,1-.461.461Zm-2.035,0h0a.461.461,0,0,1-.461-.461V46.9a.461.461,0,0,1,.922,0v1.393a.461.461,0,0,1-.461.461Z" transform="translate(-5.616)" fill="#4e1f4f"/>
      </g>
    </g>
  </g>
</svg>
