<svg id="facebook-2020-2-1_1_" data-name="facebook-2020-2-1 (1)" xmlns="http://www.w3.org/2000/svg" width="17.682" height="17.682" viewBox="0 0 17.682 17.682">
  <path id="Subtraction_4" data-name="Subtraction 4" d="M8.841,17.682c-.151,0-.3,0-.455-.011s-.3-.019-.449-.034-.3-.034-.442-.056-.292-.048-.435-.078-.287-.062-.428-.1-.282-.076-.42-.119-.276-.089-.411-.139-.27-.1-.4-.158-.263-.115-.392-.177-.256-.127-.381-.2-.249-.139-.37-.213-.241-.151-.359-.23-.234-.162-.347-.247-.225-.173-.334-.262S3,15.48,2.9,15.386s-.207-.193-.307-.293-.2-.2-.293-.307-.188-.212-.278-.321-.178-.221-.262-.334-.168-.23-.246-.347-.156-.238-.23-.359-.145-.246-.213-.37-.134-.253-.2-.381-.121-.26-.177-.392-.109-.267-.158-.4S.44,11.608.4,11.47s-.083-.279-.119-.42-.07-.285-.1-.428-.056-.29-.078-.435-.041-.3-.056-.442S.019,9.446.012,9.3,0,8.992,0,8.841s0-.3.012-.455.019-.3.034-.449.034-.3.056-.442S.15,7.2.18,7.059s.062-.287.1-.428S.355,6.35.4,6.212s.09-.276.139-.411.1-.27.158-.4.115-.263.177-.392.127-.256.2-.381.139-.249.213-.37.151-.242.23-.359.162-.233.246-.347.173-.225.262-.334S2.2,3,2.3,2.9s.193-.208.293-.307.2-.2.307-.293.212-.188.321-.278.221-.178.334-.262.23-.168.347-.246.238-.157.359-.23.246-.145.37-.213.253-.134.381-.2S5.269.75,5.4.695s.267-.109.4-.158S6.075.44,6.212.4s.279-.083.42-.119.285-.07.428-.1S7.349.124,7.495.1,7.79.061,7.937.046s.3-.027.449-.034S8.69,0,8.841,0s.3,0,.455.011.3.019.449.034.3.034.442.056.292.048.435.078.287.062.428.1.281.076.42.119.276.089.411.139.27.1.4.158.263.115.392.177.256.127.381.2.249.139.37.213.242.151.359.23.234.162.347.246.225.173.334.262.217.183.321.278.208.193.307.293.2.2.293.307.188.212.278.321.178.221.262.334.167.23.247.347.157.238.23.359.145.246.213.37.134.253.2.381.122.26.177.392.109.267.158.4.1.273.139.411.083.279.119.42.07.285.1.428.056.29.078.435.041.3.056.442.027.3.034.449.011.3.011.455,0,.3-.011.455-.019.3-.034.449-.034.3-.056.442-.048.292-.078.435-.062.287-.1.428-.076.281-.119.42-.09.276-.139.411-.1.269-.158.4-.115.263-.177.392-.127.256-.2.381-.139.249-.213.37-.151.242-.23.359-.162.234-.247.347-.173.225-.262.334-.183.216-.278.321-.193.207-.293.307-.2.2-.307.293-.212.188-.321.278-.221.178-.334.262-.23.167-.347.247-.238.157-.359.23-.246.145-.37.213-.253.133-.381.2-.26.122-.392.177-.267.109-.4.158-.273.1-.411.139-.279.083-.42.119-.285.07-.428.1-.29.056-.435.078-.3.041-.442.056-.3.027-.449.034S8.993,17.682,8.841,17.682ZM7.1,10.779v6.732c.14.028.283.053.425.074s.288.039.431.054.292.025.438.033.3.011.443.011c.1,0,.193,0,.288,0s.192-.008.288-.014.192-.014.287-.023.191-.02.286-.032V10.779h1.925l.255-2.4H9.99l0-1.2c0-.092,0-.16,0-.221a1.711,1.711,0,0,1,.019-.194c0-.03.011-.059.018-.086a.727.727,0,0,1,.025-.079.572.572,0,0,1,.033-.072.488.488,0,0,1,.043-.065.467.467,0,0,1,.053-.057.5.5,0,0,1,.065-.05.607.607,0,0,1,.078-.042.792.792,0,0,1,.092-.035,1.088,1.088,0,0,1,.107-.027c.038-.008.08-.014.123-.019s.091-.009.141-.012.1,0,.159,0h1.2v-2.4H10.231c-.072,0-.143,0-.212,0s-.138.006-.2.01-.132.01-.2.017-.126.015-.187.024-.121.019-.179.03-.115.023-.17.037-.11.028-.162.043-.1.032-.155.049-.1.036-.147.056-.094.04-.139.062-.089.044-.132.068-.084.048-.124.074-.079.053-.117.08-.074.056-.11.086-.07.06-.1.092-.065.064-.1.1-.06.068-.089.1-.056.072-.082.109-.052.076-.076.115-.047.079-.069.12-.043.083-.063.126-.039.086-.057.131-.035.09-.051.137-.031.094-.045.142-.027.1-.039.147-.023.1-.034.152-.02.1-.028.157-.016.107-.023.162c-.013.108-.023.222-.03.339s-.01.235-.01.358V8.376H5.662v2.4Z" transform="translate(0)" fill="#fff"/>
</svg>
