<svg xmlns="http://www.w3.org/2000/svg" width="17.538" height="17.539" viewBox="0 0 17.538 17.539">
  <path id="instagram-glyph-1" d="M5.847,8.769a2.923,2.923,0,1,1,2.923,2.923A2.923,2.923,0,0,1,5.847,8.769m-1.58,0a4.5,4.5,0,1,0,4.5-4.5,4.5,4.5,0,0,0-4.5,4.5M12.4,4.088a1.053,1.053,0,1,0,1.053-1.052A1.053,1.053,0,0,0,12.4,4.088M5.226,15.907a4.844,4.844,0,0,1-1.628-.3,2.728,2.728,0,0,1-1.009-.656,2.71,2.71,0,0,1-.656-1.008,4.844,4.844,0,0,1-.3-1.628c-.043-.924-.051-1.2-.051-3.544s.009-2.619.051-3.544a4.867,4.867,0,0,1,.3-1.628,2.728,2.728,0,0,1,.656-1.009A2.707,2.707,0,0,1,3.6,1.932a4.844,4.844,0,0,1,1.628-.3c.924-.043,1.2-.051,3.543-.051s2.619.009,3.544.051a4.867,4.867,0,0,1,1.628.3,2.719,2.719,0,0,1,1.009.656A2.722,2.722,0,0,1,15.606,3.6a4.844,4.844,0,0,1,.3,1.628c.043.925.051,1.2.051,3.544s-.009,2.619-.051,3.544a4.862,4.862,0,0,1-.3,1.628,2.9,2.9,0,0,1-1.665,1.664,4.844,4.844,0,0,1-1.628.3c-.924.043-1.2.051-3.544.051s-2.619-.008-3.543-.051M5.154.053A6.432,6.432,0,0,0,3.025.46,4.3,4.3,0,0,0,1.472,1.472,4.291,4.291,0,0,0,.46,3.025,6.432,6.432,0,0,0,.053,5.154C.01,6.089,0,6.388,0,8.769s.01,2.68.053,3.615A6.432,6.432,0,0,0,.46,14.513a4.288,4.288,0,0,0,1.012,1.553,4.3,4.3,0,0,0,1.553,1.012,6.436,6.436,0,0,0,2.129.407c.936.043,1.234.053,3.615.053s2.68-.01,3.615-.053a6.432,6.432,0,0,0,2.129-.407,4.484,4.484,0,0,0,2.565-2.565,6.414,6.414,0,0,0,.407-2.129c.043-.936.052-1.234.052-3.615s-.01-2.68-.052-3.615a6.432,6.432,0,0,0-.407-2.129,4.312,4.312,0,0,0-1.012-1.553A4.3,4.3,0,0,0,14.514.46,6.422,6.422,0,0,0,12.385.053C11.45.011,11.151,0,8.77,0S6.09.01,5.154.053" fill="#fff"/>
</svg>
