<svg width="28" height="27" viewBox="0 0 28 27" fill="none" xmlns="http://www.w3.org/2000/svg">
<path d="M14 9.27688C11.42 9.27688 9.34 11.18 9.34 13.5C9.34 15.82 11.44 17.7231 14 17.7231C16.56 17.7231 18.66 15.82 18.66 13.5C18.66 11.18 16.56 9.27688 14 9.27688ZM28 13.5C28 11.7419 28 10.02 27.9 8.26188C27.8 6.23188 27.28 4.41938 25.64 2.95125C24 1.465 22.02 0.99375 19.78 0.903125C17.84 0.8125 15.94 0.8125 14 0.8125C12.06 0.8125 10.16 0.8125 8.22 0.903125C5.98 0.99375 3.98 1.465 2.36 2.95125C0.72 4.4375 0.2 6.23188 0.0999999 8.26188C-9.68575e-08 10.02 0 11.7419 0 13.5C0 15.2581 -9.68575e-08 16.98 0.0999999 18.7381C0.2 20.7681 0.72 22.5806 2.36 24.0487C4 25.535 5.98 26.0063 8.22 26.0969C10.16 26.1875 12.06 26.1875 14 26.1875C15.94 26.1875 17.84 26.1875 19.78 26.0969C22.02 26.0063 24.02 25.535 25.64 24.0487C27.28 22.5625 27.8 20.7681 27.9 18.7381C28.02 16.9981 28 15.2581 28 13.5ZM14 20.0069C10.02 20.0069 6.82 17.1069 6.82 13.5C6.82 9.89312 10.02 6.99312 14 6.99312C17.98 6.99312 21.18 9.89312 21.18 13.5C21.18 17.1069 17.98 20.0069 14 20.0069ZM21.48 8.24375C20.56 8.24375 19.8 7.57313 19.8 6.72125C19.8 5.86938 20.54 5.19875 21.48 5.19875C22.42 5.19875 23.16 5.86938 23.16 6.72125C23.1651 6.91979 23.1251 7.11715 23.0425 7.3011C22.9599 7.48505 22.8365 7.65167 22.68 7.79062C22.5267 7.9325 22.3428 8.04431 22.1398 8.11914C21.9368 8.19397 21.7191 8.23021 21.5 8.22563L21.48 8.24375Z" fill="#E0E0E0"/>
</svg>
