<svg id="linkedin-icon-2" xmlns="http://www.w3.org/2000/svg" width="16.677" height="16.675" viewBox="0 0 16.677 16.675">
  <path id="Subtraction_5" data-name="Subtraction 5" d="M15.445,16.675H1.231A1.215,1.215,0,0,1,0,15.481V1.195A1.215,1.215,0,0,1,1.231,0H15.445a1.215,1.215,0,0,1,1.231,1.195V15.481A1.215,1.215,0,0,1,15.445,16.675ZM8.945,6.449h-2.5c.034.693,0,7.45,0,7.506h2.5V9.763a1.813,1.813,0,0,1,.08-.608,1.381,1.381,0,0,1,1.284-.912c.825,0,1.263.586,1.263,1.7v4.015h2.495v-4.3c0-2.117-1.074-3.38-2.872-3.38a2.489,2.489,0,0,0-2.249,1.24Zm-6.374,0h0v7.506h2.5V6.449Zm1.266-3.62A1.3,1.3,0,1,0,3.8,5.423h.017a1.3,1.3,0,1,0,.017-2.594Z" transform="translate(0 0)" fill="#fff"/>
</svg>
