<svg width="24" height="24" viewBox="0 0 24 24" fill="none" xmlns="http://www.w3.org/2000/svg">
<path fill-rule="evenodd" clip-rule="evenodd" d="M15 0.333374C15.7957 0.333374 16.5587 0.579207 17.1213 1.01679C17.6839 1.45438 18 2.04787 18 2.66671C18.0008 3.47301 18.359 4.25444 19.0142 4.87925C19.6695 5.50407 20.5816 5.93405 21.597 6.09671C22.3767 6.21986 23.0616 6.57888 23.501 7.09479C23.9404 7.6107 24.0983 8.24125 23.94 8.84771C23.7817 9.45417 23.3201 9.98687 22.6568 10.3286C21.9934 10.6704 21.1827 10.7932 20.403 10.67C19.5724 10.5386 18.7655 10.329 18 10.0459V16.6667C17.9999 17.976 17.5278 19.259 16.6371 20.37C15.7465 21.481 14.4731 22.3755 12.9616 22.9518C11.4501 23.5281 9.76105 23.7631 8.0864 23.6302C6.41174 23.4973 4.81857 23.0018 3.48788 22.1999C2.15718 21.398 1.1423 20.322 0.558529 19.094C-0.0252468 17.8659 -0.154517 16.5352 0.185404 15.2529C0.525325 13.9706 1.32081 12.7881 2.48149 11.8398C3.64218 10.8916 5.12153 10.2155 6.7515 9.88837C7.51712 9.74476 8.32465 9.84108 8.99976 10.1565C9.67487 10.472 10.1634 10.9813 10.3599 11.5744C10.5565 12.1676 10.4452 12.7971 10.0502 13.327C9.65513 13.857 9.00801 14.2448 8.2485 14.4069C7.54526 14.552 6.93369 14.8908 6.52742 15.3602C6.12116 15.8297 5.94785 16.3979 6.0397 16.9593C6.13154 17.5206 6.4823 18.037 7.02678 18.4123C7.57127 18.7877 8.27244 18.9965 9 19C9.79565 19 10.5587 18.7542 11.1213 18.3166C11.6839 17.879 12 17.2855 12 16.6667V2.66671C12 2.04787 12.3161 1.45438 12.8787 1.01679C13.4413 0.579207 14.2044 0.333374 15 0.333374Z" fill="#E0E0E0"/>
</svg>
