<svg xmlns="http://www.w3.org/2000/svg" width="21.042" height="17.107" viewBox="0 0 21.042 17.107">
  <path id="twitter-6" d="M6.617,17.107A12.2,12.2,0,0,0,18.9,4.819q0-.28-.012-.558a8.78,8.78,0,0,0,2.153-2.236,8.6,8.6,0,0,1-2.479.68,4.334,4.334,0,0,0,1.9-2.389A8.657,8.657,0,0,1,17.72,1.364,4.321,4.321,0,0,0,10.363,5.3,12.257,12.257,0,0,1,1.464.791,4.323,4.323,0,0,0,2.8,6.556a4.284,4.284,0,0,1-1.955-.54c0,.018,0,.036,0,.055A4.319,4.319,0,0,0,4.308,10.3a4.31,4.31,0,0,1-1.95.074,4.322,4.322,0,0,0,4.033,3A8.659,8.659,0,0,1,1.03,15.227,8.764,8.764,0,0,1,0,15.167a12.217,12.217,0,0,0,6.618,1.94" fill="#fff"/>
</svg>
