<svg xmlns="http://www.w3.org/2000/svg" xmlns:xlink="http://www.w3.org/1999/xlink" width="24" height="24" viewBox="0 0 24 24">
  <defs>
    <clipPath id="clip-path">
      <rect id="Rectangle_2790" data-name="Rectangle 2790" width="24" height="24" transform="translate(22 121)" fill="#fff"/>
    </clipPath>
  </defs>
  <g id="Mask_Group_60" data-name="Mask Group 60" transform="translate(-22 -121)" clip-path="url(#clip-path)">
    <g id="Group_1994" data-name="Group 1994" transform="translate(-299.059 -2141.941)">
      <path id="Subtraction_12" data-name="Subtraction 12" d="M18.937,8.67c-.144,0-.3-.007-.483-.021a.57.57,0,0,1-.505-.524A1.767,1.767,0,0,0,15.1,7.018a1.768,1.768,0,0,0-.621,1.016c-.1.484-.283.631-.784.631H6.488a.648.648,0,0,1-.762-.611A1.78,1.78,0,0,0,5.12,7.032a1.731,1.731,0,0,0-1.107-.4H4A1.74,1.74,0,0,0,2.278,8.027c-.112.5-.284.637-.8.637H1.021a.957.957,0,0,1-.99-.715A.367.367,0,0,0,0,7.891l0-.005V3.479l0,0H0l0-.006v0a.276.276,0,0,0,.025-.052.954.954,0,0,1,.956-.707c.224,0,.441-.005.644-.005.23,0,.434,0,.624.007h.02a.509.509,0,0,0,.422-.2c.294-.344.611-.7.865-.993l.054-.061.039-.045c.216-.246.462-.524.7-.8A1.718,1.718,0,0,1,5.729,0h.006C6.743,0,7.772,0,8.658,0S10.6,0,11.71,0h0a1.782,1.782,0,0,1,1.246.484c.894.811,1.808,1.631,2.716,2.437a.756.756,0,0,0,.36.17c.547.092,1.1.18,1.639.266l.041.007.025,0c.434.07.884.141,1.329.215a1.275,1.275,0,0,1,1.1.981.223.223,0,0,0,.034.065h0v3.26a.945.945,0,0,1-.793.752A3.781,3.781,0,0,1,18.937,8.67ZM16.182,6.1A2.3,2.3,0,0,1,18.36,7.59a1.371,1.371,0,0,1,.044.154v0l0,.007a.52.52,0,0,0,.17.34.434.434,0,0,0,.235.054c.053,0,.109-.005.162-.01h0l.017,0H19c.054,0,.106-.009.154-.009.355,0,.506-.15.506-.5,0-1.053,0-1.91,0-2.7a.755.755,0,0,0-.691-.82c-.919-.148-1.989-.321-3.057-.485a1.008,1.008,0,0,1-.56-.257c-.47-.431-.953-.864-1.419-1.283l-.013-.012-.12-.108-.159-.143c-.318-.286-.679-.61-1.028-.927a1.32,1.32,0,0,0-.922-.36h0c-1.037,0-2.1,0-3.012,0L5.731.54h0a1.216,1.216,0,0,0-.971.439c-.293.34-.6.685-.865.989l-.011.013c-.3.34-.62.705-.938,1.074a.5.5,0,0,1-.413.2H2.515c-.211,0-.435-.006-.687-.006s-.49,0-.693,0H1.024c-.4,0-.481.24-.482.438,0,1.292,0,2.639,0,4a.4.4,0,0,0,.424.432l.134,0H1.34c.062,0,.113,0,.162,0h.023c.159,0,.2-.1.224-.209A2.29,2.29,0,0,1,3.981,6.1H4a2.282,2.282,0,0,1,2.24,1.786.264.264,0,0,0,.307.248h0c1.7,0,3.408,0,5.159,0h2.2l.011-.055.006-.029V8.033c0-.008,0-.016,0-.023l0-.013,0-.013c0-.019.007-.036.011-.053a2.3,2.3,0,0,1,2.039-1.823C16.054,6.1,16.119,6.1,16.182,6.1Z" transform="translate(323.511 2270.606)" fill="#3b1144" stroke="#3b1144" stroke-width="0.2"/>
      <path id="Subtraction_13" data-name="Subtraction 13" d="M9.078,5.963H6.346l-2.669,0a.682.682,0,0,1-.65-.382A3.08,3.08,0,0,0,.57,3.943a.612.612,0,0,1-.562-.63c0-.076,0-.154,0-.23V3.064c0-.248-.009-.5.011-.754a.844.844,0,0,1,.163-.447c.326-.4.68-.8.992-1.156L1.212.659,1.255.61,1.309.549,1.59.227A.671.671,0,0,1,2.135,0h4.4c.5,0,.9,0,1.279,0h.008a.892.892,0,0,1,.615.231c.615.535,1.284,1.108,1.99,1.7a.747.747,0,0,1,.289.618c-.008.533-.006,1.059,0,1.547a.8.8,0,0,1-.259.583,7.508,7.508,0,0,0-.723.9A.737.737,0,0,1,9.078,5.963ZM3.638.543c-.605,0-1.072,0-1.47,0a.371.371,0,0,0-.245.126c-.407.459-.8.909-1.264,1.448l-.009.01h0a.31.31,0,0,0-.1.179c-.006.259,0,.521,0,.773q0,.062,0,.123c0,.041,0,.082,0,.124v.06l.06.007a3.587,3.587,0,0,1,2.72,1.649.668.668,0,0,0,.61.374c.031,0,.063,0,.1,0,.116-.009.236-.013.379-.013.105,0,.21,0,.3,0s.2,0,.305,0h.069V.569L5.029.559,5,.555H5l-.01,0a.4.4,0,0,0-.066-.01H3.638Zm3.182,0H5.881A1.212,1.212,0,0,0,5.758.55l-.022,0H5.725L5.7.555l-.063,0V5.382l.052.013.026.007.006,0a.207.207,0,0,0,.06.011l.446,0h.357l1.375,0c.463,0,.785,0,1.078,0a.381.381,0,0,0,.243-.152c.28-.339.531-.652.767-.958a.547.547,0,0,0,.12-.294c.012-.49.012-.945,0-1.391a.469.469,0,0,0-.145-.313C9.412,1.772,8.781,1.232,8.1.657a.512.512,0,0,0-.307-.11C7.522.543,7.223.541,6.82.541Z" transform="translate(327.235 2271.957)" fill="#3b1144" stroke="#3b1144" stroke-width="0.2"/>
    </g>
  </g>
</svg>
