<svg xmlns="http://www.w3.org/2000/svg" xmlns:xlink="http://www.w3.org/1999/xlink" width="24" height="24" viewBox="0 0 24 24">
  <defs>
    <clipPath id="clip-path">
      <rect id="Rectangle_2779" data-name="Rectangle 2779" width="24" height="24" transform="translate(22 171)" fill="#a82424"/>
    </clipPath>
  </defs>
  <g id="Mask_Group_51" data-name="Mask Group 51" transform="translate(-22 -171)" clip-path="url(#clip-path)">
    <g id="noun-cart-1279459" transform="translate(-50.129 115.185)">
      <path id="Path_9352" data-name="Path 9352" d="M135.285,63.6H120.4l-.425-1.494a1.678,1.678,0,0,0-.705-.927,2.25,2.25,0,0,0-1.238-.361H115.3a.426.426,0,1,0,0,.839h2.748a1.118,1.118,0,0,1,.611.191.832.832,0,0,1,.34.468l2.186,7.663a2.518,2.518,0,0,0,1.059,1.39,3.378,3.378,0,0,0,1.856.541h7.144a3.374,3.374,0,0,0,1.865-.547,2.51,2.51,0,0,0,1.055-1.4l1.619-5.846a.37.37,0,0,0-.1-.36.543.543,0,0,0-.4-.154Zm-2.093,6.167a1.674,1.674,0,0,1-.7.934,2.248,2.248,0,0,1-1.242.364H124.1a2.25,2.25,0,0,1-1.238-.361,1.679,1.679,0,0,1-.706-.927l-1.521-5.338h14.025Z" transform="translate(-41.171)" fill="#3b1144"/>
      <circle id="Ellipse_652" data-name="Ellipse 652" cx="0.884" cy="0.884" r="0.884" transform="translate(88.196 73.047)" fill="#3b1144"/>
      <circle id="Ellipse_653" data-name="Ellipse 653" cx="0.884" cy="0.884" r="0.884" transform="translate(82.991 73.047)" fill="#3b1144"/>
    </g>
  </g>
</svg>
