<svg xmlns="http://www.w3.org/2000/svg" width="18.161" height="15.839" viewBox="0 0 18.161 15.839">
  <g id="Group_1861" data-name="Group 1861" transform="translate(-968.868 -843.9)">
    <g id="Group_908" data-name="Group 908" transform="translate(969 844)">
      <path id="Path_5459" data-name="Path 5459" d="M72.582,264.375a.279.279,0,1,1-.558.018.661.661,0,0,0-.506-.639H68.109a.281.281,0,0,1-.085-.013c-.018,0-.041-.011-.07-.021l-.008,0c-.573-.183-1.61-.539-2.591-.876-1.064-.365-2.064-.709-2.273-.767-.315-.088-.517.339-.518.341h0l-.007.014a.555.555,0,0,0,.114.608l6.629,3.686.015.008a.9.9,0,0,0,.861.009.28.28,0,0,1,.069-.034l4.921-1.624a.279.279,0,0,1,.1-.018h1.1a.28.28,0,1,1,0,.56H75.308l-4.868,1.607a1.479,1.479,0,0,1-1.405-.017l-.006,0-6.67-3.708a.277.277,0,0,1-.064-.049h0a1.149,1.149,0,0,1-.232-1.281h0s.4-.85,1.17-.636c.248.069,1.245.411,2.306.775.581.2,1.181.405,1.678.574a1.431,1.431,0,0,1-.027-.3,1.154,1.154,0,0,1,1.021-1.133l.036,0h2.564a17.808,17.808,0,0,1,3.03-1.1l.011,0a8.837,8.837,0,0,1,1.416-.1c.475,0,.892.019,1.112.032a.28.28,0,1,1-.033.558c-.22-.013-.632-.033-1.079-.032a8.236,8.236,0,0,0-1.319.092l-.009,0a17.583,17.583,0,0,0-2.932,1.071.279.279,0,0,1-.138.036H68.26a.593.593,0,0,0-.514.582.781.781,0,0,0,.04.27.51.51,0,0,0,.112.185.553.553,0,0,0,.207.137l.011,0,.016.006.007,0h3.407a.274.274,0,0,1,.051,0A1.23,1.23,0,0,1,72.582,264.375Z" transform="translate(-61.944 -251.778)" fill="#3b1144" stroke="#3b1144" stroke-width="0.2"/>
      <path id="Path_5460" data-name="Path 5460" d="M357.669,235.455h-2.441a.066.066,0,0,0-.047.019h0a.067.067,0,0,0-.02.047v6.589a.067.067,0,0,0,.02.047l.006.007a.067.067,0,0,0,.041.013h2.441a.067.067,0,0,0,.047-.019h0a.067.067,0,0,0,.019-.047v-6.589a.067.067,0,0,0-.019-.047h0a.066.066,0,0,0-.047-.019Zm-2.441-.56h2.441a.626.626,0,0,1,.441.183h0a.626.626,0,0,1,.184.442v6.589a.626.626,0,0,1-.183.441h0a.626.626,0,0,1-.442.184h-2.441a.625.625,0,0,1-.422-.165l-.021-.019a.626.626,0,0,1-.184-.443v-6.589a.626.626,0,0,1,.184-.443h0A.626.626,0,0,1,355.228,234.895Z" transform="translate(-340.367 -227.657)" fill="#3b1144" stroke="#3b1144" stroke-width="0.2"/>
      <path id="Path_5461" data-name="Path 5461" d="M101.3,86.083a4.187,4.187,0,1,1-2.961,1.226,4.174,4.174,0,0,1,2.961-1.226Zm2.564,1.622a3.627,3.627,0,1,0,1.062,2.564A3.615,3.615,0,0,0,103.862,87.705Z" transform="translate(-95.401 -86.083)" fill="#3b1144" stroke="#3b1144" stroke-width="0.2"/>
      <path id="Path_5462" data-name="Path 5462" d="M161.594,126.426a1.01,1.01,0,0,1-.082.415.917.917,0,0,1-.231.318,1.143,1.143,0,0,1-.362.215,1.748,1.748,0,0,1-.468.1l-.057.573a.1.1,0,0,1-.012.038.063.063,0,0,1-.035.026.264.264,0,0,1-.069.017.743.743,0,0,1-.112.007.932.932,0,0,1-.138-.008.272.272,0,0,1-.081-.023.075.075,0,0,1-.038-.038.1.1,0,0,1,0-.054l.057-.544c-.077-.011-.149-.025-.218-.041a1.78,1.78,0,0,1-.185-.057,1.085,1.085,0,0,1-.144-.063.393.393,0,0,1-.091-.062.175.175,0,0,1-.044-.091.864.864,0,0,1-.014-.178c0-.06,0-.111.005-.15a.327.327,0,0,1,.018-.091.091.091,0,0,1,.034-.044.089.089,0,0,1,.047-.012.226.226,0,0,1,.1.04c.045.027.1.056.172.089a1.581,1.581,0,0,0,.253.088,1.32,1.32,0,0,0,.349.04.765.765,0,0,0,.466-.116.372.372,0,0,0,.153-.31.329.329,0,0,0-.066-.211.6.6,0,0,0-.176-.146,1.523,1.523,0,0,0-.248-.112c-.091-.033-.186-.068-.283-.106a2.449,2.449,0,0,1-.283-.131,1.074,1.074,0,0,1-.248-.185.817.817,0,0,1-.176-.267.974.974,0,0,1-.066-.379.956.956,0,0,1,.068-.366.831.831,0,0,1,.193-.288.943.943,0,0,1,.309-.2,1.513,1.513,0,0,1,.417-.1l.053-.539a.086.086,0,0,1,.012-.037.093.093,0,0,1,.035-.027.234.234,0,0,1,.069-.017.92.92,0,0,1,.112-.005.953.953,0,0,1,.138.008.278.278,0,0,1,.084.023.069.069,0,0,1,.037.038.17.17,0,0,1,.008.054l-.053.507c.049.007.1.016.157.029a1.494,1.494,0,0,1,.155.044,1.319,1.319,0,0,1,.132.054.278.278,0,0,1,.081.051.186.186,0,0,1,.035.045.2.2,0,0,1,.019.057.582.582,0,0,1,.009.08c0,.031,0,.067,0,.108s0,.1,0,.137a.29.29,0,0,1-.016.081.072.072,0,0,1-.024.037.053.053,0,0,1-.032.009.239.239,0,0,1-.1-.035c-.045-.023-.1-.048-.165-.075a2.071,2.071,0,0,0-.225-.075,1.065,1.065,0,0,0-.28-.035.953.953,0,0,0-.239.027.441.441,0,0,0-.16.076.3.3,0,0,0-.091.115.364.364,0,0,0-.029.147.331.331,0,0,0,.067.211.573.573,0,0,0,.178.147,1.736,1.736,0,0,0,.251.112c.094.034.189.07.287.107a2.685,2.685,0,0,1,.286.131,1.019,1.019,0,0,1,.251.182.836.836,0,0,1,.177.262A.939.939,0,0,1,161.594,126.426Z" transform="translate(-154.533 -121.578)" fill="#3b1144" stroke="#3b1144" stroke-width="0.2"/>
    </g>
  </g>
</svg>
