<svg xmlns="http://www.w3.org/2000/svg" xmlns:xlink="http://www.w3.org/1999/xlink" width="24" height="24" viewBox="0 0 24 24">
  <defs>
    <clipPath id="clip-path">
      <rect id="Rectangle_2786" data-name="Rectangle 2786" width="24" height="24" transform="translate(1432 266)" fill="#a82424"/>
    </clipPath>
  </defs>
  <g id="Mask_Group_58" data-name="Mask Group 58" transform="translate(-1432 -266)" clip-path="url(#clip-path)">
    <path id="Path_11151" data-name="Path 11151" d="M370.165,325.185a1.572,1.572,0,0,1,.379-.046,1.543,1.543,0,0,1,1.544,1.544v1.544a1.544,1.544,0,1,1-3.087,0v-1.544A1.545,1.545,0,0,1,370.165,325.185Zm0,0-.086-.579a7.495,7.495,0,1,1,14.824,0l-.086.579m0,0a1.571,1.571,0,0,0-.379-.046,1.543,1.543,0,0,0-1.544,1.544v1.544a1.544,1.544,0,1,0,3.087,0v-1.544A1.545,1.545,0,0,0,384.815,325.185Z" transform="translate(1066.51 -44.885)" fill="none" stroke="#2d264b" stroke-width="0.9"/>
  </g>
</svg>
