<svg xmlns="http://www.w3.org/2000/svg" xmlns:xlink="http://www.w3.org/1999/xlink" width="24" height="24" viewBox="0 0 24 24">
  <defs>
    <clipPath id="clip-path">
      <rect id="Rectangle_2792" data-name="Rectangle 2792" width="24" height="24" transform="translate(1432 266)" fill="#a82424"/>
    </clipPath>
    <clipPath id="clip-path-2">
      <rect id="Rectangle_2791" data-name="Rectangle 2791" width="14.451" height="15.587" fill="#2d264b"/>
    </clipPath>
  </defs>
  <g id="Mask_Group_61" data-name="Mask Group 61" transform="translate(-1432 -266)" clip-path="url(#clip-path)">
    <g id="Group_1884" data-name="Group 1884" transform="translate(1436.775 270.207)">
      <g id="Group_1883" data-name="Group 1883" clip-path="url(#clip-path-2)">
        <path id="Path_11154" data-name="Path 11154" d="M7.134,0A.473.473,0,0,1,7.47.455a.432.432,0,0,1-.392.43,1.959,1.959,0,0,1-.2.006c-1.3,0-2.607,0-3.911,0A1.98,1.98,0,0,0,1.079,2.064a1.959,1.959,0,0,0-.185.885q0,4.84,0,9.679a2,2,0,0,0,2.066,2.065c1.294,0,2.587,0,3.881,0a.954.954,0,0,1,.256.023.436.436,0,0,1,.307.454.447.447,0,0,1-.387.408.919.919,0,0,1-.122,0c-1.324,0-2.648,0-3.972,0a2.881,2.881,0,0,1-2.86-2.325,3.281,3.281,0,0,1-.057-.649C0,9.4.014,6.187,0,2.976A2.926,2.926,0,0,1,1.983.153c.2-.066.41-.1.615-.153Z" transform="translate(0)" fill="#2d264b"/>
        <path id="Path_11155" data-name="Path 11155" d="M91.874,112.328H82.963a1.05,1.05,0,0,1-.271-.028.44.44,0,0,1,.045-.852,1.53,1.53,0,0,1,.258-.016h8.88c-.06-.065-.094-.1-.131-.14q-.936-.936-1.872-1.872a.515.515,0,0,1-.19-.367.427.427,0,0,1,.229-.4.417.417,0,0,1,.472.027.967.967,0,0,1,.125.111l2.7,2.7a.468.468,0,0,1,0,.773q-1.36,1.362-2.721,2.723a.465.465,0,0,1-.477.162.442.442,0,0,1-.213-.728c.134-.152.283-.29.427-.434l1.528-1.528c.034-.034.066-.071.121-.131" transform="translate(-78.962 -104.083)" fill="#2d264b"/>
      </g>
    </g>
  </g>
</svg>
