<svg xmlns="http://www.w3.org/2000/svg" xmlns:xlink="http://www.w3.org/1999/xlink" width="24" height="24" viewBox="0 0 24 24">
  <defs>
    <clipPath id="clip-path">
      <rect id="Rectangle_2783" data-name="Rectangle 2783" width="24" height="24" transform="translate(1432 266)" fill="#a82424"/>
    </clipPath>
  </defs>
  <g id="Mask_Group_55" data-name="Mask Group 55" transform="translate(-1432 -266)" clip-path="url(#clip-path)">
    <g id="Group_1859" data-name="Group 1859" transform="translate(1408.511 -166.489)">
      <path id="Path_11146" data-name="Path 11146" d="M819.943,468.942l.284-.854a2.342,2.342,0,1,1,3.984,2.283l-.78.891a3.8,3.8,0,0,0-.942,2.5v.269m8.489-2.547A8.489,8.489,0,1,1,822.489,463,8.489,8.489,0,0,1,830.979,471.489Z" transform="translate(-787 -27)" fill="none" stroke="#2d264b" stroke-linecap="round" stroke-width="0.9"/>
      <path id="Path_11147" data-name="Path 11147" d="M824.369,478.685a.685.685,0,1,1-.685-.685A.685.685,0,0,1,824.369,478.685Z" transform="translate(-788.195 -29.168)" fill="#2d264b"/>
    </g>
  </g>
</svg>
