<svg xmlns="http://www.w3.org/2000/svg" xmlns:xlink="http://www.w3.org/1999/xlink" width="24" height="24" viewBox="0 0 24 24">
  <defs>
    <clipPath id="clip-path">
      <rect id="Rectangle_2779" data-name="Rectangle 2779" width="24" height="24" transform="translate(22 171)" fill="#a82424"/>
    </clipPath>
  </defs>
  <g id="Mask_Group_51" data-name="Mask Group 51" transform="translate(-22 -171)" clip-path="url(#clip-path)">
    <path id="Polygon_1" data-name="Polygon 1" d="M10.925,3.181a.476.476,0,0,0-.436.277L8.694,7.274a1.439,1.439,0,0,1-1.129.82L3.38,8.619a.482.482,0,0,0-.27.83l3.075,2.881a1.439,1.439,0,0,1,.432,1.328L5.825,17.8a.463.463,0,0,0,.1.394.5.5,0,0,0,.376.181.478.478,0,0,0,.232-.062l3.7-2.033a1.447,1.447,0,0,1,1.394,0l3.7,2.033a.478.478,0,0,0,.232.062.5.5,0,0,0,.376-.181.463.463,0,0,0,.1-.394l-.793-4.138a1.439,1.439,0,0,1,.432-1.328L18.74,9.449a.482.482,0,0,0-.27-.83l-4.186-.526a1.439,1.439,0,0,1-1.129-.82L11.361,3.458a.476.476,0,0,0-.436-.277m0-.482a.952.952,0,0,1,.873.554l1.795,3.816a.964.964,0,0,0,.753.546l1.911.24,2.275.286A.964.964,0,0,1,19.07,9.8l-3.075,2.881a.964.964,0,0,0-.288.885l.793,4.138a.964.964,0,0,1-1.412,1.027L11.39,16.7a.964.964,0,0,0-.929,0l-3.7,2.033a.964.964,0,0,1-1.412-1.027l.793-4.138a.964.964,0,0,0-.288-.885L2.781,9.8A.964.964,0,0,1,3.32,8.141l4.186-.526a.964.964,0,0,0,.753-.546l1.795-3.816A.952.952,0,0,1,10.925,2.7Z" transform="translate(23.075 172.224)" fill="#3b1144" stroke="#3b1144" stroke-width="0.3"/>
  </g>
</svg>
