<svg width="32" height="23" viewBox="0 0 32 23" fill="none" xmlns="http://www.w3.org/2000/svg">
<path d="M11.5625 13.4297C12.2396 13.7925 12.849 14.2378 13.3906 14.7656C13.9323 15.2934 14.401 15.8872 14.7969 16.5469C15.1927 17.2066 15.4896 17.9103 15.6875 18.658C15.8854 19.4057 15.9896 20.1863 16 21H14C14 20.1314 13.8438 19.3122 13.5312 18.5425C13.2188 17.7729 12.7865 17.1021 12.2344 16.5304C11.6823 15.9586 11.0469 15.5078 10.3281 15.178C9.60938 14.8481 8.83333 14.6777 8 14.6667C7.17708 14.6667 6.40104 14.8316 5.67188 15.1615C4.94271 15.4913 4.30729 15.9476 3.76562 16.5304C3.22396 17.1131 2.79688 17.7839 2.48438 18.5425C2.17188 19.3012 2.01042 20.1204 2 21H0C0 20.1973 0.104167 19.4222 0.3125 18.6745C0.520833 17.9268 0.817708 17.2231 1.20312 16.5634C1.58854 15.9036 2.05208 15.3099 2.59375 14.7821C3.13542 14.2543 3.75 13.8035 4.4375 13.4297C3.67708 12.8359 3.08333 12.0883 2.65625 11.1866C2.22917 10.285 2.01042 9.33391 2 8.33333C2 7.4647 2.15625 6.64554 2.46875 5.87587C2.78125 5.10619 3.21354 4.43547 3.76562 3.86372C4.31771 3.29196 4.95312 2.84115 5.67188 2.51128C6.39062 2.18142 7.16667 2.011 8 2C8.82292 2 9.59896 2.16493 10.3281 2.49479C11.0573 2.82465 11.6927 3.28096 12.2344 3.86372C12.776 4.44647 13.2031 5.11719 13.5156 5.87587C13.8281 6.63455 13.9896 7.4537 14 8.33333C14 9.33391 13.7865 10.285 13.3594 11.1866C12.9323 12.0883 12.3333 12.8359 11.5625 13.4297ZM4 8.33333C4 8.91609 4.10417 9.46036 4.3125 9.96615C4.52083 10.4719 4.80729 10.9172 5.17188 11.3021C5.53646 11.6869 5.95833 11.9893 6.4375 12.2092C6.91667 12.4291 7.4375 12.5446 8 12.5556C8.54167 12.5556 9.05729 12.4456 9.54688 12.2257C10.0365 12.0058 10.4583 11.7034 10.8125 11.3186C11.1667 10.9337 11.4531 10.4884 11.6719 9.98264C11.8906 9.47685 12 8.92708 12 8.33333C12 7.76157 11.8958 7.2173 11.6875 6.70052C11.4792 6.18374 11.1927 5.73843 10.8281 5.36458C10.4635 4.99074 10.0365 4.68837 9.54688 4.45747C9.05729 4.22656 8.54167 4.11111 8 4.11111C7.44792 4.11111 6.93229 4.22107 6.45312 4.44097C5.97396 4.66088 5.55208 4.96325 5.1875 5.34809C4.82292 5.73293 4.53646 6.18374 4.32812 6.70052C4.11979 7.2173 4.01042 7.76157 4 8.33333ZM32 2V4.11111H18V2H32ZM18 10.4444H32V12.5556H18V10.4444ZM18 18.8889H32V21H18V18.8889Z" fill="#3C759A"/>
</svg>
