<svg width="20" height="27" viewBox="0 0 20 27" fill="none" xmlns="http://www.w3.org/2000/svg">
<path d="M3.84583 22.5C3.4625 22.5 3.1425 22.3267 2.88583 21.9802C2.62861 21.633 2.5 21.2006 2.5 20.6831V6.31687C2.5 5.79937 2.62861 5.36737 2.88583 5.02087C3.1425 4.67362 3.4625 4.5 3.84583 4.5H16.1542C16.5375 4.5 16.8575 4.67362 17.1142 5.02087C17.3714 5.36737 17.5 5.79937 17.5 6.31687V20.6831C17.5 21.2006 17.3717 21.6326 17.115 21.9791C16.8578 22.3264 16.5375 22.5 16.1542 22.5H3.84583ZM3.84583 21.375H16.1542C16.2819 21.375 16.3994 21.303 16.5067 21.159C16.6133 21.0142 16.6667 20.8556 16.6667 20.6831V6.31687C16.6667 6.14437 16.6133 5.98575 16.5067 5.841C16.3994 5.697 16.2819 5.625 16.1542 5.625H3.84583C3.71806 5.625 3.60056 5.697 3.49333 5.841C3.38667 5.98575 3.33333 6.14437 3.33333 6.31687V20.6831C3.33333 20.8556 3.38667 21.0142 3.49333 21.159C3.60056 21.303 3.71806 21.375 3.84583 21.375ZM4.58333 18.5625H7.91667V17.4375H4.58333V18.5625ZM12.125 16.074L15.6567 11.3063L15.0625 10.5041L12.125 14.4979L10.9375 12.8947L10.3642 13.6969L12.125 16.074ZM4.58333 14.0625H7.91667V12.9375H4.58333V14.0625ZM4.58333 9.5625H7.91667V8.4375H4.58333V9.5625Z" fill="#3C759A"/>
</svg>
