<svg width="27" height="28" viewBox="0 0 27 28" fill="none" xmlns="http://www.w3.org/2000/svg">
<path d="M23.6252 24.5002L18.7394 19.4334M18.7394 19.4334C19.5751 18.5667 20.2381 17.5378 20.6904 16.4054C21.1427 15.273 21.3755 14.0593 21.3755 12.8336C21.3755 11.6079 21.1427 10.3942 20.6904 9.26177C20.2381 8.12937 19.5751 7.10044 18.7394 6.23374C17.9036 5.36704 16.9114 4.67953 15.8195 4.21048C14.7275 3.74142 13.5572 3.5 12.3752 3.5C11.1933 3.5 10.023 3.74142 8.93099 4.21048C7.83903 4.67953 6.84686 5.36704 6.01111 6.23374C4.32324 7.98413 3.375 10.3582 3.375 12.8336C3.375 15.309 4.32324 17.683 6.01111 19.4334C7.69898 21.1838 9.98822 22.1671 12.3752 22.1671C14.7622 22.1671 17.0515 21.1838 18.7394 19.4334Z" stroke="#3C759A" stroke-width="1.3" stroke-linecap="round" stroke-linejoin="round"/>
</svg>
