<svg width="32" height="16" viewBox="0 0 32 16" fill="none" xmlns="http://www.w3.org/2000/svg">
<g clip-path="url(#clip0_569_2309)">
<path d="M6.9959 16.0017C6.34111 15.9978 5.70144 15.8118 5.15411 15.466C4.60678 15.1202 4.17513 14.6293 3.91123 14.0529C3.84168 13.8232 3.69008 13.6248 3.48306 13.4923C3.27604 13.3598 3.02695 13.3016 2.77989 13.3286H2.71159C2.04233 13.3492 1.39081 13.1195 0.894048 12.6875C0.397282 12.2556 0.093955 11.6554 0.0478147 11.0128C0.00431998 10.521 -0.00953767 10.0272 0.00639208 9.53393V9.44645V9.43051C0.00639208 9.23744 0.00928883 9.03818 0.00639208 8.84232C-0.0337841 8.27764 0.11668 7.71564 0.435368 7.23986C0.754057 6.76407 1.2241 6.40002 1.77524 6.20187L1.78635 6.19721C2.41164 5.9273 3.19004 5.59139 3.93285 5.24863C4.12423 5.15737 4.28707 5.01898 4.40466 4.84744C5.05974 3.86296 5.7383 2.82674 6.47822 1.67905C6.7869 1.152 7.2405 0.716964 7.78919 0.421415C8.33788 0.125865 8.96053 -0.0187836 9.58895 0.00349896C10.8594 0.00111043 12.2374 1.30943e-07 14.0533 1.30943e-07C16.1543 1.30943e-07 17.8189 -6.51807e-05 19.1452 0.00272144C19.7228 -0.0132396 20.2958 0.108368 20.8126 0.356881C21.3295 0.605393 21.7744 0.973147 22.1079 1.42713C22.5126 1.94465 22.9404 2.48198 23.3178 2.9569L23.3932 3.05176L23.5724 3.27646L23.6344 3.35616C24.0023 3.81913 24.3827 4.29795 24.7518 4.76968C24.9112 4.98695 25.1461 5.14249 25.414 5.20782C26.2859 5.43114 27.1461 5.65678 28.1 5.90797L28.4649 6.0036L28.7666 6.0833C29.1312 6.17884 29.4992 6.27506 29.8634 6.3702C30.4515 6.50894 30.98 6.82043 31.3758 7.26124C31.6838 7.65043 31.8969 8.10092 31.9998 8.57991V10.9918C31.9856 11.018 31.9759 11.0462 31.9709 11.0754C31.889 11.712 31.5643 12.2966 31.0596 12.7159C30.5549 13.1352 29.9063 13.3589 29.2396 13.3442C29.2119 13.3442 29.1801 13.3442 29.1337 13.3442H29.1077C28.9967 13.3407 28.8879 13.3756 28.8009 13.4421C28.714 13.5086 28.6546 13.6024 28.633 13.7073C28.4056 14.3758 27.964 14.9582 27.3714 15.3704C26.7788 15.7825 26.0656 16.0035 25.3344 16.0017H25.3257C24.5981 16.0016 23.8892 15.7802 23.3 15.3696C22.7108 14.959 22.2715 14.3801 22.0446 13.715C22.0185 13.6034 21.9514 13.5044 21.8559 13.4363C21.7604 13.3681 21.6425 13.335 21.5239 13.3434C19.4159 13.3466 17.7057 13.3484 16.141 13.3484C14.674 13.3484 12.9959 13.3482 10.8565 13.3434C10.7376 13.3335 10.619 13.3656 10.5229 13.4336C10.4267 13.5015 10.3595 13.601 10.3337 13.7131C10.1107 14.3585 9.68845 14.9229 9.1232 15.3315C8.55794 15.74 7.87657 15.973 7.17007 15.9994C7.11628 15.9998 7.05714 16.0017 6.9959 16.0017ZM25.3374 10.18C24.6623 10.1854 24.0161 10.4447 23.5374 10.9027C23.0588 11.3608 22.7858 11.981 22.7767 12.6304C22.7732 12.9489 22.8356 13.2652 22.9604 13.5603C23.0851 13.8554 23.2696 14.1234 23.5033 14.3491C23.7407 14.5846 24.0246 14.7723 24.3382 14.9011C24.6518 15.03 24.9889 15.0972 25.3299 15.0994H25.3473C26.0223 15.0964 26.6689 14.8383 27.1477 14.3806C27.6265 13.9229 27.899 13.3026 27.9064 12.6533C27.9083 12.3322 27.8438 12.0138 27.7169 11.7168C27.5899 11.4198 27.403 11.1499 27.1669 10.923C26.9307 10.6892 26.6486 10.5033 26.3368 10.3756C26.025 10.2479 25.6898 10.1814 25.3509 10.1797L25.3374 10.18ZM7.04096 10.18C6.36639 10.1858 5.72087 10.4447 5.24221 10.902C4.76354 11.3592 4.48968 11.9784 4.47902 12.6273C4.4747 12.9453 4.53648 13.2608 4.66047 13.5556C4.78446 13.8504 4.96822 14.1188 5.20119 14.3444C5.43856 14.5811 5.72266 14.7697 6.03671 14.8996C6.35076 15.0294 6.68842 15.0977 7.03025 15.1006H7.05146C7.72552 15.0966 8.37106 14.8386 8.8494 14.3817C9.32775 13.9249 9.60058 13.3056 9.60956 12.6572C9.61273 12.337 9.54944 12.0194 9.42346 11.723C9.29748 11.4266 9.11135 11.1574 8.87587 10.9311C8.63973 10.6961 8.35727 10.5087 8.045 10.3799C7.73273 10.251 7.39689 10.1834 7.05712 10.1808L7.04096 10.18ZM9.7213 0.874708C9.20329 0.851673 8.68901 0.968949 8.23716 1.21371C7.7853 1.45846 7.41417 1.82066 7.16603 2.25869C6.39839 3.49914 5.58395 4.71692 5.03812 5.52504C4.90647 5.70886 4.72831 5.85737 4.52044 5.95656C3.93778 6.23523 3.34808 6.48993 2.693 6.77257L2.46952 6.86976L2.08762 7.03576C1.72821 7.17071 1.42224 7.41119 1.2131 7.72309C1.00397 8.03498 0.90234 8.40249 0.92274 8.77312C0.926465 9.10473 0.925637 9.43888 0.92274 9.76213V9.7975C0.92274 10.0869 0.92274 10.386 0.92274 10.6901C0.916949 10.9245 0.959411 11.158 1.04761 11.3766C1.13582 11.5953 1.2679 11.7948 1.43658 11.9641C1.79009 12.2927 2.2647 12.4729 2.75625 12.4652C2.82494 12.4652 2.89709 12.4652 2.98276 12.4652H3.55014L3.5748 12.2937C3.66946 11.4877 4.06363 10.7419 4.68472 10.1933C5.30581 9.64465 6.11199 9.33018 6.95488 9.30806H7.03025C7.8885 9.30481 8.71799 9.60607 9.36001 10.154C10.002 10.7019 10.4116 11.458 10.5106 12.2782L10.5382 12.445H21.8452L21.8712 12.2755C21.9306 11.8032 22.0929 11.3482 22.3475 10.9405C22.6022 10.5327 22.9434 10.1813 23.3489 9.90908C23.9169 9.51672 24.5984 9.30568 25.2976 9.30533C25.3493 9.30533 25.4015 9.30525 25.4532 9.30883C26.2849 9.33482 27.0796 9.64604 27.6936 10.1863C28.3077 10.7265 28.7009 11.4603 28.802 12.2548L28.8238 12.3866L28.9588 12.4166C29.085 12.4452 29.2142 12.4599 29.3439 12.4601C29.7808 12.4587 30.2011 12.2986 30.5205 12.0119C30.8513 11.7199 31.0493 11.3143 31.0713 10.8829C31.1127 10.109 31.0952 9.34649 31.0749 8.76807C31.0577 8.41321 30.9204 8.0732 30.6838 7.80045C30.4471 7.5277 30.1242 7.33681 29.7644 7.25696C29.0538 7.06071 28.3276 6.8698 27.6254 6.68549L27.5839 6.67499L27.4267 6.63534C27.2678 6.59553 27.1094 6.55195 26.9505 6.51055L26.7957 6.47089L26.5936 6.41763L26.4538 6.3807L26.1911 6.31072C25.7694 6.19767 25.3221 6.07835 24.881 5.97445C24.6079 5.91332 24.3679 5.75755 24.2069 5.53671C23.8522 5.08249 23.4864 4.62379 23.1309 4.18071L23.1006 4.14339L23.0745 4.11035L22.9735 3.984C22.4844 3.36975 21.9805 2.73473 21.4914 2.0958C21.2104 1.70546 20.832 1.38937 20.3909 1.17638C19.9499 0.963397 19.4602 0.860521 18.967 0.87704H18.9466C17.2888 0.884604 15.713 0.887926 14.2638 0.887926C12.8039 0.887926 11.2824 0.884225 9.74171 0.876263H9.71605L9.7213 0.874708Z" fill="#3C759A"/>
</g>
<defs>
<clipPath id="clip0_569_2309">
<rect width="32" height="16" fill="white"/>
</clipPath>
</defs>
</svg>
