<svg width="26" height="23" viewBox="0 0 26 23" fill="none" xmlns="http://www.w3.org/2000/svg">
<path d="M2.98694 19C2.70583 19 2.47117 18.846 2.28294 18.538C2.09431 18.2293 2 17.845 2 17.385V4.615C2 4.155 2.09431 3.771 2.28294 3.463C2.47117 3.15433 2.70583 3 2.98694 3H12.0131C12.2942 3 12.5288 3.15433 12.7171 3.463C12.9057 3.771 13 4.155 13 4.615V17.385C13 17.845 12.9059 18.229 12.7177 18.537C12.529 18.8457 12.2942 19 12.0131 19H2.98694ZM2.98694 18H12.0131C12.1068 18 12.1929 17.936 12.2716 17.808C12.3498 17.6793 12.3889 17.5383 12.3889 17.385V4.615C12.3889 4.46167 12.3498 4.32067 12.2716 4.192C12.1929 4.064 12.1068 4 12.0131 4H2.98694C2.89324 4 2.80707 4.064 2.72844 4.192C2.65022 4.32067 2.61111 4.46167 2.61111 4.615V17.385C2.61111 17.5383 2.65022 17.6793 2.72844 17.808C2.80707 17.936 2.89324 18 2.98694 18ZM3.52778 15.5H5.97222V14.5H3.52778V15.5ZM9.05833 13.288L11.6482 9.05L11.2125 8.337L9.05833 11.887L8.1875 10.462L7.76706 11.175L9.05833 13.288ZM3.52778 11.5H5.97222V10.5H3.52778V11.5ZM3.52778 7.5H5.97222V6.5H3.52778V7.5Z" fill="#EC8F67"/>
<path d="M18.4305 8.46098C17.1493 8.43875 15.3696 8.47125 15.0032 9.63449L14.103 12.131C14.0631 12.077 14.0107 12.038 13.9523 12.0186L13.5898 11.8981C13.55 11.8847 13.5083 11.8808 13.4672 11.8865C13.426 11.8923 13.3862 11.9075 13.3501 11.9315C13.314 11.9554 13.2822 11.9876 13.2566 12.0261C13.231 12.0646 13.2121 12.1087 13.201 12.1558L13.0119 12.9494C13.0006 12.9965 12.9973 13.0457 13.0022 13.0943C13.007 13.1429 13.02 13.1899 13.0402 13.2326C13.0605 13.2753 13.0877 13.3128 13.1203 13.3431C13.1528 13.3733 13.1901 13.3956 13.23 13.4088L13.5926 13.5294C13.6047 13.5333 13.6168 13.5346 13.6289 13.537C13.5596 13.7411 13.5165 13.9654 13.5165 14.099V17.0006C13.5165 17.1493 13.5693 17.2182 13.6531 17.2504V18.0234C13.653 18.092 13.6643 18.16 13.6865 18.2234C13.7086 18.2868 13.7412 18.3445 13.7822 18.393C13.8233 18.4415 13.872 18.48 13.9257 18.5062C13.9794 18.5324 14.0369 18.5458 14.095 18.5456H15.2804C15.3385 18.5458 15.396 18.5324 15.4497 18.5062C15.5034 18.48 15.5521 18.4415 15.5932 18.393C15.6342 18.3445 15.6668 18.2868 15.6889 18.2234C15.7111 18.16 15.7224 18.092 15.7223 18.0234V17.2788H21.2776V18.0234C21.2775 18.092 21.2889 18.16 21.3111 18.2234C21.3332 18.2868 21.3658 18.3444 21.4069 18.393C21.4479 18.4415 21.4967 18.4799 21.5504 18.5061C21.604 18.5323 21.6615 18.5457 21.7196 18.5456H22.9049C22.9629 18.5458 23.0205 18.5324 23.0741 18.5062C23.1278 18.48 23.1766 18.4415 23.2177 18.393C23.2588 18.3445 23.2913 18.2869 23.3135 18.2234C23.3357 18.16 23.3471 18.092 23.347 18.0234V17.2505C23.4309 17.2183 23.4834 17.1494 23.4834 17.0007V14.0991C23.4834 13.9656 23.4401 13.7412 23.3709 13.5371C23.383 13.5349 23.3951 13.5336 23.4072 13.5296L23.7699 13.4089C23.8098 13.3957 23.8471 13.3734 23.8796 13.3432C23.9122 13.3129 23.9394 13.2754 23.9596 13.2327C23.9799 13.19 23.9928 13.143 23.9977 13.0944C24.0025 13.0458 23.9992 12.9966 23.9879 12.9495L23.7991 12.156C23.7879 12.1088 23.769 12.0647 23.7434 12.0262C23.7178 11.9877 23.686 11.9556 23.6499 11.9316C23.6137 11.9077 23.574 11.8924 23.5328 11.8866C23.4917 11.8809 23.45 11.8848 23.4101 11.8982L23.0476 12.0187C22.9892 12.0382 22.9369 12.0772 22.8968 12.1311L21.9966 9.63462C21.6039 8.4537 19.7116 8.48334 18.4304 8.46111M22.0997 12.2888C22.121 12.3637 22.0572 12.4136 21.9904 12.4182C21.9904 12.4182 21.7722 12.44 21.4712 12.4688C21.2422 11.8364 20.71 11.3908 20.0935 11.3908C19.4169 11.3908 18.8425 11.9277 18.6582 12.6588C18.6072 12.6596 18.5479 12.6622 18.5005 12.6622C17.3348 12.6622 15.0092 12.4182 15.0092 12.4182C14.9425 12.4135 14.8786 12.3636 14.8999 12.2888C15.7956 9.0621 15.8223 9.30468 18.4503 9.33861C21.0782 9.37241 21.0935 9.14192 22.0997 12.2888ZM20.0935 12.0006C20.2557 12 20.4156 12.047 20.5586 12.1376C20.7016 12.2282 20.8233 12.3594 20.9127 12.5195C20.3863 12.5656 19.7805 12.6128 19.216 12.6402C19.2972 12.4475 19.4225 12.2855 19.5775 12.1725C19.7326 12.0594 19.9113 11.9999 20.0935 12.0006ZM14.0347 13.0476C14.0426 13.0616 14.0503 13.0755 14.0591 13.0889H14.025L14.0347 13.0476ZM14.617 13.8581C14.8476 13.8536 16.0853 14.346 16.0853 14.346C16.2399 14.3974 16.3759 14.7427 16.3752 14.9325C16.3728 15.5717 14.9772 15.3498 14.4106 15.3524C14.3725 15.3525 14.3348 15.3437 14.2996 15.3265C14.2644 15.3093 14.2324 15.2841 14.2055 15.2523C14.1785 15.2205 14.1572 15.1827 14.1427 15.1411C14.1281 15.0996 14.1206 15.055 14.1207 15.01V14.2007C14.1207 14.0109 14.3865 13.8627 14.617 13.8581ZM22.3828 13.8581C22.6134 13.8626 22.8791 14.0109 22.8791 14.2007V15.01C22.8792 15.055 22.8717 15.0996 22.8572 15.1412C22.8427 15.1828 22.8213 15.2206 22.7944 15.2524C22.7675 15.2842 22.7355 15.3095 22.7003 15.3266C22.6651 15.3438 22.6274 15.3526 22.5893 15.3525C22.0228 15.3499 20.627 15.5717 20.6247 14.9325C20.6239 14.7427 20.76 14.3974 20.9145 14.346C20.9145 14.346 22.1522 13.8536 22.3828 13.8581Z" fill="#EC8F67"/>
</svg>
