<svg width="29" height="31" viewBox="0 0 29 31" fill="none" xmlns="http://www.w3.org/2000/svg">
<g clip-path="url(#clip0_781_2523)">
<path d="M24.0356 4.14319C24.0815 4.0953 24.1157 4.03665 24.1352 3.97218C24.1548 3.90771 24.1591 3.83931 24.1479 3.77274C24.1366 3.70617 24.1102 3.64337 24.0707 3.58964C24.0312 3.53591 23.9799 3.49281 23.921 3.46397C23.0131 3.01873 21.9948 2.87629 21.0058 3.05622C20.0168 3.23615 19.1057 3.72963 18.3977 4.46888C17.018 5.91085 16.5362 8.17547 17.1797 10.0688L7.80428 19.8049C7.28342 19.6142 6.73479 19.5183 6.18253 19.5214C4.7899 19.5214 3.43953 20.0968 2.47834 21.1009C1.77278 21.8304 1.29589 22.7643 1.11017 23.7801C0.924447 24.7959 1.03855 25.8463 1.43753 26.7937C1.46368 26.8571 1.50447 26.9128 1.55628 26.956C1.6081 26.9992 1.66936 27.0284 1.73465 27.0412C1.79994 27.054 1.86724 27.0498 1.93063 27.0292C1.99401 27.0085 2.05153 26.972 2.09809 26.9228L4.93453 23.962C5.1214 23.7663 5.42284 23.7401 5.57884 23.9047L6.80328 25.2353C6.98121 25.4217 6.97309 25.7094 6.7854 25.906L3.95953 28.8592C3.9136 28.907 3.87942 28.9656 3.85988 29.03C3.84033 29.0944 3.836 29.1627 3.84723 29.2292C3.85846 29.2958 3.88494 29.3585 3.92442 29.4121C3.9639 29.4658 4.01524 29.5088 4.07409 29.5375C4.73161 29.8633 5.45077 30.0328 6.17928 30.0337C7.45653 30.0337 8.66959 29.5004 9.59746 28.5318C10.9771 27.0907 11.4589 24.826 10.8146 22.9327L20.19 13.1958C20.7112 13.3864 21.2601 13.4823 21.8126 13.4793C23.2052 13.4793 24.5556 12.9038 25.5168 11.8998C26.2223 11.1702 26.6992 10.2364 26.8849 9.22055C27.0707 8.20472 26.9566 7.15433 26.5576 6.20701C26.5314 6.14359 26.4907 6.08783 26.4388 6.04466C26.387 6.00149 26.3258 5.97224 26.2605 5.95948C26.1952 5.94672 26.1279 5.95085 26.0645 5.9715C26.0011 5.99216 25.9436 6.0287 25.897 6.07791L23.0606 9.03863C22.9729 9.1266 22.8554 9.17508 22.7335 9.17349C22.6116 9.17191 22.4953 9.12041 22.4098 9.03019L21.1918 7.76541C21.1484 7.72209 21.1138 7.67012 21.0901 7.61259C21.0665 7.55506 21.0543 7.49317 21.0542 7.43062C21.0541 7.36807 21.0662 7.30615 21.0897 7.24856C21.1132 7.19097 21.1477 7.13891 21.191 7.09547L24.0356 4.14319ZM20.6166 8.36194L21.8345 9.62672C22.3212 10.1347 23.1548 10.1372 23.6367 9.63432L26.0173 7.15032C26.2058 7.88015 26.2057 8.64873 26.0168 9.37847C25.8279 10.1082 25.457 10.7733 24.9415 11.3066C24.1315 12.1529 22.9923 12.6372 21.8134 12.6372C21.2585 12.6372 20.7328 12.5292 20.251 12.3166C20.1765 12.2837 20.0942 12.2746 20.0148 12.2905C19.9353 12.3065 19.8622 12.3467 19.8049 12.406L10.0549 22.531C9.99784 22.5903 9.95908 22.6658 9.9436 22.748C9.92811 22.8302 9.93659 22.9154 9.96796 22.9926C10.6204 24.6041 10.2231 26.684 9.02303 27.9378C8.50594 28.4825 7.85491 28.8694 7.14078 29.0566C6.42664 29.2437 5.67675 29.2239 4.97271 28.9992L7.36228 26.5017C7.86684 25.9744 7.87496 25.1568 7.38584 24.6472L6.16221 23.3166C5.69015 22.823 4.85084 22.8534 4.36009 23.3689L1.97946 25.8529C1.79089 25.123 1.79105 24.3545 1.97993 23.6247C2.1688 22.895 2.53971 22.2299 3.05521 21.6966C3.86528 20.8503 5.0044 20.366 6.18334 20.366C6.73828 20.366 7.26396 20.474 7.74578 20.6866C7.82021 20.7198 7.90251 20.729 7.98204 20.713C8.06156 20.6971 8.13465 20.6567 8.19184 20.5972L17.9418 10.4722C17.9989 10.4129 18.0377 10.3374 18.0531 10.2552C18.0686 10.173 18.0601 10.0878 18.0288 10.0106C17.3763 8.39907 17.7737 6.31838 18.9737 5.06457C19.4906 4.52043 20.1412 4.1338 20.8549 3.94667C21.5685 3.75954 22.3179 3.77906 23.0216 4.00313L20.6166 6.50147C20.4977 6.62288 20.4032 6.76766 20.3387 6.92737C20.2743 7.08708 20.241 7.25853 20.241 7.43171C20.241 7.60489 20.2743 7.77633 20.3387 7.93605C20.4032 8.09576 20.4977 8.24054 20.6166 8.36194Z" fill="#EC8F67"/>
<path d="M24.7326 28.8587C24.6423 28.949 24.5217 28.9993 24.3963 28.9989C24.271 28.9986 24.1506 28.9478 24.0607 28.8571L15.9113 20.4196C15.8337 20.3474 15.7323 20.309 15.6282 20.3121C15.5241 20.3152 15.425 20.3597 15.3515 20.4364C15.278 20.513 15.2356 20.6161 15.233 20.7242C15.2305 20.8324 15.2679 20.9374 15.3377 21.0178L23.4863 29.4536C23.73 29.7075 24.0534 29.8476 24.3979 29.8476C24.7424 29.8476 25.0658 29.7075 25.3144 29.4477L26.4754 28.188C26.5941 28.0663 26.6884 27.9214 26.7527 27.7616C26.817 27.6018 26.85 27.4303 26.85 27.2571C26.8499 27.0839 26.8167 26.9125 26.7522 26.7528C26.6878 26.593 26.5934 26.4482 26.4746 26.3266L18.3496 17.8891C18.273 17.8123 18.1704 17.7698 18.0639 17.7707C17.9574 17.7717 17.8555 17.8161 17.7801 17.8943C17.7048 17.9725 17.6621 18.0783 17.6612 18.1889C17.6602 18.2995 17.7012 18.4061 17.7752 18.4857L25.8994 26.9223C26.0854 27.1164 26.0854 27.3982 25.8937 27.599L24.7326 28.8587ZM5.75588 5.65477L3.31838 3.12352C3.2422 3.04443 3.13889 3 3.03116 3C2.92344 3 2.82013 3.04443 2.74394 3.12352L1.11894 4.81102C1.04278 4.89013 1 4.99742 1 5.10928C1 5.22115 1.04278 5.32844 1.11894 5.40755L3.55644 7.9388C3.63273 8.01759 3.7359 8.06189 3.8435 8.06205C3.95109 8.06221 4.05438 8.01821 4.13088 7.93964L4.65576 7.39374L10.8681 13.845C10.9056 13.8854 10.9503 13.9176 10.9999 13.9398C11.0494 13.962 11.1027 13.9737 11.1566 13.9742C11.2106 13.9748 11.2641 13.9642 11.314 13.9431C11.364 13.9219 11.4094 13.8907 11.4476 13.8511C11.4858 13.8116 11.516 13.7645 11.5365 13.7127C11.557 13.6609 11.5674 13.6053 11.567 13.5493C11.5666 13.4933 11.5554 13.4379 11.5342 13.3864C11.513 13.3349 11.4821 13.2883 11.4434 13.2494L5.23019 6.79721L5.75507 6.25214C5.79296 6.21301 5.82303 6.1665 5.84358 6.11528C5.86413 6.06405 5.87475 6.00912 5.87483 5.95363C5.8749 5.89814 5.86443 5.84318 5.84402 5.7919C5.82361 5.74061 5.79366 5.69401 5.75588 5.65477ZM3.84326 7.04443L1.98019 5.10971L3.03076 4.01874L4.89382 5.95346L3.84326 7.04443Z" fill="#EC8F67"/>
</g>
<defs>
<clipPath id="clip0_781_2523">
<rect width="26" height="27" fill="white" transform="translate(1 3)"/>
</clipPath>
</defs>
</svg>
