<svg width="23" height="23" viewBox="0 0 23 23" fill="none" xmlns="http://www.w3.org/2000/svg">
<g clip-path="url(#clip0_569_2295)">
<path d="M12.4583 1.07812V1.5498C12.7139 1.60371 12.9615 1.67109 13.1851 1.73848C13.6962 1.89121 13.9997 2.48418 13.8639 3.05918C13.7281 3.63418 13.201 3.97559 12.6899 3.82285C12.2547 3.69258 11.8474 3.60273 11.484 3.59824C11.1925 3.59375 10.897 3.67461 10.7094 3.7959C10.6255 3.8543 10.5856 3.90371 10.5696 3.93066C10.5576 3.95312 10.5417 3.98457 10.5417 4.05645V4.0834C10.5497 4.09238 10.5776 4.1373 10.6734 4.2002C10.905 4.35742 11.2484 4.47871 11.7675 4.65391L11.8035 4.66738C12.2467 4.81562 12.8377 5.01777 13.3168 5.35469C13.8639 5.74102 14.359 6.3834 14.371 7.37168C14.383 8.38242 13.9158 9.11914 13.3049 9.55039C13.0373 9.73457 12.7498 9.86484 12.4543 9.9457V10.4219C12.4543 11.0193 12.0271 11.5 11.496 11.5C10.9649 11.5 10.5377 11.0193 10.5377 10.4219V9.90977C10.1583 9.80645 9.81094 9.67168 9.51545 9.55937C9.4316 9.52793 9.35174 9.49648 9.27587 9.46953C8.77274 9.28086 8.50122 8.66992 8.66893 8.10391C8.83663 7.53789 9.37969 7.23242 9.88281 7.42109C9.98663 7.46152 10.0825 7.49746 10.1743 7.5334C10.7174 7.74004 11.1087 7.88828 11.528 7.90625C11.8474 7.91973 12.1309 7.83437 12.2946 7.72207C12.3705 7.66816 12.4064 7.62324 12.4224 7.5918C12.4384 7.56484 12.4583 7.51094 12.4543 7.40762V7.39863C12.4543 7.35371 12.4543 7.3043 12.2946 7.19199C12.067 7.03027 11.7236 6.90449 11.2125 6.7293L11.1366 6.70234C10.7054 6.55859 10.1384 6.36543 9.68316 6.05547C9.1441 5.6916 8.625 5.06719 8.62101 4.07441C8.61701 3.0457 9.13611 2.34043 9.72708 1.94512C9.98264 1.77441 10.2582 1.65762 10.5337 1.57676V1.07812C10.5337 0.480664 10.9609 0 11.492 0C12.0231 0 12.4503 0.480664 12.4503 1.07812H12.4583ZM22.6885 15.1072C23.2116 15.9068 23.0599 17.0299 22.3491 17.6184L17.2939 21.8096C16.3596 22.5822 15.2335 23 14.0715 23H1.27778C0.571007 23 0 22.3576 0 21.5625V18.6875C0 17.8924 0.571007 17.25 1.27778 17.25H2.74722L4.5401 15.6328C5.44653 14.8152 6.57257 14.375 7.73455 14.375H14.0556C14.7623 14.375 15.3333 15.0174 15.3333 15.8125C15.3333 16.6076 14.7623 17.25 14.0556 17.25H10.8611C10.5097 17.25 10.2222 17.5734 10.2222 17.9688C10.2222 18.3641 10.5097 18.6875 10.8611 18.6875H15.6767L20.4564 14.7254C21.1672 14.1369 22.1655 14.3076 22.6885 15.1072Z" fill="#3C759A"/>
</g>
<defs>
<clipPath id="clip0_569_2295">
<rect width="23" height="23" fill="white"/>
</clipPath>
</defs>
</svg>
