<svg width="24" height="24" viewBox="0 0 24 24" fill="none" xmlns="http://www.w3.org/2000/svg">
<path d="M9.42159 6.89844C8.91909 6.89844 8.49909 7.24344 8.38659 7.70844C8.34909 7.83594 8.45409 7.97094 8.58909 7.97094H8.91909C8.89184 7.86957 8.88826 7.76329 8.90863 7.66031C8.929 7.55734 8.97277 7.46042 9.03656 7.37706C9.10035 7.2937 9.18245 7.22611 9.27653 7.17954C9.3706 7.13296 9.47412 7.10863 9.57909 7.10844C9.96159 7.10844 10.2616 7.41594 10.2616 7.79094C10.2616 7.85094 10.2541 7.91094 10.2391 7.97094H10.2991C10.4116 7.97094 10.4941 7.87344 10.4716 7.76094C10.3741 7.26594 9.93909 6.89844 9.42159 6.89844ZM13.0891 6.89844C13.5916 6.89844 14.0116 7.24344 14.1241 7.70844C14.1541 7.84344 14.0566 7.97094 13.9216 7.97094H13.5916C13.6188 7.86957 13.6224 7.76329 13.602 7.66031C13.5817 7.55734 13.5379 7.46042 13.4741 7.37706C13.4103 7.2937 13.3282 7.22611 13.2341 7.17954C13.1401 7.13296 13.0366 7.10863 12.9316 7.10844C12.8417 7.10743 12.7525 7.1244 12.6692 7.15834C12.586 7.19229 12.5103 7.24252 12.4467 7.3061C12.3832 7.36968 12.3329 7.44531 12.299 7.52857C12.265 7.61183 12.2481 7.70103 12.2491 7.79094C12.2491 7.85094 12.2566 7.91094 12.2716 7.97094H12.2116C12.1854 7.97157 12.1594 7.96622 12.1356 7.95531C12.1118 7.94441 12.0908 7.92822 12.0742 7.90798C12.0575 7.88774 12.0457 7.86398 12.0397 7.8385C12.0336 7.81303 12.0334 7.7865 12.0391 7.76094C12.1366 7.26594 12.5641 6.89844 13.0891 6.89844Z" fill="#3C759A"/>
<path d="M9.57724 7.39455C9.6445 7.39385 9.71077 7.4107 9.76953 7.44342C9.82829 7.47614 9.87751 7.5236 9.91233 7.58114C9.94716 7.63868 9.96639 7.7043 9.96813 7.77153C9.96986 7.83877 9.95405 7.90529 9.92224 7.96455H9.23224C9.20093 7.90482 9.18559 7.83801 9.18769 7.7706C9.18979 7.70319 9.20927 7.63747 9.24424 7.5798C9.25355 7.59422 9.26584 7.60647 9.28028 7.61573C9.29472 7.625 9.31099 7.63105 9.32797 7.6335C9.34495 7.63594 9.36226 7.63471 9.37873 7.6299C9.3952 7.62509 9.41044 7.6168 9.42344 7.60559C9.43643 7.59438 9.44687 7.58052 9.45405 7.56494C9.46123 7.54935 9.46498 7.53241 9.46506 7.51526C9.46514 7.4981 9.46153 7.48112 9.45449 7.46548C9.44745 7.44983 9.43714 7.43587 9.42424 7.42455C9.47274 7.40447 9.52476 7.39427 9.57724 7.39455ZM12.9297 7.39455C12.881 7.39445 12.8327 7.40335 12.7872 7.4208C12.8011 7.4321 12.8123 7.44636 12.8199 7.46252C12.8275 7.47869 12.8315 7.49636 12.8314 7.51424C12.8313 7.53212 12.8273 7.54976 12.8195 7.56587C12.8118 7.58198 12.8005 7.59616 12.7866 7.60735C12.7726 7.61855 12.7563 7.62649 12.7389 7.6306C12.7215 7.6347 12.7034 7.63486 12.686 7.63107C12.6685 7.62728 12.6521 7.61963 12.6379 7.60869C12.6238 7.59774 12.6123 7.58377 12.6042 7.5678C12.5659 7.62618 12.5439 7.69376 12.5404 7.76352C12.537 7.83328 12.5523 7.90269 12.5847 7.96455H13.2747C13.3066 7.90529 13.3224 7.83877 13.3206 7.77153C13.3189 7.7043 13.2997 7.63868 13.2648 7.58114C13.23 7.5236 13.1808 7.47614 13.122 7.44342C13.0633 7.4107 12.997 7.39385 12.9297 7.39455ZM11.0172 7.73205L10.6197 9.01455C10.5372 9.27705 10.7322 9.54705 11.0097 9.54705H11.5947C11.8722 9.54705 12.0672 9.27705 11.9847 9.01455L11.5872 7.73205C11.5047 7.44705 11.1072 7.44705 11.0172 7.73205ZM10.1397 9.98955C10.4622 10.1621 10.8447 10.2596 11.2497 10.2596C11.6622 10.2596 12.0372 10.1621 12.3597 9.98955C12.4647 9.93705 12.5847 10.0571 12.5172 10.1621C12.2472 10.5746 11.7822 10.8521 11.2497 10.8521C10.7172 10.8521 10.2522 10.5746 9.98224 10.1621C9.91474 10.0571 10.0272 9.92955 10.1397 9.98955Z" fill="#3C759A"/>
<path d="M14.8351 2.29313C14.1526 1.62563 13.1176 1.35938 12.0376 1.35938H10.4551C9.37509 1.35938 8.34009 1.62488 7.65759 2.29313C7.13259 2.80613 6.84759 3.74663 7.05759 4.80413L7.10859 4.79813C7.00959 4.88213 6.91134 4.97063 6.81459 5.06288L6.56409 5.30063L6.92784 5.75288L6.93759 6.16088C6.93909 6.22088 6.94209 6.28088 6.94584 6.34088L6.95709 6.50138C6.66664 6.64028 6.42467 6.86332 6.26263 7.14152C6.10059 7.41973 6.02596 7.74024 6.04845 8.06141C6.07093 8.38258 6.18949 8.68957 6.38871 8.94248C6.58793 9.1954 6.85861 9.38255 7.16559 9.47963L7.23834 10.5259L7.23909 10.5356C7.27284 10.8799 7.36134 11.2016 7.49484 11.4941C7.57509 11.6696 7.67184 11.8346 7.78359 11.9869L7.51509 12.0956C6.04569 12.7944 4.80555 13.897 3.93962 15.2745C3.07369 16.652 2.61775 18.2476 2.62509 19.8746V22.4996C2.62509 22.5991 2.6646 22.6945 2.73492 22.7648C2.80525 22.8351 2.90063 22.8746 3.00009 22.8746H19.4926C19.5263 22.8746 19.5601 22.8694 19.5931 22.8596H19.5976C19.8701 22.8596 20.1314 22.7514 20.3241 22.5587C20.5168 22.366 20.6251 22.1046 20.6251 21.8321V19.1981C20.6251 19.1568 20.6226 19.1154 20.6176 19.0744V17.6831C20.6171 17.506 20.5749 17.3314 20.4944 17.1736C20.4139 17.0158 20.2973 16.8792 20.1541 16.7749C20.011 16.6706 19.8452 16.6015 19.6703 16.5732C19.4954 16.5449 19.3164 16.5583 19.1476 16.6121V15.7991C19.1476 15.7241 19.1926 15.6491 19.2601 15.6116C19.8526 15.2966 20.2501 14.6741 20.2501 13.9616C20.2426 13.2641 19.8451 12.6416 19.2601 12.3266C19.1176 12.2516 18.9376 12.3491 18.9376 12.5141V13.6766C18.9376 13.9916 18.6826 14.2541 18.3676 14.2466C18.2207 14.2437 18.0809 14.183 17.9784 14.0777C17.876 13.9724 17.8191 13.831 17.8201 13.6841V12.5141C17.8201 12.3491 17.6401 12.2441 17.4976 12.3191C17.2251 12.465 16.9933 12.6765 16.823 12.9344C16.6528 13.1924 16.5496 13.4887 16.5226 13.7966V14.1334C16.5818 14.7821 16.9801 15.3394 17.5351 15.6266C17.6026 15.6641 17.6476 15.7391 17.6476 15.8141V18.1721H17.1226C17.0904 18.1723 17.0584 18.1766 17.0273 18.1849C16.843 18.2035 16.6678 18.2745 16.5226 18.3896V15.7999C16.2218 15.4974 15.9999 15.1257 15.8763 14.7175C15.7527 14.3092 15.7313 13.8769 15.8138 13.4584L15.8198 13.4629C15.8692 13.2091 15.9561 12.9642 16.0778 12.7361C15.7268 12.4961 15.3593 12.2809 14.9776 12.0941L14.9873 12.0806C14.8893 12.0496 14.7897 12.0241 14.6888 12.0041C15.0047 11.5744 15.1973 11.0667 15.2461 10.5356V10.5259L15.3196 9.48263C15.6286 9.3868 15.9014 9.19983 16.1023 8.94622C16.3032 8.69262 16.4228 8.38422 16.4453 8.06147C16.4679 7.73873 16.3923 7.41671 16.2287 7.13764C16.065 6.85857 15.8208 6.63548 15.5281 6.49763L15.5393 6.34013C15.5431 6.28463 15.5461 6.22913 15.5476 6.17363L15.5588 5.79713L15.9586 5.30063L15.7081 5.06288C15.6139 4.97327 15.5171 4.88648 15.4178 4.80262L15.4351 4.80413C15.6451 3.75263 15.3601 2.80613 14.8351 2.29313ZM14.7616 6.71288L14.4991 10.4681C14.3873 11.5916 13.5098 12.3746 12.4501 12.3746H10.0351C9.67186 12.3771 9.31467 12.2817 9.00108 12.0984C8.68749 11.9151 8.4291 11.6506 8.25309 11.3329C8.10549 11.0661 8.01459 10.7717 7.98609 10.4681L7.72359 6.71213C7.94784 6.73238 8.17959 6.68963 8.38884 6.57788L8.39709 6.57338C8.4729 6.6447 8.57351 6.6837 8.67759 6.68213C8.76009 6.68213 8.85009 6.65963 8.92509 6.60713C8.94009 6.59213 9.31509 6.31463 9.87759 6.38963C9.93834 6.39685 9.99994 6.39046 10.0579 6.37094C10.1159 6.35141 10.1688 6.31923 10.2128 6.27673C10.2568 6.23423 10.2908 6.18247 10.3124 6.1252C10.3339 6.06793 10.3424 6.00659 10.3373 5.94563C10.9426 5.85714 11.5576 5.85714 12.1628 5.94563C12.1577 6.00659 12.1663 6.06793 12.1878 6.1252C12.2093 6.18247 12.2433 6.23423 12.2873 6.27673C12.3314 6.31923 12.3843 6.35141 12.4423 6.37094C12.5002 6.39046 12.5618 6.39685 12.6226 6.38963C13.1618 6.32438 13.5301 6.57713 13.5721 6.60488L13.5751 6.60713C13.6501 6.65963 13.7326 6.68963 13.8226 6.68963C13.9284 6.68749 14.0301 6.64759 14.1091 6.57713C14.3146 6.68888 14.5418 6.73163 14.7616 6.71288ZM15.3803 8.61413L15.4673 7.36613C15.5477 7.45175 15.6096 7.55307 15.649 7.66371C15.6884 7.77436 15.7045 7.89195 15.6963 8.00912C15.6882 8.12629 15.6559 8.24051 15.6015 8.34462C15.5471 8.44873 15.4718 8.54048 15.3803 8.61413ZM7.10409 8.60813C7.01481 8.53444 6.94146 8.44336 6.8885 8.34042C6.83553 8.23749 6.80406 8.12487 6.79599 8.00939C6.78792 7.89391 6.80343 7.778 6.84157 7.6687C6.87971 7.55941 6.93968 7.45901 7.01784 7.37363L7.10409 8.60813ZM13.0726 13.0564C13.3591 12.9919 13.6291 12.8839 13.8751 12.7384V15.8096C13.8751 15.8246 13.8713 15.8321 13.8691 15.8366C13.8647 15.843 13.8588 15.8482 13.8518 15.8516C13.8449 15.8553 13.8372 15.8571 13.8293 15.8569C13.8241 15.8567 13.819 15.8554 13.8143 15.8531L11.9513 14.2444C12.2136 14.1401 12.4498 13.9797 12.6435 13.7745C12.8372 13.5693 12.9836 13.3242 13.0726 13.0564ZM12.0211 13.1246H12.2086C12.1009 13.2795 11.9574 13.406 11.7902 13.4934C11.623 13.5808 11.4372 13.6264 11.2486 13.6264C11.06 13.6264 10.8741 13.5808 10.707 13.4934C10.5398 13.406 10.3963 13.2795 10.2886 13.1246H12.0151H12.0211ZM8.62509 12.7474C8.87109 12.8906 9.14034 12.9971 9.42609 13.0594C9.51441 13.3272 9.66067 13.5724 9.85446 13.7773C10.0483 13.9822 10.2848 14.142 10.5473 14.2451L8.68509 15.8531C8.68064 15.8553 8.67579 15.8566 8.67084 15.8569C8.66301 15.8571 8.65525 15.8553 8.64834 15.8516C8.64139 15.8482 8.63545 15.843 8.63109 15.8366C8.62648 15.8284 8.62439 15.819 8.62509 15.8096V12.7474ZM8.64834 4.69238C9.46666 4.31161 10.3583 4.11427 11.2609 4.11414C12.1635 4.11401 13.0552 4.3111 13.8736 4.69163C14.2493 4.86863 14.5958 5.08988 14.9356 5.37638L14.8501 5.48138L14.8486 5.48438C14.793 5.55349 14.7148 5.60068 14.6277 5.61757C14.5407 5.63446 14.4505 5.61995 14.3731 5.57663H14.3716C13.4193 5.05538 12.3506 4.78369 11.2651 4.78688C10.1796 4.78346 9.1109 5.05489 8.15859 5.57588L8.15709 5.57737C8.07756 5.62065 7.98537 5.63466 7.89657 5.61699C7.80777 5.59931 7.72798 5.55106 7.67109 5.48063L7.58709 5.37563C7.9065 5.09981 8.26296 4.87007 8.64609 4.69313L8.64834 4.69238ZM14.9701 12.9334V16.9421C14.9701 17.1146 14.8351 17.2496 14.6626 17.2496H7.86009C7.68759 17.2496 7.55259 17.1146 7.55259 16.9421V12.9161C7.65834 12.8599 7.76634 12.8066 7.87509 12.7556V15.8096C7.87509 16.4599 8.60109 16.8296 9.12609 16.4621L9.14109 16.4509L11.1841 14.6861C11.2025 14.6703 11.2259 14.6617 11.2501 14.6617C11.2743 14.6617 11.2977 14.6703 11.3161 14.6861L13.3591 16.4509L13.3741 16.4614C13.8991 16.8304 14.6251 16.4599 14.6251 15.8096V12.7586C14.7413 12.8141 14.8568 12.8719 14.9701 12.9334ZM6.00009 13.9924V22.1246H3.37509V19.8746C3.37045 18.7641 3.60212 17.6652 4.05469 16.6511C4.50727 15.6369 5.17041 14.7306 6.00009 13.9924ZM19.8676 18.1399H19.1476V17.5376C19.1765 17.4699 19.2246 17.4122 19.2858 17.3714C19.3471 17.3306 19.419 17.3086 19.4926 17.3081C19.6981 17.3081 19.8676 17.4776 19.8676 17.6831V18.1399ZM17.1226 22.1096C17.0063 22.1096 16.9246 22.0211 16.9201 21.9326C16.9197 21.8991 16.9274 21.866 16.9427 21.8362C16.958 21.8064 16.9804 21.7808 17.0078 21.7616C17.0601 21.7268 17.1027 21.6794 17.1319 21.6238C17.1611 21.5682 17.1758 21.5062 17.1747 21.4434C17.1737 21.3806 17.1569 21.3191 17.1259 21.2645C17.0949 21.2099 17.0507 21.1639 16.9973 21.1309C16.9728 21.1153 16.9528 21.0937 16.9393 21.068C16.9257 21.0424 16.9191 21.0136 16.9201 20.9846C16.9201 20.9261 16.9531 20.8676 17.0048 20.8346C17.0579 20.8002 17.1014 20.7529 17.1312 20.6971C17.1611 20.6413 17.1763 20.5789 17.1756 20.5157C17.1748 20.4524 17.1581 20.3904 17.1269 20.3354C17.0958 20.2803 17.0512 20.2341 16.9973 20.2009C16.9728 20.1853 16.9528 20.1637 16.9393 20.138C16.9257 20.1124 16.9191 20.0836 16.9201 20.0546C16.9201 19.9961 16.9531 19.9376 17.0048 19.9046C17.057 19.8708 17.0999 19.8244 17.1297 19.7698C17.1595 19.7153 17.1753 19.6541 17.1756 19.5919C17.1759 19.5297 17.1607 19.4685 17.1314 19.4136C17.1021 19.3587 17.0597 19.312 17.0078 19.2776C16.9806 19.2605 16.9582 19.2367 16.9429 19.2085C16.9275 19.1802 16.9197 19.1485 16.9201 19.1164V19.1111C16.9223 19.0211 17.0048 18.9296 17.1226 18.9296C17.1478 18.9297 17.1729 18.9271 17.1976 18.9221H19.5976C19.7326 18.9221 19.8451 19.0181 19.8698 19.1456L19.8751 19.2011V21.8321C19.8751 21.9057 19.8459 21.9763 19.7938 22.0283C19.7418 22.0804 19.6712 22.1096 19.5976 22.1096H19.4851H17.1226ZM10.2751 19.3046C10.2751 19.8446 9.84759 20.2721 9.30759 20.2721H8.22009C7.68759 20.2721 7.25259 19.8371 7.25259 19.3046C7.25259 18.7721 7.68759 18.3371 8.22009 18.3371H9.30759C9.84009 18.3371 10.2751 18.7721 10.2751 19.3046Z" fill="#3C759A"/>
</svg>
