<svg width="24" height="22" viewBox="0 0 24 22" fill="none" xmlns="http://www.w3.org/2000/svg">
<path d="M14.4375 0.00095482C14.6237 0.00095482 14.7848 0.0735211 14.9209 0.218654L21.7959 7.55167C21.932 7.6968 22 7.86867 22 8.06727C22 8.26587 21.932 8.43774 21.7959 8.58287L19.1855 11.3671C19.3646 11.5581 19.54 11.7414 19.7119 11.9171C19.8838 12.0928 20.0342 12.2723 20.1631 12.4556C20.292 12.6389 20.3994 12.8452 20.4854 13.0743C20.5713 13.3035 20.6143 13.5594 20.6143 13.842C20.6143 14.1476 20.5605 14.4378 20.4531 14.7128C20.3457 14.9878 20.1989 15.2284 20.0127 15.4347C19.8265 15.6409 19.6081 15.8051 19.3574 15.9273C19.1068 16.0496 18.8382 16.1145 18.5518 16.1221C18.5374 16.4353 18.4766 16.7218 18.3691 16.9815C18.2617 17.2412 18.1185 17.4703 17.9395 17.6689C17.7604 17.8675 17.5456 18.0241 17.2949 18.1387C17.0443 18.2533 16.7757 18.3144 16.4893 18.322C16.4821 18.6276 16.4212 18.914 16.3066 19.1814C16.1921 19.4487 16.0381 19.6817 15.8447 19.8803C15.6514 20.0789 15.4258 20.2393 15.168 20.3615C14.9102 20.4837 14.638 20.541 14.3516 20.5334C14.1224 20.5334 13.8896 20.4914 13.6533 20.4074C13.5745 20.6442 13.4707 20.858 13.3418 21.049C13.2129 21.24 13.0553 21.408 12.8691 21.5531C12.6829 21.6983 12.486 21.809 12.2783 21.8854C12.0706 21.9618 11.8451 22 11.6016 22C11.4154 22 11.2507 21.9847 11.1074 21.9542C10.9642 21.9236 10.8317 21.8701 10.71 21.7938C10.5882 21.7174 10.4665 21.6333 10.3447 21.5417C10.223 21.45 10.0977 21.3393 9.96875 21.2094C9.7181 21.4538 9.47461 21.6448 9.23828 21.7823C9.00195 21.9198 8.70117 21.9924 8.33594 22C8.04948 22 7.77734 21.9427 7.51953 21.8281C7.26172 21.7136 7.03613 21.557 6.84277 21.3584C6.64941 21.1598 6.49544 20.9268 6.38086 20.6594C6.26628 20.3921 6.2054 20.1018 6.19824 19.7886C5.91895 19.781 5.65397 19.7199 5.40332 19.6053C5.15267 19.4907 4.93424 19.3341 4.74805 19.1355C4.56185 18.9369 4.41504 18.704 4.30762 18.4366C4.2002 18.1693 4.1429 17.8866 4.13574 17.5887C3.84928 17.5811 3.58431 17.52 3.34082 17.4054C3.09733 17.2908 2.88249 17.1342 2.69629 16.9356C2.51009 16.737 2.36328 16.5041 2.25586 16.2367C2.14844 15.9694 2.08757 15.6867 2.07324 15.3888C1.77962 15.3812 1.50749 15.3163 1.25684 15.194C1.00618 15.0718 0.78776 14.9076 0.601563 14.7014C0.415365 14.4951 0.268555 14.2583 0.161133 13.991C0.0537109 13.7236 0 13.4334 0 13.1202C0 12.807 0.0537109 12.5129 0.161133 12.2379C0.268555 11.9629 0.426107 11.7147 0.633789 11.4932L1.77246 10.2672L0.204102 8.58287C0.0680338 8.43774 0 8.26587 0 8.06727C0 7.86867 0.0680338 7.6968 0.204102 7.55167L7.0791 0.218654C7.21517 0.0735211 7.3763 0.00095482 7.5625 0.00095482C7.7487 0.00095482 7.90983 0.0735211 8.0459 0.218654L9.46387 1.73109C9.55697 1.70053 9.736 1.63561 10.001 1.5363C10.266 1.437 10.5775 1.32624 10.9355 1.20403C11.2936 1.08181 11.6624 0.948136 12.042 0.803003C12.4215 0.657871 12.7868 0.528015 13.1377 0.413437C13.4886 0.298859 13.7786 0.199557 14.0078 0.115533C14.237 0.031509 14.3802 -0.00668374 14.4375 0.00095482ZM3.35156 11.0005C3.14388 11.0005 2.96484 11.0807 2.81445 11.2411L1.60059 12.5244C1.4502 12.6848 1.375 12.8796 1.375 13.1087C1.375 13.3379 1.44661 13.5288 1.58984 13.6816C1.73307 13.8344 1.91569 13.9146 2.1377 13.9222C2.3597 13.9222 2.54232 13.8458 2.68555 13.6931L3.89941 12.4098C4.0498 12.2494 4.125 12.0546 4.125 11.8254C4.125 11.5963 4.0498 11.4015 3.89941 11.2411C3.74902 11.0807 3.56641 11.0005 3.35156 11.0005ZM5.41406 13.2004C5.3138 13.2004 5.21712 13.2195 5.12402 13.2577C5.03092 13.2959 4.94499 13.357 4.86621 13.441L3.66309 14.7357C3.5127 14.8961 3.4375 15.0909 3.4375 15.3201C3.4375 15.5416 3.5127 15.7287 3.66309 15.8815C3.81348 16.0343 3.99609 16.1145 4.21094 16.1221C4.3112 16.1221 4.40788 16.103 4.50098 16.0648C4.59408 16.0266 4.68001 15.9694 4.75879 15.893L5.96191 14.5982C6.1123 14.4378 6.1875 14.2469 6.1875 14.0253C6.1875 13.7962 6.1123 13.6014 5.96191 13.441C5.81152 13.2806 5.62891 13.2004 5.41406 13.2004ZM7.47656 15.4003C7.26888 15.4003 7.08984 15.4805 6.93945 15.6409L5.72559 16.9242C5.5752 17.0846 5.5 17.2794 5.5 17.5085C5.5 17.7377 5.57161 17.9286 5.71484 18.0814C5.85807 18.2342 6.04069 18.3144 6.2627 18.322C6.4847 18.322 6.66732 18.2456 6.81055 18.0929L8.02441 16.8096C8.1748 16.6492 8.25 16.4544 8.25 16.2253C8.25 15.9961 8.1748 15.8013 8.02441 15.6409C7.87402 15.4805 7.69141 15.4003 7.47656 15.4003ZM7.5625 19.7199C7.5625 19.9414 7.6377 20.1286 7.78809 20.2813C7.93848 20.4341 8.12109 20.5143 8.33594 20.5219C8.4362 20.5219 8.53288 20.5028 8.62598 20.4647C8.71908 20.4265 8.80501 20.3692 8.88379 20.2928L10.0869 18.998C10.2373 18.8376 10.3125 18.6467 10.3125 18.4252C10.3125 18.196 10.2373 18.0012 10.0869 17.8408C9.93652 17.6804 9.75391 17.6002 9.53906 17.6002C9.4388 17.6002 9.34212 17.6193 9.24902 17.6575C9.15592 17.6957 9.06999 17.7568 8.99121 17.8408L7.78809 19.1355C7.6377 19.296 7.5625 19.4907 7.5625 19.7199ZM18.4766 14.667C18.6842 14.667 18.8633 14.5868 19.0137 14.4264C19.1641 14.266 19.2428 14.075 19.25 13.8535C19.25 13.6243 19.1748 13.4295 19.0244 13.2691L12.2354 6.01632C12.2139 5.9934 12.1781 5.97431 12.1279 5.95903C12.0778 5.94375 12.0277 5.92847 11.9775 5.9132C11.9274 5.89792 11.8737 5.88646 11.8164 5.87882C11.7591 5.87119 11.7161 5.86737 11.6875 5.86737C11.5013 5.86737 11.3258 5.90556 11.1611 5.98194C10.9964 6.05833 10.8496 6.16145 10.7207 6.29131C10.5918 6.42116 10.4915 6.57775 10.4199 6.76108C10.3483 6.9444 10.3125 7.13537 10.3125 7.33397C10.3125 7.73881 10.2409 8.11692 10.0977 8.4683C9.95443 8.81967 9.75749 9.13285 9.50684 9.40784C9.25619 9.68283 8.96615 9.89289 8.63672 10.038C8.30729 10.1832 7.94922 10.2595 7.5625 10.2672C7.27604 10.2672 7.00749 10.2099 6.75684 10.0953C6.50619 9.98073 6.28776 9.82414 6.10156 9.62554C5.91536 9.42693 5.76855 9.19396 5.66113 8.92661C5.55371 8.65926 5.5 8.37281 5.5 8.06727C5.5 7.88395 5.5179 7.68152 5.55371 7.46001C5.58952 7.23849 5.64681 7.03988 5.72559 6.8642L7.73438 2.56751C7.79883 2.44529 7.89551 2.34599 8.02441 2.26961L7.5625 1.77692L1.6543 8.06727L3.10449 9.60262C3.42676 9.56443 3.73112 9.58734 4.01758 9.67137C4.30404 9.75539 4.55469 9.89671 4.76953 10.0953C4.98438 10.2939 5.15625 10.5345 5.28516 10.8172C5.41406 11.0998 5.4821 11.4168 5.48926 11.7682C5.77572 11.7834 6.04427 11.8445 6.29492 11.9515C6.54557 12.0584 6.76042 12.2112 6.93945 12.4098C7.11849 12.6084 7.2653 12.8376 7.37988 13.0973C7.49447 13.357 7.55176 13.6472 7.55176 13.9681C7.83822 13.9833 8.10677 14.0444 8.35742 14.1514C8.60807 14.2583 8.82292 14.4111 9.00195 14.6097C9.18099 14.8083 9.3278 15.0375 9.44238 15.2972C9.55697 15.5569 9.61426 15.8471 9.61426 16.168C9.90788 16.1832 10.18 16.2482 10.4307 16.3627C10.6813 16.4773 10.8997 16.6339 11.0859 16.8325C11.2721 17.0311 11.4189 17.2679 11.5264 17.5429C11.6338 17.8179 11.6875 18.112 11.6875 18.4252C11.6875 18.7689 11.623 19.0897 11.4941 19.3876C11.3652 19.6855 11.179 19.9452 10.9355 20.1667C11.043 20.2737 11.1396 20.3615 11.2256 20.4303C11.3115 20.499 11.4368 20.5334 11.6016 20.5334C11.8092 20.5334 11.9883 20.4532 12.1387 20.2928C12.2891 20.1324 12.3678 19.9414 12.375 19.7199C12.375 19.4907 12.2998 19.296 12.1494 19.1355L13.1162 18.0929L13.8145 18.8262C13.9792 18.9866 14.1582 19.0668 14.3516 19.0668C14.5592 19.0668 14.7383 18.9866 14.8887 18.8262C15.0391 18.6658 15.1178 18.4748 15.125 18.2533C15.125 18.0241 15.0498 17.8293 14.8994 17.6689L13.6855 16.3742L14.6631 15.343L15.8662 16.6263C16.0166 16.7867 16.1992 16.8669 16.4141 16.8669C16.6289 16.8669 16.8115 16.7867 16.9619 16.6263C17.1123 16.4659 17.1875 16.2711 17.1875 16.0419C17.1875 15.8128 17.1123 15.618 16.9619 15.4576L15.748 14.1743L16.7256 13.1316L17.9395 14.4264C18.0898 14.5868 18.2689 14.667 18.4766 14.667ZM20.335 8.06727L14.2549 1.57068L8.84082 3.49559L6.97168 7.48292C6.93587 7.55167 6.91081 7.64715 6.89648 7.76937C6.88216 7.89158 6.875 7.99089 6.875 8.06727C6.875 8.26587 6.94303 8.43774 7.0791 8.58287C7.21517 8.72801 7.3763 8.80057 7.5625 8.80057C7.75586 8.80057 7.9349 8.76238 8.09961 8.68599C8.26432 8.60961 8.40755 8.50649 8.5293 8.37663C8.65104 8.24678 8.7513 8.09019 8.83008 7.90686C8.90885 7.72354 8.94466 7.53257 8.9375 7.33397C8.9375 6.92913 9.00911 6.55102 9.15234 6.19964C9.29557 5.84827 9.49251 5.53509 9.74316 5.2601C9.99382 4.98511 10.2839 4.77505 10.6133 4.62992C10.9427 4.48479 11.3008 4.4084 11.6875 4.40076C11.8021 4.40076 11.9238 4.41222 12.0527 4.43514C12.1816 4.45805 12.3177 4.48861 12.4609 4.5268C12.6042 4.56499 12.7295 4.61846 12.8369 4.68721C12.9443 4.75596 13.0482 4.83616 13.1484 4.92782L18.2188 10.3359L20.335 8.06727Z" fill="#EC8F67"/>
</svg>
