<svg width="26" height="24" viewBox="0 0 26 24" fill="none" xmlns="http://www.w3.org/2000/svg">
<path d="M20.8813 6.975L15.1938 1.725C15.0313 1.575 14.8687 1.5 14.625 1.5H6.5C5.60625 1.5 4.875 2.175 4.875 3V21C4.875 21.825 5.60625 22.5 6.5 22.5H19.5C20.3938 22.5 21.125 21.825 21.125 21V7.5C21.125 7.275 21.0438 7.125 20.8813 6.975ZM14.625 3.3L19.175 7.5H14.625V3.3ZM19.5 21H6.5V3H13V7.5C13 8.325 13.7312 9 14.625 9H19.5V21Z" fill="#3C759A"/>
<path d="M8.125 16.5H17.875V18H8.125V16.5ZM8.125 12H17.875V13.5H8.125V12Z" fill="#3C759A"/>
</svg>
