<svg width="40" height="39" viewBox="0 0 40 39" fill="none" xmlns="http://www.w3.org/2000/svg">
<path d="M20.0013 6.5C21.7694 6.5 23.4651 7.18482 24.7153 8.40381C25.9656 9.62279 26.668 11.2761 26.668 13C26.668 14.7239 25.9656 16.3772 24.7153 17.5962C23.4651 18.8152 21.7694 19.5 20.0013 19.5C18.2332 19.5 16.5375 18.8152 15.2873 17.5962C14.037 16.3772 13.3346 14.7239 13.3346 13C13.3346 11.2761 14.037 9.62279 15.2873 8.40381C16.5375 7.18482 18.2332 6.5 20.0013 6.5ZM20.0013 22.75C27.368 22.75 33.3346 25.6588 33.3346 29.25V32.5H6.66797V29.25C6.66797 25.6588 12.6346 22.75 20.0013 22.75Z" fill="#4E1F4F" fill-opacity="0.25"/>
</svg>
