<svg width="16" height="16" viewBox="0 0 16 16" fill="none" xmlns="http://www.w3.org/2000/svg">
<g clip-path="url(#clip0_2704_164)">
<path fill-rule="evenodd" clip-rule="evenodd" d="M12.5 6C12.5021 6.96422 12.1924 7.90326 11.617 8.677L8 13.5L4.383 8.677C3.95951 8.10484 3.67779 7.44038 3.56099 6.73818C3.44419 6.03599 3.49564 5.31611 3.71111 4.63767C3.92659 3.95922 4.29994 3.34158 4.8005 2.83546C5.30106 2.32934 5.91454 1.94919 6.59057 1.72624C7.26659 1.50328 7.98586 1.44389 8.6893 1.55292C9.39274 1.66196 10.0603 1.93632 10.6371 2.35347C11.2139 2.77062 11.6835 3.31866 12.0073 3.95257C12.3312 4.58647 12.5 5.28816 12.5 6ZM14 6C14 7.34 13.561 8.576 12.82 9.574L8.937 14.75L8 16L7.062 14.75L3.18 9.574C2.61469 8.81143 2.23838 7.9256 2.08199 6.98931C1.9256 6.05302 1.99359 5.09298 2.28039 4.18808C2.56718 3.28318 3.06459 2.45923 3.73175 1.78395C4.3989 1.10867 5.21676 0.601319 6.11812 0.303586C7.01948 0.00585285 7.97863 -0.0737652 8.91675 0.0712734C9.85486 0.216312 10.7452 0.581868 11.5145 1.13791C12.2839 1.69394 12.9104 2.42459 13.3424 3.26982C13.7745 4.11505 13.9999 5.05074 14 6ZM8 8C8.53043 8 9.03914 7.78929 9.41421 7.41422C9.78929 7.03914 10 6.53044 10 6C10 5.46957 9.78929 4.96086 9.41421 4.58579C9.03914 4.21072 8.53043 4 8 4C7.46957 4 6.96086 4.21072 6.58579 4.58579C6.21071 4.96086 6 5.46957 6 6C6 6.53044 6.21071 7.03914 6.58579 7.41422C6.96086 7.78929 7.46957 8 8 8Z" fill="white"/>
</g>
<defs>
<clipPath id="clip0_2704_164">
<path d="M0 8C0 3.58172 3.58172 0 8 0C12.4183 0 16 3.58172 16 8C16 12.4183 12.4183 16 8 16C3.58172 16 0 12.4183 0 8Z" fill="white"/>
</clipPath>
</defs>
</svg>
