<svg width="22" height="24" viewBox="0 0 22 24" fill="none" xmlns="http://www.w3.org/2000/svg">
<g clip-path="url(#clip0_2704_22)">
<path d="M14.5197 4C14.9732 3.99998 15.4197 4.12232 15.8193 4.35611C16.219 4.58991 16.5595 4.9279 16.8104 5.34L16.9067 5.512L18.7345 9H19.7997C19.8842 8.99998 19.9661 9.03182 20.0316 9.09014C20.0971 9.14845 20.1421 9.22965 20.159 9.32L20.1663 9.4V9.875C20.1664 10.0348 20.1227 10.191 20.0407 10.3234C19.9586 10.4559 19.8421 10.5585 19.7062 10.618L19.5888 10.658C19.9323 11.4362 20.0852 12.2982 20.0325 13.16L20.0078 13.447L19.3432 19.248C19.2909 19.7048 19.0957 20.128 18.7906 20.4461C18.4855 20.7642 18.0891 20.9577 17.6684 20.994L17.5236 21H16.4997C16.0371 21.0002 15.5917 20.8096 15.2525 20.4665C14.9134 20.1234 14.7056 19.6532 14.6709 19.15L14.6663 19H7.33301C7.33315 19.5046 7.15847 19.9906 6.84397 20.3605C6.52947 20.7305 6.0984 20.9572 5.63717 20.995L5.49967 21H4.47576C4.05363 21.0003 3.64435 20.8416 3.31702 20.5509C2.98968 20.2601 2.76436 19.855 2.67909 19.404L2.65617 19.248L1.99159 13.448C1.89339 12.5901 2.00077 11.7191 2.30326 10.92L2.41051 10.657L2.38851 10.652C2.24626 10.6133 2.11792 10.529 2.02004 10.4099C1.92217 10.2908 1.85925 10.1425 1.83942 9.984L1.83301 9.875V9.4C1.83299 9.30779 1.86218 9.2184 1.91563 9.14697C1.96909 9.07553 2.04352 9.02644 2.12634 9.008L2.19967 9H3.26576L5.09267 5.512C5.31771 5.08233 5.63669 4.72006 6.02118 4.45747C6.40567 4.19488 6.84374 4.04012 7.29634 4.007L7.47967 4H14.5197ZM18.113 12.036C17.639 12.6027 16.9815 12.9459 16.2797 12.993L16.0908 13H5.90851C5.5285 13.0027 5.15222 12.9183 4.80403 12.7522C4.45583 12.5861 4.1435 12.3421 3.88726 12.036C3.81158 12.3381 3.77972 12.6512 3.79284 12.964L3.81117 13.199L4.47576 19H5.49967V18C5.4997 17.7551 5.58213 17.5187 5.73133 17.3356C5.88053 17.1526 6.08611 17.0357 6.30909 17.007L6.41634 17H15.583C15.8075 17 16.0242 17.09 16.192 17.2527C16.3598 17.4155 16.467 17.6397 16.4933 17.883L16.4997 18V19H17.5236L18.1882 13.199C18.234 12.807 18.2074 12.412 18.113 12.036ZM5.25859 13.898L7.77301 15.38C8.11492 15.582 7.97284 16.149 7.58417 16.132L5.46301 16.039C5.22646 16.0287 5.00275 15.9189 4.83872 15.7327C4.67469 15.5465 4.58306 15.2983 4.58301 15.04V14.34C4.58296 14.2534 4.60355 14.1682 4.64275 14.0929C4.68195 14.0176 4.73842 13.9546 4.80663 13.9103C4.87484 13.8659 4.95244 13.8416 5.03183 13.8398C5.11122 13.838 5.18967 13.8588 5.25951 13.9L5.25859 13.898ZM17.4154 14.338V15.039C17.4156 15.2974 17.3241 15.5459 17.16 15.7323C16.996 15.9188 16.7721 16.0287 16.5354 16.039L14.4143 16.131C14.0256 16.148 13.8826 15.581 14.2254 15.379L16.7389 13.899C16.8088 13.8578 16.8872 13.837 16.9666 13.8388C17.046 13.8406 17.1236 13.8649 17.1918 13.9093C17.26 13.9536 17.3165 14.0166 17.3557 14.0919C17.3949 14.1672 17.4155 14.2514 17.4154 14.338ZM14.5197 6H7.47967C7.3181 6.00006 7.15941 6.0467 7.01968 6.13521C6.87995 6.22372 6.76415 6.35095 6.68401 6.504L5.11284 9.504C5.03322 9.65606 4.9916 9.82826 4.99214 10.0034C4.99268 10.1785 5.03537 10.3504 5.11593 10.5019C5.19649 10.6533 5.3121 10.7791 5.45119 10.8665C5.59029 10.9539 5.74798 10.9999 5.90851 11H16.0908C16.2514 10.9999 16.4091 10.9539 16.5482 10.8665C16.6872 10.7791 16.8029 10.6533 16.8834 10.5019C16.964 10.3504 17.0067 10.1785 17.0072 10.0034C17.0077 9.82826 16.9661 9.65606 16.8865 9.504L15.3153 6.504C15.2351 6.3508 15.1192 6.22348 14.9793 6.13496C14.8394 6.04644 14.6805 5.99988 14.5188 6H14.5197Z" fill="white"/>
</g>
<defs>
<clipPath id="clip0_2704_22">
<path d="M0 10C0 4.47715 4.47715 0 10 0H12C17.5228 0 22 4.47715 22 10V14C22 19.5228 17.5228 24 12 24H10C4.47715 24 0 19.5228 0 14V10Z" fill="white"/>
</clipPath>
</defs>
</svg>
