<svg width="18" height="14" viewBox="0 0 18 14" fill="none" xmlns="http://www.w3.org/2000/svg">
<path d="M14.625 3.5H16.875V14H2.25V3.5H4.5V2.625H5.625V3.5H13.5V2.625H14.625V3.5ZM15.75 4.375H14.625V5.25H15.75V4.375ZM13.5 4.375H5.625V5.25H13.5V4.375ZM4.5 4.375H3.375V5.25H4.5V4.375ZM3.375 13.125H15.75V6.125H3.375V13.125ZM2.25 2.625V1.75H1.125V11.375H0V0.875H2.25V0H3.375V0.875H11.25V0H12.375V0.875H14.625V1.75H12.375V2.625H11.25V1.75H3.375V2.625H2.25ZM5.625 9.625V8.75H6.75V9.625H5.625ZM7.875 9.625V8.75H9V9.625H7.875ZM10.125 9.625V8.75H11.25V9.625H10.125ZM12.375 9.625V8.75H13.5V9.625H12.375ZM5.625 11.375V10.5H6.75V11.375H5.625ZM7.875 11.375V10.5H9V11.375H7.875ZM10.125 11.375V10.5H11.25V11.375H10.125ZM7.875 7.875V7H9V7.875H7.875ZM10.125 7.875V7H11.25V7.875H10.125ZM12.375 7.875V7H13.5V7.875H12.375Z" fill="white"/>
</svg>
